<?xml version="1.0"?>
<COLLADA xmlns="http://www.collada.org/2005/11/COLLADASchema" version="1.4.1">
    <asset>
        <contributor>
            <authoring_tool>J3D Ripoff Exporter</authoring_tool>
        </contributor>
        <created>2023-01-26T05:20:12.537Z</created>
        <modified>2023-01-26T05:20:12.537Z</modified>
		<unit meter="0.01" name="centimeter" ></unit>
        <up_axis>Y_UP</up_axis>
    </asset>
    <library_images>
        <image id="tex0">
            <init_from>PlanetSun.png</init_from>
        </image>
        <image id="tex1">
            <init_from>OrbitUniverseL.png</init_from>
        </image>
        <image id="tex2">
            <init_from>Galaxy.png</init_from>
        </image>
        <image id="tex3">
            <init_from>GalaxyRiverK.png</init_from>
        </image>
        <image id="tex4">
            <init_from>Skyk.png</init_from>
        </image>
        <image id="tex5">
            <init_from>EarthKsMM.png</init_from>
        </image>
        <image id="tex6">
            <init_from>Cloud01k.png</init_from>
        </image>
        <image id="tex7">
            <init_from>EarthFarK.png</init_from>
        </image>
        <image id="tex8">
            <init_from>NightCityk.png</init_from>
        </image>
    </library_images>
    <library_effects>
        <effect id="effect0">
            <profile_COMMON>
                <newparam sid="surface0">
                    <surface type="2D">
                        <init_from>tex8</init_from>
                    </surface>
                </newparam>
                <newparam sid="sampler0">
                    <sampler2D>
                        <source>surface0</source>
                    </sampler2D>
                </newparam>
                <technique sid="COMMON">
                    <blinn>
                        <diffuse>
                            <texture texture="sampler0" texcoord="UVSET0"></texture>
                        </diffuse>
                    </blinn>
                </technique>
            </profile_COMMON>
        </effect>
        <effect id="effect1">
            <profile_COMMON>
                <newparam sid="surface1">
                    <surface type="2D">
                        <init_from>tex5</init_from>
                    </surface>
                </newparam>
                <newparam sid="sampler1">
                    <sampler2D>
                        <source>surface1</source>
                    </sampler2D>
                </newparam>
                <technique sid="COMMON">
                    <blinn>
                        <diffuse>
                            <texture texture="sampler1" texcoord="UVSET0"></texture>
                        </diffuse>
                    </blinn>
                </technique>
            </profile_COMMON>
        </effect>
        <effect id="effect2">
            <profile_COMMON>
                <newparam sid="surface2">
                    <surface type="2D">
                        <init_from>tex5</init_from>
                    </surface>
                </newparam>
                <newparam sid="sampler2">
                    <sampler2D>
                        <source>surface2</source>
                    </sampler2D>
                </newparam>
                <technique sid="COMMON">
                    <blinn>
                        <diffuse>
                            <texture texture="sampler2" texcoord="UVSET0"></texture>
                        </diffuse>
                    </blinn>
                </technique>
            </profile_COMMON>
        </effect>
        <effect id="effect3">
            <profile_COMMON>
                <newparam sid="surface3">
                    <surface type="2D">
                        <init_from>tex4</init_from>
                    </surface>
                </newparam>
                <newparam sid="sampler3">
                    <sampler2D>
                        <source>surface3</source>
                    </sampler2D>
                </newparam>
                <technique sid="COMMON">
                    <blinn>
                        <diffuse>
                            <texture texture="sampler3" texcoord="UVSET0"></texture>
                        </diffuse>
                    </blinn>
                </technique>
            </profile_COMMON>
        </effect>
        <effect id="effect4">
            <profile_COMMON>
                <newparam sid="surface4">
                    <surface type="2D">
                        <init_from>tex1</init_from>
                    </surface>
                </newparam>
                <newparam sid="sampler4">
                    <sampler2D>
                        <source>surface4</source>
                    </sampler2D>
                </newparam>
                <technique sid="COMMON">
                    <blinn>
                        <diffuse>
                            <texture texture="sampler4" texcoord="UVSET0"></texture>
                        </diffuse>
                    </blinn>
                </technique>
            </profile_COMMON>
        </effect>
        <effect id="effect5">
            <profile_COMMON>
                <newparam sid="surface5">
                    <surface type="2D">
                        <init_from>tex0</init_from>
                    </surface>
                </newparam>
                <newparam sid="sampler5">
                    <sampler2D>
                        <source>surface5</source>
                    </sampler2D>
                </newparam>
                <technique sid="COMMON">
                    <blinn>
                        <diffuse>
                            <texture texture="sampler5" texcoord="UVSET0"></texture>
                        </diffuse>
                    </blinn>
                </technique>
            </profile_COMMON>
        </effect>
    </library_effects>
    <library_materials>
        <material id="mat0" name="CityLight_Mat_v">
            <instance_effect url="#effect0"></instance_effect>
        </material>
        <material id="mat1" name="EarthFar_v">
            <instance_effect url="#effect1"></instance_effect>
        </material>
        <material id="mat2" name="EarthNightMat_v">
            <instance_effect url="#effect2"></instance_effect>
        </material>
        <material id="mat3" name="Sky_Mat_v">
            <instance_effect url="#effect3"></instance_effect>
        </material>
        <material id="mat4" name="Space_Mat_v">
            <instance_effect url="#effect4"></instance_effect>
        </material>
        <material id="mat5" name="Sun_Mat_v">
            <instance_effect url="#effect5"></instance_effect>
        </material>
    </library_materials>
    <library_geometries>
        <geometry id="mesh0">
            <mesh>
                <source id="points0">
                    <float_array id="pointarray0" count="192">-780778.1875 -17190.234375 -0.07664400339126587 -679311.9375 -331846.75 135123.53125 -765775.75 -17190.234375 152322.203125 -639897.875 -331846.75 265054.375 -721345 -17190.234375 298790.8125 -575892.9375 -331846.75 384799.3125 -649193.4375 -17190.234375 433777.0625 -489756.71875 -331846.75 489756.6875 -552093.625 -17190.234375 552093.5 -384799.375 -331846.75 575893 -433777.1875 -17190.234375 649193.4375 -265054.4375 -331846.75 639898.0625 -298790.9375 -17190.234375 721345.125 -135123.578125 -331846.75 679312.125 -152322.328125 -17190.234375 765775.875 0.0012410000199452043 -331846.75 692620.6875 -0.02346000075340271 -17190.234375 780778.375 135123.59375 -331846.75 679312.125 152322.28125 -17190.234375 765775.875 265054.4375 -331846.75 639898.0625 298790.9375 -17190.234375 721345.125 384799.4375 -331846.75 575893.125 433777.25 -17190.234375 649193.5625 489756.8125 -331846.75 489756.875 552093.6875 -17190.234375 552093.75 575893.125 -331846.75 384799.53125 649193.5625 -17190.234375 433777.34375 639898.125 -331846.75 265054.5625 721345.25 -17190.234375 298791.03125 679312.375 -331846.75 135123.65625 765776.1875 -17190.234375 152322.34375 692620.875 -331846.75 0.02628600038588047 780778.625 -17190.234375 -0.0032659999560564756 679311.75 -331846.75 -135123.328125 765775.375 -17190.234375 -152322.046875 639897.6875 -331846.75 -265054.09375 721344.75 -17190.234375 -298790.59375 575892.75 -331846.75 -384799.0625 649193.125 -17190.234375 -433776.875 489756.59375 -331846.75 -489756.40625 552093.4375 -17190.234375 -552093.25 384799.3125 -331846.75 -575892.5625 433777.0625 -17190.234375 -649193 265054.40625 -331846.75 -639897.625 298790.90625 -17190.234375 -721344.75 135123.65625 -331846.75 -679311.75 152322.34375 -17190.234375 -765775.5625 0.12337200343608856 -331846.75 -692620.25 0.11421599984169006 -17190.234375 -780777.875 -765775.75 -17190.234375 -152322.359375 -679311.9375 -331846.75 -135123.609375 -692620.5 -331846.75 -0.03880700096487999 -135123.40625 -331846.75 -679311.8125 -152322.125 -17190.234375 -765775.625 -265054.1875 -331846.75 -639897.8125 -298790.6875 -17190.234375 -721344.9375 -384799.125 -331846.75 -575892.8125 -433776.9375 -17190.234375 -649193.3125 -489756.5625 -331846.75 -489756.625 -552093.4375 -17190.234375 -552093.5 -575892.8125 -331846.75 -384799.34375 -649193.25 -17190.234375 -433777.15625 -639897.8125 -331846.75 -265054.4375 -721344.9375 -17190.234375 -298790.9375</float_array>
                    <technique_common>
                        <accessor count="64" source="#pointarray0" stride="3">
                            <param name="X" type="float"/>
                            <param name="Y" type="float"/>
                            <param name="Z" type="float"/>
                        </accessor>
                    </technique_common>
                </source>
                <source id="uvs0">
                    <float_array id="uvarray0" count="96">0.49609375 1 0.43359375 0.00390625 0.43359375 1 0.375 0.00390625 0.375 1 0.3125 0.00390625 0.3125 1 0.25 0.00390625 0.25 1 0.19140625 0.00390625 0.19140625 1 0.12890625 0.00390625 0.12890625 1 0.06640625 0.00390625 0.06640625 1 0.0078125 0.00390625 0.0078125 1 0.0625 0.00390625 0.0625 1 0.125 0.00390625 0.125 1 0.1875 0.00390625 0.1875 1 0.30859375 0.00390625 0.30859375 1 0.37109375 0.00390625 0.37109375 1 0.49609375 0.00390625 0.5546875 0.00390625 0.5546875 1 0.6171875 0.00390625 0.6171875 1 0.6796875 0.00390625 0.6796875 1 0.7421875 0.00390625 0.7421875 1 0.80078125 0.00390625 0.80078125 1 0.86328125 0.00390625 0.86328125 1 0.92578125 0.00390625 0.92578125 1 0.98828125 0.00390625 0.98828125 1 0.55859375 1 0.55859375 0.00390625 0.984375 0.00390625 0.984375 1</float_array>
                    <technique_common>
                        <accessor count="1" source="#uvarray0" stride="2">
                            <param name="S" type="float"/>
                            <param name="T" type="float"/>
                        </accessor>
                    </technique_common>
                </source>
                <source id="colors0">
                    <float_array id="colorarray0" count="24">0 0 0 1 0.38823529411764707 0.38823529411764707 0.38823529411764707 1 0.20784313725490197 0.20784313725490197 0.20784313725490197 1 0.10196078431372549 0.10196078431372549 0.10196078431372549 1 0.7019607843137254 0.7019607843137254 0.7019607843137254 1 1 1 1 1</float_array>
                    <technique_common>
                        <accessor count="6" source="#colorarray0" stride="4">
                            <param name="R" type="float"/>
                            <param name="G" type="float"/>
                            <param name="B" type="float"/>
                            <param name="A" type="float"/>
                        </accessor>
                    </technique_common>
                </source>
                <vertices id="vertices0">
                    <input semantic="POSITION" source="#points0"/>
                </vertices>
                <polylist count="64" material="Material1">
                    <input offset="0" semantic="VERTEX" source="#vertices0"/>
                    <input offset="1" semantic="TEXCOORD" source="#uvs0" set="0"/>
                    <input offset="2" semantic="COLOR" source="#colors0" set="0"/>
                    <vcount>3 3 3 3 3 3 3 3 3 3 3 3 3 3 3 3 3 3 3 3 3 3 3 3 3 3 3 3 3 3 3 3 3 3 3 3 3 3 3 3 3 3 3 3 3 3 3 3 3 3 3 3 3 3 3 3 3 3 3 3 3 3 3 3</vcount>
                    <p>2 2 0 1 1 1 0 0 0 3 3 2 1 1 1 2 2 0 4 4 0 3 3 2 2 2 0 5 5 3 3 3 2 4 4 0 6 6 0 5 5 3 4 4 0 7 7 0 5 5 3 6 6 0 8 8 0 7 7 0 6 6 0 9 9 0 7 7 0 8 8 0 10 10 0 9 9 0 8 8 0 11 11 0 9 9 0 10 10 0 12 12 0 11 11 0 10 10 0 13 13 0 11 11 0 12 12 0 14 14 0 13 13 0 12 12 0 15 15 0 13 13 0 14 14 0 16 16 0 15 15 0 14 14 0 17 17 0 15 15 0 16 16 0 18 18 0 17 17 0 16 16 0 19 19 0 17 17 0 18 18 0 20 20 0 19 19 0 18 18 0 21 21 0 19 19 0 20 20 0 22 22 0 21 21 0 20 20 0 23 7 0 21 21 0 22 22 0 24 8 0 23 7 0 22 22 0 25 23 3 23 7 0 24 8 0 26 24 0 25 23 3 24 8 0 27 25 2 25 23 3 26 24 0 28 26 0 27 25 2 26 24 0 29 1 1 27 25 2 28 26 0 30 2 0 29 1 1 28 26 0 31 27 4 29 1 1 30 2 0 32 0 0 31 27 4 30 2 0 33 28 5 31 27 4 32 0 0 34 29 0 33 28 5 32 0 0 35 30 5 33 28 5 34 29 0 36 31 0 35 30 5 34 29 0 37 32 5 35 30 5 36 31 0 38 33 0 37 32 5 36 31 0 39 34 5 37 32 5 38 33 0 40 35 0 39 34 5 38 33 0 41 36 5 39 34 5 40 35 0 42 37 0 41 36 5 40 35 0 43 38 5 41 36 5 42 37 0 44 39 0 43 38 5 42 37 0 45 40 5 43 38 5 44 39 0 46 41 0 45 40 5 44 39 0 47 42 5 45 40 5 46 41 0 48 43 0 47 42 5 46 41 0 0 0 0 50 45 5 49 44 0 51 27 4 50 45 5 0 0 0 1 1 1 51 27 4 0 0 0 48 47 0 52 40 5 47 46 5 53 41 0 52 40 5 48 47 0 53 41 0 54 38 5 52 40 5 55 39 0 54 38 5 53 41 0 55 39 0 56 36 5 54 38 5 57 37 0 56 36 5 55 39 0 57 37 0 58 34 5 56 36 5 59 35 0 58 34 5 57 37 0 59 35 0 60 32 5 58 34 5 61 33 0 60 32 5 59 35 0 61 33 0 62 30 5 60 32 5 63 31 0 62 30 5 61 33 0 63 31 0 50 45 5 62 30 5 49 44 0 50 45 5 63 31 0</p>
                </polylist>
            </mesh>
        </geometry>
        <geometry id="mesh1">
            <mesh>
                <source id="points1">
                    <float_array id="pointarray1" count="195">-692620.5 -331846.75 -0.03880700096487999 -363285.8125 -331846.75 0.0657150000333786 -679311.9375 -331846.75 135123.53125 -356305.34375 -331846.75 70873.6171875 -639897.875 -331846.75 265054.375 -335632.34375 -331846.75 139023.546875 -575892.9375 -331846.75 384799.3125 -302061.125 -331846.75 201830.84375 -489756.71875 -331846.75 489756.6875 -256881.875 -331846.75 256881.953125 -384799.375 -331846.75 575893 -201830.78125 -331846.75 302061.25 -265054.4375 -331846.75 639898.0625 -139023.484375 -331846.75 335632.5 -135123.578125 -331846.75 679312.125 -70873.546875 -331846.75 356305.5 0.0012410000199452043 -331846.75 692620.6875 0.011481000110507011 -331846.75 363286 135123.59375 -331846.75 679312.125 70873.578125 -331846.75 356305.5 265054.4375 -331846.75 639898.0625 139023.5 -331846.75 335632.5 384799.4375 -331846.75 575893.125 201830.875 -331846.75 302061.3125 489756.8125 -331846.75 489756.875 256881.953125 -331846.75 256882.078125 575893.125 -331846.75 384799.53125 302061.25 -331846.75 201830.984375 639898.125 -331846.75 265054.5625 335632.46875 -331846.75 139023.640625 679312.375 -331846.75 135123.65625 356305.59375 -331846.75 70873.6875 692620.875 -331846.75 0.02628600038588047 363286 -331846.75 0.09985700249671936 679311.75 -331846.75 -135123.328125 356305.25 -331846.75 -70873.3359375 639897.6875 -331846.75 -265054.09375 335632.21875 -331846.75 -139023.21875 575892.75 -331846.75 -384799.0625 302061.0625 -331846.75 -201830.5625 489756.59375 -331846.75 -489756.40625 256881.859375 -331846.75 -256881.65625 384799.3125 -331846.75 -575892.5625 201830.78125 -331846.75 -302060.875 265054.40625 -331846.75 -639897.625 139023.484375 -331846.75 -335632.125 135123.65625 -331846.75 -679311.75 70873.609375 -331846.75 -356305.15625 0.12337200343608856 -331846.75 -692620.25 0.07553999871015549 -331846.75 -363285.59375 -135123.40625 -331846.75 -679311.8125 -70873.453125 -331846.75 -356305.1875 -265054.1875 -331846.75 -639897.8125 -139023.34375 -331846.75 -335632.1875 -384799.125 -331846.75 -575892.8125 -201830.671875 -331846.75 -302061 -489756.5625 -331846.75 -489756.625 -256881.796875 -331846.75 -256881.78125 -575892.8125 -331846.75 -384799.34375 -302061.0625 -331846.75 -201830.703125 -639897.8125 -331846.75 -265054.4375 -335632.25 -331846.75 -139023.40625 -679311.9375 -331846.75 -135123.609375 -356305.34375 -331846.75 -70873.484375 0.022776000201702118 -331846.71875 0.18101200461387634</float_array>
                    <technique_common>
                        <accessor count="65" source="#pointarray1" stride="3">
                            <param name="X" type="float"/>
                            <param name="Y" type="float"/>
                            <param name="Z" type="float"/>
                        </accessor>
                    </technique_common>
                </source>
                <source id="uvs1">
                    <float_array id="uvarray1" count="130">0 0.5 0.234375 0.5 0.0078125 0.40625 0.2421875 0.44921875 0.03515625 0.3125 0.25390625 0.40234375 0.08203125 0.22265625 0.28125 0.35546875 0.14453125 0.1484375 0.3125 0.31640625 0.21875 0.0859375 0.3515625 0.28515625 0.30859375 0.0390625 0.3984375 0.2578125 0.40234375 0.01171875 0.4453125 0.24609375 0.5 0 0.5 0.23828125 0.59375 0.01171875 0.55078125 0.24609375 0.6875 0.0390625 0.59765625 0.2578125 0.77734375 0.0859375 0.64453125 0.28515625 0.8515625 0.1484375 0.68359375 0.31640625 0.9140625 0.22265625 0.71484375 0.35546875 0.9609375 0.3125 0.7421875 0.40234375 0.98828125 0.40625 0.75390625 0.44921875 1 0.5 0.76171875 0.5 0.98828125 0.59765625 0.75390625 0.5546875 0.9609375 0.69140625 0.7421875 0.6015625 0.9140625 0.78125 0.71484375 0.6484375 0.8515625 0.85546875 0.68359375 0.6875 0.77734375 0.91796875 0.64453125 0.71875 0.6875 0.96484375 0.59765625 0.74609375 0.59375 0.9921875 0.55078125 0.7578125 0.5 1 0.5 0.765625 0.40234375 0.9921875 0.4453125 0.7578125 0.30859375 0.96484375 0.3984375 0.74609375 0.21875 0.91796875 0.3515625 0.71875 0.14453125 0.85546875 0.3125 0.6875 0.08203125 0.78125 0.28125 0.6484375 0.03515625 0.69140625 0.25390625 0.6015625 0.0078125 0.59765625 0.2421875 0.5546875 0.5 0.5</float_array>
                    <technique_common>
                        <accessor count="1" source="#uvarray1" stride="2">
                            <param name="S" type="float"/>
                            <param name="T" type="float"/>
                        </accessor>
                    </technique_common>
                </source>
                <source id="colors1">
                    <float_array id="colorarray1" count="116">0.7019607843137254 0.7019607843137254 0.7019607843137254 1 0.32941176470588235 0.32941176470588235 0.32941176470588235 1 0.38823529411764707 0.38823529411764707 0.38823529411764707 1 0.1843137254901961 0.1843137254901961 0.1843137254901961 1 0.20784313725490197 0.20784313725490197 0.20784313725490197 1 0.054901960784313725 0.054901960784313725 0.054901960784313725 1 0.10196078431372549 0.10196078431372549 0.10196078431372549 1 0.00392156862745098 0.00392156862745098 0.00392156862745098 1 0 0 0 1 0.027450980392156862 0.027450980392156862 0.027450980392156862 1 0.08235294117647059 0.08235294117647059 0.08235294117647059 1 0.1803921568627451 0.1803921568627451 0.1803921568627451 1 0.3215686274509804 0.3215686274509804 0.3215686274509804 1 1 1 1 1 0.4470588235294118 0.4470588235294118 0.4470588235294118 1 0.48627450980392156 0.48627450980392156 0.48627450980392156 1 0.5058823529411764 0.5058823529411764 0.5058823529411764 1 0.5490196078431373 0.5490196078431373 0.5490196078431373 1 0.5843137254901961 0.5843137254901961 0.5843137254901961 1 0.6 0.6 0.6 1 0.592156862745098 0.592156862745098 0.592156862745098 1 0.5725490196078431 0.5725490196078431 0.5725490196078431 1 0.5568627450980392 0.5568627450980392 0.5568627450980392 1 0.5372549019607843 0.5372549019607843 0.5372549019607843 1 0.5215686274509804 0.5215686274509804 0.5215686274509804 1 0.5098039215686274 0.5098039215686274 0.5098039215686274 1 0.5019607843137255 0.5019607843137255 0.5019607843137255 1 0.49019607843137253 0.49019607843137253 0.49019607843137253 1 0.45098039215686275 0.45098039215686275 0.45098039215686275 1</float_array>
                    <technique_common>
                        <accessor count="29" source="#colorarray1" stride="4">
                            <param name="R" type="float"/>
                            <param name="G" type="float"/>
                            <param name="B" type="float"/>
                            <param name="A" type="float"/>
                        </accessor>
                    </technique_common>
                </source>
                <vertices id="vertices1">
                    <input semantic="POSITION" source="#points1"/>
                </vertices>
                <polylist count="96" material="Material1">
                    <input offset="0" semantic="VERTEX" source="#vertices1"/>
                    <input offset="1" semantic="TEXCOORD" source="#uvs1" set="0"/>
                    <input offset="2" semantic="COLOR" source="#colors1" set="0"/>
                    <vcount>3 3 3 3 3 3 3 3 3 3 3 3 3 3 3 3 3 3 3 3 3 3 3 3 3 3 3 3 3 3 3 3 3 3 3 3 3 3 3 3 3 3 3 3 3 3 3 3 3 3 3 3 3 3 3 3 3 3 3 3 3 3 3 3 3 3 3 3 3 3 3 3 3 3 3 3 3 3 3 3 3 3 3 3 3 3 3 3 3 3 3 3 3 3 3 3</vcount>
                    <p>2 2 2 1 1 1 0 0 0 3 3 3 1 1 1 2 2 2 4 4 4 3 3 3 2 2 2 5 5 5 3 3 3 4 4 4 6 6 6 5 5 5 4 4 4 7 7 7 5 5 5 6 6 6 8 8 8 7 7 7 6 6 6 9 9 8 7 7 7 8 8 8 10 10 8 9 9 8 8 8 8 11 11 8 9 9 8 10 10 8 12 12 8 11 11 8 10 10 8 13 13 8 11 11 8 12 12 8 14 14 8 13 13 8 12 12 8 15 15 8 13 13 8 14 14 8 16 16 8 15 15 8 14 14 8 17 17 8 15 15 8 16 16 8 18 18 8 17 17 8 16 16 8 19 19 8 17 17 8 18 18 8 20 20 8 19 19 8 18 18 8 21 21 8 19 19 8 20 20 8 22 22 8 21 21 8 20 20 8 23 23 8 21 21 8 22 22 8 24 24 8 23 23 8 22 22 8 25 25 8 23 23 8 24 24 8 26 26 6 25 25 8 24 24 8 27 27 9 25 25 8 26 26 6 28 28 4 27 27 9 26 26 6 29 29 10 27 27 9 28 28 4 30 30 2 29 29 10 28 28 4 31 31 11 29 29 10 30 30 2 32 32 0 31 31 11 30 30 2 33 33 12 31 31 11 32 32 0 34 34 13 33 33 12 32 32 0 35 35 14 33 33 12 34 34 13 36 36 13 35 35 14 34 34 13 37 37 15 35 35 14 36 36 13 38 38 13 37 37 15 36 36 13 39 39 16 37 37 15 38 38 13 40 40 13 39 39 16 38 38 13 41 41 17 39 39 16 40 40 13 42 42 13 41 41 17 40 40 13 43 43 18 41 41 17 42 42 13 44 44 13 43 43 18 42 42 13 45 45 19 43 43 18 44 44 13 46 46 13 45 45 19 44 44 13 47 47 20 45 45 19 46 46 13 48 48 13 47 47 20 46 46 13 49 49 21 47 47 20 48 48 13 50 50 13 49 49 21 48 48 13 51 51 22 49 49 21 50 50 13 52 52 13 51 51 22 50 50 13 53 53 23 51 51 22 52 52 13 54 54 13 53 53 23 52 52 13 55 55 24 53 53 23 54 54 13 56 56 13 55 55 24 54 54 13 57 57 25 55 55 24 56 56 13 58 58 13 57 57 25 56 56 13 59 59 26 57 57 25 58 58 13 60 60 13 59 59 26 58 58 13 61 61 27 59 59 26 60 60 13 62 62 13 61 61 27 60 60 13 63 63 28 61 61 27 62 62 13 1 1 1 63 63 28 62 62 13 64 64 8 63 63 28 1 1 1 3 3 3 64 64 8 1 1 1 5 5 5 64 64 8 3 3 3 7 7 7 64 64 8 5 5 5 9 9 8 64 64 8 7 7 7 11 11 8 64 64 8 9 9 8 13 13 8 64 64 8 11 11 8 15 15 8 64 64 8 13 13 8 17 17 8 64 64 8 15 15 8 19 19 8 64 64 8 17 17 8 21 21 8 64 64 8 19 19 8 23 23 8 64 64 8 21 21 8 25 25 8 64 64 8 23 23 8 27 27 9 64 64 8 25 25 8 29 29 10 64 64 8 27 27 9 31 31 11 64 64 8 29 29 10 33 33 12 64 64 8 31 31 11 35 35 14 64 64 8 33 33 12 37 37 15 64 64 8 35 35 14 39 39 16 64 64 8 37 37 15 41 41 17 64 64 8 39 39 16 43 43 18 64 64 8 41 41 17 45 45 19 64 64 8 43 43 18 47 47 20 64 64 8 45 45 19 49 49 21 64 64 8 47 47 20 51 51 22 64 64 8 49 49 21 53 53 23 64 64 8 51 51 22 55 55 24 64 64 8 53 53 23 57 57 25 64 64 8 55 55 24 59 59 26 64 64 8 57 57 25 61 61 27 64 64 8 59 59 26 64 64 8 61 61 27 63 63 28 1 1 1 62 62 13 0 0 0</p>
                </polylist>
            </mesh>
        </geometry>
        <geometry id="mesh2">
            <mesh>
                <source id="points2">
                    <float_array id="pointarray2" count="45">-183039.609375 -71914.40625 -692269.25 -183288.875 -8321.8115234375 -693710.0625 -91557.75 -71669.2734375 -713014.75 -91807.0390625 -8076.650390625 -714455.625 -76.0927963256836 -71424.0546875 -718631.5625 -325.353515625 -7831.46484375 -720072.375 91405.6328125 -71178.9296875 -712151.875 91156.34375 -7586.3134765625 -713592.625 182887.390625 -70933.734375 -690543.1875 182638.171875 -7341.123046875 -691983.875 -183538.109375 55270.78515625 -695150.9375 -92056.328125 55515.97265625 -715896.5 -574.6141967773438 55761.125 -721513.125 90907.0703125 56006.3046875 -715033.4375 182388.96875 56251.484375 -693424.6875</float_array>
                    <technique_common>
                        <accessor count="15" source="#pointarray2" stride="3">
                            <param name="X" type="float"/>
                            <param name="Y" type="float"/>
                            <param name="Z" type="float"/>
                        </accessor>
                    </technique_common>
                </source>
                <source id="uvs2">
                    <float_array id="uvarray2" count="30">0 0 0 0.5 0.25 0.00390625 0.25 0.5 0.5 0.00390625 0.5 0.5 0.75 0.0078125 0.74609375 0.50390625 1 0.0078125 0.99609375 0.50390625 0 0.99609375 0.24609375 0.99609375 0.49609375 1 0.74609375 1 0.99609375 1</float_array>
                    <technique_common>
                        <accessor count="1" source="#uvarray2" stride="2">
                            <param name="S" type="float"/>
                            <param name="T" type="float"/>
                        </accessor>
                    </technique_common>
                </source>
                <source id="colors2">
                    <float_array id="colorarray2" count="4">1 1 1 1</float_array>
                    <technique_common>
                        <accessor count="1" source="#colorarray2" stride="4">
                            <param name="R" type="float"/>
                            <param name="G" type="float"/>
                            <param name="B" type="float"/>
                            <param name="A" type="float"/>
                        </accessor>
                    </technique_common>
                </source>
                <vertices id="vertices2">
                    <input semantic="POSITION" source="#points2"/>
                </vertices>
                <polylist count="16" material="Material1">
                    <input offset="0" semantic="VERTEX" source="#vertices2"/>
                    <input offset="1" semantic="TEXCOORD" source="#uvs2" set="0"/>
                    <input offset="2" semantic="COLOR" source="#colors2" set="0"/>
                    <vcount>3 3 3 3 3 3 3 3 3 3 3 3 3 3 3 3</vcount>
                    <p>2 2 0 1 1 0 0 0 0 3 3 0 1 1 0 2 2 0 4 4 0 3 3 0 2 2 0 5 5 0 3 3 0 4 4 0 6 6 0 5 5 0 4 4 0 7 7 0 5 5 0 6 6 0 8 8 0 7 7 0 6 6 0 9 9 0 7 7 0 8 8 0 3 3 0 10 10 0 1 1 0 11 11 0 10 10 0 3 3 0 5 5 0 11 11 0 3 3 0 12 12 0 11 11 0 5 5 0 7 7 0 12 12 0 5 5 0 13 13 0 12 12 0 7 7 0 9 9 0 13 13 0 7 7 0 14 14 0 13 13 0 9 9 0</p>
                </polylist>
            </mesh>
        </geometry>
        <geometry id="mesh3">
            <mesh>
                <source id="points3">
                    <float_array id="pointarray3" count="771">769928.4375 65341.125 -153148.125 755250 161907.390625 -150228.40625 785012.8125 65341.125 0.000024000000848900527 770046.9375 161907.390625 0 769929.125 65341.125 153148.4375 755250.6875 161907.390625 150228.71875 725257.1875 65341.125 300411.4375 711430.5 161907.390625 294684.21875 652714.25 65341.125 436129.71875 640270.5 161907.390625 427815.15625 555087.75 65341.125 555087.875 544505.25 161907.390625 544505.375 436129.65625 65341.125 652714.25 427815.0625 161907.390625 640270.5 300411.34375 65341.125 725257.125 294684.125 161907.390625 711430.375 153148.359375 65341.125 769928.875 150228.640625 161907.390625 755250.375 -0.020820999518036842 65341.125 785012.5625 -0.02045300044119358 161907.390625 770046.75 -153148.40625 65341.125 769928.875 -150228.6875 161907.390625 755250.375 -300411.375 65341.125 725256.9375 -294684.125 161907.390625 711430.375 -436129.625 65341.125 652714.1875 -427815 161907.390625 640270.375 -555087.75 65341.125 555087.6875 -544505.1875 161907.390625 544505.125 -652714.1875 65341.125 436129.625 -640270.375 161907.390625 427814.875 -725256.9375 65341.125 300411.21875 -711430.25 161907.390625 294684 -769928.75 65341.125 153148.28125 -755250.3125 161907.390625 150228.5625 -785012.4375 65341.125 -0.07375200092792511 -770046.5625 161907.390625 -0.07236900180578232 -769928.75 65341.125 -153148.421875 -755250.3125 161907.390625 -150228.71875 -725256.875 65341.125 -300411.375 -711430.125 161907.390625 -294684.125 -652714.0625 65341.125 -436129.625 -640270.1875 161907.390625 -427814.96875 -555087.5625 65341.125 -555087.6875 -544505.0625 161907.390625 -544505.125 -436129.40625 65341.125 -652714.0625 -427814.75 161907.390625 -640270.25 -300411.125 65341.125 -725256.875 -294683.875 161907.390625 -711430.125 -153148.203125 65341.125 -769928.5 -150228.484375 161907.390625 -755250.125 0.11760199815034866 65341.125 -785012.25 0.1153310015797615 161907.390625 -770046.25 153148.421875 65341.125 -769928.4375 150228.71875 161907.390625 -755250.0625 300411.3125 65341.125 -725256.5625 294684.09375 161907.390625 -711430 436129.5625 65341.125 -652713.8125 427814.875 161907.390625 -640269.9375 555087.5625 65341.125 -555087.375 544505.0625 161907.390625 -544504.875 652713.9375 65341.125 -436129.3125 640270.0625 161907.390625 -427814.6875 725256.625 65341.125 -300411 711430 161907.390625 -294683.78125 711429.9375 309192.9375 -141512.046875 725368.25 309192.9375 0 711430.5 309192.9375 141512.359375 670152.875 309192.9375 277586.4375 603121.625 309192.9375 402992.96875 512912.78125 309192.9375 512912.8125 402992.9375 309192.9375 603121.625 277586.375 309192.9375 670152.8125 141512.28125 309192.9375 711430.375 -0.019267000257968903 309192.9375 725368.0625 -141512.3125 309192.9375 711430.375 -277586.375 309192.9375 670152.625 -402992.875 309192.9375 603121.5 -512912.65625 309192.9375 512912.625 -603121.5 309192.9375 402992.84375 -670152.625 309192.9375 277586.25 -711430.125 309192.9375 141512.203125 -725368 309192.9375 -0.06817000359296799 -711430.125 309192.9375 -141512.359375 -670152.5625 309192.9375 -277586.375 -603121.375 309192.9375 -402992.875 -512912.5 309192.9375 -512912.625 -402992.65625 309192.9375 -603121.375 -277586.125 309192.9375 -670152.5625 -141512.125 309192.9375 -711430.0625 0.10863900184631348 309192.9375 -725367.75 141512.359375 309192.9375 -711430 277586.3125 309192.9375 -670152.375 402992.8125 309192.9375 -603121.125 512912.5 309192.9375 -512912.3125 603121.3125 309192.9375 -402992.5625 670152.375 309192.9375 -277586.03125 640270.0625 444932.0625 -127357.484375 652814.25 444932.0625 0 640270.625 444932.0625 127357.75 603121.6875 444932.0625 249821.21875 542795.125 444932.0625 362684.125 461609.3125 444932.0625 461609.375 362684.125 444932.0625 542795.125 249821.15625 444932.0625 603121.625 127357.71875 444932.0625 640270.5 -0.01733900047838688 444932.0625 652814.0625 -127357.734375 444932.0625 640270.4375 -249821.15625 444932.0625 603121.5 -362684.09375 444932.0625 542795 -461609.21875 444932.0625 461609.1875 -542795 444932.0625 362684.03125 -603121.5 444932.0625 249821.0625 -640270.375 444932.0625 127357.640625 -652813.9375 444932.0625 -0.06135199964046478 -640270.375 444932.0625 -127357.75 -603121.375 444932.0625 -249821.15625 -542794.9375 444932.0625 -362684.03125 -461609.09375 444932.0625 -461609.1875 -362683.875 444932.0625 -542794.9375 -249820.953125 444932.0625 -603121.375 -127357.5703125 444932.0625 -640270.1875 0.09777200222015381 444932.0625 -652813.75 127357.75 444932.0625 -640270.0625 249821.109375 444932.0625 -603121.1875 362684 444932.0625 -542794.75 461609.09375 444932.0625 -461608.90625 542794.875 444932.0625 -362683.75 603121.3125 444932.0625 -249820.859375 544504.9375 563908.5 -108308.6328125 555172.9375 563908.5 0 544505.375 563908.5 108308.8671875 512912.8125 563908.5 212455.46875 461609.3125 563908.5 308437.46875 392566.4375 563908.5 392566.5 308437.46875 563908.5 461609.3125 212455.40625 563908.5 512912.78125 108308.8125 563908.5 544505.25 -0.014746000058948994 563908.5 555172.75 -108308.84375 563908.5 544505.1875 -212455.40625 563908.5 512912.6875 -308437.4375 563908.5 461609.21875 -392566.40625 563908.5 392566.40625 -461609.21875 563908.5 308437.375 -512912.65625 563908.5 212455.328125 -544505.125 563908.5 108308.75 -555172.625 563908.5 -0.05217500030994415 -544505.125 563908.5 -108308.8671875 -512912.625 563908.5 -212455.40625 -461609.125 563908.5 -308437.40625 -392566.25 563908.5 -392566.40625 -308437.28125 563908.5 -461609.125 -212455.28125 563908.5 -512912.5625 -108308.703125 563908.5 -544505.0625 0.0831490010023117 563908.5 -555172.5 108308.8671875 563908.5 -544504.9375 212455.40625 563908.5 -512912.4375 308437.34375 563908.5 -461609 392566.25 563908.5 -392566.125 461609.0625 563908.5 -308437.1875 512912.5 563908.5 -212455.171875 427814.75 661549.75 -85097.546875 436196.5625 661549.75 0 427815.15625 661549.75 85097.7265625 402992.96875 661549.75 166925.203125 362684.125 661549.75 242337.796875 308437.46875 661549.75 308437.46875 242337.75 661549.75 362684.125 166925.15625 661549.75 402992.9375 85097.6875 661549.75 427815 -0.011586000211536884 661549.75 436196.40625 -85097.703125 661549.75 427815 -166925.15625 661549.75 402992.875 -242337.734375 661549.75 362684.03125 -308437.4375 661549.75 308437.375 -362684.03125 661549.75 242337.703125 -402992.875 661549.75 166925.078125 -427814.875 661549.75 85097.65625 -436196.3125 661549.75 -0.04099399968981743 -427814.875 661549.75 -85097.7265625 -402992.84375 661549.75 -166925.15625 -362683.90625 661549.75 -242337.71875 -308437.3125 661549.75 -308437.375 -242337.578125 661549.75 -362684 -166925.015625 661549.75 -402992.8125 -85097.59375 661549.75 -427814.84375 0.06532900035381317 661549.75 -436196.21875 85097.7265625 661549.75 -427814.75 166925.125 661549.75 -402992.65625 242337.671875 661549.75 -362683.8125 308437.3125 661549.75 -308437.1875 362683.875 661549.75 -242337.546875 402992.75 661549.75 -166924.96875 294683.96875 734103.8125 -58616.21484375 300457.4375 734103.8125 0 294684.21875 734103.8125 58616.33984375 277586.4375 734103.8125 114980.0859375 249821.15625 734103.8125 166925.203125 212455.453125 734103.8125 212455.453125 166925.171875 734103.8125 249821.15625 114980.0390625 734103.8125 277586.375 58616.3125 734103.8125 294684.125 -0.007980000227689743 734103.8125 300457.3125 -58616.32421875 734103.8125 294684.125 -114980.0390625 734103.8125 277586.375 -166925.15625 734103.8125 249821.109375 -212455.40625 734103.8125 212455.40625 -249821.109375 734103.8125 166925.125 -277586.3125 734103.8125 114980 -294684.09375 734103.8125 58616.28125 -300457.28125 734103.8125 -0.028237000107765198 -294684.0625 734103.8125 -58616.33984375 -277586.3125 734103.8125 -114980.0390625 -249821.078125 734103.8125 -166925.140625 -212455.328125 734103.8125 -212455.40625 -166925.0625 734103.8125 -249821.09375 -114979.9609375 734103.8125 -277586.28125 -58616.24609375 734103.8125 -294684 0.04500000178813934 734103.8125 -300457.1875 58616.33984375 734103.8125 -294684 114980.015625 734103.8125 -277586.21875 166925.09375 734103.8125 -249821 212455.328125 734103.8125 -212455.28125 249821.03125 734103.8125 -166925 277586.25 734103.8125 -114979.921875 150228.578125 778782.4375 -29882.28515625 153171.859375 778782.4375 0 150228.71875 778782.4375 29882.349609375 141512.359375 778782.4375 58616.33984375 127357.734375 778782.4375 85097.7265625 108308.84375 778782.4375 108308.84375 85097.71875 778782.4375 127357.734375 58616.31640625 778782.4375 141512.328125 29882.3359375 778782.4375 150228.65625 -0.00406799977645278 778782.4375 153171.8125 -29882.34375 778782.4375 150228.65625 -58616.31640625 778782.4375 141512.3125 -85097.703125 778782.4375 127357.71875 -108308.8203125 778782.4375 108308.8125 -127357.71875 778782.4375 85097.6875 -141512.3125 778782.4375 58616.296875 -150228.640625 778782.4375 29882.322265625 -153171.78125 778782.4375 -0.014395000413060188 -150228.640625 778782.4375 -29882.349609375 -141512.28125 778782.4375 -58616.31640625 -127357.6640625 778782.4375 -85097.6953125 -108308.7890625 778782.4375 -108308.8125 -85097.65625 778782.4375 -127357.6875 -58616.28125 778782.4375 -141512.265625 -29882.3046875 778782.4375 -150228.609375 0.022941000759601593 778782.4375 -153171.765625 29882.349609375 778782.4375 -150228.578125 58616.3125 778782.4375 -141512.234375 85097.671875 778782.4375 -127357.625 108308.7890625 778782.4375 -108308.75 127357.65625 778782.4375 -85097.625 141512.234375 778782.4375 -58616.25 0 793868.625 0</float_array>
                    <technique_common>
                        <accessor count="257" source="#pointarray3" stride="3">
                            <param name="X" type="float"/>
                            <param name="Y" type="float"/>
                            <param name="Z" type="float"/>
                        </accessor>
                    </technique_common>
                </source>
                <source id="uvs3">
                    <float_array id="uvarray3" count="514">4.51171875 1.296875 4.03515625 1.203125 4.58984375 0.50390625 4.10546875 0.50390625 4.51171875 -0.296875 4.03515625 -0.203125 4.27734375 -1.0625 3.83203125 -0.87890625 3.90234375 -1.7734375 3.49609375 -1.5 3.390625 -2.390625 3.046875 -2.046875 2.7734375 -2.90234375 2.5 -2.49609375 2.0625 -3.27734375 1.87890625 -2.83203125 1.296875 -3.51171875 1.203125 -3.03515625 0.49609375 -3.58984375 0.49609375 -3.10546875 -0.296875 -3.51171875 -0.203125 -3.03515625 -1.0625 -3.27734375 -0.87890625 -2.83203125 -1.7734375 -2.90234375 -1.5 -2.49609375 -2.390625 -2.390625 -2.046875 -2.046875 -2.90234375 -1.7734375 -2.49609375 -1.5 -3.27734375 -1.0625 -2.83203125 -0.87890625 -3.51171875 -0.296875 -3.03515625 -0.203125 -3.58984375 0.50390625 -3.10546875 0.50390625 -3.51171875 1.296875 -3.03515625 1.203125 -3.27734375 2.0625 -2.83203125 1.87890625 -2.90234375 2.7734375 -2.49609375 2.5 -2.390625 3.390625 -2.046875 3.046875 -1.7734375 3.90234375 -1.5 3.49609375 -1.0625 4.27734375 -0.87890625 3.83203125 -0.296875 4.51171875 -0.203125 4.03515625 0.5 4.58984375 0.5 4.10546875 1.296875 4.51171875 1.203125 4.03515625 2.0625 4.27734375 1.87890625 3.83203125 2.7734375 3.90234375 2.5 3.49609375 3.390625 3.390625 3.046875 3.046875 3.90234375 2.7734375 3.49609375 2.5 4.27734375 2.0625 3.83203125 1.87890625 3.578125 1.109375 3.63671875 0.50390625 3.578125 -0.109375 3.3984375 -0.69921875 3.109375 -1.2421875 2.71875 -1.71875 2.2421875 -2.109375 1.69921875 -2.3984375 1.109375 -2.578125 0.49609375 -2.63671875 -0.109375 -2.578125 -0.69921875 -2.3984375 -1.2421875 -2.109375 -1.71875 -1.71875 -2.109375 -1.2421875 -2.3984375 -0.69921875 -2.578125 -0.109375 -2.63671875 0.50390625 -2.578125 1.109375 -2.3984375 1.69921875 -2.109375 2.2421875 -1.71875 2.71875 -1.2421875 3.109375 -0.69921875 3.3984375 -0.109375 3.578125 0.5 3.63671875 1.109375 3.578125 1.69921875 3.3984375 2.2421875 3.109375 2.71875 2.71875 3.109375 2.2421875 3.3984375 1.69921875 3.12890625 1.01953125 3.1796875 0.50390625 3.12890625 -0.01953125 2.9765625 -0.5234375 2.7265625 -0.98828125 2.39453125 -1.39453125 1.98828125 -1.7265625 1.5234375 -1.9765625 1.01953125 -2.12890625 0.49609375 -2.1796875 -0.01953125 -2.12890625 -0.5234375 -1.9765625 -0.98828125 -1.7265625 -1.39453125 -1.39453125 -1.7265625 -0.98828125 -1.9765625 -0.5234375 -2.12890625 -0.01953125 -2.1796875 0.50390625 -2.12890625 1.01953125 -1.9765625 1.5234375 -1.7265625 1.98828125 -1.39453125 2.39453125 -0.98828125 2.7265625 -0.5234375 2.9765625 -0.01953125 3.12890625 0.5 3.1796875 1.01953125 3.12890625 1.5234375 2.9765625 1.98828125 2.7265625 2.39453125 2.39453125 2.7265625 1.98828125 2.9765625 1.5234375 2.6640625 0.93359375 2.70703125 0.50390625 2.6640625 0.0703125 2.5390625 -0.34375 2.3359375 -0.7265625 2.05859375 -1.05859375 1.7265625 -1.3359375 1.34375 -1.5390625 0.9296875 -1.6640625 0.49609375 -1.70703125 0.06640625 -1.6640625 -0.34375 -1.5390625 -0.7265625 -1.3359375 -1.05859375 -1.05859375 -1.3359375 -0.7265625 -1.5390625 -0.34375 -1.6640625 0.0703125 -1.70703125 0.50390625 -1.6640625 0.93359375 -1.5390625 1.34375 -1.3359375 1.7265625 -1.05859375 2.05859375 -0.7265625 2.3359375 -0.34375 2.5390625 0.06640625 2.6640625 0.5 2.70703125 0.9296875 2.6640625 1.34375 2.5390625 1.7265625 2.3359375 2.05859375 2.05859375 2.3359375 1.7265625 2.5390625 1.34375 2.19921875 0.83984375 2.234375 0.50390625 2.19921875 0.1640625 2.1015625 -0.1640625 1.94140625 -0.4609375 1.7265625 -0.7265625 1.4609375 -0.94140625 1.1640625 -1.1015625 0.8359375 -1.19921875 0.49609375 -1.234375 0.16015625 -1.19921875 -0.1640625 -1.1015625 -0.4609375 -0.94140625 -0.7265625 -0.7265625 -0.94140625 -0.4609375 -1.1015625 -0.1640625 -1.19921875 0.1640625 -1.234375 0.50390625 -1.19921875 0.83984375 -1.1015625 1.1640625 -0.94140625 1.4609375 -0.7265625 1.7265625 -0.4609375 1.94140625 -0.1640625 2.1015625 0.16015625 2.19921875 0.5 2.234375 0.8359375 2.19921875 1.1640625 2.1015625 1.4609375 1.94140625 1.7265625 1.7265625 1.94140625 1.4609375 2.1015625 1.1640625 1.671875 0.734375 1.6953125 0.50390625 1.671875 0.26953125 1.6015625 0.04296875 1.4921875 -0.1640625 1.34375 -0.34375 1.1640625 -0.4921875 0.95703125 -0.6015625 0.73046875 -0.671875 0.49609375 -0.6953125 0.265625 -0.671875 0.0390625 -0.6015625 -0.1640625 -0.4921875 -0.34375 -0.34375 -0.4921875 -0.1640625 -0.6015625 0.04296875 -0.671875 0.26953125 -0.6953125 0.50390625 -0.671875 0.734375 -0.6015625 0.9609375 -0.4921875 1.1640625 -0.34375 1.34375 -0.1640625 1.4921875 0.0390625 1.6015625 0.265625 1.671875 0.5 1.6953125 0.73046875 1.671875 0.95703125 1.6015625 1.1640625 1.4921875 1.34375 1.34375 1.4921875 1.1640625 1.6015625 0.9609375 1.09765625 0.62109375 1.109375 0.50390625 1.09765625 0.3828125 1.0625 0.26953125 1.00390625 0.1640625 0.9296875 0.0703125 0.8359375 -0.00390625 0.73046875 -0.0625 0.6171875 -0.09765625 0.49609375 -0.109375 0.37890625 -0.09765625 0.265625 -0.0625 0.16015625 -0.00390625 0.06640625 0.0703125 -0.00390625 0.1640625 -0.0625 0.26953125 -0.09765625 0.3828125 -0.109375 0.50390625 -0.09765625 0.62109375 -0.0625 0.734375 -0.00390625 0.83984375 0.06640625 0.93359375 0.16015625 1.00390625 0.265625 1.0625 0.37890625 1.09765625 0.49609375 1.109375 0.6171875 1.09765625 0.73046875 1.0625 0.8359375 1.00390625 0.9296875 0.93359375 1.00390625 0.83984375 1.0625 0.734375 0.5 0.5</float_array>
                    <technique_common>
                        <accessor count="1" source="#uvarray3" stride="2">
                            <param name="S" type="float"/>
                            <param name="T" type="float"/>
                        </accessor>
                    </technique_common>
                </source>
                <source id="colors3">
                    <float_array id="colorarray3" count="12">0 0 0 1 0.050980392156862744 0.1411764705882353 0.2627450980392157 1 0.7058823529411765 0.8274509803921568 1 1</float_array>
                    <technique_common>
                        <accessor count="3" source="#colorarray3" stride="4">
                            <param name="R" type="float"/>
                            <param name="G" type="float"/>
                            <param name="B" type="float"/>
                            <param name="A" type="float"/>
                        </accessor>
                    </technique_common>
                </source>
                <vertices id="vertices3">
                    <input semantic="POSITION" source="#points3"/>
                </vertices>
                <polylist count="480" material="Material1">
                    <input offset="0" semantic="VERTEX" source="#vertices3"/>
                    <input offset="1" semantic="TEXCOORD" source="#uvs3" set="0"/>
                    <input offset="2" semantic="COLOR" source="#colors3" set="0"/>
                    <vcount>3 3 3 3 3 3 3 3 3 3 3 3 3 3 3 3 3 3 3 3 3 3 3 3 3 3 3 3 3 3 3 3 3 3 3 3 3 3 3 3 3 3 3 3 3 3 3 3 3 3 3 3 3 3 3 3 3 3 3 3 3 3 3 3 3 3 3 3 3 3 3 3 3 3 3 3 3 3 3 3 3 3 3 3 3 3 3 3 3 3 3 3 3 3 3 3 3 3 3 3 3 3 3 3 3 3 3 3 3 3 3 3 3 3 3 3 3 3 3 3 3 3 3 3 3 3 3 3 3 3 3 3 3 3 3 3 3 3 3 3 3 3 3 3 3 3 3 3 3 3 3 3 3 3 3 3 3 3 3 3 3 3 3 3 3 3 3 3 3 3 3 3 3 3 3 3 3 3 3 3 3 3 3 3 3 3 3 3 3 3 3 3 3 3 3 3 3 3 3 3 3 3 3 3 3 3 3 3 3 3 3 3 3 3 3 3 3 3 3 3 3 3 3 3 3 3 3 3 3 3 3 3 3 3 3 3 3 3 3 3 3 3 3 3 3 3 3 3 3 3 3 3 3 3 3 3 3 3 3 3 3 3 3 3 3 3 3 3 3 3 3 3 3 3 3 3 3 3 3 3 3 3 3 3 3 3 3 3 3 3 3 3 3 3 3 3 3 3 3 3 3 3 3 3 3 3 3 3 3 3 3 3 3 3 3 3 3 3 3 3 3 3 3 3 3 3 3 3 3 3 3 3 3 3 3 3 3 3 3 3 3 3 3 3 3 3 3 3 3 3 3 3 3 3 3 3 3 3 3 3 3 3 3 3 3 3 3 3 3 3 3 3 3 3 3 3 3 3 3 3 3 3 3 3 3 3 3 3 3 3 3 3 3 3 3 3 3 3 3 3 3 3 3 3 3 3 3 3 3 3 3 3 3 3 3 3 3 3 3 3 3 3 3 3 3 3 3 3 3 3 3 3 3 3 3 3 3 3 3 3 3 3 3 3 3 3 3 3 3 3 3 3 3 3 3 3 3 3 3 3 3 3 3 3 3 3 3 3 3 3 3 3 3 3 3 3 3 3 3 3</vcount>
                    <p>2 2 0 1 1 1 0 0 0 3 3 1 1 1 1 2 2 0 4 4 0 3 3 1 2 2 0 5 5 1 3 3 1 4 4 0 6 6 0 5 5 1 4 4 0 7 7 1 5 5 1 6 6 0 8 8 0 7 7 1 6 6 0 9 9 1 7 7 1 8 8 0 10 10 0 9 9 1 8 8 0 11 11 1 9 9 1 10 10 0 12 12 0 11 11 1 10 10 0 13 13 1 11 11 1 12 12 0 14 14 0 13 13 1 12 12 0 15 15 1 13 13 1 14 14 0 16 16 0 15 15 1 14 14 0 17 17 1 15 15 1 16 16 0 18 18 0 17 17 1 16 16 0 19 19 1 17 17 1 18 18 0 20 20 0 19 19 1 18 18 0 21 21 1 19 19 1 20 20 0 22 22 0 21 21 1 20 20 0 23 23 1 21 21 1 22 22 0 24 24 0 23 23 1 22 22 0 25 25 1 23 23 1 24 24 0 26 26 0 25 25 1 24 24 0 27 27 1 25 25 1 26 26 0 28 28 0 27 27 1 26 26 0 29 29 1 27 27 1 28 28 0 30 30 0 29 29 1 28 28 0 31 31 1 29 29 1 30 30 0 32 32 0 31 31 1 30 30 0 33 33 1 31 31 1 32 32 0 34 34 0 33 33 1 32 32 0 35 35 1 33 33 1 34 34 0 36 36 0 35 35 1 34 34 0 37 37 1 35 35 1 36 36 0 38 38 0 37 37 1 36 36 0 39 39 1 37 37 1 38 38 0 40 40 0 39 39 1 38 38 0 41 41 1 39 39 1 40 40 0 42 42 0 41 41 1 40 40 0 43 43 1 41 41 1 42 42 0 44 44 0 43 43 1 42 42 0 45 45 1 43 43 1 44 44 0 46 46 0 45 45 1 44 44 0 47 47 1 45 45 1 46 46 0 48 48 0 47 47 1 46 46 0 49 49 1 47 47 1 48 48 0 50 50 0 49 49 1 48 48 0 51 51 1 49 49 1 50 50 0 52 52 0 51 51 1 50 50 0 53 53 1 51 51 1 52 52 0 54 54 0 53 53 1 52 52 0 55 55 1 53 53 1 54 54 0 56 56 0 55 55 1 54 54 0 57 57 1 55 55 1 56 56 0 58 58 0 57 57 1 56 56 0 59 59 1 57 57 1 58 58 0 60 60 0 59 59 1 58 58 0 61 61 1 59 59 1 60 60 0 62 62 0 61 61 1 60 60 0 63 63 1 61 61 1 62 62 0 0 0 0 63 63 1 62 62 0 1 1 1 63 63 1 0 0 0 3 3 1 64 64 2 1 1 1 65 65 2 64 64 2 3 3 1 5 5 1 65 65 2 3 3 1 66 66 2 65 65 2 5 5 1 7 7 1 66 66 2 5 5 1 67 67 2 66 66 2 7 7 1 9 9 1 67 67 2 7 7 1 68 68 2 67 67 2 9 9 1 11 11 1 68 68 2 9 9 1 69 69 2 68 68 2 11 11 1 13 13 1 69 69 2 11 11 1 70 70 2 69 69 2 13 13 1 15 15 1 70 70 2 13 13 1 71 71 2 70 70 2 15 15 1 17 17 1 71 71 2 15 15 1 72 72 2 71 71 2 17 17 1 19 19 1 72 72 2 17 17 1 73 73 2 72 72 2 19 19 1 21 21 1 73 73 2 19 19 1 74 74 2 73 73 2 21 21 1 23 23 1 74 74 2 21 21 1 75 75 2 74 74 2 23 23 1 25 25 1 75 75 2 23 23 1 76 76 2 75 75 2 25 25 1 27 27 1 76 76 2 25 25 1 77 77 2 76 76 2 27 27 1 29 29 1 77 77 2 27 27 1 78 78 2 77 77 2 29 29 1 31 31 1 78 78 2 29 29 1 79 79 2 78 78 2 31 31 1 33 33 1 79 79 2 31 31 1 80 80 2 79 79 2 33 33 1 35 35 1 80 80 2 33 33 1 81 81 2 80 80 2 35 35 1 37 37 1 81 81 2 35 35 1 82 82 2 81 81 2 37 37 1 39 39 1 82 82 2 37 37 1 83 83 2 82 82 2 39 39 1 41 41 1 83 83 2 39 39 1 84 84 2 83 83 2 41 41 1 43 43 1 84 84 2 41 41 1 85 85 2 84 84 2 43 43 1 45 45 1 85 85 2 43 43 1 86 86 2 85 85 2 45 45 1 47 47 1 86 86 2 45 45 1 87 87 2 86 86 2 47 47 1 49 49 1 87 87 2 47 47 1 88 88 2 87 87 2 49 49 1 51 51 1 88 88 2 49 49 1 89 89 2 88 88 2 51 51 1 53 53 1 89 89 2 51 51 1 90 90 2 89 89 2 53 53 1 55 55 1 90 90 2 53 53 1 91 91 2 90 90 2 55 55 1 57 57 1 91 91 2 55 55 1 92 92 2 91 91 2 57 57 1 59 59 1 92 92 2 57 57 1 93 93 2 92 92 2 59 59 1 61 61 1 93 93 2 59 59 1 94 94 2 93 93 2 61 61 1 63 63 1 94 94 2 61 61 1 95 95 2 94 94 2 63 63 1 1 1 1 95 95 2 63 63 1 64 64 2 95 95 2 1 1 1 65 65 2 96 96 2 64 64 2 97 97 2 96 96 2 65 65 2 66 66 2 97 97 2 65 65 2 98 98 2 97 97 2 66 66 2 67 67 2 98 98 2 66 66 2 99 99 2 98 98 2 67 67 2 68 68 2 99 99 2 67 67 2 100 100 2 99 99 2 68 68 2 69 69 2 100 100 2 68 68 2 101 101 2 100 100 2 69 69 2 70 70 2 101 101 2 69 69 2 102 102 2 101 101 2 70 70 2 71 71 2 102 102 2 70 70 2 103 103 2 102 102 2 71 71 2 72 72 2 103 103 2 71 71 2 104 104 2 103 103 2 72 72 2 73 73 2 104 104 2 72 72 2 105 105 2 104 104 2 73 73 2 74 74 2 105 105 2 73 73 2 106 106 2 105 105 2 74 74 2 75 75 2 106 106 2 74 74 2 107 107 2 106 106 2 75 75 2 76 76 2 107 107 2 75 75 2 108 108 2 107 107 2 76 76 2 77 77 2 108 108 2 76 76 2 109 109 2 108 108 2 77 77 2 78 78 2 109 109 2 77 77 2 110 110 2 109 109 2 78 78 2 79 79 2 110 110 2 78 78 2 111 111 2 110 110 2 79 79 2 80 80 2 111 111 2 79 79 2 112 112 2 111 111 2 80 80 2 81 81 2 112 112 2 80 80 2 113 113 2 112 112 2 81 81 2 82 82 2 113 113 2 81 81 2 114 114 2 113 113 2 82 82 2 83 83 2 114 114 2 82 82 2 115 115 2 114 114 2 83 83 2 84 84 2 115 115 2 83 83 2 116 116 2 115 115 2 84 84 2 85 85 2 116 116 2 84 84 2 117 117 2 116 116 2 85 85 2 86 86 2 117 117 2 85 85 2 118 118 2 117 117 2 86 86 2 87 87 2 118 118 2 86 86 2 119 119 2 118 118 2 87 87 2 88 88 2 119 119 2 87 87 2 120 120 2 119 119 2 88 88 2 89 89 2 120 120 2 88 88 2 121 121 2 120 120 2 89 89 2 90 90 2 121 121 2 89 89 2 122 122 2 121 121 2 90 90 2 91 91 2 122 122 2 90 90 2 123 123 2 122 122 2 91 91 2 92 92 2 123 123 2 91 91 2 124 124 2 123 123 2 92 92 2 93 93 2 124 124 2 92 92 2 125 125 2 124 124 2 93 93 2 94 94 2 125 125 2 93 93 2 126 126 2 125 125 2 94 94 2 95 95 2 126 126 2 94 94 2 127 127 2 126 126 2 95 95 2 64 64 2 127 127 2 95 95 2 96 96 2 127 127 2 64 64 2 97 97 2 128 128 2 96 96 2 129 129 2 128 128 2 97 97 2 98 98 2 129 129 2 97 97 2 130 130 2 129 129 2 98 98 2 99 99 2 130 130 2 98 98 2 131 131 2 130 130 2 99 99 2 100 100 2 131 131 2 99 99 2 132 132 2 131 131 2 100 100 2 101 101 2 132 132 2 100 100 2 133 133 2 132 132 2 101 101 2 102 102 2 133 133 2 101 101 2 134 134 2 133 133 2 102 102 2 103 103 2 134 134 2 102 102 2 135 135 2 134 134 2 103 103 2 104 104 2 135 135 2 103 103 2 136 136 2 135 135 2 104 104 2 105 105 2 136 136 2 104 104 2 137 137 2 136 136 2 105 105 2 106 106 2 137 137 2 105 105 2 138 138 2 137 137 2 106 106 2 107 107 2 138 138 2 106 106 2 139 139 2 138 138 2 107 107 2 108 108 2 139 139 2 107 107 2 140 140 2 139 139 2 108 108 2 109 109 2 140 140 2 108 108 2 141 141 2 140 140 2 109 109 2 110 110 2 141 141 2 109 109 2 142 142 2 141 141 2 110 110 2 111 111 2 142 142 2 110 110 2 143 143 2 142 142 2 111 111 2 112 112 2 143 143 2 111 111 2 144 144 2 143 143 2 112 112 2 113 113 2 144 144 2 112 112 2 145 145 2 144 144 2 113 113 2 114 114 2 145 145 2 113 113 2 146 146 2 145 145 2 114 114 2 115 115 2 146 146 2 114 114 2 147 147 2 146 146 2 115 115 2 116 116 2 147 147 2 115 115 2 148 148 2 147 147 2 116 116 2 117 117 2 148 148 2 116 116 2 149 149 2 148 148 2 117 117 2 118 118 2 149 149 2 117 117 2 150 150 2 149 149 2 118 118 2 119 119 2 150 150 2 118 118 2 151 151 2 150 150 2 119 119 2 120 120 2 151 151 2 119 119 2 152 152 2 151 151 2 120 120 2 121 121 2 152 152 2 120 120 2 153 153 2 152 152 2 121 121 2 122 122 2 153 153 2 121 121 2 154 154 2 153 153 2 122 122 2 123 123 2 154 154 2 122 122 2 155 155 2 154 154 2 123 123 2 124 124 2 155 155 2 123 123 2 156 156 2 155 155 2 124 124 2 125 125 2 156 156 2 124 124 2 157 157 2 156 156 2 125 125 2 126 126 2 157 157 2 125 125 2 158 158 2 157 157 2 126 126 2 127 127 2 158 158 2 126 126 2 159 159 2 158 158 2 127 127 2 96 96 2 159 159 2 127 127 2 128 128 2 159 159 2 96 96 2 129 129 2 160 160 2 128 128 2 161 161 2 160 160 2 129 129 2 130 130 2 161 161 2 129 129 2 162 162 2 161 161 2 130 130 2 131 131 2 162 162 2 130 130 2 163 163 2 162 162 2 131 131 2 132 132 2 163 163 2 131 131 2 164 164 2 163 163 2 132 132 2 133 133 2 164 164 2 132 132 2 165 165 2 164 164 2 133 133 2 134 134 2 165 165 2 133 133 2 166 166 2 165 165 2 134 134 2 135 135 2 166 166 2 134 134 2 167 167 2 166 166 2 135 135 2 136 136 2 167 167 2 135 135 2 168 168 2 167 167 2 136 136 2 137 137 2 168 168 2 136 136 2 169 169 2 168 168 2 137 137 2 138 138 2 169 169 2 137 137 2 170 170 2 169 169 2 138 138 2 139 139 2 170 170 2 138 138 2 171 171 2 170 170 2 139 139 2 140 140 2 171 171 2 139 139 2 172 172 2 171 171 2 140 140 2 141 141 2 172 172 2 140 140 2 173 173 2 172 172 2 141 141 2 142 142 2 173 173 2 141 141 2 174 174 2 173 173 2 142 142 2 143 143 2 174 174 2 142 142 2 175 175 2 174 174 2 143 143 2 144 144 2 175 175 2 143 143 2 176 176 2 175 175 2 144 144 2 145 145 2 176 176 2 144 144 2 177 177 2 176 176 2 145 145 2 146 146 2 177 177 2 145 145 2 178 178 2 177 177 2 146 146 2 147 147 2 178 178 2 146 146 2 179 179 2 178 178 2 147 147 2 148 148 2 179 179 2 147 147 2 180 180 2 179 179 2 148 148 2 149 149 2 180 180 2 148 148 2 181 181 2 180 180 2 149 149 2 150 150 2 181 181 2 149 149 2 182 182 2 181 181 2 150 150 2 151 151 2 182 182 2 150 150 2 183 183 2 182 182 2 151 151 2 152 152 2 183 183 2 151 151 2 184 184 2 183 183 2 152 152 2 153 153 2 184 184 2 152 152 2 185 185 2 184 184 2 153 153 2 154 154 2 185 185 2 153 153 2 186 186 2 185 185 2 154 154 2 155 155 2 186 186 2 154 154 2 187 187 2 186 186 2 155 155 2 156 156 2 187 187 2 155 155 2 188 188 2 187 187 2 156 156 2 157 157 2 188 188 2 156 156 2 189 189 2 188 188 2 157 157 2 158 158 2 189 189 2 157 157 2 190 190 2 189 189 2 158 158 2 159 159 2 190 190 2 158 158 2 191 191 2 190 190 2 159 159 2 128 128 2 191 191 2 159 159 2 160 160 2 191 191 2 128 128 2 161 161 2 192 192 2 160 160 2 193 193 2 192 192 2 161 161 2 162 162 2 193 193 2 161 161 2 194 194 2 193 193 2 162 162 2 163 163 2 194 194 2 162 162 2 195 195 2 194 194 2 163 163 2 164 164 2 195 195 2 163 163 2 196 196 2 195 195 2 164 164 2 165 165 2 196 196 2 164 164 2 197 197 2 196 196 2 165 165 2 166 166 2 197 197 2 165 165 2 198 198 2 197 197 2 166 166 2 167 167 2 198 198 2 166 166 2 199 199 2 198 198 2 167 167 2 168 168 2 199 199 2 167 167 2 200 200 2 199 199 2 168 168 2 169 169 2 200 200 2 168 168 2 201 201 2 200 200 2 169 169 2 170 170 2 201 201 2 169 169 2 202 202 2 201 201 2 170 170 2 171 171 2 202 202 2 170 170 2 203 203 2 202 202 2 171 171 2 172 172 2 203 203 2 171 171 2 204 204 2 203 203 2 172 172 2 173 173 2 204 204 2 172 172 2 205 205 2 204 204 2 173 173 2 174 174 2 205 205 2 173 173 2 206 206 2 205 205 2 174 174 2 175 175 2 206 206 2 174 174 2 207 207 2 206 206 2 175 175 2 176 176 2 207 207 2 175 175 2 208 208 2 207 207 2 176 176 2 177 177 2 208 208 2 176 176 2 209 209 2 208 208 2 177 177 2 178 178 2 209 209 2 177 177 2 210 210 2 209 209 2 178 178 2 179 179 2 210 210 2 178 178 2 211 211 2 210 210 2 179 179 2 180 180 2 211 211 2 179 179 2 212 212 2 211 211 2 180 180 2 181 181 2 212 212 2 180 180 2 213 213 2 212 212 2 181 181 2 182 182 2 213 213 2 181 181 2 214 214 2 213 213 2 182 182 2 183 183 2 214 214 2 182 182 2 215 215 2 214 214 2 183 183 2 184 184 2 215 215 2 183 183 2 216 216 2 215 215 2 184 184 2 185 185 2 216 216 2 184 184 2 217 217 2 216 216 2 185 185 2 186 186 2 217 217 2 185 185 2 218 218 2 217 217 2 186 186 2 187 187 2 218 218 2 186 186 2 219 219 2 218 218 2 187 187 2 188 188 2 219 219 2 187 187 2 220 220 2 219 219 2 188 188 2 189 189 2 220 220 2 188 188 2 221 221 2 220 220 2 189 189 2 190 190 2 221 221 2 189 189 2 222 222 2 221 221 2 190 190 2 191 191 2 222 222 2 190 190 2 223 223 2 222 222 2 191 191 2 160 160 2 223 223 2 191 191 2 192 192 2 223 223 2 160 160 2 193 193 2 224 224 2 192 192 2 225 225 2 224 224 2 193 193 2 194 194 2 225 225 2 193 193 2 226 226 2 225 225 2 194 194 2 195 195 2 226 226 2 194 194 2 227 227 2 226 226 2 195 195 2 196 196 2 227 227 2 195 195 2 228 228 2 227 227 2 196 196 2 197 197 2 228 228 2 196 196 2 229 229 2 228 228 2 197 197 2 198 198 2 229 229 2 197 197 2 230 230 2 229 229 2 198 198 2 199 199 2 230 230 2 198 198 2 231 231 2 230 230 2 199 199 2 200 200 2 231 231 2 199 199 2 232 232 2 231 231 2 200 200 2 201 201 2 232 232 2 200 200 2 233 233 2 232 232 2 201 201 2 202 202 2 233 233 2 201 201 2 234 234 2 233 233 2 202 202 2 203 203 2 234 234 2 202 202 2 235 235 2 234 234 2 203 203 2 204 204 2 235 235 2 203 203 2 236 236 2 235 235 2 204 204 2 205 205 2 236 236 2 204 204 2 237 237 2 236 236 2 205 205 2 206 206 2 237 237 2 205 205 2 238 238 2 237 237 2 206 206 2 207 207 2 238 238 2 206 206 2 239 239 2 238 238 2 207 207 2 208 208 2 239 239 2 207 207 2 240 240 2 239 239 2 208 208 2 209 209 2 240 240 2 208 208 2 241 241 2 240 240 2 209 209 2 210 210 2 241 241 2 209 209 2 242 242 2 241 241 2 210 210 2 211 211 2 242 242 2 210 210 2 243 243 2 242 242 2 211 211 2 212 212 2 243 243 2 211 211 2 244 244 2 243 243 2 212 212 2 213 213 2 244 244 2 212 212 2 245 245 2 244 244 2 213 213 2 214 214 2 245 245 2 213 213 2 246 246 2 245 245 2 214 214 2 215 215 2 246 246 2 214 214 2 247 247 2 246 246 2 215 215 2 216 216 2 247 247 2 215 215 2 248 248 2 247 247 2 216 216 2 217 217 2 248 248 2 216 216 2 249 249 2 248 248 2 217 217 2 218 218 2 249 249 2 217 217 2 250 250 2 249 249 2 218 218 2 219 219 2 250 250 2 218 218 2 251 251 2 250 250 2 219 219 2 220 220 2 251 251 2 219 219 2 252 252 2 251 251 2 220 220 2 221 221 2 252 252 2 220 220 2 253 253 2 252 252 2 221 221 2 222 222 2 253 253 2 221 221 2 254 254 2 253 253 2 222 222 2 223 223 2 254 254 2 222 222 2 255 255 2 254 254 2 223 223 2 192 192 2 255 255 2 223 223 2 224 224 2 255 255 2 192 192 2 256 256 2 224 224 2 225 225 2 255 255 2 224 224 2 256 256 2 254 254 2 255 255 2 256 256 2 226 226 2 256 256 2 225 225 2 227 227 2 256 256 2 226 226 2 228 228 2 256 256 2 227 227 2 229 229 2 256 256 2 228 228 2 230 230 2 256 256 2 229 229 2 231 231 2 256 256 2 230 230 2 232 232 2 256 256 2 231 231 2 233 233 2 256 256 2 232 232 2 234 234 2 256 256 2 233 233 2 235 235 2 256 256 2 234 234 2 236 236 2 256 256 2 235 235 2 237 237 2 256 256 2 236 236 2 238 238 2 256 256 2 237 237 2 239 239 2 256 256 2 238 238 2 240 240 2 256 256 2 239 239 2 241 241 2 256 256 2 240 240 2 242 242 2 256 256 2 241 241 2 243 243 2 256 256 2 242 242 2 244 244 2 256 256 2 243 243 2 245 245 2 256 256 2 244 244 2 246 246 2 256 256 2 245 245 2 247 247 2 256 256 2 246 246 2 248 248 2 256 256 2 247 247 2 249 249 2 256 256 2 248 248 2 250 250 2 256 256 2 249 249 2 251 251 2 256 256 2 250 250 2 252 252 2 256 256 2 251 251 2 253 253 2 256 256 2 252 252 2 254 254 2 256 256 2 253 253 2</p>
                </polylist>
            </mesh>
        </geometry>
        <geometry id="mesh4">
            <mesh>
                <source id="points4">
                    <float_array id="pointarray4" count="288">0.11760199815034866 65341.125 -785012.25 0.11759000271558762 26362.16796875 -785132.5 -153148.203125 65341.125 -769928.5 -153171.640625 26362.16796875 -770046.3125 -300411.125 65341.125 -725256.875 -300457.09375 26362.16796875 -725368 -436129.40625 65341.125 -652714.0625 -436196.21875 26362.16796875 -652813.875 -555087.5625 65341.125 -555087.6875 -555172.5 26362.16796875 -555172.625 -652714.0625 65341.125 -436129.625 -652813.875 26362.16796875 -436196.40625 -725256.875 65341.125 -300411.375 -725368 26362.16796875 -300457.3125 -769928.75 65341.125 -153148.421875 -770046.5625 26362.16796875 -153171.859375 -785012.4375 65341.125 -0.07375200092792511 -785132.625 26362.16796875 -0.07378699630498886 -769928.75 65341.125 153148.28125 -770046.5625 26362.16796875 153171.71875 -725256.9375 65341.125 300411.21875 -725368.0625 26362.16796875 300457.21875 -652714.1875 65341.125 436129.625 -652814.0625 26362.16796875 436196.3125 -555087.75 65341.125 555087.6875 -555172.75 26362.16796875 555172.625 -436129.625 65341.125 652714.1875 -436196.40625 26362.16796875 652814.0625 -300411.375 65341.125 725256.9375 -300457.3125 26362.16796875 725368.0625 -153148.40625 65341.125 769928.875 -153171.84375 26362.16796875 770046.75 -0.020820999518036842 65341.125 785012.5625 -0.020854000002145767 26362.16796875 785132.8125 153148.359375 65341.125 769928.875 153171.796875 26362.16796875 770046.75 300411.34375 65341.125 725257.125 300457.3125 26362.16796875 725368.1875 436129.65625 65341.125 652714.25 436196.5 26362.16796875 652814.125 555087.75 65341.125 555087.875 555172.75 26362.16796875 555172.875 652714.25 65341.125 436129.71875 652814.125 26362.173828125 436196.53125 725257.1875 65341.125 300411.4375 725368.25 26362.173828125 300457.4375 769929.125 65341.125 153148.4375 770046.9375 26362.16796875 153171.859375 785012.8125 65341.125 0.000024000000848900527 785133.0625 26362.16796875 0 769928.4375 65341.125 -153148.125 770046.25 26362.16796875 -153171.546875 725256.625 65341.125 -300411 725367.75 26362.16796875 -300456.96875 652713.9375 65341.125 -436129.3125 652813.8125 26362.16796875 -436196 555087.5625 65341.125 -555087.375 555172.5 26362.16796875 -555172.375 436129.5625 65341.125 -652713.8125 436196.28125 26362.16796875 -652813.6875 300411.3125 65341.125 -725256.5625 300457.28125 26362.16796875 -725367.625 153148.421875 65341.125 -769928.4375 153171.859375 26362.16796875 -770046.25 0.11421599984169006 -17190.234375 -780777.875 -152322.125 -17190.234375 -765775.625 -298790.6875 -17190.234375 -721344.9375 -433776.9375 -17190.234375 -649193.3125 -552093.4375 -17190.234375 -552093.5 -649193.25 -17190.234375 -433777.15625 -721344.9375 -17190.234375 -298790.9375 -765775.75 -17190.234375 -152322.359375 -780778.1875 -17190.234375 -0.07664400339126587 -765775.75 -17190.234375 152322.203125 -721345 -17190.234375 298790.8125 -649193.4375 -17190.234375 433777.0625 -552093.625 -17190.234375 552093.5 -433777.1875 -17190.234375 649193.4375 -298790.9375 -17190.234375 721345.125 -152322.328125 -17190.234375 765775.875 -0.02346000075340271 -17190.234375 780778.375 152322.28125 -17190.234375 765775.875 298790.9375 -17190.234375 721345.125 433777.25 -17190.234375 649193.5625 552093.6875 -17190.234375 552093.75 649193.5625 -17190.234375 433777.34375 721345.25 -17190.234375 298791.03125 765776.1875 -17190.234375 152322.34375 780778.625 -17190.234375 -0.0032659999560564756 765775.375 -17190.234375 -152322.046875 721344.75 -17190.234375 -298790.59375 649193.125 -17190.234375 -433776.875 552093.4375 -17190.234375 -552093.25 433777.0625 -17190.234375 -649193 298790.90625 -17190.234375 -721344.75 152322.34375 -17190.234375 -765775.5625</float_array>
                    <technique_common>
                        <accessor count="96" source="#pointarray4" stride="3">
                            <param name="X" type="float"/>
                            <param name="Y" type="float"/>
                            <param name="Z" type="float"/>
                        </accessor>
                    </technique_common>
                </source>
                <source id="uvs4">
                    <float_array id="uvarray4" count="198">7.0703125 1 7.0703125 0.3125 9.0703125 1 9.0703125 0.3125 11.0703125 1 11.0703125 0.3125 13.0703125 1 13.0703125 0.3125 15.0703125 1 15.0703125 0.3125 17.0703125 1 17.0703125 0.3125 19.0703125 1 19.0703125 0.3125 21.0703125 1 21.0703125 0.3125 23.0703125 1 23.0703125 0.3125 25.0703125 1.09765625 25.0703125 0.41015625 27.0703125 1.19921875 27.0703125 0.51171875 29.0703125 1.296875 29.0703125 0.609375 31.0703125 1.3984375 31.0703125 0.7109375 33.0703125 1.5 33.0703125 0.8125 35.0703125 1.59765625 35.0703125 0.91015625 37.0703125 1.69921875 37.0703125 1.0078125 39.0703125 1.69921875 39.0703125 1.0078125 41.0703125 1.69921875 41.0703125 1.0078125 43.0703125 1.59765625 43.0703125 0.91015625 45.0703125 1.5 45.0703125 0.8125 47.0703125 1.3984375 47.0703125 0.7109375 49.0703125 1.296875 49.0703125 0.609375 51.0703125 1.19921875 51.0703125 0.51171875 53.0703125 1.09765625 53.0703125 0.41015625 55.0703125 1 55.0703125 0.3125 57.0703125 1 57.0703125 0.3125 59.0703125 1 59.0703125 0.3125 61.0703125 1 61.0703125 0.3125 63.0703125 1 63.0703125 0.3125 65.0703125 1 65.0703125 0.3125 67.0703125 1 67.0703125 0.3125 69.0703125 1 69.0703125 0.3125 71.0703125 1 71.0703125 0.3125 7.0703125 0 9.0703125 0 11.0703125 0 13.0703125 0 15.0703125 0 17.0703125 0 19.0703125 0 21.0703125 0 23.0703125 0 25.0703125 0.1015625 27.0703125 0.2265625 29.0703125 0.32421875 31.0703125 0.42578125 33.0703125 0.52734375 35.0703125 0.625 37.0703125 0.7265625 39.0703125 0.7265625 41.0703125 0.7265625 43.0703125 0.625 45.0703125 0.52734375 47.0703125 0.42578125 49.0703125 0.32421875 51.0703125 0.2265625 53.0703125 0.1015625 55.0703125 0 57.0703125 0 59.0703125 0 61.0703125 0 63.0703125 0 65.0703125 0 67.0703125 0 69.0703125 0 71.0703125 0</float_array>
                    <technique_common>
                        <accessor count="1" source="#uvarray4" stride="2">
                            <param name="S" type="float"/>
                            <param name="T" type="float"/>
                        </accessor>
                    </technique_common>
                </source>
                <source id="colors4">
                    <float_array id="colorarray4" count="8">0 0 0 1 1 1 1 1</float_array>
                    <technique_common>
                        <accessor count="2" source="#colorarray4" stride="4">
                            <param name="R" type="float"/>
                            <param name="G" type="float"/>
                            <param name="B" type="float"/>
                            <param name="A" type="float"/>
                        </accessor>
                    </technique_common>
                </source>
                <vertices id="vertices4">
                    <input semantic="POSITION" source="#points4"/>
                </vertices>
                <polylist count="128" material="Material1">
                    <input offset="0" semantic="VERTEX" source="#vertices4"/>
                    <input offset="1" semantic="TEXCOORD" source="#uvs4" set="0"/>
                    <input offset="2" semantic="COLOR" source="#colors4" set="0"/>
                    <vcount>3 3 3 3 3 3 3 3 3 3 3 3 3 3 3 3 3 3 3 3 3 3 3 3 3 3 3 3 3 3 3 3 3 3 3 3 3 3 3 3 3 3 3 3 3 3 3 3 3 3 3 3 3 3 3 3 3 3 3 3 3 3 3 3 3 3 3 3 3 3 3 3 3 3 3 3 3 3 3 3 3 3 3 3 3 3 3 3 3 3 3 3 3 3 3 3 3 3 3 3 3 3 3 3 3 3 3 3 3 3 3 3 3 3 3 3 3 3 3 3 3 3 3 3 3 3 3 3</vcount>
                    <p>2 2 0 1 1 1 0 0 0 3 3 1 1 1 1 2 2 0 4 4 0 3 3 1 2 2 0 5 5 1 3 3 1 4 4 0 6 6 0 5 5 1 4 4 0 7 7 1 5 5 1 6 6 0 8 8 0 7 7 1 6 6 0 9 9 1 7 7 1 8 8 0 10 10 0 9 9 1 8 8 0 11 11 1 9 9 1 10 10 0 12 12 0 11 11 1 10 10 0 13 13 1 11 11 1 12 12 0 14 14 0 13 13 1 12 12 0 15 15 1 13 13 1 14 14 0 16 16 0 15 15 1 14 14 0 17 17 1 15 15 1 16 16 0 18 18 0 17 17 1 16 16 0 19 19 1 17 17 1 18 18 0 20 20 0 19 19 1 18 18 0 21 21 1 19 19 1 20 20 0 22 22 0 21 21 1 20 20 0 23 23 1 21 21 1 22 22 0 24 24 0 23 23 1 22 22 0 25 25 1 23 23 1 24 24 0 26 26 0 25 25 1 24 24 0 27 27 1 25 25 1 26 26 0 28 28 0 27 27 1 26 26 0 29 29 1 27 27 1 28 28 0 30 30 0 29 29 1 28 28 0 31 31 1 29 29 1 30 30 0 32 32 0 31 31 1 30 30 0 33 33 1 31 31 1 32 32 0 34 34 0 33 33 1 32 32 0 35 35 1 33 33 1 34 34 0 36 36 0 35 35 1 34 34 0 37 37 1 35 35 1 36 36 0 38 38 0 37 37 1 36 36 0 39 39 1 37 37 1 38 38 0 40 40 0 39 39 1 38 38 0 41 41 1 39 39 1 40 40 0 42 42 0 41 41 1 40 40 0 43 43 1 41 41 1 42 42 0 44 44 0 43 43 1 42 42 0 45 45 1 43 43 1 44 44 0 46 46 0 45 45 1 44 44 0 47 47 1 45 45 1 46 46 0 48 48 0 47 47 1 46 46 0 49 49 1 47 47 1 48 48 0 50 50 0 49 49 1 48 48 0 51 51 1 49 49 1 50 50 0 52 52 0 51 51 1 50 50 0 53 53 1 51 51 1 52 52 0 54 54 0 53 53 1 52 52 0 55 55 1 53 53 1 54 54 0 56 56 0 55 55 1 54 54 0 57 57 1 55 55 1 56 56 0 58 58 0 57 57 1 56 56 0 59 59 1 57 57 1 58 58 0 60 60 0 59 59 1 58 58 0 61 61 1 59 59 1 60 60 0 62 62 0 61 61 1 60 60 0 63 63 1 61 61 1 62 62 0 0 64 0 63 63 1 62 62 0 1 65 1 63 63 1 0 64 0 3 3 1 64 66 1 1 1 1 65 67 1 64 66 1 3 3 1 5 5 1 65 67 1 3 3 1 66 68 1 65 67 1 5 5 1 7 7 1 66 68 1 5 5 1 67 69 1 66 68 1 7 7 1 9 9 1 67 69 1 7 7 1 68 70 1 67 69 1 9 9 1 11 11 1 68 70 1 9 9 1 69 71 1 68 70 1 11 11 1 13 13 1 69 71 1 11 11 1 70 72 1 69 71 1 13 13 1 15 15 1 70 72 1 13 13 1 71 73 1 70 72 1 15 15 1 17 17 1 71 73 1 15 15 1 72 74 1 71 73 1 17 17 1 19 19 1 72 74 1 17 17 1 73 75 1 72 74 1 19 19 1 21 21 1 73 75 1 19 19 1 74 76 1 73 75 1 21 21 1 23 23 1 74 76 1 21 21 1 75 77 1 74 76 1 23 23 1 25 25 1 75 77 1 23 23 1 76 78 1 75 77 1 25 25 1 27 27 1 76 78 1 25 25 1 77 79 1 76 78 1 27 27 1 29 29 1 77 79 1 27 27 1 78 80 1 77 79 1 29 29 1 31 31 1 78 80 1 29 29 1 79 81 1 78 80 1 31 31 1 33 33 1 79 81 1 31 31 1 80 82 1 79 81 1 33 33 1 35 35 1 80 82 1 33 33 1 81 83 1 80 82 1 35 35 1 37 37 1 81 83 1 35 35 1 82 84 1 81 83 1 37 37 1 39 39 1 82 84 1 37 37 1 83 85 1 82 84 1 39 39 1 41 41 1 83 85 1 39 39 1 84 86 1 83 85 1 41 41 1 43 43 1 84 86 1 41 41 1 85 87 1 84 86 1 43 43 1 45 45 1 85 87 1 43 43 1 86 88 1 85 87 1 45 45 1 47 47 1 86 88 1 45 45 1 87 89 1 86 88 1 47 47 1 49 49 1 87 89 1 47 47 1 88 90 1 87 89 1 49 49 1 51 51 1 88 90 1 49 49 1 89 91 1 88 90 1 51 51 1 53 53 1 89 91 1 51 51 1 90 92 1 89 91 1 53 53 1 55 55 1 90 92 1 53 53 1 91 93 1 90 92 1 55 55 1 57 57 1 91 93 1 55 55 1 92 94 1 91 93 1 57 57 1 59 59 1 92 94 1 57 57 1 93 95 1 92 94 1 59 59 1 61 61 1 93 95 1 59 59 1 94 96 1 93 95 1 61 61 1 63 63 1 94 96 1 61 61 1 95 97 1 94 96 1 63 63 1 1 65 1 95 97 1 63 63 1 64 98 1 95 97 1 1 65 1</p>
                </polylist>
            </mesh>
        </geometry>
        <geometry id="mesh5">
            <mesh>
                <source id="points5">
                    <float_array id="pointarray5" count="48">-81717.90625 -118712.1015625 554017.9375 162404.734375 -118712.1015625 567403.9375 -120645.703125 -118712.1015625 637962.3125 123476.921875 -118712.1015625 651348.25 -207935 -118712.0703125 363785.75 32846.25 -118712.09375 388310.125 -246329.96875 -118712.0703125 517577.21875 -5548.74462890625 -118712.09375 542101.5 138573.65625 -82753.0078125 718074.75 112839.6484375 -82753.0078125 669775.625 186872.515625 -82753.0078125 692340.625 161138.40625 -82753.0078125 644041.5625 113419.328125 -109290.5078125 733201.125 31061.134765625 -109290.5078125 739602.4375 103352.671875 -109290.5078125 680826.3125 20995.099609375 -109290.5078125 687227.875</float_array>
                    <technique_common>
                        <accessor count="16" source="#pointarray5" stride="3">
                            <param name="X" type="float"/>
                            <param name="Y" type="float"/>
                            <param name="Z" type="float"/>
                        </accessor>
                    </technique_common>
                </source>
                <source id="uvs5">
                    <float_array id="uvarray5" count="8">1 0 0 0.00390625 1 1 0 1</float_array>
                    <technique_common>
                        <accessor count="1" source="#uvarray5" stride="2">
                            <param name="S" type="float"/>
                            <param name="T" type="float"/>
                        </accessor>
                    </technique_common>
                </source>
                <source id="colors5">
                    <float_array id="colorarray5" count="4">1 1 1 1</float_array>
                    <technique_common>
                        <accessor count="1" source="#colorarray5" stride="4">
                            <param name="R" type="float"/>
                            <param name="G" type="float"/>
                            <param name="B" type="float"/>
                            <param name="A" type="float"/>
                        </accessor>
                    </technique_common>
                </source>
                <vertices id="vertices5">
                    <input semantic="POSITION" source="#points5"/>
                </vertices>
                <polylist count="8" material="Material1">
                    <input offset="0" semantic="VERTEX" source="#vertices5"/>
                    <input offset="1" semantic="TEXCOORD" source="#uvs5" set="0"/>
                    <input offset="2" semantic="COLOR" source="#colors5" set="0"/>
                    <vcount>3 3 3 3 3 3 3 3</vcount>
                    <p>2 2 0 1 1 0 0 0 0 3 3 0 1 1 0 2 2 0 6 2 0 5 1 0 4 0 0 7 3 0 5 1 0 6 2 0 10 2 0 9 1 0 8 0 0 11 3 0 9 1 0 10 2 0 14 2 0 13 1 0 12 0 0 15 3 0 13 1 0 14 2 0</p>
                </polylist>
            </mesh>
        </geometry>
    </library_geometries>
    <library_visual_scenes>
        <visual_scene id="VisualSceneNode">
            <node id="node0" name="m0" type="NODE">
                <instance_geometry url="#mesh0">
                    <bind_material>
                        <technique_common>
                            <instance_material symbol="Material1" target="#mat1">
                                <bind_vertex_input semantic="UVSET0" input_semantic="TEXCOORD" input_set="0"></bind_vertex_input>
                            </instance_material>
                        </technique_common>
                    </bind_material>
                </instance_geometry>
            </node>
            <node id="node1" name="m1" type="NODE">
                <instance_geometry url="#mesh1">
                    <bind_material>
                        <technique_common>
                            <instance_material symbol="Material1" target="#mat2">
                                <bind_vertex_input semantic="UVSET0" input_semantic="TEXCOORD" input_set="0"></bind_vertex_input>
                            </instance_material>
                        </technique_common>
                    </bind_material>
                </instance_geometry>
            </node>
            <node id="node2" name="m2" type="NODE">
                <instance_geometry url="#mesh2">
                    <bind_material>
                        <technique_common>
                            <instance_material symbol="Material1" target="#mat5">
                                <bind_vertex_input semantic="UVSET0" input_semantic="TEXCOORD" input_set="0"></bind_vertex_input>
                            </instance_material>
                        </technique_common>
                    </bind_material>
                </instance_geometry>
            </node>
            <node id="node3" name="m3" type="NODE">
                <instance_geometry url="#mesh3">
                    <bind_material>
                        <technique_common>
                            <instance_material symbol="Material1" target="#mat4">
                                <bind_vertex_input semantic="UVSET0" input_semantic="TEXCOORD" input_set="0"></bind_vertex_input>
                            </instance_material>
                        </technique_common>
                    </bind_material>
                </instance_geometry>
            </node>
            <node id="node4" name="m4" type="NODE">
                <instance_geometry url="#mesh4">
                    <bind_material>
                        <technique_common>
                            <instance_material symbol="Material1" target="#mat3">
                                <bind_vertex_input semantic="UVSET0" input_semantic="TEXCOORD" input_set="0"></bind_vertex_input>
                            </instance_material>
                        </technique_common>
                    </bind_material>
                </instance_geometry>
            </node>
            <node id="node5" name="m5" type="NODE">
                <instance_geometry url="#mesh5">
                    <bind_material>
                        <technique_common>
                            <instance_material symbol="Material1" target="#mat0">
                                <bind_vertex_input semantic="UVSET0" input_semantic="TEXCOORD" input_set="0"></bind_vertex_input>
                            </instance_material>
                        </technique_common>
                    </bind_material>
                </instance_geometry>
            </node>
        </visual_scene>
    </library_visual_scenes>
    <scene>
        <instance_visual_scene url="#VisualSceneNode"></instance_visual_scene>
    </scene>
</COLLADA>
