<svg preserveAspectRatio="none" overflow="visible" style="display: block;" width="155.832" height="61.8323" viewBox="0 0 155.832 61.8323" fill="none" xmlns="http://www.w3.org/2000/svg">
<g id="shape/name-letterform" filter="url(#filter0_n_0_7)">
<path d="M86.0301 35.5367L154.263 32.5651C156.355 32.4762 156.355 29.3476 154.263 29.2587L86.0301 26.2871C85.2896 26.2557 84.6579 25.7221 84.5025 24.9896L79.3451 1.30065C78.9567 -0.478114 76.4246 -0.41538 76.1294 1.38432L72.37 24.1787C72.2458 24.9426 71.6089 25.5181 70.8425 25.5599L1.55345 29.2639C-0.517817 29.3738 -0.517817 32.4604 1.55345 32.5703L70.8425 36.2744C71.6089 36.3162 72.2458 36.8917 72.37 37.6555L76.1294 60.4499C76.4246 62.2444 78.9567 62.3124 79.3451 60.5336L84.5025 36.8446C84.663 36.1017 85.2896 35.5681 86.0301 35.5367Z" fill="url(#paint0_linear_0_7)"/>
</g>
<defs>
<filter id="filter0_n_0_7" x="0" y="0" width="155.832" height="61.8323" filterUnits="userSpaceOnUse" color-interpolation-filters="sRGB">
<feFlood flood-opacity="0" result="BackgroundImageFix"/>
<feBlend mode="normal" in="SourceGraphic" in2="BackgroundImageFix" result="shape"/>
<feTurbulence type="fractalNoise" baseFrequency="2 2" stitchTiles="stitch" numOctaves="3" result="noise" seed="4951" />
<feColorMatrix in="noise" type="luminanceToAlpha" result="alphaNoise" />
<feComponentTransfer in="alphaNoise" result="coloredNoise1">
<feFuncA type="discrete" tableValues="1 1 1 1 1 1 1 1 1 1 1 1 1 1 1 1 1 1 1 1 1 1 1 1 1 1 1 1 1 1 1 1 1 1 1 1 1 1 1 1 1 1 1 1 1 1 1 1 1 1 1 0 0 0 0 0 0 0 0 0 0 0 0 0 0 0 0 0 0 0 0 0 0 0 0 0 0 0 0 0 0 0 0 0 0 0 0 0 0 0 0 0 0 0 0 0 0 0 0 0 "/>
</feComponentTransfer>
<feComposite operator="in" in2="shape" in="coloredNoise1" result="noise1Clipped" />
<feFlood flood-color="rgba(0, 0, 0, 0.04)" result="color1Flood" />
<feComposite operator="in" in2="noise1Clipped" in="color1Flood" result="color1" />
<feMerge result="effect1_noise_0_7">
<feMergeNode in="shape" />
<feMergeNode in="color1" />
</feMerge>
</filter>
<linearGradient id="paint0_linear_0_7" x1="77.9159" y1="5.7836e-08" x2="77.9159" y2="61.8323" gradientUnits="userSpaceOnUse">
<stop stop-color="white"/>
<stop offset="1" stop-color="#F9E6FF" stop-opacity="0.9"/>
</linearGradient>
</defs>
</svg>
