<svg preserveAspectRatio="none" overflow="visible" style="display: block;" width="176" height="256" viewBox="0 0 176 256" fill="none" xmlns="http://www.w3.org/2000/svg">
<g id="shape/name-shadow" filter="url(#filter0_f_0_17)">
<path d="M104.048 95.2658L153.216 90.9473C156.928 90.6237 156.928 85.199 153.216 84.8754L104.048 80.5569C103.093 80.4745 102.628 79.3508 103.241 78.6153L111.683 68.5543C114.081 65.7008 110.24 61.8647 107.382 64.2593L97.3082 72.6905C96.5718 73.3083 95.4525 72.8435 95.3641 71.8845L91.0399 22.78C90.7159 19.0733 85.2841 19.0733 84.9601 22.78L80.6359 71.8845C80.5535 72.8376 79.4282 73.3024 78.6918 72.6905L68.6177 64.2593C65.7605 61.8647 61.9193 65.7008 64.3171 68.5543L72.7593 78.6153C73.3779 79.3508 72.9125 80.4686 71.9522 80.5569L22.7836 84.8754C19.0721 85.199 19.0721 90.6237 22.7836 90.9473L71.9522 95.2658C72.9066 95.3482 73.372 96.472 72.7593 97.2075L64.3171 107.268C61.9193 110.122 65.7605 113.958 68.6177 111.563L78.2146 103.526C78.9687 102.891 80.1234 103.403 80.1587 104.391L84.9424 233.066C85.0897 236.978 90.8985 236.978 91.0458 233.066L95.8296 104.391C95.8649 103.409 97.0196 102.897 97.7736 103.526L107.371 111.563C110.228 113.958 114.069 110.122 111.671 107.268L103.229 97.2075C102.628 96.472 103.093 95.3482 104.048 95.2658Z" fill="#B891D5" fill-opacity="0.75"/>
</g>
<defs>
<filter id="filter0_f_0_17" x="1.19209e-07" y="1.63913e-07" width="176" height="256" filterUnits="userSpaceOnUse" color-interpolation-filters="sRGB">
<feFlood flood-opacity="0" result="BackgroundImageFix"/>
<feBlend mode="normal" in="SourceGraphic" in2="BackgroundImageFix" result="shape"/>
<feGaussianBlur stdDeviation="10" result="effect1_foregroundBlur_0_17"/>
</filter>
</defs>
</svg>
