<?xml version="1.0"?>
<COLLADA xmlns="http://www.collada.org/2005/11/COLLADASchema" version="1.4.1">
    <asset>
        <contributor>
            <authoring_tool>J3D Ripoff Exporter</authoring_tool>
        </contributor>
        <created>2024-07-12T20:27:46.690Z</created>
        <modified>2024-07-12T20:27:46.690Z</modified>
		<unit meter="0.01" name="centimeter" ></unit>
        <up_axis>Y_UP</up_axis>
    </asset>
    <library_images>
        <image id="tex0">
            <init_from>StarPieceClusterInner.png</init_from>
        </image>
        <image id="tex1">
            <init_from>StarPieceCluster.png</init_from>
        </image>
    </library_images>
    <library_effects>
        <effect id="effect0">
            <profile_COMMON>
                <newparam sid="surface0">
                    <surface type="2D">
                        <init_from>tex0</init_from>
                    </surface>
                </newparam>
                <newparam sid="sampler0">
                    <sampler2D>
                        <source>surface0</source>
                    </sampler2D>
                </newparam>
                <technique sid="COMMON">
                    <blinn>
                        <diffuse>
                            <texture texture="sampler0" texcoord="UVSET0"></texture>
                        </diffuse>
                    </blinn>
                </technique>
            </profile_COMMON>
        </effect>
        <effect id="effect1">
            <profile_COMMON>
                <newparam sid="surface1">
                    <surface type="2D">
                        <init_from>tex1</init_from>
                    </surface>
                </newparam>
                <newparam sid="sampler1">
                    <sampler2D>
                        <source>surface1</source>
                    </sampler2D>
                </newparam>
                <technique sid="COMMON">
                    <blinn>
                        <diffuse>
                            <texture texture="sampler1" texcoord="UVSET0"></texture>
                        </diffuse>
                    </blinn>
                </technique>
            </profile_COMMON>
        </effect>
        <effect id="effect2">
            <profile_COMMON>
                <newparam sid="surface2">
                    <surface type="2D">
                        <init_from>tex1</init_from>
                    </surface>
                </newparam>
                <newparam sid="sampler2">
                    <sampler2D>
                        <source>surface2</source>
                    </sampler2D>
                </newparam>
                <technique sid="COMMON">
                    <blinn>
                        <diffuse>
                            <texture texture="sampler2" texcoord="UVSET0"></texture>
                        </diffuse>
                    </blinn>
                </technique>
            </profile_COMMON>
        </effect>
    </library_effects>
    <library_materials>
        <material id="mat0" name="StarPieceClusterMat_v">
            <instance_effect url="#effect0"></instance_effect>
        </material>
        <material id="mat1" name="StarPieceClusterMat_v(2)">
            <instance_effect url="#effect1"></instance_effect>
        </material>
        <material id="mat2" name="StarPieceClusterMat_v(3)">
            <instance_effect url="#effect2"></instance_effect>
        </material>
    </library_materials>
    <library_geometries>
        <geometry id="mesh0">
            <mesh>
                <source id="points0">
                    <float_array id="pointarray0" count="546">-97.8125 -164.61284447034495 196.1800709155864 -39.375 -339.75345100496145 169.35896992566342 0 -185.10156946848429 220.5978466732311 0 -317.8863766550912 180.97644921345417 39.375 -339.75345100496145 169.35896992566342 0 -440.5424867793299 145.57059726330863 68.4375 -333.5510833003483 133.76952261530505 63.59375 -363.27940105196103 98.21838516994126 143.90625 -217.85491852120379 121.31774083679869 158.28125 -222.9915944392608 19.510433428328014 308.75 -187.01475027352575 123.94297129428439 232.96875 -167.38654900358839 -24.394124103855418 316.875 -161.39829610210563 85.87855464636984 348.125 -127.48457850060527 90.67483338052246 394.6875 -156.7789202063505 186.84386253766345 342.96875 -81.75403013963441 97.43171307217044 348.125 -67.15830898171842 141.29403631710198 287.96875 0 0 256.09375 74.929056981792 62.87226396487855 348.125 127.48457850060527 -90.67483338052246 232.96875 167.38654900358839 24.394124103855418 316.875 161.39829610210563 -85.87855464636984 308.75 187.01475027352575 -123.94297129428439 394.6875 156.7789202063505 -186.84386253766345 274.53125 185.5001672915983 -155.1972832360526 284.375 163.60849520573026 -194.983121123545 143.90625 217.85491852120379 -121.31774083679869 97.8125 164.61284447034495 -196.1800709155864 -254.53125 217.84486215153586 182.79156615987054 -232.96875 167.38654900358839 24.394124103855418 -256.09375 74.929056981792 62.87226396487855 -348.125 127.48457850060527 -90.67483338052246 -287.96875 0 0 -342.96875 81.75403013963441 -97.43171307217044 -348.125 67.15830898171842 -141.29403631710198 -394.6875 156.7789202063505 -186.84386253766345 -316.875 56.545494319278475 -173.85955022661523 -308.75 89.5830372013553 -205.69700143391879 -232.96875 -53.09160269043857 -160.60701043816738 -158.28125 -19.510433428328014 -222.9915944392608 -215.15625 -195.6402638375646 -247.17527122394466 -88.90625 -85.96464672236219 -259.98755120106125 -169.53125 -198.7509200358744 -256.1084317552693 -151.40625 -241.37081219853548 -253.93215091559264 -243.90625 -302.34951746965913 -253.69862424166647 -127.1875 -262.7304793530886 -220.45466358292077 -151.40625 -291.990015135115 -193.60588139670577 0 -220.5978466732311 -185.10156946848429 0 -259.05233488046497 -89.68378748855295 274.53125 -185.5001672915983 155.1972832360526 284.375 -163.60849520573026 194.983121123545 97.8125 -164.61284447034495 196.1800709155864 143.90625 -81.64203218689181 235.6126871499485 39.375 -107.78458130733698 364.0018574079871 68.4375 -73.81297842736322 351.71331303668916 0 -66.85476170400301 459.12843767600964 63.59375 -33.63942832375784 374.8161726448223 42.34375 5.950982514312159 363.3669063889512 88.90625 85.96464672236219 259.98755120106125 0 12.191554963674463 381.4533573572661 0 133.30780695070786 239.54190145213695 -88.90625 85.96464672236219 259.98755120106125 274.53125 -120.6254885629541 209.6330133781679 308.75 -89.5830372013553 205.69700143391879 158.28125 19.510433428328014 222.9915944392608 232.96875 53.09160269043857 160.60701043816738 215.15625 195.6402638375646 247.17527122394466 238.125 183.08621339061736 208.9015051571202 243.90625 302.34951746965913 253.69862424166647 254.53125 217.84486215153586 182.79156615987054 238.125 237.52194353273265 144.026826428476 215.15625 277.39429397719897 149.7435581517742 158.28125 222.9915944392608 -19.510433428328014 88.90625 270.965781264385 39.50939950703432 -316.875 -56.545494319278475 173.85955022661523 -394.6875 -156.7789202063505 186.84386253766345 -308.75 -89.5830372013553 205.69700143391879 -274.53125 -120.6254885629541 209.6330133781679 -143.90625 -81.64203218689181 235.6126871499485 -284.375 -163.60849520573026 194.983121123545 -143.90625 -217.85491852120379 121.31774083679869 -68.4375 -333.5510833003483 133.76952261530505 -63.59375 -363.27940105196103 98.21838516994126 -42.34375 -358.87931409990836 57.2412505343988 -88.90625 -270.965781264385 -39.50939950703432 0 -377.7746872834156 54.2363669458056 88.90625 -270.965781264385 -39.50939950703432 -274.53125 120.6254885629541 -209.6330133781679 -284.375 163.60849520573026 -194.983121123545 -143.90625 81.64203218689181 -235.6126871499485 -97.8125 164.61284447034495 -196.1800709155864 -39.375 107.78458130733698 -364.0018574079871 0 185.10156946848429 -220.5978466732311 0 123.02295051075033 -344.48450949272296 39.375 107.78458130733698 -364.0018574079871 0 66.85476170400301 -459.12843767600964 68.4375 73.81297842736322 -351.71331303668916 63.59375 33.63942832375784 -374.8161726448223 143.90625 81.64203218689181 -235.6126871499485 158.28125 -19.510433428328014 -222.9915944392608 -256.09375 -74.929056981792 -62.87226396487855 -348.125 -127.48457850060527 90.67483338052246 -342.96875 -81.75403013963441 97.43171307217044 -348.125 -67.15830898171842 141.29403631710198 -232.96875 53.09160269043857 160.60701043816738 -158.28125 19.510433428328014 222.9915944392608 -308.75 187.01475027352575 -123.94297129428439 -158.28125 222.9915944392608 -19.510433428328014 -143.90625 217.85491852120379 -121.31774083679869 -63.59375 363.27940105196103 -98.21838516994126 -68.4375 333.5510833003483 -133.76952261530505 0 440.5424867793299 -145.57059726330863 -39.375 339.75345100496145 -169.35896992566342 0 317.8863766550912 -180.97644921345417 39.375 339.75345100496145 -169.35896992566342 -88.90625 270.965781264385 39.50939950703432 -215.15625 277.39429397719897 149.7435581517742 -238.125 237.52194353273265 144.026826428476 -243.90625 302.34951746965913 253.69862424166647 -238.125 183.08621339061736 208.9015051571202 -215.15625 195.6402638375646 247.17527122394466 232.96875 -53.09160269043857 -160.60701043816738 256.09375 -74.929056981792 -62.87226396487855 254.53125 -217.84486215153586 -182.79156615987054 238.125 -237.52194353273265 -144.026826428476 215.15625 -277.39429397719897 -149.7435581517742 243.90625 -302.34951746965913 -253.69862424166647 169.53125 -286.7319156161198 -151.25562997244216 151.40625 -291.990015135115 -193.60588139670577 0 -123.02295051075033 344.48450949272296 -39.375 -107.78458130733698 364.0018574079871 -68.4375 -73.81297842736322 351.71331303668916 -63.59375 -33.63942832375784 374.8161726448223 169.53125 198.7509200358744 256.1084317552693 151.40625 241.37081219853548 253.93215091559264 127.1875 262.7304793530886 220.45466358292077 151.40625 291.990015135115 193.60588139670577 0 220.5978466732311 185.10156946848429 0 259.05233488046497 89.68378748855295 348.125 67.15830898171842 -141.29403631710198 316.875 56.545494319278475 -173.85955022661523 308.75 89.5830372013553 -205.69700143391879 274.53125 120.6254885629541 -209.6330133781679 342.96875 81.75403013963441 -97.43171307217044 -169.53125 286.7319156161198 151.25562997244216 -151.40625 291.990015135115 193.60588139670577 -127.1875 262.7304793530886 220.45466358292077 -151.40625 241.37081219853548 253.93215091559264 68.4375 333.5510833003483 -133.76952261530505 63.59375 363.27940105196103 -98.21838516994126 -238.125 -183.08621339061736 -208.9015051571202 -254.53125 -217.84486215153586 -182.79156615987054 -232.96875 -167.38654900358839 -24.394124103855418 -238.125 -237.52194353273265 -144.026826428476 -215.15625 -277.39429397719897 -149.7435581517742 -158.28125 -222.9915944392608 19.510433428328014 -274.53125 -185.5001672915983 155.1972832360526 -308.75 -187.01475027352575 123.94297129428439 -68.4375 73.81297842736322 -351.71331303668916 -63.59375 33.63942832375784 -374.8161726448223 -42.34375 -5.950982514312159 -363.3669063889512 0 -12.191554963674463 -381.4533573572661 0 -133.30780695070786 -239.54190145213695 88.90625 -85.96464672236219 -259.98755120106125 238.125 -183.08621339061736 -208.9015051571202 215.15625 -195.6402638375646 -247.17527122394466 169.53125 -198.7509200358744 -256.1084317552693 151.40625 -241.37081219853548 -253.93215091559264 42.34375 358.87931409990836 -57.2412505343988 0 377.7746872834156 -54.2363669458056 -169.53125 198.7509200358744 256.1084317552693 127.1875 -262.7304793530886 -220.45466358292077 -42.34375 5.950982514312159 363.3669063889512 -316.875 161.39829610210563 -85.87855464636984 -169.53125 -286.7319156161198 -151.25562997244216 169.53125 286.7319156161198 151.25562997244216 -316.875 -161.39829610210563 85.87855464636984 316.875 -56.545494319278475 173.85955022661523 42.34375 -358.87931409990836 57.2412505343988 -42.34375 358.87931409990836 -57.2412505343988 42.34375 -5.950982514312159 -363.3669063889512 -274.53125 185.5001672915983 -155.1972832360526</float_array>
                    <technique_common>
                        <accessor count="182" source="#pointarray0" stride="3">
                            <param name="X" type="float"/>
                            <param name="Y" type="float"/>
                            <param name="Z" type="float"/>
                        </accessor>
                    </technique_common>
                </source>
                <source id="uvs0">
                    <float_array id="uvarray0" count="438">0.48101806640625 0.38201904296875 0.450439453125 0.4674072265625 0.4197998046875 0.38201904296875 0.4197998046875 0.43896484375 0.38916015625 0.4674072265625 0.4197998046875 0.55279541015625 0.3663330078125 0.51763916015625 0.3702392578125 0.58544921875 0.339599609375 0.5 0.3206787109375 0.6180419921875 0.2900390625 0.53265380859375 0.25946044921875 0.6180419921875 0.25946044921875 0.56109619140625 0.22882080078125 0.53265380859375 0.25946044921875 0.447265625 0.20599365234375 0.482421875 0.20989990234375 0.41461181640625 0.17926025390625 0.5 0.16033935546875 0.38201904296875 0.12969970703125 0.4674072265625 0.09906005859375 0.38201904296875 0.09906005859375 0.43896484375 0.06842041015625 0.4674072265625 0.09906005859375 0.55279541015625 0.04559326171875 0.51763916015625 0.04949951171875 0.58544921875 0.0189208984375 0.5 0 0.6180419921875 0.70989990234375 0.29656982421875 0.740478515625 0.38201904296875 0.67926025390625 0.38201904296875 0.70989990234375 0.4674072265625 0.66033935546875 0.5 0.68707275390625 0.51763916015625 0.69097900390625 0.58544921875 0.740478515625 0.55279541015625 0.70745849609375 0.64495849609375 0.740478515625 0.65838623046875 0.69097900390625 0.6910400390625 0.740478515625 0.76397705078125 0.69097900390625 0.79656982421875 0.7215576171875 0.88201904296875 0.69482421875 0.8643798828125 0.6719970703125 0.91461181640625 0.64141845703125 0.8292236328125 0.64141845703125 0.943115234375 0.61077880859375 0.91461181640625 0.64141845703125 1 0.58013916015625 1 0.3128662109375 0.482421875 0.3089599609375 0.41461181640625 0.3585205078125 0.38201904296875 0.3089599609375 0.30902099609375 0.3585205078125 0.27642822265625 0.32550048828125 0.26300048828125 0.3585205078125 0.17083740234375 0.3089599609375 0.2034912109375 0.30511474609375 0.13568115234375 0.27838134765625 0.1180419921875 0.32794189453125 0.08544921875 0.29730224609375 0 0.3585205078125 0 0.29248046875 0.3551025390625 0.25946044921875 0.3416748046875 0.25946044921875 0.236083984375 0.20989990234375 0.30902099609375 0.20989990234375 0.2034912109375 0.193359375 0.26300048828125 0.16033935546875 0.17083740234375 0.16033935546875 0.27642822265625 0.1273193359375 0.26300048828125 0.11077880859375 0.30902099609375 0.11077880859375 0.2034912109375 0.06121826171875 0.236083984375 0.08013916015625 0.1180419921875 0.6131591796875 0.3551025390625 0.58013916015625 0.447265625 0.58013916015625 0.3416748046875 0.547119140625 0.3551025390625 0.53057861328125 0.30902099609375 0.53057861328125 0.41461181640625 0.5 0.5 0.4732666015625 0.51763916015625 0.4693603515625 0.58544921875 0.45281982421875 0.64495849609375 0.4693603515625 0.6910400390625 0.4197998046875 0.65838623046875 0.4197998046875 0.76397705078125 0.3702392578125 0.6910400390625 0.7735595703125 0.64495849609375 0.7900390625 0.58544921875 0.7900390625 0.6910400390625 0.839599609375 0.6180419921875 0.839599609375 0.7236328125 0.88916015625 0.6910400390625 0.87261962890625 0.737060546875 0.88916015625 0.79656982421875 0.839599609375 0.8292236328125 0.89306640625 0.8643798828125 0.8702392578125 0.91461181640625 0.9197998046875 0.88201904296875 0.90087890625 1 0.64141845703125 0.6180419921875 0.61077880859375 0.53265380859375 0.63360595703125 0.482421875 0.62969970703125 0.41461181640625 0.62969970703125 0.30902099609375 0.58013916015625 0.236083984375 0.7711181640625 0.4674072265625 0.8017578125 0.38201904296875 0.8206787109375 0.5 0.851318359375 0.41461181640625 0.847412109375 0.482421875 0.90087890625 0.447265625 0.8702392578125 0.53265380859375 0.90087890625 0.56109619140625 0.90087890625 0.6180419921875 0.9315185546875 0.53265380859375 0.96209716796875 0.6180419921875 0.98101806640625 0.5 0.8206787109375 0.26397705078125 0.7711181640625 0.29656982421875 0.740478515625 0.3250732421875 0.740478515625 0.211181640625 0.68707275390625 0.246337890625 0.69097900390625 0.17852783203125 0.66033935546875 0.26397705078125 0.64141845703125 0.14593505859375 0.17926025390625 0.736083984375 0.19818115234375 0.6180419921875 0.22882080078125 0.7034912109375 0.25946044921875 0.67498779296875 0.2900390625 0.7034912109375 0.25946044921875 0.78887939453125 0.3128662109375 0.75372314453125 0.3089599609375 0.821533203125 0.339599609375 0.736083984375 0.3585205078125 0.8541259765625 0.4080810546875 0.30902099609375 0.3916015625 0.26300048828125 0.4080810546875 0.2034912109375 0.4119873046875 0.13568115234375 0.38916015625 0.08544921875 0.438720703125 0.1180419921875 0.4197998046875 0 0.240478515625 0.1180419921875 0.21380615234375 0.13568115234375 0.19097900390625 0.08544921875 0.16033935546875 0.05694580078125 0.12969970703125 0.08544921875 0.16033935546875 0 0.09906005859375 0 0.14862060546875 0.6910400390625 0.14862060546875 0.58544921875 0.13214111328125 0.64495849609375 0.09906005859375 0.65838623046875 0.0660400390625 0.64495849609375 0.04949951171875 0.6910400390625 0.15252685546875 0.51763916015625 0.7939453125 0.246337890625 0.7900390625 0.17852783203125 0.839599609375 0.14593505859375 0.7900390625 0.072998046875 0.7735595703125 0.1190185546875 0.740478515625 0.1055908203125 0.740478515625 0 0.69097900390625 0.072998046875 0.954345703125 0.482421875 0.950439453125 0.41461181640625 1 0.38201904296875 0.950439453125 0.30902099609375 0.6744384765625 0.737060546875 0.64141845703125 0.7236328125 0.59185791015625 0.6910400390625 0.60833740234375 0.737060546875 0.59185791015625 0.79656982421875 0.54229736328125 0.76397705078125 0.56121826171875 0.88201904296875 0.52667236328125 0.482421875 0.54949951171875 0.53265380859375 0.5189208984375 0.6180419921875 0.58013916015625 0.6180419921875 0.80657958984375 0.737060546875 0.7900390625 0.79656982421875 0.7861328125 0.8643798828125 0.75946044921875 0.88201904296875 0.8089599609375 0.91461181640625 0.77838134765625 1 0.839599609375 1 0.20599365234375 0.75372314453125 0.20989990234375 0.821533203125 0.22637939453125 0.88104248046875 0.20989990234375 0.92706298828125 0.25946044921875 0.89447021484375 0.25946044921875 1 0.3089599609375 0.92706298828125 0.16033935546875 0.8541259765625 0.93389892578125 0.3551025390625 0.90087890625 0.3416748046875 0.90087890625 0.236083984375 0.851318359375 0.30902099609375 0.70745849609375 0.1190185546875 0.29248046875 0.88104248046875 0.3585205078125 0.05694580078125 0.740478515625 0.43896484375 0.58795166015625 0.8643798828125 0.10687255859375 0.13568115234375 0.58013916015625 0.56109619140625 0.22637939453125 0.3551025390625 0.38677978515625 0.64495849609375 0.8677978515625 0.3551025390625 0.839599609375 0.943115234375 0.7939453125 0.51763916015625 0.938720703125 0.76397705078125 0.09906005859375 0.76397705078125 0.2215576171875 0 0.037841796875 0.38201904296875 0.4576416015625 0.236083984375 0.70263671875 1</float_array>
                    <technique_common>
                        <accessor count="219" source="#uvarray0" stride="2">
                            <param name="S" type="float"/>
                            <param name="T" type="float"/>
                        </accessor>
                    </technique_common>
                </source>
                <vertices id="vertices0">
                    <input semantic="POSITION" source="#points0"/>
                </vertices>
                <polylist count="360" material="Material1">
                    <input offset="0" semantic="VERTEX" source="#vertices0"/>
                    <input offset="1" semantic="TEXCOORD" source="#uvs0" set="0"/>
                    <vcount>3 3 3 3 3 3 3 3 3 3 3 3 3 3 3 3 3 3 3 3 3 3 3 3 3 3 3 3 3 3 3 3 3 3 3 3 3 3 3 3 3 3 3 3 3 3 3 3 3 3 3 3 3 3 3 3 3 3 3 3 3 3 3 3 3 3 3 3 3 3 3 3 3 3 3 3 3 3 3 3 3 3 3 3 3 3 3 3 3 3 3 3 3 3 3 3 3 3 3 3 3 3 3 3 3 3 3 3 3 3 3 3 3 3 3 3 3 3 3 3 3 3 3 3 3 3 3 3 3 3 3 3 3 3 3 3 3 3 3 3 3 3 3 3 3 3 3 3 3 3 3 3 3 3 3 3 3 3 3 3 3 3 3 3 3 3 3 3 3 3 3 3 3 3 3 3 3 3 3 3 3 3 3 3 3 3 3 3 3 3 3 3 3 3 3 3 3 3 3 3 3 3 3 3 3 3 3 3 3 3 3 3 3 3 3 3 3 3 3 3 3 3 3 3 3 3 3 3 3 3 3 3 3 3 3 3 3 3 3 3 3 3 3 3 3 3 3 3 3 3 3 3 3 3 3 3 3 3 3 3 3 3 3 3 3 3 3 3 3 3 3 3 3 3 3 3 3 3 3 3 3 3 3 3 3 3 3 3 3 3 3 3 3 3 3 3 3 3 3 3 3 3 3 3 3 3 3 3 3 3 3 3 3 3 3 3 3 3 3 3 3 3 3 3 3 3 3 3 3 3 3 3 3 3 3 3 3 3 3 3 3 3 3 3 3 3 3 3 3 3 3 3 3 3 3 3 3 3 3 3</vcount>
                    <p>2 2 1 1 0 0 3 3 1 1 2 2 4 4 3 3 2 2 5 5 3 3 4 4 6 6 5 5 4 4 7 7 5 5 6 6 8 8 7 7 6 6 9 9 7 7 8 8 10 10 9 9 8 8 11 11 9 9 10 10 12 12 11 11 10 10 13 13 11 11 12 12 14 14 13 13 12 12 15 15 13 13 14 14 16 16 15 15 14 14 17 17 15 15 16 16 18 18 17 17 16 16 19 19 17 17 18 18 20 20 19 19 18 18 21 21 19 19 20 20 22 22 21 21 20 20 23 23 21 21 22 22 24 24 23 23 22 22 25 25 23 23 24 24 26 26 25 25 24 24 27 27 25 25 26 26 30 30 29 29 28 28 31 31 29 29 30 30 32 32 31 31 30 30 33 33 31 31 32 32 34 34 33 33 32 32 35 35 33 33 34 34 36 36 35 35 34 34 37 37 35 35 36 36 38 38 37 37 36 36 39 39 37 37 38 38 40 40 39 39 38 38 41 41 39 39 40 40 42 42 41 41 40 40 43 43 41 41 42 42 44 44 43 43 42 42 45 45 43 43 44 44 46 46 45 45 44 44 47 47 45 45 46 46 48 48 47 47 46 46 10 10 14 14 12 12 49 49 14 14 10 10 8 8 49 49 10 10 50 50 49 49 8 8 51 51 50 50 8 8 52 52 50 50 51 51 53 53 52 52 51 51 54 54 52 52 53 53 55 55 54 54 53 53 56 56 54 54 55 55 57 57 56 56 55 55 58 58 56 56 57 57 59 59 58 58 57 57 60 60 58 58 59 59 61 61 60 60 59 59 50 50 14 14 49 49 62 62 14 14 50 50 52 52 62 62 50 50 63 63 62 62 52 52 64 64 63 63 52 52 65 65 63 63 64 64 66 66 65 65 64 64 67 67 65 65 66 66 68 68 67 67 66 66 69 69 67 67 68 68 70 70 69 69 68 68 20 71 69 69 70 70 71 72 20 71 70 70 72 73 20 71 71 72 73 74 72 73 71 72 76 77 75 76 74 75 77 78 75 76 76 77 78 79 77 78 76 77 79 80 77 78 78 79 0 0 79 80 78 79 80 81 79 80 0 0 1 1 80 81 0 0 81 82 80 81 1 1 5 5 81 82 1 1 82 83 81 82 5 5 83 84 82 83 5 5 84 85 82 83 83 84 85 86 84 85 83 84 48 87 84 85 85 86 86 88 48 87 85 86 87 89 35 35 37 37 88 90 35 35 87 89 89 91 88 90 87 89 90 92 88 90 89 91 91 93 90 92 89 91 92 94 90 92 91 93 93 95 92 94 91 93 94 96 92 94 93 95 95 97 94 96 93 95 96 98 94 96 95 97 97 99 96 98 95 97 98 100 96 98 97 99 99 101 98 100 97 99 34 34 38 38 36 36 100 102 38 38 34 34 32 32 100 102 34 34 101 103 100 102 32 32 102 104 101 103 32 32 75 76 101 103 102 104 103 105 75 76 102 104 74 75 75 76 103 105 104 106 74 75 103 105 76 77 74 75 104 106 105 107 76 77 104 106 78 79 76 77 105 107 108 110 107 109 106 108 109 111 107 109 108 110 110 112 109 111 108 110 111 113 109 111 110 112 112 114 111 113 110 112 113 115 111 113 112 114 92 116 113 115 112 114 114 117 113 115 92 116 27 118 114 117 92 116 26 119 114 117 27 118 116 121 107 109 115 120 29 29 107 109 116 121 117 122 29 29 116 121 28 28 29 29 117 122 118 123 28 28 117 122 119 124 28 28 118 123 120 125 119 124 118 123 104 126 119 124 120 125 105 127 104 126 120 125 123 130 122 129 121 128 11 11 122 129 123 130 124 131 11 11 123 130 125 132 11 11 124 131 126 133 125 132 124 131 127 134 125 132 126 133 128 135 127 134 126 133 86 136 127 134 128 135 48 137 86 136 128 135 2 138 53 53 51 51 129 139 53 53 2 138 130 140 129 139 2 138 55 55 129 139 130 140 131 141 55 55 130 140 132 142 55 55 131 141 78 143 132 142 131 141 105 144 132 142 78 143 58 145 66 66 64 64 133 146 66 66 58 145 134 147 133 146 58 145 68 68 133 146 134 147 135 148 68 68 134 147 136 149 68 68 135 148 137 150 136 149 135 148 138 151 136 149 137 150 139 153 121 152 122 129 140 154 121 152 139 153 23 23 140 154 139 153 141 155 140 154 23 23 142 156 141 155 23 23 98 157 141 155 142 156 25 25 98 157 142 156 27 27 98 157 25 25 23 23 19 19 21 21 143 158 19 19 23 23 139 153 143 158 23 23 17 17 143 158 139 153 122 129 17 17 139 153 13 13 17 17 122 129 11 11 13 13 122 129 116 121 118 123 117 122 144 159 118 123 116 121 115 120 144 159 116 121 145 160 144 159 115 120 138 161 145 160 115 120 137 162 145 160 138 161 145 160 118 123 144 159 146 163 118 123 145 160 137 162 146 163 145 160 147 164 146 163 137 162 60 165 147 164 137 162 61 166 147 164 60 165 114 117 111 113 113 115 148 167 111 113 114 117 26 119 148 167 114 117 149 168 148 167 26 119 72 169 149 168 26 119 73 170 149 168 72 169 40 40 44 44 42 42 150 171 44 44 40 40 38 38 150 171 40 40 151 172 150 171 38 38 100 102 151 172 38 38 152 173 151 172 100 102 151 172 44 44 150 171 153 174 44 44 151 172 152 173 153 174 151 172 154 175 153 174 152 173 155 176 154 175 152 173 84 177 154 175 155 176 79 80 75 76 77 78 156 178 75 76 79 80 80 81 156 178 79 80 157 179 156 178 80 81 155 180 157 179 80 81 152 181 157 179 155 180 159 183 95 97 158 182 160 184 95 97 159 183 41 185 160 184 159 183 161 186 160 184 41 185 162 187 161 186 41 185 163 188 161 186 162 187 91 93 95 97 93 95 158 182 95 97 91 93 89 91 158 182 91 93 159 183 158 182 89 91 39 39 159 183 89 91 41 185 159 183 39 39 165 190 126 133 164 189 166 191 126 133 165 190 163 192 166 191 165 190 167 193 166 191 163 192 162 194 167 193 163 192 47 195 167 193 162 194 123 130 126 133 124 131 164 189 126 133 123 130 121 128 164 189 123 130 165 190 164 189 121 128 99 196 165 190 121 128 163 192 165 190 99 196 149 168 111 113 148 167 168 197 111 113 149 168 73 170 168 197 149 168 169 198 168 197 73 170 138 199 169 198 73 170 115 200 169 198 138 199 147 164 118 123 146 163 170 201 118 123 147 164 61 166 170 201 147 164 120 125 170 201 61 166 105 127 120 125 61 166 167 193 126 133 166 191 171 202 126 133 167 193 47 195 171 202 167 193 128 135 171 202 47 195 48 137 128 135 47 195 55 55 59 59 57 57 172 203 59 59 55 55 132 142 172 203 55 55 61 61 172 203 132 142 105 144 61 61 132 142 35 35 31 31 33 33 173 204 31 31 35 35 106 108 173 204 35 35 29 29 173 204 106 108 107 109 29 29 106 108 154 175 44 44 153 174 174 205 44 44 154 175 84 177 174 205 154 175 46 46 174 205 84 177 48 48 46 46 84 177 68 68 71 72 70 70 175 206 71 72 68 68 136 149 175 206 68 68 73 74 175 206 136 149 138 151 73 74 136 149 157 179 75 76 156 178 176 207 75 76 157 179 152 181 176 207 157 179 101 103 176 207 152 181 100 102 101 103 152 181 63 63 14 14 62 62 177 208 14 14 63 63 65 65 177 208 63 63 16 16 177 208 65 65 18 18 16 16 65 65 5 5 85 86 83 84 178 209 85 86 5 5 7 7 178 209 5 5 86 88 178 209 7 7 9 9 86 88 7 7 169 198 111 113 168 197 179 210 111 113 169 198 115 200 179 210 169 198 109 111 179 210 115 200 107 109 109 111 115 200 161 186 95 97 160 184 180 211 95 97 161 186 163 188 180 211 161 186 97 99 180 211 163 188 99 101 97 99 163 188 181 212 106 108 35 35 108 110 106 108 181 212 88 90 108 110 181 212 90 92 108 110 88 90 4 4 8 8 6 6 51 51 8 8 4 4 2 2 51 51 4 4 69 69 65 65 67 67 18 18 65 65 69 69 20 71 18 18 69 69 32 32 103 105 102 104 30 30 103 105 32 32 104 126 28 28 119 124 30 30 28 28 104 126 98 100 94 96 96 98 27 213 94 96 98 100 99 214 141 155 98 157 121 152 141 155 99 214 60 215 134 147 58 145 137 150 134 147 60 215 72 216 22 22 20 20 26 26 22 22 72 216 0 217 130 140 2 138 78 143 130 140 0 217 37 37 89 91 87 89 39 39 89 91 37 37 155 180 82 83 84 85 80 81 82 83 155 180 108 110 112 114 110 112 90 92 112 114 108 110 47 47 43 43 45 45 162 218 43 43 47 47 64 64 56 56 58 58 52 52 56 56 64 64 86 136 125 132 127 134 9 9 125 132 86 136 71 72 175 206 73 74 13 13 15 15 17 17 19 19 143 158 17 17 121 152 140 154 141 155 52 52 54 54 56 56 53 53 129 139 55 55 26 26 24 24 22 22 14 14 177 208 16 16 59 59 172 203 61 61 95 97 180 211 97 99 44 44 174 205 46 46 25 25 142 156 23 23 92 94 94 96 27 213 75 76 176 207 101 103 88 90 181 212 35 35 1 1 3 3 5 5 80 81 81 82 82 83 31 31 173 204 29 29 78 143 131 141 130 140 111 113 179 210 109 111 104 106 103 105 30 30 92 116 112 114 90 92 85 86 178 209 86 88 41 41 43 43 162 218 66 66 133 146 68 68 118 123 170 201 120 125 126 133 171 202 128 135 137 150 135 148 134 147 11 11 125 132 9 9</p>
                </polylist>
            </mesh>
        </geometry>
        <geometry id="mesh1">
            <mesh>
                <source id="points1">
                    <float_array id="pointarray1" count="546">-316.875 161.39829610210563 -85.87855464636984 -232.96875 167.38654900358839 24.394124103855418 -348.125 127.48457850060527 -90.67483338052246 -256.09375 74.929056981792 62.87226396487855 -287.96875 0 0 -348.125 -67.15830898171842 141.29403631710198 -342.96875 -81.75403013963441 97.43171307217044 -394.6875 -156.7789202063505 186.84386253766345 -348.125 -127.48457850060527 90.67483338052246 -316.875 -161.39829610210563 85.87855464636984 -232.96875 -167.38654900358839 -24.394124103855418 -308.75 -187.01475027352575 123.94297129428439 -158.28125 -222.9915944392608 19.510433428328014 -143.90625 -217.85491852120379 121.31774083679869 -63.59375 -363.27940105196103 98.21838516994126 -68.4375 -333.5510833003483 133.76952261530505 0 -440.5424867793299 145.57059726330863 -39.375 -339.75345100496145 169.35896992566342 0 -317.8863766550912 180.97644921345417 0 -185.10156946848429 220.5978466732311 39.375 -339.75345100496145 169.35896992566342 97.8125 -164.61284447034495 196.1800709155864 143.90625 -217.85491852120379 121.31774083679869 284.375 -163.60849520573026 194.983121123545 274.53125 -185.5001672915983 155.1972832360526 394.6875 -156.7789202063505 186.84386253766345 308.75 -187.01475027352575 123.94297129428439 316.875 -161.39829610210563 85.87855464636984 232.96875 -167.38654900358839 -24.394124103855418 348.125 -127.48457850060527 90.67483338052246 256.09375 -74.929056981792 -62.87226396487855 287.96875 0 0 348.125 67.15830898171842 -141.29403631710198 342.96875 81.75403013963441 -97.43171307217044 394.6875 156.7789202063505 -186.84386253766345 348.125 127.48457850060527 -90.67483338052246 316.875 161.39829610210563 -85.87855464636984 232.96875 167.38654900358839 24.394124103855418 308.75 187.01475027352575 -123.94297129428439 158.28125 222.9915944392608 -19.510433428328014 143.90625 217.85491852120379 -121.31774083679869 -88.90625 270.965781264385 39.50939950703432 -215.15625 277.39429397719897 149.7435581517742 -158.28125 222.9915944392608 -19.510433428328014 -308.75 187.01475027352575 -123.94297129428439 -394.6875 156.7789202063505 -186.84386253766345 -342.96875 81.75403013963441 -97.43171307217044 -348.125 67.15830898171842 -141.29403631710198 -256.09375 -74.929056981792 -62.87226396487855 -232.96875 -53.09160269043857 -160.60701043816738 -254.53125 -217.84486215153586 -182.79156615987054 -238.125 -183.08621339061736 -208.9015051571202 -243.90625 -302.34951746965913 -253.69862424166647 -215.15625 -195.6402638375646 -247.17527122394466 -169.53125 -198.7509200358744 -256.1084317552693 -88.90625 -85.96464672236219 -259.98755120106125 -151.40625 -241.37081219853548 -253.93215091559264 0 -133.30780695070786 -239.54190145213695 0 -220.5978466732311 -185.10156946848429 342.96875 -81.75403013963441 97.43171307217044 348.125 -67.15830898171842 141.29403631710198 256.09375 74.929056981792 62.87226396487855 232.96875 53.09160269043857 160.60701043816738 254.53125 217.84486215153586 182.79156615987054 238.125 183.08621339061736 208.9015051571202 243.90625 302.34951746965913 253.69862424166647 215.15625 195.6402638375646 247.17527122394466 169.53125 198.7509200358744 256.1084317552693 88.90625 85.96464672236219 259.98755120106125 151.40625 241.37081219853548 253.93215091559264 0 133.30780695070786 239.54190145213695 0 220.5978466732311 185.10156946848429 316.875 -56.545494319278475 173.85955022661523 308.75 -89.5830372013553 205.69700143391879 158.28125 19.510433428328014 222.9915944392608 143.90625 -81.64203218689181 235.6126871499485 63.59375 -33.63942832375784 374.8161726448223 68.4375 -73.81297842736322 351.71331303668916 0 -66.85476170400301 459.12843767600964 39.375 -107.78458130733698 364.0018574079871 0 -123.02295051075033 344.48450949272296 -39.375 -107.78458130733698 364.0018574079871 -97.8125 -164.61284447034495 196.1800709155864 -143.90625 -81.64203218689181 235.6126871499485 -308.75 89.5830372013553 -205.69700143391879 -274.53125 120.6254885629541 -209.6330133781679 -143.90625 81.64203218689181 -235.6126871499485 -284.375 163.60849520573026 -194.983121123545 -97.8125 164.61284447034495 -196.1800709155864 -143.90625 217.85491852120379 -121.31774083679869 -39.375 339.75345100496145 -169.35896992566342 -68.4375 333.5510833003483 -133.76952261530505 0 440.5424867793299 -145.57059726330863 -63.59375 363.27940105196103 -98.21838516994126 -42.34375 358.87931409990836 -57.2412505343988 0 377.7746872834156 -54.2363669458056 0 259.05233488046497 89.68378748855295 88.90625 270.965781264385 39.50939950703432 -158.28125 -19.510433428328014 -222.9915944392608 -63.59375 33.63942832375784 -374.8161726448223 -68.4375 73.81297842736322 -351.71331303668916 0 66.85476170400301 -459.12843767600964 -39.375 107.78458130733698 -364.0018574079871 0 123.02295051075033 -344.48450949272296 0 185.10156946848429 -220.5978466732311 39.375 107.78458130733698 -364.0018574079871 97.8125 164.61284447034495 -196.1800709155864 143.90625 81.64203218689181 -235.6126871499485 232.96875 -53.09160269043857 -160.60701043816738 254.53125 -217.84486215153586 -182.79156615987054 238.125 -183.08621339061736 -208.9015051571202 243.90625 -302.34951746965913 -253.69862424166647 215.15625 -195.6402638375646 -247.17527122394466 169.53125 -198.7509200358744 -256.1084317552693 88.90625 -85.96464672236219 -259.98755120106125 151.40625 -241.37081219853548 -253.93215091559264 -254.53125 217.84486215153586 182.79156615987054 -238.125 237.52194353273265 144.026826428476 -243.90625 302.34951746965913 253.69862424166647 -169.53125 286.7319156161198 151.25562997244216 -151.40625 291.990015135115 193.60588139670577 158.28125 -222.9915944392608 19.510433428328014 88.90625 -270.965781264385 -39.50939950703432 63.59375 -363.27940105196103 98.21838516994126 42.34375 -358.87931409990836 57.2412505343988 0 -377.7746872834156 54.2363669458056 -42.34375 -358.87931409990836 57.2412505343988 -88.90625 -270.965781264385 -39.50939950703432 0 -259.05233488046497 -89.68378748855295 151.40625 -291.990015135115 -193.60588139670577 169.53125 -286.7319156161198 -151.25562997244216 215.15625 -277.39429397719897 -149.7435581517742 238.125 -237.52194353273265 -144.026826428476 316.875 56.545494319278475 -173.85955022661523 308.75 89.5830372013553 -205.69700143391879 274.53125 120.6254885629541 -209.6330133781679 284.375 163.60849520573026 -194.983121123545 151.40625 291.990015135115 193.60588139670577 169.53125 286.7319156161198 151.25562997244216 215.15625 277.39429397719897 149.7435581517742 238.125 237.52194353273265 144.026826428476 -88.90625 85.96464672236219 259.98755120106125 -151.40625 241.37081219853548 253.93215091559264 -169.53125 198.7509200358744 256.1084317552693 -215.15625 195.6402638375646 247.17527122394466 -238.125 183.08621339061736 208.9015051571202 -232.96875 53.09160269043857 160.60701043816738 -158.28125 19.510433428328014 222.9915944392608 -63.59375 -33.63942832375784 374.8161726448223 -42.34375 5.950982514312159 363.3669063889512 0 12.191554963674463 381.4533573572661 42.34375 5.950982514312159 363.3669063889512 -316.875 56.545494319278475 -173.85955022661523 -274.53125 185.5001672915983 -155.1972832360526 68.4375 -333.5510833003483 133.76952261530505 -127.1875 -262.7304793530886 -220.45466358292077 -151.40625 -291.990015135115 -193.60588139670577 -169.53125 -286.7319156161198 -151.25562997244216 -215.15625 -277.39429397719897 -149.7435581517742 68.4375 73.81297842736322 -351.71331303668916 63.59375 33.63942832375784 -374.8161726448223 42.34375 -5.950982514312159 -363.3669063889512 0 -12.191554963674463 -381.4533573572661 -274.53125 -185.5001672915983 155.1972832360526 -284.375 -163.60849520573026 194.983121123545 -274.53125 -120.6254885629541 209.6330133781679 -308.75 -89.5830372013553 205.69700143391879 42.34375 358.87931409990836 -57.2412505343988 63.59375 363.27940105196103 -98.21838516994126 68.4375 333.5510833003483 -133.76952261530505 39.375 339.75345100496145 -169.35896992566342 158.28125 -19.510433428328014 -222.9915944392608 -238.125 -237.52194353273265 -144.026826428476 0 317.8863766550912 -180.97644921345417 -42.34375 -5.950982514312159 -363.3669063889512 -316.875 -56.545494319278475 173.85955022661523 127.1875 -262.7304793530886 -220.45466358292077 127.1875 262.7304793530886 220.45466358292077 -68.4375 -73.81297842736322 351.71331303668916 274.53125 -120.6254885629541 209.6330133781679 -127.1875 262.7304793530886 220.45466358292077 274.53125 185.5001672915983 -155.1972832360526</float_array>
                    <technique_common>
                        <accessor count="182" source="#pointarray1" stride="3">
                            <param name="X" type="float"/>
                            <param name="Y" type="float"/>
                            <param name="Z" type="float"/>
                        </accessor>
                    </technique_common>
                </source>
                <source id="uvs1">
                    <float_array id="uvarray1" count="438">0.740478515625 0.43896484375 0.740478515625 0.38201904296875 0.70989990234375 0.4674072265625 0.67926025390625 0.38201904296875 0.66033935546875 0.5 0.62969970703125 0.41461181640625 0.63360595703125 0.482421875 0.58013916015625 0.447265625 0.61077880859375 0.53265380859375 0.58013916015625 0.56109619140625 0.58013916015625 0.6180419921875 0.54949951171875 0.53265380859375 0.5189208984375 0.6180419921875 0.5 0.5 0.4693603515625 0.58544921875 0.4732666015625 0.51763916015625 0.4197998046875 0.55279541015625 0.450439453125 0.4674072265625 0.4197998046875 0.43896484375 0.4197998046875 0.38201904296875 0.38916015625 0.4674072265625 0.3585205078125 0.38201904296875 0.339599609375 0.5 0.3089599609375 0.41461181640625 0.3128662109375 0.482421875 0.25946044921875 0.447265625 0.2900390625 0.53265380859375 0.25946044921875 0.56109619140625 0.25946044921875 0.6180419921875 0.22882080078125 0.53265380859375 0.19818115234375 0.6180419921875 0.17926025390625 0.5 0.14862060546875 0.58544921875 0.15252685546875 0.51763916015625 0.09906005859375 0.55279541015625 0.12969970703125 0.4674072265625 0.09906005859375 0.43896484375 0.09906005859375 0.38201904296875 0.06842041015625 0.4674072265625 0.037841796875 0.38201904296875 0.0189208984375 0.5 0.8206787109375 0.26397705078125 0.7711181640625 0.29656982421875 0.8017578125 0.38201904296875 0.7711181640625 0.4674072265625 0.740478515625 0.55279541015625 0.68707275390625 0.51763916015625 0.69097900390625 0.58544921875 0.64141845703125 0.6180419921875 0.69097900390625 0.6910400390625 0.64141845703125 0.7236328125 0.6744384765625 0.737060546875 0.64141845703125 0.8292236328125 0.69097900390625 0.79656982421875 0.69482421875 0.8643798828125 0.7215576171875 0.88201904296875 0.6719970703125 0.91461181640625 0.70263671875 1 0.64141845703125 1 0.20599365234375 0.482421875 0.20989990234375 0.41461181640625 0.16033935546875 0.38201904296875 0.20989990234375 0.30902099609375 0.16033935546875 0.27642822265625 0.193359375 0.26300048828125 0.16033935546875 0.17083740234375 0.20989990234375 0.2034912109375 0.21380615234375 0.13568115234375 0.240478515625 0.1180419921875 0.19097900390625 0.08544921875 0.2215576171875 0 0.16033935546875 0 0.22637939453125 0.3551025390625 0.25946044921875 0.3416748046875 0.25946044921875 0.236083984375 0.3089599609375 0.30902099609375 0.3089599609375 0.2034912109375 0.32550048828125 0.26300048828125 0.3585205078125 0.17083740234375 0.3585205078125 0.27642822265625 0.3916015625 0.26300048828125 0.4080810546875 0.30902099609375 0.4080810546875 0.2034912109375 0.4576416015625 0.236083984375 0.438720703125 0.1180419921875 0.740478515625 0.65838623046875 0.7735595703125 0.64495849609375 0.7900390625 0.6910400390625 0.7900390625 0.58544921875 0.839599609375 0.6180419921875 0.8206787109375 0.5 0.8702392578125 0.53265380859375 0.847412109375 0.482421875 0.90087890625 0.447265625 0.851318359375 0.41461181640625 0.8677978515625 0.3551025390625 0.851318359375 0.30902099609375 0.90087890625 0.3416748046875 0.90087890625 0.236083984375 0.950439453125 0.30902099609375 0.740478515625 0.76397705078125 0.7900390625 0.79656982421875 0.80657958984375 0.737060546875 0.839599609375 0.8292236328125 0.839599609375 0.7236328125 0.87261962890625 0.737060546875 0.88916015625 0.6910400390625 0.88916015625 0.79656982421875 0.938720703125 0.76397705078125 0.9197998046875 0.88201904296875 0.17926025390625 0.736083984375 0.22882080078125 0.7034912109375 0.20599365234375 0.75372314453125 0.25946044921875 0.78887939453125 0.20989990234375 0.821533203125 0.22637939453125 0.88104248046875 0.20989990234375 0.92706298828125 0.25946044921875 0.89447021484375 0.25946044921875 1 0.3089599609375 0.92706298828125 0.70989990234375 0.29656982421875 0.740478515625 0.3250732421875 0.740478515625 0.211181640625 0.7939453125 0.246337890625 0.7900390625 0.17852783203125 0.839599609375 0.14593505859375 0.7900390625 0.072998046875 0.3206787109375 0.6180419921875 0.3702392578125 0.6910400390625 0.3702392578125 0.58544921875 0.38677978515625 0.64495849609375 0.4197998046875 0.65838623046875 0.45281982421875 0.64495849609375 0.4693603515625 0.6910400390625 0.3585205078125 0.8541259765625 0.339599609375 0.736083984375 0.3089599609375 0.821533203125 0.3128662109375 0.75372314453125 0.2900390625 0.7034912109375 0.25946044921875 0.67498779296875 0.14862060546875 0.6910400390625 0.13214111328125 0.64495849609375 0.09906005859375 0.65838623046875 0.0660400390625 0.64495849609375 0.04949951171875 0.58544921875 0.04949951171875 0.6910400390625 0 0.6180419921875 0.09906005859375 0 0.08013916015625 0.1180419921875 0.12969970703125 0.08544921875 0.10687255859375 0.13568115234375 0.11077880859375 0.2034912109375 0.1273193359375 0.26300048828125 0.11077880859375 0.30902099609375 0.740478515625 0 0.69097900390625 0.072998046875 0.740478515625 0.1055908203125 0.70745849609375 0.1190185546875 0.69097900390625 0.17852783203125 0.68707275390625 0.246337890625 0.66033935546875 0.26397705078125 0.4197998046875 0 0.3585205078125 0 0.38916015625 0.08544921875 0.3585205078125 0.05694580078125 0.32794189453125 0.08544921875 0.30511474609375 0.13568115234375 0.27838134765625 0.1180419921875 0.70745849609375 0.64495849609375 0.7939453125 0.51763916015625 0.3663330078125 0.51763916015625 0.64141845703125 0.943115234375 0.61077880859375 0.91461181640625 0.58013916015625 1 0.56121826171875 0.88201904296875 0.58795166015625 0.8643798828125 0.59185791015625 0.79656982421875 0.54229736328125 0.76397705078125 0.59185791015625 0.6910400390625 0.89306640625 0.8643798828125 0.8702392578125 0.91461181640625 0.839599609375 0.943115234375 0.839599609375 1 0.8089599609375 0.91461181640625 0.77838134765625 1 0.75946044921875 0.88201904296875 0.52667236328125 0.482421875 0.53057861328125 0.41461181640625 0.547119140625 0.3551025390625 0.53057861328125 0.30902099609375 0.58013916015625 0.3416748046875 0.58013916015625 0.236083984375 0.62969970703125 0.30902099609375 0.93389892578125 0.3551025390625 0.950439453125 0.41461181640625 1 0.38201904296875 0.98101806640625 0.5 0.48101806640625 0.38201904296875 0.954345703125 0.482421875 0.9315185546875 0.53265380859375 0.96209716796875 0.6180419921875 0.90087890625 0.6180419921875 0.90087890625 1 0.60833740234375 0.737060546875 0.90087890625 0.56109619140625 0.7861328125 0.8643798828125 0.6131591796875 0.3551025390625 0.29248046875 0.88104248046875 0.16033935546875 0.05694580078125 0.4119873046875 0.13568115234375 0.29248046875 0.3551025390625 0.7735595703125 0.1190185546875 0.04559326171875 0.51763916015625 0.4197998046875 0.76397705078125 0.09906005859375 0.76397705078125 0.06121826171875 0.236083984375 0.64141845703125 0.14593505859375 0.16033935546875 0.8541259765625 0.29730224609375 0</float_array>
                    <technique_common>
                        <accessor count="219" source="#uvarray1" stride="2">
                            <param name="S" type="float"/>
                            <param name="T" type="float"/>
                        </accessor>
                    </technique_common>
                </source>
                <vertices id="vertices1">
                    <input semantic="POSITION" source="#points1"/>
                </vertices>
                <polylist count="360" material="Material1">
                    <input offset="0" semantic="VERTEX" source="#vertices1"/>
                    <input offset="1" semantic="TEXCOORD" source="#uvs1" set="0"/>
                    <vcount>3 3 3 3 3 3 3 3 3 3 3 3 3 3 3 3 3 3 3 3 3 3 3 3 3 3 3 3 3 3 3 3 3 3 3 3 3 3 3 3 3 3 3 3 3 3 3 3 3 3 3 3 3 3 3 3 3 3 3 3 3 3 3 3 3 3 3 3 3 3 3 3 3 3 3 3 3 3 3 3 3 3 3 3 3 3 3 3 3 3 3 3 3 3 3 3 3 3 3 3 3 3 3 3 3 3 3 3 3 3 3 3 3 3 3 3 3 3 3 3 3 3 3 3 3 3 3 3 3 3 3 3 3 3 3 3 3 3 3 3 3 3 3 3 3 3 3 3 3 3 3 3 3 3 3 3 3 3 3 3 3 3 3 3 3 3 3 3 3 3 3 3 3 3 3 3 3 3 3 3 3 3 3 3 3 3 3 3 3 3 3 3 3 3 3 3 3 3 3 3 3 3 3 3 3 3 3 3 3 3 3 3 3 3 3 3 3 3 3 3 3 3 3 3 3 3 3 3 3 3 3 3 3 3 3 3 3 3 3 3 3 3 3 3 3 3 3 3 3 3 3 3 3 3 3 3 3 3 3 3 3 3 3 3 3 3 3 3 3 3 3 3 3 3 3 3 3 3 3 3 3 3 3 3 3 3 3 3 3 3 3 3 3 3 3 3 3 3 3 3 3 3 3 3 3 3 3 3 3 3 3 3 3 3 3 3 3 3 3 3 3 3 3 3 3 3 3 3 3 3 3 3 3 3 3 3 3 3 3 3 3 3 3 3 3 3 3 3 3 3 3 3 3 3 3 3 3 3 3 3</vcount>
                    <p>2 2 1 1 0 0 3 3 1 1 2 2 4 4 3 3 2 2 5 5 3 3 4 4 6 6 5 5 4 4 7 7 5 5 6 6 8 8 7 7 6 6 9 9 7 7 8 8 10 10 9 9 8 8 11 11 9 9 10 10 12 12 11 11 10 10 13 13 11 11 12 12 14 14 13 13 12 12 15 15 13 13 14 14 16 16 15 15 14 14 17 17 15 15 16 16 18 18 17 17 16 16 19 19 17 17 18 18 20 20 19 19 18 18 21 21 19 19 20 20 22 22 21 21 20 20 23 23 21 21 22 22 24 24 23 23 22 22 25 25 23 23 24 24 26 26 25 25 24 24 27 27 25 25 26 26 28 28 27 27 26 26 29 29 27 27 28 28 30 30 29 29 28 28 31 31 29 29 30 30 32 32 31 31 30 30 33 33 31 31 32 32 34 34 33 33 32 32 35 35 33 33 34 34 36 36 35 35 34 34 37 37 35 35 36 36 38 38 37 37 36 36 39 39 37 37 38 38 40 40 39 39 38 38 43 43 42 42 41 41 1 1 42 42 43 43 44 44 1 1 43 43 0 0 1 1 44 44 45 45 0 0 44 44 2 2 0 0 45 45 46 46 2 2 45 45 4 4 2 2 46 46 47 47 4 4 46 46 48 48 4 4 47 47 49 49 48 48 47 47 50 50 48 48 49 49 51 51 50 50 49 49 52 52 50 50 51 51 53 53 52 52 51 51 54 54 52 52 53 53 55 55 54 54 53 53 56 56 54 54 55 55 57 57 56 56 55 55 58 58 56 56 57 57 29 29 25 25 27 27 59 59 25 25 29 29 31 31 59 59 29 29 60 60 59 59 31 31 61 61 60 60 31 31 62 62 60 60 61 61 63 63 62 62 61 61 64 64 62 62 63 63 65 65 64 64 63 63 66 66 64 64 65 65 67 67 66 66 65 65 68 68 66 66 67 67 69 69 68 68 67 67 70 70 68 68 69 69 71 71 70 70 69 69 60 60 25 25 59 59 72 72 25 25 60 60 62 62 72 72 60 60 73 73 72 72 62 62 74 74 73 73 62 62 75 75 73 73 74 74 76 76 75 75 74 74 77 77 75 75 76 76 78 78 77 77 76 76 79 79 77 77 78 78 80 80 79 79 78 78 19 81 79 79 80 80 81 82 19 81 80 80 82 83 19 81 81 82 83 84 82 83 81 82 85 86 84 85 45 45 86 87 84 85 85 86 87 88 86 87 85 86 88 89 86 87 87 88 89 90 88 89 87 88 90 91 88 89 89 90 91 92 90 91 89 90 92 93 90 91 91 92 93 94 92 93 91 92 94 95 92 93 93 94 41 96 94 95 93 94 95 97 94 95 41 96 96 98 95 97 41 96 97 99 95 97 96 98 86 87 98 100 84 85 99 101 98 100 86 87 100 102 99 101 86 87 101 103 99 101 100 102 102 104 101 103 100 102 103 105 101 103 102 104 104 106 103 105 102 104 105 107 103 105 104 106 106 108 105 107 104 106 107 109 105 107 106 108 109 111 108 110 30 30 110 112 108 110 109 111 111 113 110 112 109 111 112 114 110 112 111 113 113 115 112 114 111 113 114 116 112 114 113 115 115 117 114 116 113 115 57 118 114 116 115 117 58 119 57 118 115 117 116 120 1 1 3 3 117 121 1 1 116 120 118 122 117 121 116 120 42 42 117 121 118 122 119 123 42 42 118 122 41 41 42 42 119 123 120 124 41 41 119 123 96 125 41 41 120 124 71 126 96 125 120 124 123 129 122 128 121 127 124 130 122 128 123 129 16 16 124 130 123 129 125 131 124 130 16 16 126 132 125 131 16 16 127 133 125 131 126 132 14 14 127 133 126 132 12 12 127 133 14 14 129 136 122 135 128 134 130 137 122 135 129 136 111 113 130 137 129 136 131 138 130 137 111 113 132 139 131 138 111 113 28 28 131 138 132 139 109 111 28 28 132 139 30 30 28 28 109 111 108 140 32 32 30 30 133 141 32 32 108 140 134 142 133 141 108 140 34 34 133 141 134 142 135 143 34 34 134 142 136 144 34 34 135 143 107 145 136 144 135 143 106 146 136 144 107 145 137 149 97 148 96 147 138 150 97 148 137 149 65 65 138 150 137 149 139 151 138 150 65 65 140 152 139 151 65 65 37 153 139 151 140 152 63 63 37 153 140 152 61 61 37 153 63 63 142 156 141 155 70 154 143 157 141 155 142 156 118 122 143 157 142 156 144 158 143 157 118 122 145 159 144 158 118 122 146 160 144 158 145 159 116 120 146 160 145 159 3 3 146 160 116 120 148 163 141 162 147 161 149 164 141 162 148 163 78 78 149 164 148 163 150 165 149 164 78 78 151 166 150 165 78 78 68 167 150 165 151 166 76 76 68 167 151 166 74 74 68 167 76 76 45 45 47 47 46 46 152 168 47 47 45 45 84 85 152 168 45 45 49 49 152 168 84 85 98 100 49 49 84 85 53 53 49 49 98 100 55 55 53 53 98 100 45 45 87 88 85 86 153 169 87 88 45 45 44 44 153 169 45 45 89 90 153 169 44 44 43 43 89 90 44 44 93 94 89 90 43 43 41 96 93 94 43 43 16 16 20 20 18 18 154 170 20 20 16 16 123 129 154 170 16 16 22 22 154 170 123 129 121 127 22 22 123 129 26 26 22 22 121 127 28 28 26 26 121 127 56 56 52 52 54 54 155 171 52 52 56 56 58 58 155 171 56 56 156 172 155 171 58 58 128 173 156 172 58 58 127 174 156 172 128 173 156 172 52 52 155 171 157 175 52 52 156 172 127 174 157 175 156 172 158 176 157 175 127 174 12 177 158 176 127 174 10 178 158 176 12 177 160 180 101 103 159 179 161 181 101 103 160 180 114 182 161 181 160 180 162 183 161 181 114 182 57 184 162 183 114 182 55 185 162 183 57 184 164 187 7 7 163 186 165 188 7 7 164 187 83 189 165 188 164 187 166 190 165 188 83 189 147 191 166 190 83 189 146 192 166 190 147 191 95 97 92 93 94 95 167 193 92 93 95 97 97 99 167 193 95 97 168 194 167 193 97 99 39 195 168 194 97 99 40 196 168 194 39 195 11 11 7 7 9 9 163 186 7 7 11 11 13 13 163 186 11 11 164 187 163 186 13 13 82 197 164 187 13 13 83 189 164 187 82 197 168 194 92 93 167 193 169 198 92 93 168 194 40 196 169 198 168 194 170 199 169 198 40 196 106 200 170 199 40 196 104 201 170 199 106 200 105 107 101 103 103 105 159 179 101 103 105 107 107 109 159 179 105 107 160 180 159 179 107 109 171 202 160 180 107 109 114 182 160 180 171 202 158 176 52 52 157 175 172 203 52 52 158 176 10 178 172 203 158 176 50 50 172 203 10 178 48 48 50 50 10 178 170 199 92 93 169 198 173 204 92 93 170 199 104 201 173 204 170 199 90 91 173 204 104 201 88 89 90 91 104 201 162 183 101 103 161 181 174 205 101 103 162 183 55 185 174 205 162 183 99 101 174 205 55 185 98 100 99 101 55 185 166 190 7 7 165 188 175 206 7 7 166 190 146 192 175 206 166 190 5 5 175 206 146 192 3 3 5 5 146 192 111 113 115 117 113 115 176 207 115 117 111 113 129 136 176 207 111 113 58 119 176 207 129 136 128 134 58 119 129 136 65 65 69 69 67 67 177 208 69 69 65 65 137 149 177 208 65 65 71 71 177 208 137 149 96 147 71 71 137 149 78 78 81 82 80 80 178 209 81 82 78 78 148 163 178 209 78 78 83 84 178 209 148 163 147 161 83 84 148 163 73 73 25 25 72 72 179 210 25 25 73 73 75 75 179 210 73 73 23 23 179 210 75 75 21 21 23 23 75 75 118 122 120 124 119 123 180 211 120 124 118 122 142 156 180 211 118 122 71 126 180 211 142 156 70 154 71 126 142 156 34 34 38 38 36 36 181 212 38 38 34 34 136 144 181 212 34 34 40 40 181 212 136 144 106 146 40 40 136 144 125 131 122 128 124 130 128 213 122 128 125 131 127 133 128 213 125 131 134 142 107 145 135 143 171 214 107 145 134 142 108 140 171 214 134 142 17 17 13 13 15 15 82 197 13 13 17 17 19 19 82 197 17 17 139 151 97 148 138 150 39 215 97 148 139 151 37 153 39 215 139 151 102 104 88 89 104 106 86 87 88 89 102 104 100 102 86 87 102 104 144 158 141 155 143 157 147 216 141 155 144 158 146 160 147 216 144 158 131 138 122 135 130 137 121 127 122 135 131 138 28 28 121 127 131 138 79 79 75 75 77 77 21 21 75 75 79 79 19 81 21 21 79 79 112 114 108 110 110 112 171 217 108 110 112 114 114 116 171 217 112 114 150 165 141 162 149 164 70 218 141 162 150 165 68 167 70 218 150 165 35 35 31 31 33 33 61 61 31 31 35 35 37 37 61 61 35 35 66 66 62 62 64 64 74 74 62 62 66 66 68 68 74 74 66 66 4 4 8 8 6 6 48 48 8 8 4 4 50 50 52 52 172 203 49 49 47 47 152 168 5 5 7 7 175 206 23 23 25 25 179 210 34 34 32 32 133 141 8 8 48 48 10 10 83 84 81 82 178 209 40 40 38 38 181 212 89 90 93 94 91 92 90 91 92 93 173 204 65 65 63 63 140 152 16 16 14 14 126 132 42 42 1 1 117 121 78 78 76 76 151 166 22 22 20 20 154 170 118 122 116 120 145 159 22 22 26 26 24 24 71 71 69 69 177 208 49 49 53 53 51 51 99 101 101 103 174 205 58 119 115 117 176 207 89 90 87 88 153 169 111 113 109 111 132 139 71 126 120 124 180 211</p>
                </polylist>
            </mesh>
        </geometry>
        <geometry id="mesh2">
            <mesh>
                <source id="points2">
                    <float_array id="pointarray2" count="156">-0.6569125428795815 2.808867424726488 18.94852903857827 -16.366183180361986 -7.135429345071315 6.954212091863154 -96.30564400181174 141.85913102701304 8.211406785994768 -12.243490669876337 -3.114671539515256 -14.40677163004875 -3.579040750861168 16.524748276919127 -9.038210503757 0.8381297960877419 18.789963942021128 3.703627612441778 40.3321649171412 113.17017462849616 122.60479787364599 13.172229092568159 13.002337917685509 4.983474463224411 12.243490669876337 3.125997617840766 14.406771630048748 -108.51515643671155 11.552599892020233 132.51511640846726 -5.991495434194803 -9.34401461854577 15.618662010878325 14.859814763069153 -8.8116889372468 8.279363255947828 79.49774376675487 -95.05977538600564 219.32950677350158 16.366183180361986 7.146755423396825 -6.954212091863154 166.92374236136675 18.34824688732624 35.63184241205454 6.002821512520313 9.33268854022026 -15.629988089203833 73.91398715227842 146.0724321641028 -51.658243242651224 0.6569125428795815 -2.808867424726488 -18.94852903857827 -79.49774376675487 95.05977538600564 -219.32950677350158 -13.160903014242649 -13.002337917685509 -4.983474463224411 -166.92374236136675 -18.34824688732624 -35.63184241205454 -73.91398715227842 -146.0724321641028 51.658243242651224 -40.3321649171412 -113.17017462849616 -122.60479787364599 96.30564400181174 -141.85913102701304 -8.211406785994768 108.51515643671155 -11.552599892020233 -132.51511640846726 -32.40391008928418 9.479927558451887 7.950906984508036 -20.047158636152744 -28.179282873868935 2.4464329183101636 -264.18077694252133 104.94744176417586 -125.07388294860718 -0.011326078325510025 -16.85320454835891 -30.30858559906482 -12.368077531456947 20.828658040612932 -24.81543761119246 -20.024506479501724 28.21326110884547 -2.457758996635679 -163.27674514055252 202.3743675202131 169.81189233437178 0 32.77767067402601 11.337404403835535 0 16.86453062668442 30.30858559906482 -20.024506479501724 2.457758996635679 28.21326110884547 -264.18077694252133 -104.94744176417586 125.07388294860718 -12.334099296480417 -20.828658040612932 24.81543761119246 20.024506479501724 2.457758996635679 28.21326110884547 0 -44.7380093857646 307.3331353627145 32.40391008928418 9.479927558451887 7.950906984508036 163.27674514055252 202.3743675202131 169.81189233437178 20.024506479501724 28.21326110884547 -2.457758996635679 12.368077531456947 20.828658040612932 -24.81543761119246 0 294.89710136130446 -97.42692575603722 20.035832557827234 -2.4690850749611855 -28.19060895219445 0 44.7380093857646 -307.3331353627145 0.011326078325510025 -32.77767067402601 -11.326078325510027 -163.27674514055252 -202.3743675202131 -169.81189233437178 0 -294.89710136130446 97.42692575603722 163.27674514055252 -202.3743675202131 -169.81189233437178 264.18077694252133 -104.94744176417586 125.07388294860718 264.18077694252133 104.94744176417586 -125.07388294860718</float_array>
                    <technique_common>
                        <accessor count="52" source="#pointarray2" stride="3">
                            <param name="X" type="float"/>
                            <param name="Y" type="float"/>
                            <param name="Z" type="float"/>
                        </accessor>
                    </technique_common>
                </source>
                <source id="uvs2">
                    <float_array id="uvarray2" count="90">0.66033935546875 0.26397705078125 0.58013916015625 0.6180419921875 0.740478515625 0.55279541015625 0.75946044921875 0.88201904296875 0.839599609375 0.6180419921875 0.8017578125 0.38201904296875 0.740478515625 0.211181640625 0.839599609375 0.14593505859375 0.740478515625 0 0.58013916015625 0.447265625 0.62969970703125 0.30902099609375 0.4080810546875 0.30902099609375 0.25946044921875 0.236083984375 0.3585205078125 0.17083740234375 0.4197998046875 0 0.29730224609375 0 0.11077880859375 0.30902099609375 0.16033935546875 0.17083740234375 0.2215576171875 0 0.09906005859375 0 0.96209716796875 0.6180419921875 1 0.38201904296875 0.90087890625 0.447265625 0.90087890625 0.236083984375 0.90087890625 1 0.938720703125 0.76397705078125 0.839599609375 0.8292236328125 0.58013916015625 1 0.64141845703125 0.8292236328125 0.59185791015625 0.6910400390625 0.3702392578125 0.6910400390625 0.4197998046875 0.55279541015625 0.17926025390625 0.736083984375 0.25946044921875 1 0.25946044921875 0.78887939453125 0.25946044921875 0.447265625 0.09906005859375 0.55279541015625 0.09906005859375 0.38201904296875 0 0.6180419921875 0.67926025390625 0.38201904296875 0.64141845703125 0.14593505859375 0.58013916015625 0.236083984375 0.16033935546875 0.38201904296875 0.06121826171875 0.236083984375 0.037841796875 0.38201904296875</float_array>
                    <technique_common>
                        <accessor count="45" source="#uvarray2" stride="2">
                            <param name="S" type="float"/>
                            <param name="T" type="float"/>
                        </accessor>
                    </technique_common>
                </source>
                <vertices id="vertices2">
                    <input semantic="POSITION" source="#points2"/>
                </vertices>
                <polylist count="96" material="Material1">
                    <input offset="0" semantic="VERTEX" source="#vertices2"/>
                    <input offset="1" semantic="TEXCOORD" source="#uvs2" set="0"/>
                    <vcount>3 3 3 3 3 3 3 3 3 3 3 3 3 3 3 3 3 3 3 3 3 3 3 3 3 3 3 3 3 3 3 3 3 3 3 3 3 3 3 3 3 3 3 3 3 3 3 3 3 3 3 3 3 3 3 3 3 3 3 3 3 3 3 3 3 3 3 3 3 3 3 3 3 3 3 3 3 3 3 3 3 3 3 3 3 3 3 3 3 3 3 3 3 3 3 3</vcount>
                    <p>2 2 1 1 0 0 2 2 3 3 1 1 2 2 4 4 3 3 2 2 5 5 4 4 2 2 0 0 5 5 6 6 5 5 0 0 6 6 7 7 5 5 6 6 8 8 7 7 6 6 0 0 8 8 9 9 0 0 1 1 9 9 10 11 0 10 9 9 1 1 10 11 12 13 10 11 11 12 12 13 0 14 10 11 12 13 8 15 0 14 12 13 11 12 8 15 14 17 11 12 13 16 14 17 8 18 11 12 14 17 7 19 8 18 14 17 13 16 7 19 16 22 13 21 15 20 16 22 7 23 13 21 16 22 5 5 7 23 16 22 4 4 5 5 16 22 15 20 4 4 18 26 15 25 17 24 18 26 4 4 15 25 18 26 3 3 4 4 18 26 17 24 3 3 20 28 3 3 19 27 20 28 1 1 3 3 20 28 19 27 1 29 21 31 19 30 10 11 21 31 1 1 19 30 21 31 10 11 1 1 22 34 3 33 17 32 22 34 19 30 3 33 22 34 17 32 19 30 23 35 13 16 11 12 23 35 17 32 13 16 23 35 19 30 17 32 23 35 10 11 19 30 23 35 11 12 10 11 24 36 13 16 17 32 24 36 15 38 13 37 24 36 17 32 15 38 27 2 26 1 25 39 27 2 28 3 26 1 27 2 29 4 28 3 27 2 30 5 29 4 27 2 25 39 30 5 31 6 30 5 25 39 31 6 32 7 30 5 31 6 33 8 32 7 31 6 34 40 33 8 31 6 25 39 34 40 35 9 25 39 26 1 35 9 34 41 25 39 35 9 36 11 34 41 35 9 26 1 36 11 38 13 36 11 37 12 38 13 34 14 36 11 38 13 33 15 34 14 38 13 37 12 33 15 40 17 37 12 39 42 40 17 33 18 37 12 40 17 32 19 33 18 40 17 41 43 32 19 40 17 39 42 41 43 43 22 41 21 42 20 43 22 32 23 41 21 43 22 30 5 32 23 43 22 29 4 30 5 43 22 42 20 29 4 45 26 42 25 44 24 45 26 29 4 42 25 45 26 28 3 29 4 45 26 44 24 28 3 47 28 28 3 46 27 47 28 26 1 28 3 47 28 46 27 26 29 48 31 46 30 36 11 48 31 26 1 46 30 48 31 36 11 26 1 49 34 28 33 44 32 49 34 46 30 28 33 49 34 44 32 46 30 50 35 39 42 37 12 50 35 44 32 39 42 50 35 46 30 44 32 50 35 36 11 46 30 50 35 37 12 36 11 51 36 39 42 44 32 51 36 41 44 39 42 51 36 42 38 41 44 51 36 44 32 42 38</p>
                </polylist>
            </mesh>
        </geometry>
    </library_geometries>
    <library_controllers>
        <controller id="controller0">
            <skin source="#mesh0">
                <bind_shape_matrix>1 0 0 0 0 1 0 0 0 0 1 0 0 0 0 1</bind_shape_matrix>
                <source id="joints0">
                    <Name_array id="JointArr0" count="5">jointnode-1 jointnode0 jointnode1 jointnode2 jointnode3</Name_array>
                    <technique_common>
                        <accessor source="#JointArr0" count="5">
                            <param name="JOINT" type="Name" />
                        </accessor>
                    </technique_common>
                </source>
                <source id="matrices0">
                    <float_array id="MatArr0" count="80">1 0 0 0 0 1 0 0 0 0 1 0 0 0 0 1 1 0 0 0 0 0.642783529353391 -0.7660478669064997 0 0 0.7660478669064997 0.642783529353391 0 0 0 0 1 0.1 0 0 0 0 0.0642783529353391 -0.07660478669064998 0 0 0.07660478669064998 0.0642783529353391 0 0 0 0 1 0.1 0 0 0 0 0.0642783529353391 -0.07660478669064998 0 0 0.07660478669064998 0.0642783529353391 0 0 0 0 1 1.3795595925561805 0 0 0 0 1.3795595925561805 -1.0564797200483951e-16 0 0 1.0564797200483951e-16 1.3795595925561805 0 0 0 0 1</float_array>
                    <technique_common>
                        <accessor source="#MatArr0" count="5" stride="16">
                            <param type="float4x4" />
                        </accessor>
                    </technique_common>
                </source>
                <source id="weights0">
                    <float_array id="WeightArr0" count="1">1</float_array>
                    <technique_common>
                        <accessor source="#WeightArr0" count="1">
                            <param type="float" />
                        </accessor>
                    </technique_common>
                </source>
                <joints>
                    <input semantic="JOINT" source="#joints0" />
                    <input semantic="INV_BIND_MATRIX" source="#matrices0" />
                </joints>
                <vertex_weights count="182">
                    <input semantic="JOINT" offset="0" source="#joints0" />
                    <input semantic="WEIGHT" offset="1" source="#weights0" />
                    <vcount>1 1 1 1 1 1 1 1 1 1 1 1 1 1 1 1 1 1 1 1 1 1 1 1 1 1 1 1 1 1 1 1 1 1 1 1 1 1 1 1 1 1 1 1 1 1 1 1 1 1 1 1 1 1 1 1 1 1 1 1 1 1 1 1 1 1 1 1 1 1 1 1 1 1 1 1 1 1 1 1 1 1 1 1 1 1 1 1 1 1 1 1 1 1 1 1 1 1 1 1 1 1 1 1 1 1 1 1 1 1 1 1 1 1 1 1 1 1 1 1 1 1 1 1 1 1 1 1 1 1 1 1 1 1 1 1 1 1 1 1 1 1 1 1 1 1 1 1 1 1 1 1 1 1 1 1 1 1 1 1 1 1 1 1 1 1 1 1 1 1 1 1 1 1 1 1 1 1 1 1 1 1</vcount>
                    <v>2 0 2 0 2 0 2 0 2 0 2 0 2 0 2 0 2 0 2 0 2 0 2 0 2 0 2 0 2 0 2 0 2 0 2 0 2 0 2 0 2 0 2 0 2 0 2 0 2 0 2 0 2 0 2 0 2 0 2 0 2 0 2 0 2 0 2 0 2 0 2 0 2 0 2 0 2 0 2 0 2 0 2 0 2 0 2 0 2 0 2 0 2 0 2 0 2 0 2 0 2 0 2 0 2 0 2 0 2 0 2 0 2 0 2 0 2 0 2 0 2 0 2 0 2 0 2 0 2 0 2 0 2 0 2 0 2 0 2 0 2 0 2 0 2 0 2 0 2 0 2 0 2 0 2 0 2 0 2 0 2 0 2 0 2 0 2 0 2 0 2 0 2 0 2 0 2 0 2 0 2 0 2 0 2 0 2 0 2 0 2 0 2 0 2 0 2 0 2 0 2 0 2 0 2 0 2 0 2 0 2 0 2 0 2 0 2 0 2 0 2 0 2 0 2 0 2 0 2 0 2 0 2 0 2 0 2 0 2 0 2 0 2 0 2 0 2 0 2 0 2 0 2 0 2 0 2 0 2 0 2 0 2 0 2 0 2 0 2 0 2 0 2 0 2 0 2 0 2 0 2 0 2 0 2 0 2 0 2 0 2 0 2 0 2 0 2 0 2 0 2 0 2 0 2 0 2 0 2 0 2 0 2 0 2 0 2 0 2 0 2 0 2 0 2 0 2 0 2 0 2 0 2 0 2 0 2 0 2 0 2 0 2 0 2 0 2 0 2 0 2 0 2 0 2 0 2 0 2 0 2 0 2 0</v>
                </vertex_weights>
            </skin>
        </controller>
        <controller id="controller1">
            <skin source="#mesh1">
                <bind_shape_matrix>1 0 0 0 0 1 0 0 0 0 1 0 0 0 0 1</bind_shape_matrix>
                <source id="joints1">
                    <Name_array id="JointArr1" count="5">jointnode-1 jointnode0 jointnode1 jointnode2 jointnode3</Name_array>
                    <technique_common>
                        <accessor source="#JointArr1" count="5">
                            <param name="JOINT" type="Name" />
                        </accessor>
                    </technique_common>
                </source>
                <source id="matrices1">
                    <float_array id="MatArr1" count="80">1 0 0 0 0 1 0 0 0 0 1 0 0 0 0 1 1 0 0 0 0 0.642783529353391 -0.7660478669064997 0 0 0.7660478669064997 0.642783529353391 0 0 0 0 1 0.1 0 0 0 0 0.0642783529353391 -0.07660478669064998 0 0 0.07660478669064998 0.0642783529353391 0 0 0 0 1 0.1 0 0 0 0 0.0642783529353391 -0.07660478669064998 0 0 0.07660478669064998 0.0642783529353391 0 0 0 0 1 1.3795595925561805 0 0 0 0 1.3795595925561805 -1.0564797200483951e-16 0 0 1.0564797200483951e-16 1.3795595925561805 0 0 0 0 1</float_array>
                    <technique_common>
                        <accessor source="#MatArr1" count="5" stride="16">
                            <param type="float4x4" />
                        </accessor>
                    </technique_common>
                </source>
                <source id="weights1">
                    <float_array id="WeightArr1" count="1">1</float_array>
                    <technique_common>
                        <accessor source="#WeightArr1" count="1">
                            <param type="float" />
                        </accessor>
                    </technique_common>
                </source>
                <joints>
                    <input semantic="JOINT" source="#joints1" />
                    <input semantic="INV_BIND_MATRIX" source="#matrices1" />
                </joints>
                <vertex_weights count="182">
                    <input semantic="JOINT" offset="0" source="#joints1" />
                    <input semantic="WEIGHT" offset="1" source="#weights1" />
                    <vcount>1 1 1 1 1 1 1 1 1 1 1 1 1 1 1 1 1 1 1 1 1 1 1 1 1 1 1 1 1 1 1 1 1 1 1 1 1 1 1 1 1 1 1 1 1 1 1 1 1 1 1 1 1 1 1 1 1 1 1 1 1 1 1 1 1 1 1 1 1 1 1 1 1 1 1 1 1 1 1 1 1 1 1 1 1 1 1 1 1 1 1 1 1 1 1 1 1 1 1 1 1 1 1 1 1 1 1 1 1 1 1 1 1 1 1 1 1 1 1 1 1 1 1 1 1 1 1 1 1 1 1 1 1 1 1 1 1 1 1 1 1 1 1 1 1 1 1 1 1 1 1 1 1 1 1 1 1 1 1 1 1 1 1 1 1 1 1 1 1 1 1 1 1 1 1 1 1 1 1 1 1 1</vcount>
                    <v>3 0 3 0 3 0 3 0 3 0 3 0 3 0 3 0 3 0 3 0 3 0 3 0 3 0 3 0 3 0 3 0 3 0 3 0 3 0 3 0 3 0 3 0 3 0 3 0 3 0 3 0 3 0 3 0 3 0 3 0 3 0 3 0 3 0 3 0 3 0 3 0 3 0 3 0 3 0 3 0 3 0 3 0 3 0 3 0 3 0 3 0 3 0 3 0 3 0 3 0 3 0 3 0 3 0 3 0 3 0 3 0 3 0 3 0 3 0 3 0 3 0 3 0 3 0 3 0 3 0 3 0 3 0 3 0 3 0 3 0 3 0 3 0 3 0 3 0 3 0 3 0 3 0 3 0 3 0 3 0 3 0 3 0 3 0 3 0 3 0 3 0 3 0 3 0 3 0 3 0 3 0 3 0 3 0 3 0 3 0 3 0 3 0 3 0 3 0 3 0 3 0 3 0 3 0 3 0 3 0 3 0 3 0 3 0 3 0 3 0 3 0 3 0 3 0 3 0 3 0 3 0 3 0 3 0 3 0 3 0 3 0 3 0 3 0 3 0 3 0 3 0 3 0 3 0 3 0 3 0 3 0 3 0 3 0 3 0 3 0 3 0 3 0 3 0 3 0 3 0 3 0 3 0 3 0 3 0 3 0 3 0 3 0 3 0 3 0 3 0 3 0 3 0 3 0 3 0 3 0 3 0 3 0 3 0 3 0 3 0 3 0 3 0 3 0 3 0 3 0 3 0 3 0 3 0 3 0 3 0 3 0 3 0 3 0 3 0 3 0 3 0 3 0 3 0 3 0 3 0 3 0 3 0</v>
                </vertex_weights>
            </skin>
        </controller>
        <controller id="controller2">
            <skin source="#mesh2">
                <bind_shape_matrix>1 0 0 0 0 1 0 0 0 0 1 0 0 0 0 1</bind_shape_matrix>
                <source id="joints2">
                    <Name_array id="JointArr2" count="5">jointnode-1 jointnode0 jointnode1 jointnode2 jointnode3</Name_array>
                    <technique_common>
                        <accessor source="#JointArr2" count="5">
                            <param name="JOINT" type="Name" />
                        </accessor>
                    </technique_common>
                </source>
                <source id="matrices2">
                    <float_array id="MatArr2" count="80">1 0 0 0 0 1 0 0 0 0 1 0 0 0 0 1 1 0 0 0 0 0.642783529353391 -0.7660478669064997 0 0 0.7660478669064997 0.642783529353391 0 0 0 0 1 0.1 0 0 0 0 0.0642783529353391 -0.07660478669064998 0 0 0.07660478669064998 0.0642783529353391 0 0 0 0 1 0.1 0 0 0 0 0.0642783529353391 -0.07660478669064998 0 0 0.07660478669064998 0.0642783529353391 0 0 0 0 1 1.3795595925561805 0 0 0 0 1.3795595925561805 -1.0564797200483951e-16 0 0 1.0564797200483951e-16 1.3795595925561805 0 0 0 0 1</float_array>
                    <technique_common>
                        <accessor source="#MatArr2" count="5" stride="16">
                            <param type="float4x4" />
                        </accessor>
                    </technique_common>
                </source>
                <source id="weights2">
                    <float_array id="WeightArr2" count="1">1</float_array>
                    <technique_common>
                        <accessor source="#WeightArr2" count="1">
                            <param type="float" />
                        </accessor>
                    </technique_common>
                </source>
                <joints>
                    <input semantic="JOINT" source="#joints2" />
                    <input semantic="INV_BIND_MATRIX" source="#matrices2" />
                </joints>
                <vertex_weights count="52">
                    <input semantic="JOINT" offset="0" source="#joints2" />
                    <input semantic="WEIGHT" offset="1" source="#weights2" />
                    <vcount>1 1 1 1 1 1 1 1 1 1 1 1 1 1 1 1 1 1 1 1 1 1 1 1 1 1 1 1 1 1 1 1 1 1 1 1 1 1 1 1 1 1 1 1 1 1 1 1 1 1 1 1</vcount>
                    <v>4 0 4 0 4 0 4 0 4 0 4 0 4 0 4 0 4 0 4 0 4 0 4 0 4 0 4 0 4 0 4 0 4 0 4 0 4 0 4 0 4 0 4 0 4 0 4 0 4 0 4 0 4 0 4 0 4 0 4 0 4 0 4 0 4 0 4 0 4 0 4 0 4 0 4 0 4 0 4 0 4 0 4 0 4 0 4 0 4 0 4 0 4 0 4 0 4 0 4 0 4 0 4 0</v>
                </vertex_weights>
            </skin>
        </controller>
    </library_controllers>
    <library_visual_scenes>
        <visual_scene id="VisualSceneNode">
            <node id="node0" name="m0" type="NODE">
                <instance_controller url="#controller0">
                    <skeleton>#jointnode-1</skeleton>
                    <bind_material>
                        <technique_common>
                            <instance_material symbol="Material1" target="#mat0">
                                <bind_vertex_input semantic="UVSET0" input_semantic="TEXCOORD" input_set="0"></bind_vertex_input>
                            </instance_material>
                        </technique_common>
                    </bind_material>
                </instance_controller>
            </node>
            <node id="node1" name="m1" type="NODE">
                <instance_controller url="#controller1">
                    <skeleton>#jointnode-1</skeleton>
                    <bind_material>
                        <technique_common>
                            <instance_material symbol="Material1" target="#mat1">
                                <bind_vertex_input semantic="UVSET0" input_semantic="TEXCOORD" input_set="0"></bind_vertex_input>
                            </instance_material>
                        </technique_common>
                    </bind_material>
                </instance_controller>
            </node>
            <node id="node2" name="m2" type="NODE">
                <instance_controller url="#controller2">
                    <skeleton>#jointnode-1</skeleton>
                    <bind_material>
                        <technique_common>
                            <instance_material symbol="Material1" target="#mat2">
                                <bind_vertex_input semantic="UVSET0" input_semantic="TEXCOORD" input_set="0"></bind_vertex_input>
                            </instance_material>
                        </technique_common>
                    </bind_material>
                </instance_controller>
            </node>
            <node id="jointnode-1" name="root" sid="jointnode-1" type="JOINT">
                <node id="jointnode0" name="StarPieceCluster" sid="jointnode0" type="JOINT">
                    <rotate>1 0 0 -50.00030518509476</rotate>
                    <node id="jointnode1" name="BackFace" sid="jointnode1" type="JOINT">
                        <scale>10 10 10</scale>
                    </node>
                    <node id="jointnode2" name="Face" sid="jointnode2" type="JOINT">
                        <scale>10 10 10</scale>
                    </node>
                    <node id="jointnode3" name="Inner" sid="jointnode3" type="JOINT">
                        <rotate>1 0 0 50.00030518509476</rotate>
                        <scale>0.7248690128326416 0.7248690128326416 0.7248690128326416</scale>
                    </node>
                </node>
            </node>
        </visual_scene>
    </library_visual_scenes>
    <scene>
        <instance_visual_scene url="#VisualSceneNode"></instance_visual_scene>
    </scene>
</COLLADA>
