<?xml version="1.0"?>
<COLLADA xmlns="http://www.collada.org/2005/11/COLLADASchema" version="1.4.1">
    <asset>
        <contributor>
            <authoring_tool>J3D Ripoff Exporter</authoring_tool>
        </contributor>
        <created>2024-06-23T19:46:04.285Z</created>
        <modified>2024-06-23T19:46:04.285Z</modified>
		<unit meter="0.01" name="centimeter" ></unit>
        <up_axis>Y_UP</up_axis>
    </asset>
    <library_images>
        <image id="tex0">
            <init_from>GalaxySkyUniverse.png</init_from>
        </image>
        <image id="tex1">
            <init_from>GalaxySkyGalaxy.png</init_from>
        </image>
    </library_images>
    <library_effects>
        <effect id="effect0">
            <profile_COMMON>
                <newparam sid="surface0">
                    <surface type="2D">
                        <init_from>tex0</init_from>
                    </surface>
                </newparam>
                <newparam sid="sampler0">
                    <sampler2D>
                        <source>surface0</source>
                    </sampler2D>
                </newparam>
                <technique sid="COMMON">
                    <blinn>
                        <diffuse>
                            <texture texture="sampler0" texcoord="UVSET0"></texture>
                        </diffuse>
                    </blinn>
                </technique>
            </profile_COMMON>
        </effect>
    </library_effects>
    <library_materials>
        <material id="mat0" name="UniverseMat_v">
            <instance_effect url="#effect0"></instance_effect>
        </material>
    </library_materials>
    <library_geometries>
        <geometry id="mesh0">
            <mesh>
                <source id="points0">
                    <float_array id="pointarray0" count="1146">-12906.75390625 39722.91015625 81972.609375 -16710.482421875 51429.578125 74429.5625 -24550.107421875 33790.328125 81972.609375 -31785.2265625 43748.61328125 74429.5625 -33790.328125 24550.107421875 81972.609375 -43748.61328125 31785.2265625 74429.5625 -39722.91015625 12906.75390625 81972.609375 -51429.578125 16710.482421875 74429.5625 -41767.1328125 0.0007099999929778278 81972.609375 -54076.25390625 0.0009190000128000975 74429.5625 -39722.91015625 -12906.75390625 81972.609375 -51429.578125 -16710.48046875 74429.5625 -33790.31640625 -24550.10546875 81972.609375 -43748.61328125 -31785.220703125 74429.5625 -24550.10546875 -33790.31640625 81972.609375 -31785.220703125 -43748.60546875 74429.5625 -12906.75390625 -39722.90234375 81972.609375 -16710.478515625 -51429.5703125 74429.5625 0.0004149999876972288 -41767.12890625 81972.609375 0.0005370000144466758 -54076.23828125 74429.5625 12906.75390625 -39722.90234375 81972.609375 16710.478515625 -51429.56640625 74429.5625 24550.099609375 -33790.31640625 81972.609375 31785.220703125 -43748.60546875 74429.5625 33790.31640625 -24550.099609375 81972.609375 43748.60546875 -31785.220703125 74429.5625 39722.90234375 -12906.7529296875 81972.609375 51429.5625 -16710.478515625 74429.5625 41767.12890625 0 81972.609375 54076.23828125 0 74429.5625 39722.91796875 12906.7587890625 81972.609375 51429.5859375 16710.486328125 74429.5625 33790.328125 24550.11328125 81972.609375 43748.6171875 31785.234375 74429.5625 24550.109375 33790.328125 81972.609375 31785.228515625 43748.6171875 74429.5625 12906.7578125 39722.9140625 81972.609375 16710.482421875 51429.578125 74429.5625 0.000295000005280599 41767.140625 81972.609375 0.0003819999983534217 54076.26171875 74429.5625 -20102.7421875 61869.88671875 65053.828125 -38237.6875 52629.66796875 65053.828125 -52629.66796875 38237.6875 65053.828125 -61869.8828125 20102.7421875 65053.828125 -65053.84375 0.0011050000321120024 65053.828125 -61869.8828125 -20102.7421875 65053.81640625 -52629.65234375 -38237.6875 65053.81640625 -38237.6875 -52629.65234375 65053.81640625 -20102.73828125 -61869.86328125 65053.81640625 0.0006459999713115394 -65053.83203125 65053.81640625 20102.73828125 -61869.86328125 65053.81640625 38237.6796875 -52629.65234375 65053.81640625 52629.65234375 -38237.6796875 65053.81640625 61869.86328125 -20102.73828125 65053.81640625 65053.828125 0 65053.828125 61869.890625 20102.74609375 65053.828125 52629.67578125 38237.6953125 65053.828125 38237.69140625 52629.67578125 65053.828125 20102.74609375 61869.88671875 65053.828125 0.00045900000259280205 65053.84375 65053.828125 -23000.0078125 70786.7421875 54076.23828125 -43748.61328125 60214.796875 54076.23828125 -60214.796875 43748.61328125 54076.23828125 -70786.734375 23000.0078125 54076.23828125 -74429.5859375 0.0012639999622479081 54076.23828125 -70786.734375 -23000.005859375 54076.23828125 -60214.796875 -43748.60546875 54076.23828125 -43748.60546875 -60214.7890625 54076.23828125 -23000.001953125 -70786.734375 54076.23828125 0.0007389999809674919 -74429.5703125 54076.23828125 23000.001953125 -70786.7265625 54076.23828125 43748.60546875 -60214.78515625 54076.23828125 60214.78515625 -43748.60546875 54076.23828125 70786.71875 -23000 54076.23828125 74429.5625 0 54076.23828125 70786.7578125 23000.01171875 54076.23828125 60214.80859375 43748.6171875 54076.23828125 43748.6171875 60214.80859375 54076.23828125 23000.009765625 70786.75 54076.23828125 0.0005259999888949096 74429.59375 54076.23828125 -25330.931640625 77960.6015625 41767.12890625 -48182.296875 66317.2421875 41767.12890625 -66317.2421875 48182.28515625 41767.12890625 -77960.59375 25330.931640625 41767.12890625 -81972.6171875 0.0013930000131949782 41767.12890625 -77960.59375 -25330.927734375 41767.12890625 -66317.234375 -48182.296875 41767.12890625 -48182.296875 -66317.234375 41767.12890625 -25330.927734375 -77960.5703125 41767.12890625 0.0008140000281855464 -81972.609375 41767.12890625 25330.927734375 -77960.5703125 41767.12890625 48182.28515625 -66317.234375 41767.12890625 66317.234375 -48182.28515625 41767.12890625 77960.5703125 -25330.92578125 41767.12890625 81972.59375 0 41767.12890625 77960.609375 25330.939453125 41767.12890625 66317.2578125 48182.30859375 41767.12890625 48182.30078125 66317.25 41767.12890625 25330.9375 77960.6015625 41767.12890625 0.0005789999850094318 81972.625 41767.12890625 -27038.130859375 83214.8046875 28429.560546875 -51429.578125 70786.734375 28429.560546875 -70786.734375 51429.578125 28429.560546875 -83214.796875 27038.130859375 28429.560546875 -87497.203125 0.0014860000228509307 28429.560546875 -83214.796875 -27038.125 28429.560546875 -70786.734375 -51429.5703125 28429.560546875 -51429.5703125 -70786.7265625 28429.560546875 -27038.119140625 -83214.796875 28429.560546875 0.0008679999737069011 -87497.203125 28429.560546875 27038.119140625 -83214.78125 28429.560546875 51429.56640625 -70786.71875 28429.560546875 70786.71875 -51429.56640625 28429.560546875 83214.78125 -27038.119140625 28429.560546875 87497.1953125 0 28429.560546875 83214.8125 27038.134765625 28429.560546875 70786.75 51429.578125 28429.560546875 51429.5859375 70786.75 28429.560546875 27038.130859375 83214.8046875 28429.560546875 0.0006179999909363687 87497.234375 28429.560546875 -28079.5546875 86419.984375 14391.962890625 -53410.4921875 73513.234375 14391.962890625 -73513.234375 53410.4921875 14391.962890625 -86419.984375 28079.5546875 14391.962890625 -90867.34375 0.0015439999988302588 14391.962890625 -86419.984375 -28079.5546875 14391.962890625 -73513.234375 -53410.48828125 14391.962890625 -53410.48828125 -73513.21875 14391.962890625 -28079.552734375 -86419.96875 14391.962890625 0.000901999999769032 -90867.34375 14391.962890625 28079.552734375 -86419.96875 14391.962890625 53410.48046875 -73513.21875 14391.962890625 73513.21875 -53410.48046875 14391.962890625 86419.96875 -28079.55078125 14391.962890625 90867.328125 0 14391.962890625 86420 28079.5625 14391.962890625 73513.2421875 53410.50390625 14391.962890625 53410.4921875 73513.2421875 14391.962890625 28079.560546875 86420 14391.962890625 0.0006419999990612268 90867.359375 14391.962890625 -28429.572265625 87497.234375 0 -54076.26171875 74429.59375 0 -74429.59375 54076.26171875 0 -87497.2265625 28429.572265625 0 -92000.015625 0.001563000027090311 0 -87497.2265625 -28429.5703125 0 -74429.5859375 -54076.25 0 -54076.25 -74429.5703125 0 -28429.56640625 -87497.203125 0 0.0009130000253207982 -92000.0078125 0 28429.56640625 -87497.203125 0 54076.23828125 -74429.5703125 0 74429.5703125 -54076.23828125 0 87497.203125 -28429.5625 0 92000 0 0 87497.234375 28429.57421875 0 74429.6015625 54076.26953125 0 54076.26171875 74429.6015625 0 28429.57421875 87497.234375 0 0.0006500000017695129 92000.0390625 0 -28079.5546875 86419.984375 -14391.962890625 -53410.4921875 73513.234375 -14391.962890625 -73513.234375 53410.4921875 -14391.962890625 -86419.984375 28079.5546875 -14391.962890625 -90867.34375 0.0015439999988302588 -14391.962890625 -86419.984375 -28079.5546875 -14391.962890625 -73513.234375 -53410.48828125 -14391.962890625 -53410.48828125 -73513.21875 -14391.962890625 -28079.552734375 -86419.96875 -14391.962890625 0.000901999999769032 -90867.3359375 -14391.962890625 28079.552734375 -86419.96875 -14391.962890625 53410.48046875 -73513.21875 -14391.962890625 73513.21875 -53410.48046875 -14391.962890625 86419.96875 -28079.55078125 -14391.962890625 90867.328125 0 -14391.962890625 86420 28079.5625 -14391.962890625 73513.2421875 53410.50390625 -14391.962890625 53410.4921875 73513.2421875 -14391.962890625 28079.560546875 86420 -14391.962890625 0.0006419999990612268 90867.359375 -14391.962890625 0.0006179999909363687 87497.234375 -28429.560546875 -27038.130859375 83214.8046875 -28429.560546875 -51429.578125 70786.734375 -28429.560546875 -70786.734375 51429.578125 -28429.560546875 -83214.796875 27038.130859375 -28429.560546875 -87497.203125 0.0014860000228509307 -28429.560546875 -83214.796875 -27038.125 -28429.560546875 -70786.734375 -51429.5703125 -28429.560546875 -51429.5703125 -70786.7265625 -28429.560546875 -27038.119140625 -83214.796875 -28429.560546875 0.0008679999737069011 -87497.203125 -28429.560546875 27038.119140625 -83214.78125 -28429.560546875 51429.56640625 -70786.71875 -28429.560546875 70786.71875 -51429.56640625 -28429.560546875 83214.78125 -27038.119140625 -28429.560546875 87497.1953125 0 -28429.560546875 83214.8125 27038.134765625 -28429.560546875 70786.75 51429.5859375 -28429.560546875 51429.5859375 70786.75 -28429.560546875 27038.130859375 83214.8046875 -28429.560546875 0.0005789999850094318 81972.625 -41767.12890625 -25330.931640625 77960.6015625 -41767.12890625 -48182.296875 66317.2421875 -41767.12890625 -66317.2421875 48182.296875 -41767.12890625 -77960.59375 25330.931640625 -41767.12890625 -81972.6171875 0.0013930000131949782 -41767.12890625 -77960.59375 -25330.927734375 -41767.12890625 -66317.234375 -48182.28515625 -41767.12890625 -48182.296875 -66317.234375 -41767.12890625 -25330.927734375 -77960.5703125 -41767.12890625 0.0008140000281855464 -81972.609375 -41767.12890625 25330.927734375 -77960.5703125 -41767.12890625 48182.28515625 -66317.234375 -41767.12890625 66317.234375 -48182.28515625 -41767.12890625 77960.5703125 -25330.92578125 -41767.12890625 81972.59375 0 -41767.12890625 77960.609375 25330.939453125 -41767.12890625 66317.2578125 48182.30859375 -41767.12890625 48182.30078125 66317.2578125 -41767.12890625 25330.9375 77960.6015625 -41767.12890625 0.0005259999888949096 74429.59375 -54076.23828125 -23000.0078125 70786.7421875 -54076.23828125 -43748.61328125 60214.796875 -54076.23828125 -60214.796875 43748.61328125 -54076.23828125 -70786.734375 23000.0078125 -54076.23828125 -74429.5859375 0.0012639999622479081 -54076.23828125 -70786.734375 -23000.005859375 -54076.23828125 -60214.796875 -43748.60546875 -54076.23828125 -43748.60546875 -60214.7890625 -54076.23828125 -23000.001953125 -70786.734375 -54076.23828125 0.0007389999809674919 -74429.5703125 -54076.23828125 23000.001953125 -70786.7265625 -54076.23828125 43748.60546875 -60214.78515625 -54076.23828125 60214.78515625 -43748.60546875 -54076.23828125 70786.71875 -23000 -54076.23828125 74429.5625 0 -54076.23828125 70786.7578125 23000.01171875 -54076.23828125 60214.80859375 43748.6171875 -54076.23828125 43748.6171875 60214.80859375 -54076.23828125 23000.009765625 70786.75 -54076.23828125 0.00045900000259280205 65053.84375 -65053.81640625 -20102.7421875 61869.88671875 -65053.81640625 -38237.6875 52629.66796875 -65053.81640625 -52629.66796875 38237.6875 -65053.81640625 -61869.8828125 20102.7421875 -65053.81640625 -65053.84375 0.0011050000321120024 -65053.828125 -61869.8828125 -20102.7421875 -65053.828125 -52629.65234375 -38237.6875 -65053.828125 -38237.6875 -52629.65234375 -65053.828125 -20102.73828125 -61869.86328125 -65053.828125 0.0006459999713115394 -65053.83203125 -65053.828125 20102.73828125 -61869.86328125 -65053.828125 38237.6796875 -52629.65234375 -65053.828125 52629.65234375 -38237.6796875 -65053.828125 61869.86328125 -20102.73828125 -65053.828125 65053.828125 0 -65053.828125 61869.890625 20102.74609375 -65053.81640625 52629.67578125 38237.6953125 -65053.81640625 38237.69140625 52629.67578125 -65053.81640625 20102.74609375 61869.88671875 -65053.81640625 0.0003819999983534217 54076.26171875 -74429.5625 -16710.482421875 51429.5859375 -74429.5625 -31785.2265625 43748.61328125 -74429.5625 -43748.61328125 31785.2265625 -74429.5625 -51429.578125 16710.482421875 -74429.5625 -54076.25390625 0.0009190000128000975 -74429.5625 -51429.578125 -16710.48046875 -74429.5625 -43748.61328125 -31785.220703125 -74429.5625 -31785.220703125 -43748.60546875 -74429.5625 -16710.478515625 -51429.5703125 -74429.5625 0.0005370000144466758 -54076.23828125 -74429.5625 16710.478515625 -51429.56640625 -74429.5625 31785.220703125 -43748.60546875 -74429.5625 43748.60546875 -31785.220703125 -74429.5625 51429.5625 -16710.478515625 -74429.5625 54076.23828125 0 -74429.5625 51429.5859375 16710.486328125 -74429.5625 43748.6171875 31785.234375 -74429.5625 31785.228515625 43748.6171875 -74429.5625 16710.482421875 51429.5859375 -74429.5625 0.000295000005280599 41767.140625 -81972.609375 -12906.75390625 39722.91015625 -81972.609375 -24550.107421875 33790.328125 -81972.609375 -33790.328125 24550.107421875 -81972.609375 -39722.91015625 12906.75390625 -81972.609375 -41767.1328125 0.0007099999929778278 -81972.609375 -39722.91015625 -12906.75390625 -81972.609375 -33790.31640625 -24550.10546875 -81972.609375 -24550.10546875 -33790.31640625 -81972.609375 -12906.75390625 -39722.90234375 -81972.609375 0.0004149999876972288 -41767.12890625 -81972.609375 12906.75390625 -39722.90234375 -81972.609375 24550.099609375 -33790.31640625 -81972.609375 33790.31640625 -24550.099609375 -81972.609375 39722.90234375 -12906.7529296875 -81972.609375 41767.12890625 0 -81972.609375 39722.91796875 12906.7587890625 -81972.609375 33790.328125 24550.11328125 -81972.609375 24550.109375 33790.328125 -81972.609375 12906.7578125 39722.9140625 -81972.609375 27038.13671875 8785.2236328125 87497.1953125 28429.56640625 0 87497.1953125 27038.119140625 -8785.21875 87497.1953125 23000.005859375 -16710.478515625 87497.1953125 16710.478515625 -23000.005859375 87497.1953125 8785.220703125 -27038.125 87497.1953125 0.00028199999360367656 -28429.5703125 87497.1953125 -8785.220703125 -27038.126953125 87497.1953125 -16710.482421875 -23000.005859375 87497.1953125 -23000.0078125 -16710.482421875 87497.1953125 -27038.130859375 -8785.220703125 87497.1953125 -28429.572265625 0.0004830000107176602 87497.1953125 -27038.130859375 8785.220703125 87497.1953125 -23000.009765625 16710.482421875 87497.1953125 -16710.482421875 23000.009765625 87497.1953125 -8785.220703125 27038.130859375 87497.1953125 0.0002010000025620684 28429.57421875 87497.1953125 8785.22265625 27038.134765625 87497.1953125 16710.482421875 23000.01171875 87497.1953125 23000.01171875 16710.48828125 87497.1953125 13687.5830078125 4447.365234375 90867.328125 14391.970703125 0 90867.328125 13687.5771484375 -4447.36376953125 90867.328125 11643.349609375 -8459.388671875 90867.328125 8459.388671875 -11643.349609375 90867.328125 4447.36376953125 -13687.5771484375 90867.328125 0.0001429999974789098 -14391.9736328125 90867.328125 -4447.36376953125 -13687.5771484375 90867.328125 -8459.388671875 -11643.3505859375 90867.328125 -11643.3525390625 -8459.388671875 90867.328125 -13687.58203125 -4447.36474609375 90867.328125 -14391.9736328125 0.00024399999529123306 90867.328125 -13687.58203125 4447.365234375 90867.328125 -11643.3525390625 8459.390625 90867.328125 -8459.390625 11643.3525390625 90867.328125 -4447.365234375 13687.5830078125 90867.328125 0.00010199999815085903 14391.9765625 90867.328125 4447.365234375 13687.5830078125 90867.328125 8459.392578125 11643.3544921875 90867.328125 11643.3544921875 8459.392578125 90867.328125 28429.56640625 0 -87497.1953125 27038.13671875 8785.2236328125 -87497.1953125 23000.01171875 16710.48828125 -87497.1953125 16710.482421875 23000.01171875 -87497.1953125 8785.22265625 27038.134765625 -87497.1953125 0.0002010000025620684 28429.57421875 -87497.1953125 -8785.220703125 27038.130859375 -87497.1953125 -16710.482421875 23000.009765625 -87497.1953125 -23000.009765625 16710.482421875 -87497.1953125 -27038.130859375 8785.220703125 -87497.1953125 -28429.572265625 0.0004830000107176602 -87497.1953125 -27038.130859375 -8785.220703125 -87497.1953125 -23000.0078125 -16710.482421875 -87497.1953125 -16710.482421875 -23000.005859375 -87497.1953125 -8785.220703125 -27038.126953125 -87497.1953125 0.00028199999360367656 -28429.5703125 -87497.1953125 8785.220703125 -27038.125 -87497.1953125 16710.478515625 -23000.005859375 -87497.1953125 23000.005859375 -16710.478515625 -87497.1953125 27038.119140625 -8785.2177734375 -87497.1953125 14391.970703125 0 -90867.328125 13687.5830078125 4447.365234375 -90867.328125 11643.3544921875 8459.392578125 -90867.328125 8459.392578125 11643.3544921875 -90867.328125 4447.365234375 13687.5830078125 -90867.328125 0.00010199999815085903 14391.9765625 -90867.328125 -4447.365234375 13687.5830078125 -90867.328125 -8459.390625 11643.3525390625 -90867.328125 -11643.3525390625 8459.390625 -90867.328125 -13687.58203125 4447.365234375 -90867.328125 -14391.9736328125 0.00024399999529123306 -90867.328125 -13687.58203125 -4447.36474609375 -90867.328125 -11643.3525390625 -8459.388671875 -90867.328125 -8459.388671875 -11643.3505859375 -90867.328125 -4447.36376953125 -13687.5771484375 -90867.328125 0.0001429999974789098 -14391.9736328125 -90867.328125 4447.36376953125 -13687.5771484375 -90867.328125 8459.388671875 -11643.349609375 -90867.328125 11643.349609375 -8459.388671875 -90867.328125 13687.5771484375 -4447.36376953125 -90867.328125 0 0 92000 0 0 -92000</float_array>
                    <technique_common>
                        <accessor count="382" source="#pointarray0" stride="3">
                            <param name="X" type="float"/>
                            <param name="Y" type="float"/>
                            <param name="Z" type="float"/>
                        </accessor>
                    </technique_common>
                </source>
                <source id="uvs0">
                    <float_array id="uvarray0" count="876">-8.50048828125 4 -8.5 3.5 -7.50048828125 4 -7.5 3.5 -6.5 4 -6.5 3.5 -5.5 4 -5.5 3.5 -4.49951171875 4 -4.5 3.5 -3.49951171875 4 -3.49951171875 3.5 -2.49951171875 4 -2.49951171875 3.5 -1.4990234375 4 -1.49951171875 3.5 -0.4990234375 4 -0.49951171875 3.5 0.50048828125 4 0.5 3.5 1.50048828125 3.99951171875 1.5 3.49951171875 2.50048828125 3.99951171875 2.5 3.49951171875 3.5 3.99951171875 3.5 3.49951171875 4.5 3.99951171875 4.5 3.49951171875 5.49951171875 3.99951171875 5.5 3.49951171875 6.49951171875 3.99951171875 6.49951171875 3.49951171875 7.49951171875 3.99951171875 7.49951171875 3.49951171875 8.4990234375 3.99951171875 8.49951171875 3.49951171875 9.4990234375 3.99951171875 9.49951171875 3.49951171875 10.4990234375 4 10.49951171875 3.5 11.4990234375 4 11.49951171875 3.5 -8.5 3 -7.5 3 -6.5 3 -5.5 3 -4.5 3 -3.49951171875 3 -2.49951171875 3 -1.49951171875 3 -0.49951171875 3 0.5 3 1.5 2.99951171875 2.5 2.99951171875 3.5 2.99951171875 4.5 2.99951171875 5.5 2.99951171875 6.49951171875 2.99951171875 7.49951171875 2.99951171875 8.49951171875 2.99951171875 9.49951171875 2.99951171875 10.49951171875 3 11.49951171875 3 -8.5 2.5 -7.5 2.5 -6.5 2.5 -5.5 2.5 -4.5 2.5 -3.49951171875 2.5 -2.49951171875 2.5 -1.49951171875 2.5 -0.49951171875 2.5 0.5 2.5 1.5 2.49951171875 2.5 2.49951171875 3.5 2.49951171875 4.5 2.49951171875 5.5 2.49951171875 6.49951171875 2.49951171875 7.49951171875 2.49951171875 8.49951171875 2.49951171875 9.49951171875 2.49951171875 10.49951171875 2.5 11.49951171875 2.5 -8.5 2 -7.5 2 -6.5 2 -5.5 2 -4.5 2 -3.49951171875 2 -2.49951171875 2 -1.49951171875 2 -0.49951171875 2 0.5 2 1.5 1.99951171875 2.5 1.99951171875 3.5 1.99951171875 4.5 1.99951171875 5.5 1.99951171875 6.49951171875 1.99951171875 7.49951171875 1.99951171875 8.49951171875 1.99951171875 9.49951171875 1.99951171875 10.49951171875 2 11.49951171875 2 -8.5 1.5 -7.5 1.5 -6.5 1.5 -5.5 1.5 -4.5 1.5 -3.49951171875 1.5 -2.49951171875 1.5 -1.49951171875 1.5 -0.49951171875 1.5 0.5 1.5 1.5 1.49951171875 2.5 1.49951171875 3.5 1.49951171875 4.5 1.49951171875 5.5 1.49951171875 6.49951171875 1.49951171875 7.49951171875 1.49951171875 8.49951171875 1.49951171875 9.49951171875 1.49951171875 10.49951171875 1.5 11.49951171875 1.5 -8.5 1 -7.5 1 -6.5 1 -5.5 1 -4.5 1 -3.49951171875 1 -2.49951171875 1 -1.49951171875 1 -0.49951171875 1 0.5 1 1.5 1 2.5 1 3.5 1 4.5 1 5.5 1 6.49951171875 1 7.49951171875 1 8.49951171875 1 9.49951171875 1 10.49951171875 1 11.49951171875 1 -8.5 0.50048828125 -7.5 0.50048828125 -6.5 0.50048828125 -5.5 0.50048828125 -4.5 0.50048828125 -3.5 0.50048828125 -2.5 0.50048828125 -1.49951171875 0.50048828125 -0.5 0.50048828125 0.5 0.5 1.5 0.5 2.5 0.5 3.5 0.5 4.5 0.5 5.5 0.5 6.5 0.5 7.49951171875 0.5 8.5 0.5 9.5 0.5 10.49951171875 0.5 11.49951171875 0.50048828125 -8.49951171875 0.00048828125 -7.49951171875 0.00048828125 -6.49951171875 0.00048828125 -5.49951171875 0.00048828125 -4.5 0.00048828125 -3.5 0.00048828125 -2.5 0.00048828125 -1.5 0.00048828125 -0.5 0.00048828125 0.49951171875 0.00048828125 1.49951171875 0 2.49951171875 0 3.49951171875 0 4.49951171875 0 5.5 0 6.5 0 7.5 0 8.5 0 9.5 0 10.5 0 11.5 0.00048828125 -9.49951171875 0 -9.49951171875 -0.5 -8.49951171875 -0.49951171875 -7.49951171875 -0.49951171875 -6.49951171875 -0.49951171875 -5.49951171875 -0.49951171875 -4.5 -0.49951171875 -3.5 -0.49951171875 -2.5 -0.49951171875 -1.5 -0.49951171875 -0.5 -0.49951171875 0.49951171875 -0.5 1.49951171875 -0.5 2.49951171875 -0.5 3.49951171875 -0.5 4.49951171875 -0.5 5.5 -0.5 6.5 -0.5 7.5 -0.5 8.5 -0.5 9.5 -0.5 10.5 -0.5 -9.49951171875 -1 -8.49951171875 -0.99951171875 -7.49951171875 -0.99951171875 -6.49951171875 -0.99951171875 -5.49951171875 -0.99951171875 -4.5 -0.99951171875 -3.5 -0.99951171875 -2.5 -0.99951171875 -1.5 -0.99951171875 -0.5 -0.99951171875 0.49951171875 -1 1.49951171875 -1 2.49951171875 -1 3.49951171875 -1 4.49951171875 -1 5.5 -1 6.5 -1 7.5 -1 8.5 -1 9.5 -1 10.5 -1 -9.49951171875 -1.5 -8.49951171875 -1.49951171875 -7.49951171875 -1.49951171875 -6.49951171875 -1.49951171875 -5.49951171875 -1.49951171875 -4.5 -1.49951171875 -3.5 -1.49951171875 -2.5 -1.49951171875 -1.5 -1.49951171875 -0.5 -1.49951171875 0.49951171875 -1.49951171875 1.49951171875 -1.5 2.49951171875 -1.5 3.49951171875 -1.5 4.49951171875 -1.5 5.5 -1.5 6.5 -1.5 7.5 -1.5 8.5 -1.5 9.5 -1.5 10.5 -1.5 -9.49951171875 -2 -8.49951171875 -1.99951171875 -7.49951171875 -1.99951171875 -6.49951171875 -1.99951171875 -5.49951171875 -1.99951171875 -4.49951171875 -1.99951171875 -3.5 -1.99951171875 -2.5 -1.99951171875 -1.5 -1.99951171875 -0.5 -1.99951171875 0.49951171875 -2 1.49951171875 -2 2.49951171875 -2 3.49951171875 -2 4.49951171875 -2 5.49951171875 -2 6.5 -2 7.5 -2 8.5 -2 9.5 -2 10.5 -2 -9.49951171875 -2.5 -8.49951171875 -2.49951171875 -7.49951171875 -2.49951171875 -6.49951171875 -2.49951171875 -5.49951171875 -2.49951171875 -4.49951171875 -2.49951171875 -3.5 -2.49951171875 -2.5 -2.49951171875 -1.5 -2.49951171875 -0.5 -2.49951171875 0.49951171875 -2.5 1.49951171875 -2.5 2.49951171875 -2.5 3.49951171875 -2.5 4.49951171875 -2.5 5.49951171875 -2.5 6.5 -2.5 7.5 -2.5 8.5 -2.5 9.5 -2.5 10.5 -2.5 -9.4990234375 -3 -8.4990234375 -2.99951171875 -7.4990234375 -2.99951171875 -6.49951171875 -2.99951171875 -5.49951171875 -2.99951171875 -4.49951171875 -2.99951171875 -3.5 -2.99951171875 -2.5 -2.99951171875 -1.50048828125 -2.99951171875 -0.50048828125 -2.99951171875 0.4990234375 -2.99951171875 1.4990234375 -3 2.4990234375 -3 3.49951171875 -3 4.49951171875 -3 5.49951171875 -3 6.5 -3 7.5 -3 8.50048828125 -3 9.50048828125 -3 10.50048828125 -3 -2.07568359375 -6.68017578125 -2.6181640625 -6.82373046875 -2.00390625 -7.1279296875 -2.56640625 -7.1279296875 -2.07568359375 -7.576171875 -2.6181640625 -7.4326171875 -2.29150390625 -7.98779296875 -2.77099609375 -7.70947265625 -2.6494140625 -8.3251953125 -3.015625 -7.9326171875 -3.13232421875 -8.54931640625 -3.3330078125 -8.07763671875 -3.69140625 -8.6279296875 -3.69140625 -8.1279296875 -4.2509765625 -8.54931640625 -4.0498046875 -8.07763671875 -4.7333984375 -8.3251953125 -4.3671875 -7.9326171875 -5.091796875 -7.98779296875 -4.6123046875 -7.70947265625 -5.3076171875 -7.576171875 -4.7646484375 -7.4326171875 -5.37890625 -7.1279296875 -4.81640625 -7.1279296875 -5.3076171875 -6.68017578125 -4.7646484375 -6.82373046875 -5.091796875 -6.2685546875 -4.6123046875 -6.546875 -4.7333984375 -5.93115234375 -4.3671875 -6.32373046875 -4.2509765625 -5.70703125 -4.0498046875 -6.1787109375 -3.69140625 -5.6279296875 -3.69140625 -6.1279296875 -3.13232421875 -5.70703125 -3.3330078125 -6.1787109375 -2.6494140625 -5.93115234375 -3.015625 -6.32373046875 -2.29150390625 -6.2685546875 -2.77099609375 -6.546875 -3.15625 -6.97412109375 -3.12890625 -7.1279296875 -3.15625 -7.2822265625 -3.2353515625 -7.42138671875 -3.359375 -7.5322265625 -3.5166015625 -7.603515625 -3.69140625 -7.6279296875 -3.86669921875 -7.603515625 -4.02392578125 -7.5322265625 -4.14794921875 -7.42138671875 -4.22705078125 -7.2822265625 -4.25390625 -7.1279296875 -4.22705078125 -6.97412109375 -4.14794921875 -6.8349609375 -4.02392578125 -6.72412109375 -3.86669921875 -6.65283203125 -3.69140625 -6.6279296875 -3.5166015625 -6.65283203125 -3.359375 -6.72412109375 -3.2353515625 -6.8349609375 5.87060546875 -7.1279296875 6.43310546875 -7.1279296875 5.94189453125 -6.68017578125 6.48486328125 -6.82373046875 6.15771484375 -6.2685546875 6.63720703125 -6.546875 6.51611328125 -5.93115234375 6.88232421875 -6.32373046875 6.99853515625 -5.70703125 7.19970703125 -6.1787109375 7.55810546875 -5.6279296875 7.55810546875 -6.1279296875 8.1181640625 -5.70703125 7.91748046875 -6.1787109375 8.60107421875 -5.93115234375 8.23486328125 -6.32373046875 8.95947265625 -6.2685546875 8.4794921875 -6.546875 9.1748046875 -6.68017578125 8.63232421875 -6.82373046875 9.24658203125 -7.1279296875 8.68408203125 -7.1279296875 9.1748046875 -7.576171875 8.63232421875 -7.4326171875 8.95947265625 -7.98779296875 8.4794921875 -7.70947265625 8.60107421875 -8.3251953125 8.23486328125 -7.9326171875 8.1181640625 -8.54931640625 7.91748046875 -8.07763671875 7.55810546875 -8.6279296875 7.55810546875 -8.1279296875 6.99853515625 -8.54931640625 7.19970703125 -8.07763671875 6.51611328125 -8.3251953125 6.88232421875 -7.9326171875 6.15771484375 -7.98779296875 6.63720703125 -7.70947265625 5.94189453125 -7.576171875 6.48486328125 -7.4326171875 6.99560546875 -7.1279296875 7.0224609375 -6.97412109375 7.1015625 -6.8349609375 7.2255859375 -6.72412109375 7.3828125 -6.65283203125 7.55810546875 -6.6279296875 7.734375 -6.65283203125 7.8916015625 -6.72412109375 8.015625 -6.8349609375 8.0947265625 -6.97412109375 8.12158203125 -7.1279296875 8.0947265625 -7.2822265625 8.015625 -7.42138671875 7.8916015625 -7.5322265625 7.734375 -7.603515625 7.55810546875 -7.6279296875 7.3828125 -7.603515625 7.2255859375 -7.5322265625 7.1015625 -7.42138671875 7.0224609375 -7.2822265625 -3.69140625 -7.1279296875 7.55810546875 -7.1279296875</float_array>
                    <technique_common>
                        <accessor count="438" source="#uvarray0" stride="2">
                            <param name="S" type="float"/>
                            <param name="T" type="float"/>
                        </accessor>
                    </technique_common>
                </source>
                <source id="colors0">
                    <float_array id="colorarray0" count="36">1 1 1 1 0.6862745098039216 0.6862745098039216 0.6862745098039216 1 0.5450980392156862 0.3411764705882353 0.4823529411764706 1 0.21176470588235294 0.21176470588235294 0.21176470588235294 1 0.19215686274509805 0.36470588235294116 0.08627450980392157 1 0.2 0.2 0.3215686274509804 1 0.6274509803921569 0.6274509803921569 1 1 0 0 0 1 0.34509803921568627 0.34509803921568627 0.5490196078431373 1</float_array>
                    <technique_common>
                        <accessor count="9" source="#colorarray0" stride="4">
                            <param name="R" type="float"/>
                            <param name="G" type="float"/>
                            <param name="B" type="float"/>
                            <param name="A" type="float"/>
                        </accessor>
                    </technique_common>
                </source>
                <vertices id="vertices0">
                    <input semantic="POSITION" source="#points0"/>
                </vertices>
                <polylist count="760" material="Material1">
                    <input offset="0" semantic="VERTEX" source="#vertices0"/>
                    <input offset="1" semantic="TEXCOORD" source="#uvs0" set="0"/>
                    <input offset="2" semantic="COLOR" source="#colors0" set="0"/>
                    <vcount>3 3 3 3 3 3 3 3 3 3 3 3 3 3 3 3 3 3 3 3 3 3 3 3 3 3 3 3 3 3 3 3 3 3 3 3 3 3 3 3 3 3 3 3 3 3 3 3 3 3 3 3 3 3 3 3 3 3 3 3 3 3 3 3 3 3 3 3 3 3 3 3 3 3 3 3 3 3 3 3 3 3 3 3 3 3 3 3 3 3 3 3 3 3 3 3 3 3 3 3 3 3 3 3 3 3 3 3 3 3 3 3 3 3 3 3 3 3 3 3 3 3 3 3 3 3 3 3 3 3 3 3 3 3 3 3 3 3 3 3 3 3 3 3 3 3 3 3 3 3 3 3 3 3 3 3 3 3 3 3 3 3 3 3 3 3 3 3 3 3 3 3 3 3 3 3 3 3 3 3 3 3 3 3 3 3 3 3 3 3 3 3 3 3 3 3 3 3 3 3 3 3 3 3 3 3 3 3 3 3 3 3 3 3 3 3 3 3 3 3 3 3 3 3 3 3 3 3 3 3 3 3 3 3 3 3 3 3 3 3 3 3 3 3 3 3 3 3 3 3 3 3 3 3 3 3 3 3 3 3 3 3 3 3 3 3 3 3 3 3 3 3 3 3 3 3 3 3 3 3 3 3 3 3 3 3 3 3 3 3 3 3 3 3 3 3 3 3 3 3 3 3 3 3 3 3 3 3 3 3 3 3 3 3 3 3 3 3 3 3 3 3 3 3 3 3 3 3 3 3 3 3 3 3 3 3 3 3 3 3 3 3 3 3 3 3 3 3 3 3 3 3 3 3 3 3 3 3 3 3 3 3 3 3 3 3 3 3 3 3 3 3 3 3 3 3 3 3 3 3 3 3 3 3 3 3 3 3 3 3 3 3 3 3 3 3 3 3 3 3 3 3 3 3 3 3 3 3 3 3 3 3 3 3 3 3 3 3 3 3 3 3 3 3 3 3 3 3 3 3 3 3 3 3 3 3 3 3 3 3 3 3 3 3 3 3 3 3 3 3 3 3 3 3 3 3 3 3 3 3 3 3 3 3 3 3 3 3 3 3 3 3 3 3 3 3 3 3 3 3 3 3 3 3 3 3 3 3 3 3 3 3 3 3 3 3 3 3 3 3 3 3 3 3 3 3 3 3 3 3 3 3 3 3 3 3 3 3 3 3 3 3 3 3 3 3 3 3 3 3 3 3 3 3 3 3 3 3 3 3 3 3 3 3 3 3 3 3 3 3 3 3 3 3 3 3 3 3 3 3 3 3 3 3 3 3 3 3 3 3 3 3 3 3 3 3 3 3 3 3 3 3 3 3 3 3 3 3 3 3 3 3 3 3 3 3 3 3 3 3 3 3 3 3 3 3 3 3 3 3 3 3 3 3 3 3 3 3 3 3 3 3 3 3 3 3 3 3 3 3 3 3 3 3 3 3 3 3 3 3 3 3 3 3 3 3 3 3 3 3 3 3 3 3 3 3 3 3 3 3 3 3 3 3 3 3 3 3 3 3 3 3 3 3 3 3 3 3 3 3 3 3 3 3 3 3 3 3 3 3 3 3 3 3 3 3 3 3 3 3 3 3 3 3 3 3 3 3 3 3 3 3 3 3 3 3 3 3 3 3 3 3 3 3 3 3 3 3 3 3 3 3 3 3 3 3 3 3 3 3 3 3 3 3 3 3 3 3 3 3 3 3 3 3 3 3 3 3 3 3</vcount>
                    <p>2 2 0 1 1 0 0 0 0 3 3 0 1 1 0 2 2 0 4 4 0 3 3 0 2 2 0 5 5 0 3 3 0 4 4 0 6 6 0 5 5 0 4 4 0 7 7 0 5 5 0 6 6 0 8 8 0 7 7 0 6 6 0 9 9 0 7 7 0 8 8 0 10 10 0 9 9 0 8 8 0 11 11 0 9 9 0 10 10 0 12 12 0 11 11 0 10 10 0 13 13 0 11 11 0 12 12 0 14 14 0 13 13 0 12 12 0 15 15 1 13 13 0 14 14 0 16 16 0 15 15 1 14 14 0 17 17 1 15 15 1 16 16 0 18 18 0 17 17 1 16 16 0 19 19 2 17 17 1 18 18 0 20 20 0 19 19 2 18 18 0 21 21 2 19 19 2 20 20 0 22 22 0 21 21 2 20 20 0 23 23 1 21 21 2 22 22 0 24 24 0 23 23 1 22 22 0 25 25 1 23 23 1 24 24 0 26 26 0 25 25 1 24 24 0 27 27 0 25 25 1 26 26 0 28 28 0 27 27 0 26 26 0 29 29 0 27 27 0 28 28 0 30 30 0 29 29 0 28 28 0 31 31 0 29 29 0 30 30 0 32 32 0 31 31 0 30 30 0 33 33 0 31 31 0 32 32 0 34 34 0 33 33 0 32 32 0 35 35 0 33 33 0 34 34 0 36 36 0 35 35 0 34 34 0 37 37 0 35 35 0 36 36 0 38 38 0 37 37 0 36 36 0 39 39 3 37 37 0 38 38 0 0 40 0 39 39 3 38 38 0 1 41 0 39 39 3 0 40 0 3 3 0 40 42 0 1 1 0 41 43 0 40 42 0 3 3 0 5 5 0 41 43 0 3 3 0 42 44 0 41 43 0 5 5 0 7 7 0 42 44 0 5 5 0 43 45 0 42 44 0 7 7 0 9 9 0 43 45 0 7 7 0 44 46 0 43 45 0 9 9 0 11 11 0 44 46 0 9 9 0 45 47 0 44 46 0 11 11 0 13 13 0 45 47 0 11 11 0 46 48 0 45 47 0 13 13 0 15 15 1 46 48 0 13 13 0 47 49 4 46 48 0 15 15 1 17 17 1 47 49 4 15 15 1 48 50 0 47 49 4 17 17 1 19 19 2 48 50 0 17 17 1 49 51 0 48 50 0 19 19 2 21 21 2 49 51 0 19 19 2 50 52 0 49 51 0 21 21 2 23 23 1 50 52 0 21 21 2 51 53 0 50 52 0 23 23 1 25 25 1 51 53 0 23 23 1 52 54 1 51 53 0 25 25 1 27 27 0 52 54 1 25 25 1 53 55 5 52 54 1 27 27 0 29 29 0 53 55 5 27 27 0 54 56 0 53 55 5 29 29 0 31 31 0 54 56 0 29 29 0 55 57 1 54 56 0 31 31 0 33 33 0 55 57 1 31 31 0 56 58 0 55 57 1 33 33 0 35 35 0 56 58 0 33 33 0 57 59 0 56 58 0 35 35 0 37 37 0 57 59 0 35 35 0 58 60 2 57 59 0 37 37 0 39 39 3 58 60 2 37 37 0 59 61 0 58 60 2 39 39 3 1 41 0 59 61 0 39 39 3 40 62 0 59 61 0 1 41 0 41 43 0 60 63 0 40 42 0 61 64 0 60 63 0 41 43 0 42 44 0 61 64 0 41 43 0 62 65 0 61 64 0 42 44 0 43 45 0 62 65 0 42 44 0 63 66 0 62 65 0 43 45 0 44 46 0 63 66 0 43 45 0 64 67 1 63 66 0 44 46 0 45 47 0 64 67 1 44 46 0 65 68 0 64 67 1 45 47 0 46 48 0 65 68 0 45 47 0 66 69 0 65 68 0 46 48 0 47 49 4 66 69 0 46 48 0 67 70 0 66 69 0 47 49 4 48 50 0 67 70 0 47 49 4 68 71 0 67 70 0 48 50 0 49 51 0 68 71 0 48 50 0 69 72 0 68 71 0 49 51 0 50 52 0 69 72 0 49 51 0 70 73 0 69 72 0 50 52 0 51 53 0 70 73 0 50 52 0 71 74 0 70 73 0 51 53 0 52 54 1 71 74 0 51 53 0 72 75 4 71 74 0 52 54 1 53 55 5 72 75 4 52 54 1 73 76 0 72 75 4 53 55 5 54 56 0 73 76 0 53 55 5 74 77 0 73 76 0 54 56 0 55 57 1 74 77 0 54 56 0 75 78 0 74 77 0 55 57 1 56 58 0 75 78 0 55 57 1 76 79 0 75 78 0 56 58 0 57 59 0 76 79 0 56 58 0 77 80 0 76 79 0 57 59 0 58 60 2 77 80 0 57 59 0 78 81 0 77 80 0 58 60 2 59 61 0 78 81 0 58 60 2 79 82 0 78 81 0 59 61 0 40 62 0 79 82 0 59 61 0 60 83 0 79 82 0 40 62 0 61 64 0 80 84 0 60 63 0 81 85 0 80 84 0 61 64 0 62 65 0 81 85 0 61 64 0 82 86 0 81 85 0 62 65 0 63 66 0 82 86 0 62 65 0 83 87 0 82 86 0 63 66 0 64 67 1 83 87 0 63 66 0 84 88 0 83 87 0 64 67 1 65 68 0 84 88 0 64 67 1 85 89 0 84 88 0 65 68 0 66 69 0 85 89 0 65 68 0 86 90 0 85 89 0 66 69 0 67 70 0 86 90 0 66 69 0 87 91 0 86 90 0 67 70 0 68 71 0 87 91 0 67 70 0 88 92 0 87 91 0 68 71 0 69 72 0 88 92 0 68 71 0 89 93 0 88 92 0 69 72 0 70 73 0 89 93 0 69 72 0 90 94 0 89 93 0 70 73 0 71 74 0 90 94 0 70 73 0 91 95 0 90 94 0 71 74 0 72 75 4 91 95 0 71 74 0 92 96 0 91 95 0 72 75 4 73 76 0 92 96 0 72 75 4 93 97 0 92 96 0 73 76 0 74 77 0 93 97 0 73 76 0 94 98 6 93 97 0 74 77 0 75 78 0 94 98 6 74 77 0 95 99 0 94 98 6 75 78 0 76 79 0 95 99 0 75 78 0 96 100 2 95 99 0 76 79 0 77 80 0 96 100 2 76 79 0 97 101 0 96 100 2 77 80 0 78 81 0 97 101 0 77 80 0 98 102 0 97 101 0 78 81 0 79 82 0 98 102 0 78 81 0 99 103 0 98 102 0 79 82 0 60 83 0 99 103 0 79 82 0 80 104 0 99 103 0 60 83 0 81 85 0 100 105 0 80 84 0 101 106 0 100 105 0 81 85 0 82 86 0 101 106 0 81 85 0 102 107 0 101 106 0 82 86 0 83 87 0 102 107 0 82 86 0 103 108 0 102 107 0 83 87 0 84 88 0 103 108 0 83 87 0 104 109 0 103 108 0 84 88 0 85 89 0 104 109 0 84 88 0 105 110 0 104 109 0 85 89 0 86 90 0 105 110 0 85 89 0 106 111 0 105 110 0 86 90 0 87 91 0 106 111 0 86 90 0 107 112 0 106 111 0 87 91 0 88 92 0 107 112 0 87 91 0 108 113 0 107 112 0 88 92 0 89 93 0 108 113 0 88 92 0 109 114 7 108 113 0 89 93 0 90 94 0 109 114 7 89 93 0 110 115 0 109 114 7 90 94 0 91 95 0 110 115 0 90 94 0 111 116 0 110 115 0 91 95 0 92 96 0 111 116 0 91 95 0 112 117 0 111 116 0 92 96 0 93 97 0 112 117 0 92 96 0 113 118 0 112 117 0 93 97 0 94 98 6 113 118 0 93 97 0 114 119 0 113 118 0 94 98 6 95 99 0 114 119 0 94 98 6 115 120 0 114 119 0 95 99 0 96 100 2 115 120 0 95 99 0 116 121 0 115 120 0 96 100 2 97 101 0 116 121 0 96 100 2 117 122 0 116 121 0 97 101 0 98 102 0 117 122 0 97 101 0 118 123 0 117 122 0 98 102 0 99 103 0 118 123 0 98 102 0 119 124 0 118 123 0 99 103 0 80 104 0 119 124 0 99 103 0 100 125 0 119 124 0 80 104 0 101 106 0 120 126 0 100 105 0 121 127 0 120 126 0 101 106 0 102 107 0 121 127 0 101 106 0 122 128 0 121 127 0 102 107 0 103 108 0 122 128 0 102 107 0 123 129 0 122 128 0 103 108 0 104 109 0 123 129 0 103 108 0 124 130 0 123 129 0 104 109 0 105 110 0 124 130 0 104 109 0 125 131 0 124 130 0 105 110 0 106 111 0 125 131 0 105 110 0 126 132 0 125 131 0 106 111 0 107 112 0 126 132 0 106 111 0 127 133 0 126 132 0 107 112 0 108 113 0 127 133 0 107 112 0 128 134 0 127 133 0 108 113 0 109 114 7 128 134 0 108 113 0 129 135 0 128 134 0 109 114 7 110 115 0 129 135 0 109 114 7 130 136 0 129 135 0 110 115 0 111 116 0 130 136 0 110 115 0 131 137 0 130 136 0 111 116 0 112 117 0 131 137 0 111 116 0 132 138 0 131 137 0 112 117 0 113 118 0 132 138 0 112 117 0 133 139 0 132 138 0 113 118 0 114 119 0 133 139 0 113 118 0 134 140 0 133 139 0 114 119 0 115 120 0 134 140 0 114 119 0 135 141 0 134 140 0 115 120 0 116 121 0 135 141 0 115 120 0 136 142 0 135 141 0 116 121 0 117 122 0 136 142 0 116 121 0 137 143 0 136 142 0 117 122 0 118 123 0 137 143 0 117 122 0 138 144 0 137 143 0 118 123 0 119 124 0 138 144 0 118 123 0 139 145 0 138 144 0 119 124 0 100 125 0 139 145 0 119 124 0 120 146 0 139 145 0 100 125 0 121 127 0 140 147 0 120 126 0 141 148 0 140 147 0 121 127 0 122 128 0 141 148 0 121 127 0 142 149 3 141 148 0 122 128 0 123 129 0 142 149 3 122 128 0 143 150 0 142 149 3 123 129 0 124 130 0 143 150 0 123 129 0 144 151 0 143 150 0 124 130 0 125 131 0 144 151 0 124 130 0 145 152 0 144 151 0 125 131 0 126 132 0 145 152 0 125 131 0 146 153 0 145 152 0 126 132 0 127 133 0 146 153 0 126 132 0 147 154 0 146 153 0 127 133 0 128 134 0 147 154 0 127 133 0 148 155 0 147 154 0 128 134 0 129 135 0 148 155 0 128 134 0 149 156 0 148 155 0 129 135 0 130 136 0 149 156 0 129 135 0 150 157 0 149 156 0 130 136 0 131 137 0 150 157 0 130 136 0 151 158 0 150 157 0 131 137 0 132 138 0 151 158 0 131 137 0 152 159 0 151 158 0 132 138 0 133 139 0 152 159 0 132 138 0 153 160 0 152 159 0 133 139 0 134 140 0 153 160 0 133 139 0 154 161 0 153 160 0 134 140 0 135 141 0 154 161 0 134 140 0 155 162 0 154 161 0 135 141 0 136 142 0 155 162 0 135 141 0 156 163 0 155 162 0 136 142 0 137 143 0 156 163 0 136 142 0 157 164 0 156 163 0 137 143 0 138 144 0 157 164 0 137 143 0 158 165 0 157 164 0 138 144 0 139 145 0 158 165 0 138 144 0 159 166 0 158 165 0 139 145 0 120 146 0 159 166 0 139 145 0 140 167 0 159 166 0 120 146 0 141 148 0 160 168 0 140 147 0 161 169 0 160 168 0 141 148 0 142 149 3 161 169 0 141 148 0 162 170 0 161 169 0 142 149 3 143 150 0 162 170 0 142 149 3 163 171 0 162 170 0 143 150 0 144 151 0 163 171 0 143 150 0 164 172 1 163 171 0 144 151 0 145 152 0 164 172 1 144 151 0 165 173 0 164 172 1 145 152 0 146 153 0 165 173 0 145 152 0 166 174 0 165 173 0 146 153 0 147 154 0 166 174 0 146 153 0 167 175 0 166 174 0 147 154 0 148 155 0 167 175 0 147 154 0 168 176 0 167 175 0 148 155 0 149 156 0 168 176 0 148 155 0 169 177 0 168 176 0 149 156 0 150 157 0 169 177 0 149 156 0 170 178 0 169 177 0 150 157 0 151 158 0 170 178 0 150 157 0 171 179 0 170 178 0 151 158 0 152 159 0 171 179 0 151 158 0 172 180 0 171 179 0 152 159 0 153 160 0 172 180 0 152 159 0 173 181 0 172 180 0 153 160 0 154 161 0 173 181 0 153 160 0 174 182 0 173 181 0 154 161 0 155 162 0 174 182 0 154 161 0 175 183 0 174 182 0 155 162 0 156 163 0 175 183 0 155 162 0 176 184 0 175 183 0 156 163 0 157 164 0 176 184 0 156 163 0 177 185 0 176 184 0 157 164 0 158 165 0 177 185 0 157 164 0 178 186 0 177 185 0 158 165 0 159 166 0 178 186 0 158 165 0 179 187 0 178 186 0 159 166 0 140 167 0 179 187 0 159 166 0 160 188 0 179 187 0 140 167 0 160 168 0 180 190 0 179 189 0 181 191 0 180 190 0 160 168 0 161 169 0 181 191 0 160 168 0 182 192 0 181 191 0 161 169 0 162 170 0 182 192 0 161 169 0 183 193 0 182 192 0 162 170 0 163 171 0 183 193 0 162 170 0 184 194 0 183 193 0 163 171 0 164 172 1 184 194 0 163 171 0 185 195 1 184 194 0 164 172 1 165 173 0 185 195 1 164 172 1 186 196 1 185 195 1 165 173 0 166 174 0 186 196 1 165 173 0 187 197 0 186 196 1 166 174 0 167 175 0 187 197 0 166 174 0 188 198 0 187 197 0 167 175 0 168 176 0 188 198 0 167 175 0 189 199 0 188 198 0 168 176 0 169 177 0 189 199 0 168 176 0 190 200 0 189 199 0 169 177 0 170 178 0 190 200 0 169 177 0 191 201 0 190 200 0 170 178 0 171 179 0 191 201 0 170 178 0 192 202 0 191 201 0 171 179 0 172 180 0 192 202 0 171 179 0 193 203 0 192 202 0 172 180 0 173 181 0 193 203 0 172 180 0 194 204 0 193 203 0 173 181 0 174 182 0 194 204 0 173 181 0 195 205 0 194 204 0 174 182 0 175 183 0 195 205 0 174 182 0 196 206 0 195 205 0 175 183 0 176 184 0 196 206 0 175 183 0 197 207 0 196 206 0 176 184 0 177 185 0 197 207 0 176 184 0 198 208 0 197 207 0 177 185 0 178 186 0 198 208 0 177 185 0 199 209 0 198 208 0 178 186 0 179 187 0 199 209 0 178 186 0 180 210 0 199 209 0 179 187 0 181 191 0 200 211 0 180 190 0 201 212 0 200 211 0 181 191 0 182 192 0 201 212 0 181 191 0 202 213 0 201 212 0 182 192 0 183 193 0 202 213 0 182 192 0 203 214 3 202 213 0 183 193 0 184 194 0 203 214 3 183 193 0 204 215 6 203 214 3 184 194 0 185 195 1 204 215 6 184 194 0 205 216 1 204 215 6 185 195 1 186 196 1 205 216 1 185 195 1 206 217 1 205 216 1 186 196 1 187 197 0 206 217 1 186 196 1 207 218 0 206 217 1 187 197 0 188 198 0 207 218 0 187 197 0 208 219 0 207 218 0 188 198 0 189 199 0 208 219 0 188 198 0 209 220 4 208 219 0 189 199 0 190 200 0 209 220 4 189 199 0 210 221 0 209 220 4 190 200 0 191 201 0 210 221 0 190 200 0 211 222 0 210 221 0 191 201 0 192 202 0 211 222 0 191 201 0 212 223 0 211 222 0 192 202 0 193 203 0 212 223 0 192 202 0 213 224 0 212 223 0 193 203 0 194 204 0 213 224 0 193 203 0 214 225 0 213 224 0 194 204 0 195 205 0 214 225 0 194 204 0 215 226 0 214 225 0 195 205 0 196 206 0 215 226 0 195 205 0 216 227 0 215 226 0 196 206 0 197 207 0 216 227 0 196 206 0 217 228 0 216 227 0 197 207 0 198 208 0 217 228 0 197 207 0 218 229 0 217 228 0 198 208 0 199 209 0 218 229 0 198 208 0 219 230 0 218 229 0 199 209 0 180 210 0 219 230 0 199 209 0 200 231 0 219 230 0 180 210 0 201 212 0 220 232 0 200 211 0 221 233 5 220 232 0 201 212 0 202 213 0 221 233 5 201 212 0 222 234 0 221 233 5 202 213 0 203 214 3 222 234 0 202 213 0 223 235 3 222 234 0 203 214 3 204 215 6 223 235 3 203 214 3 224 236 0 223 235 3 204 215 6 205 216 1 224 236 0 204 215 6 225 237 6 224 236 0 205 216 1 206 217 1 225 237 6 205 216 1 226 238 4 225 237 6 206 217 1 207 218 0 226 238 4 206 217 1 227 239 0 226 238 4 207 218 0 208 219 0 227 239 0 207 218 0 228 240 0 227 239 0 208 219 0 209 220 4 228 240 0 208 219 0 229 241 0 228 240 0 209 220 4 210 221 0 229 241 0 209 220 4 230 242 0 229 241 0 210 221 0 211 222 0 230 242 0 210 221 0 231 243 4 230 242 0 211 222 0 212 223 0 231 243 4 211 222 0 232 244 0 231 243 4 212 223 0 213 224 0 232 244 0 212 223 0 233 245 5 232 244 0 213 224 0 214 225 0 233 245 5 213 224 0 234 246 0 233 245 5 214 225 0 215 226 0 234 246 0 214 225 0 235 247 0 234 246 0 215 226 0 216 227 0 235 247 0 215 226 0 236 248 0 235 247 0 216 227 0 217 228 0 236 248 0 216 227 0 237 249 0 236 248 0 217 228 0 218 229 0 237 249 0 217 228 0 238 250 0 237 249 0 218 229 0 219 230 0 238 250 0 218 229 0 239 251 0 238 250 0 219 230 0 200 231 0 239 251 0 219 230 0 220 252 0 239 251 0 200 231 0 221 233 5 240 253 0 220 232 0 241 254 6 240 253 0 221 233 5 222 234 0 241 254 6 221 233 5 242 255 6 241 254 6 222 234 0 223 235 3 242 255 6 222 234 0 243 256 0 242 255 6 223 235 3 224 236 0 243 256 0 223 235 3 244 257 0 243 256 0 224 236 0 225 237 6 244 257 0 224 236 0 245 258 6 244 257 0 225 237 6 226 238 4 245 258 6 225 237 6 246 259 6 245 258 6 226 238 4 227 239 0 246 259 6 226 238 4 247 260 0 246 259 6 227 239 0 228 240 0 247 260 0 227 239 0 248 261 0 247 260 0 228 240 0 229 241 0 248 261 0 228 240 0 249 262 4 248 261 0 229 241 0 230 242 0 249 262 4 229 241 0 250 263 0 249 262 4 230 242 0 231 243 4 250 263 0 230 242 0 251 264 0 250 263 0 231 243 4 232 244 0 251 264 0 231 243 4 252 265 0 251 264 0 232 244 0 233 245 5 252 265 0 232 244 0 253 266 0 252 265 0 233 245 5 234 246 0 253 266 0 233 245 5 254 267 0 253 266 0 234 246 0 235 247 0 254 267 0 234 246 0 255 268 0 254 267 0 235 247 0 236 248 0 255 268 0 235 247 0 256 269 6 255 268 0 236 248 0 237 249 0 256 269 6 236 248 0 257 270 5 256 269 6 237 249 0 238 250 0 257 270 5 237 249 0 258 271 0 257 270 5 238 250 0 239 251 0 258 271 0 238 250 0 259 272 0 258 271 0 239 251 0 220 252 0 259 272 0 239 251 0 240 273 0 259 272 0 220 252 0 241 254 6 260 274 5 240 253 0 261 275 6 260 274 5 241 254 6 242 255 6 261 275 6 241 254 6 262 276 0 261 275 6 242 255 6 243 256 0 262 276 0 242 255 6 263 277 1 262 276 0 243 256 0 244 257 0 263 277 1 243 256 0 264 278 0 263 277 1 244 257 0 245 258 6 264 278 0 244 257 0 265 279 0 264 278 0 245 258 6 246 259 6 265 279 0 245 258 6 266 280 0 265 279 0 246 259 6 247 260 0 266 280 0 246 259 6 267 281 0 266 280 0 247 260 0 248 261 0 267 281 0 247 260 0 268 282 0 267 281 0 248 261 0 249 262 4 268 282 0 248 261 0 269 283 0 268 282 0 249 262 4 250 263 0 269 283 0 249 262 4 270 284 1 269 283 0 250 263 0 251 264 0 270 284 1 250 263 0 271 285 0 270 284 1 251 264 0 252 265 0 271 285 0 251 264 0 272 286 0 271 285 0 252 265 0 253 266 0 272 286 0 252 265 0 273 287 0 272 286 0 253 266 0 254 267 0 273 287 0 253 266 0 274 288 0 273 287 0 254 267 0 255 268 0 274 288 0 254 267 0 275 289 0 274 288 0 255 268 0 256 269 6 275 289 0 255 268 0 276 290 0 275 289 0 256 269 6 257 270 5 276 290 0 256 269 6 277 291 6 276 290 0 257 270 5 258 271 0 277 291 6 257 270 5 278 292 0 277 291 6 258 271 0 259 272 0 278 292 0 258 271 0 279 293 6 278 292 0 259 272 0 240 273 0 279 293 6 259 272 0 260 294 5 279 293 6 240 273 0 261 275 6 280 295 0 260 274 5 281 296 0 280 295 0 261 275 6 262 276 0 281 296 0 261 275 6 282 297 1 281 296 0 262 276 0 263 277 1 282 297 1 262 276 0 283 298 0 282 297 1 263 277 1 264 278 0 283 298 0 263 277 1 284 299 0 283 298 0 264 278 0 265 279 0 284 299 0 264 278 0 285 300 0 284 299 0 265 279 0 266 280 0 285 300 0 265 279 0 286 301 3 285 300 0 266 280 0 267 281 0 286 301 3 266 280 0 287 302 0 286 301 3 267 281 0 268 282 0 287 302 0 267 281 0 288 303 0 287 302 0 268 282 0 269 283 0 288 303 0 268 282 0 289 304 0 288 303 0 269 283 0 270 284 1 289 304 0 269 283 0 290 305 0 289 304 0 270 284 1 271 285 0 290 305 0 270 284 1 291 306 0 290 305 0 271 285 0 272 286 0 291 306 0 271 285 0 292 307 0 291 306 0 272 286 0 273 287 0 292 307 0 272 286 0 293 308 0 292 307 0 273 287 0 274 288 0 293 308 0 273 287 0 294 309 0 293 308 0 274 288 0 275 289 0 294 309 0 274 288 0 295 310 2 294 309 0 275 289 0 276 290 0 295 310 2 275 289 0 296 311 0 295 310 2 276 290 0 277 291 6 296 311 0 276 290 0 297 312 0 296 311 0 277 291 6 278 292 0 297 312 0 277 291 6 298 313 5 297 312 0 278 292 0 279 293 6 298 313 5 278 292 0 299 314 5 298 313 5 279 293 6 260 294 5 299 314 5 279 293 6 280 315 0 299 314 5 260 294 5 28 318 0 300 317 0 30 316 0 301 319 0 300 317 0 28 318 0 26 320 0 301 319 0 28 318 0 302 321 0 301 319 0 26 320 0 24 322 0 302 321 0 26 320 0 303 323 0 302 321 0 24 322 0 22 324 0 303 323 0 24 322 0 304 325 0 303 323 0 22 324 0 20 326 0 304 325 0 22 324 0 305 327 0 304 325 0 20 326 0 18 328 0 305 327 0 20 326 0 306 329 0 305 327 0 18 328 0 16 330 0 306 329 0 18 328 0 307 331 0 306 329 0 16 330 0 14 332 0 307 331 0 16 330 0 308 333 0 307 331 0 14 332 0 12 334 0 308 333 0 14 332 0 309 335 0 308 333 0 12 334 0 10 336 0 309 335 0 12 334 0 310 337 0 309 335 0 10 336 0 8 338 0 310 337 0 10 336 0 311 339 2 310 337 0 8 338 0 6 340 0 311 339 2 8 338 0 312 341 0 311 339 2 6 340 0 4 342 0 312 341 0 6 340 0 313 343 0 312 341 0 4 342 0 2 344 0 313 343 0 4 342 0 314 345 0 313 343 0 2 344 0 0 346 0 314 345 0 2 344 0 315 347 0 314 345 0 0 346 0 38 348 0 315 347 0 0 346 0 316 349 0 315 347 0 38 348 0 36 350 0 316 349 0 38 348 0 317 351 0 316 349 0 36 350 0 34 352 0 317 351 0 36 350 0 318 353 0 317 351 0 34 352 0 32 354 0 318 353 0 34 352 0 319 355 0 318 353 0 32 354 0 30 316 0 319 355 0 32 354 0 300 317 0 319 355 0 30 316 0 301 319 0 320 356 1 300 317 0 321 357 1 320 356 1 301 319 0 302 321 0 321 357 1 301 319 0 322 358 1 321 357 1 302 321 0 303 323 0 322 358 1 302 321 0 323 359 0 322 358 1 303 323 0 304 325 0 323 359 0 303 323 0 324 360 0 323 359 0 304 325 0 305 327 0 324 360 0 304 325 0 325 361 0 324 360 0 305 327 0 306 329 0 325 361 0 305 327 0 326 362 0 325 361 0 306 329 0 307 331 0 326 362 0 306 329 0 327 363 0 326 362 0 307 331 0 308 333 0 327 363 0 307 331 0 328 364 0 327 363 0 308 333 0 309 335 0 328 364 0 308 333 0 329 365 1 328 364 0 309 335 0 310 337 0 329 365 1 309 335 0 330 366 1 329 365 1 310 337 0 311 339 2 330 366 1 310 337 0 331 367 1 330 366 1 311 339 2 312 341 0 331 367 1 311 339 2 332 368 1 331 367 1 312 341 0 313 343 0 332 368 1 312 341 0 333 369 1 332 368 1 313 343 0 314 345 0 333 369 1 313 343 0 334 370 1 333 369 1 314 345 0 315 347 0 334 370 1 314 345 0 335 371 1 334 370 1 315 347 0 316 349 0 335 371 1 315 347 0 336 372 1 335 371 1 316 349 0 317 351 0 336 372 1 316 349 0 337 373 1 336 372 1 317 351 0 318 353 0 337 373 1 317 351 0 338 374 1 337 373 1 318 353 0 319 355 0 338 374 1 318 353 0 339 375 1 338 374 1 319 355 0 300 317 0 339 375 1 319 355 0 320 356 1 339 375 1 300 317 0 296 378 0 340 377 0 295 376 2 341 379 0 340 377 0 296 378 0 297 380 0 341 379 0 296 378 0 342 381 0 341 379 0 297 380 0 298 382 5 342 381 0 297 380 0 343 383 8 342 381 0 298 382 5 299 384 5 343 383 8 298 382 5 344 385 0 343 383 8 299 384 5 280 386 0 344 385 0 299 384 5 345 387 0 344 385 0 280 386 0 281 388 0 345 387 0 280 386 0 346 389 1 345 387 0 281 388 0 282 390 1 346 389 1 281 388 0 347 391 0 346 389 1 282 390 1 283 392 0 347 391 0 282 390 1 348 393 0 347 391 0 283 392 0 284 394 0 348 393 0 283 392 0 349 395 0 348 393 0 284 394 0 285 396 0 349 395 0 284 394 0 350 397 0 349 395 0 285 396 0 286 398 3 350 397 0 285 396 0 351 399 0 350 397 0 286 398 3 287 400 0 351 399 0 286 398 3 352 401 0 351 399 0 287 400 0 288 402 0 352 401 0 287 400 0 353 403 0 352 401 0 288 402 0 289 404 0 353 403 0 288 402 0 354 405 0 353 403 0 289 404 0 290 406 0 354 405 0 289 404 0 355 407 0 354 405 0 290 406 0 291 408 0 355 407 0 290 406 0 356 409 0 355 407 0 291 408 0 292 410 0 356 409 0 291 408 0 357 411 0 356 409 0 292 410 0 293 412 0 357 411 0 292 410 0 358 413 0 357 411 0 293 412 0 294 414 0 358 413 0 293 412 0 359 415 0 358 413 0 294 414 0 295 376 2 359 415 0 294 414 0 340 377 0 359 415 0 295 376 2 341 379 0 360 416 1 340 377 0 361 417 1 360 416 1 341 379 0 342 381 0 361 417 1 341 379 0 362 418 0 361 417 1 342 381 0 343 383 8 362 418 0 342 381 0 363 419 0 362 418 0 343 383 8 344 385 0 363 419 0 343 383 8 364 420 0 363 419 0 344 385 0 345 387 0 364 420 0 344 385 0 365 421 0 364 420 0 345 387 0 346 389 1 365 421 0 345 387 0 366 422 0 365 421 0 346 389 1 347 391 0 366 422 0 346 389 1 367 423 0 366 422 0 347 391 0 348 393 0 367 423 0 347 391 0 368 424 0 367 423 0 348 393 0 349 395 0 368 424 0 348 393 0 369 425 0 368 424 0 349 395 0 350 397 0 369 425 0 349 395 0 370 426 0 369 425 0 350 397 0 351 399 0 370 426 0 350 397 0 371 427 0 370 426 0 351 399 0 352 401 0 371 427 0 351 399 0 372 428 0 371 427 0 352 401 0 353 403 0 372 428 0 352 401 0 373 429 0 372 428 0 353 403 0 354 405 0 373 429 0 353 403 0 374 430 1 373 429 0 354 405 0 355 407 0 374 430 1 354 405 0 375 431 1 374 430 1 355 407 0 356 409 0 375 431 1 355 407 0 376 432 1 375 431 1 356 409 0 357 411 0 376 432 1 356 409 0 377 433 1 376 432 1 357 411 0 358 413 0 377 433 1 357 411 0 378 434 1 377 433 1 358 413 0 359 415 0 378 434 1 358 413 0 379 435 1 378 434 1 359 415 0 340 377 0 379 435 1 359 415 0 360 416 1 379 435 1 340 377 0 380 436 5 320 356 1 321 357 1 339 375 1 320 356 1 380 436 5 338 374 1 339 375 1 380 436 5 381 437 1 360 416 1 361 417 1 379 435 1 360 416 1 381 437 1 378 434 1 379 435 1 381 437 1 381 437 1 377 433 1 378 434 1 376 432 1 377 433 1 381 437 1 375 431 1 376 432 1 381 437 1 381 437 1 374 430 1 375 431 1 373 429 0 374 430 1 381 437 1 372 428 0 373 429 0 381 437 1 381 437 1 371 427 0 372 428 0 370 426 0 371 427 0 381 437 1 369 425 0 370 426 0 381 437 1 381 437 1 368 424 0 369 425 0 367 423 0 368 424 0 381 437 1 366 422 0 367 423 0 381 437 1 381 437 1 365 421 0 366 422 0 364 420 0 365 421 0 381 437 1 363 419 0 364 420 0 381 437 1 322 358 1 380 436 5 321 357 1 323 359 0 380 436 5 322 358 1 324 360 0 380 436 5 323 359 0 325 361 0 380 436 5 324 360 0 326 362 0 380 436 5 325 361 0 327 363 0 380 436 5 326 362 0 328 364 0 380 436 5 327 363 0 329 365 1 380 436 5 328 364 0 330 366 1 380 436 5 329 365 1 331 367 1 380 436 5 330 366 1 332 368 1 380 436 5 331 367 1 333 369 1 380 436 5 332 368 1 334 370 1 380 436 5 333 369 1 335 371 1 380 436 5 334 370 1 336 372 1 380 436 5 335 371 1 337 373 1 380 436 5 336 372 1 381 437 1 362 418 0 363 419 0 361 417 1 362 418 0 381 437 1 338 374 1 380 436 5 337 373 1</p>
                </polylist>
            </mesh>
        </geometry>
    </library_geometries>
    <library_visual_scenes>
        <visual_scene id="VisualSceneNode">
            <node id="node0" name="m0" type="NODE">
                <instance_geometry url="#mesh0">
                    <bind_material>
                        <technique_common>
                            <instance_material symbol="Material1" target="#mat0">
                                <bind_vertex_input semantic="UVSET0" input_semantic="TEXCOORD" input_set="0"></bind_vertex_input>
                            </instance_material>
                        </technique_common>
                    </bind_material>
                </instance_geometry>
            </node>
        </visual_scene>
    </library_visual_scenes>
    <scene>
        <instance_visual_scene url="#VisualSceneNode"></instance_visual_scene>
    </scene>
</COLLADA>
