<?xml version="1.0"?>
<COLLADA xmlns="http://www.collada.org/2005/11/COLLADASchema" version="1.4.1">
    <asset>
        <contributor>
            <authoring_tool>J3D Ripoff Exporter</authoring_tool>
        </contributor>
        <created>2024-07-13T00:02:35.640Z</created>
        <modified>2024-07-13T00:02:35.640Z</modified>
		<unit meter="0.01" name="centimeter" ></unit>
        <up_axis>Y_UP</up_axis>
    </asset>
    <library_images>
        <image id="tex_vc">
            <init_from>vertexColors_bloom.png</init_from>
        </image>
    </library_images>
    <library_effects>
        <effect id="effect0">
            <profile_COMMON>
                <technique sid="COMMON">
                    <blinn>
                        <diffuse>
                            <color>1 1 1 1</color>
                        </diffuse>
                    </blinn>
                </technique>
            </profile_COMMON>
        </effect>
        <effect id="effect_vc">
            <profile_COMMON>
                <newparam sid="surface_vc">
                    <surface type="2D">
                        <init_from>tex_vc</init_from>
                    </surface>
                </newparam>
                <newparam sid="sampler_vc">
                    <sampler2D>
                        <source>surface_vc</source>
                    </sampler2D>
                </newparam>
                <technique sid="COMMON">
                    <blinn>
                        <diffuse>
                            <texture texture="sampler_vc" texcoord="UVSET0"></texture>
                        </diffuse>
                    </blinn>
                </technique>
            </profile_COMMON>
        </effect>
    </library_effects>
    <library_materials>
        <material id="mat0" name="CometMat_v">
            <instance_effect url="#effect0"></instance_effect>
        </material>
        <material id="mat_vc" name="vertexColors">
            <instance_effect url="#effect_vc"></instance_effect>
        </material>
    </library_materials>
    <library_geometries>
        <geometry id="mesh0">
            <mesh>
                <source id="points0">
                    <float_array id="pointarray0" count="726">-1312.16459570514 2275.8197037063296 -8 -1496.8800953891412 2225.757900138242 -75.5 -1507.272496109953 2219.758066202367 -8 -1713.1171776610029 2249.2956198780985 -8 -1694.0644430061816 2260.2953154272022 115 -1891.2358693010176 2361.8122039377354 159 -1818.0560475586358 2404.06103456952 306 -1991.193156172183 2567.950605991685 367.5 -1860.5560526978813 2645.6805692995663 495 -2013.3014311730922 2854.2515388865745 543.5 -1840.3447455735597 2954.6817878478532 618 -2703.866780393526 3999.388538749936 721.5 -2343.597282547656 4263.385013957248 740 -3033.34292639895 5014.09131257753 661.5 -3007.027077273809 5023.5107650469035 410.5 -3969.710329447119 6066.971332574502 440.5 -3112.977659389492 4945.022077012591 337.5 -3207.241360340953 4888.291532480271 274 -2681.7642564661064 3896.1026324701443 388 -2903.7956946332856 3911.676343184491 441.5 -2467.6738230304773 3154.2631711907216 477.5 -2148.750802997893 2770.85658896593 411.5 -2276.155881201424 2691.528497800491 220.5 -2078.4616205118136 2514.103924275885 190 -2110.7057644615165 2498.9525157291255 -11.5 -1916.783854406346 2347.06261217871 -8 -1891.2358693010176 2361.8122039377354 -175 -1694.0644430061816 2260.2953154272022 -131.5 -1639.937355918621 2291.544450509883 -240 -1467.001943316808 2243.0074227038817 -135 -1421.535190163257 2269.2566961733337 -179 -1205.4598585097153 2394.0032434233954 -135 -1250.9266116632662 2367.7539699539434 -179 -1244.5931118310789 2519.7881331537837 -320.5 -1346.3520355556927 2461.0397591983437 -363.5 -1420.546719987591 2633.554682616728 -489.5 -1567.3393801690552 2548.8070282724975 -489.5 -1698.040852505955 2737.1959215994843 -579.5 -1860.5560526978813 2645.6805692995663 -511.5 -2015.0334979598942 2853.2515665639285 -559 -2156.013917468213 2772.436832045659 -423.5 -2807.1747472889024 3940.3232022492125 -664.5 -3036.1740041877692 3862.9630682022316 -299 -3378.2072405885747 4814.413810593655 -443.5 -3199.469514224863 4911.830827455859 -293 -3781.348066382408 6175.718322662232 -573.5 -3080.251414056295 4963.338541365499 -370.5 -2983.8047448435036 5017.287962101577 -434 -2489.803920898547 4004.617514255041 -534 -2515.379717692951 4135.9201365378085 -723.5 -2111.917121958718 3359.074473717069 -744.5 -1843.6570554400907 2946.418701054888 -631.5 -1632.0100601271424 3062.835192047362 -666 -1519.437065071488 2836.8449914098132 -579 -1354.2255953257704 2935.690427644673 -509.5 -1282.4143937401363 2713.3024753477293 -431.5 -1169.8300525980105 2778.300676319706 -322 -1161.4539060645857 2567.7868046407816 -240 -1106.8938022803247 2599.285932804124 -131.5 -1176.0147231340823 2411.002772908374 -75.5 -2013.4102333878773 4360.481680054277 -258.5 -1893.3569059259412 4349.540996103215 119.5 -2413.9806146300753 5212.319909808894 -195 -2385.151519567182 5228.38643643585 -6 -3043.8006396607348 6043.23325431022 -145.5 -3022.582821522411 6055.482915262632 -5.5 -3720.9055203009966 7020.051164984025 -108.5 -3704.633909442418 7028.867892271797 -4 -4885.823010069745 8872.817338042805 -78.5 -4874.564575955532 8879.317158140002 -4 -6646.083934162392 11515.779970981928 -9 -4886.256026766446 8872.567344962143 69.5 -4918.732279018982 8853.817863912534 135 -3766.555297070587 6993.11888173721 192 -3836.7040019360657 6952.620002670056 260 -3199.686650472909 5953.2357452721 348 -3315.0521154112766 5886.054576038793 396.5 -2774.866546597618 5003.392663840547 530 -2940.9619345145647 4908.078330643913 530 -2391.250785991361 4142.920730414196 493 -2681.7642564661064 3896.1026324701443 388 -1421.535190163257 2269.2566961733337 162.5 -1365.6760362888945 2301.50580357866 186 -1454.6062097308138 2398.541489032982 347 -1346.3520355556927 2461.0397591983437 347 -1420.546719987591 2633.554682616728 473 -1282.4143937401363 2713.3024753477293 415 -1359.4217956861762 2932.690510676736 496 -1221.9545944382553 3008.590237824227 364.5 -1289.993839198382 3261.4457522439675 421.5 -1213.8677548215474 3310.5916501139936 195 -1372.8245901556138 3786.9286888802208 221 -1834.6774704797895 4528.9092593376035 249.5 -1893.3569059259412 4349.540996103215 119.5 -2561.613465560531 5261.031215746488 136 -2562.6134378831766 5262.763282533289 9 -3107.574086316454 6564.707556171444 110 -1467.001943316808 2243.0074227038817 118.5 -1556.798150152128 2339.543121996881 304.5 -1567.3393801690552 2548.8070282724975 473 -1521.9369958781024 2841.1751583768178 564 -1470.6466559649346 3162.3457532817556 549.5 -1480.8778559368675 3721.0823392926723 475 -2122.6979426482094 4628.7827173326095 481 -1707.755912834978 4172.062768245124 178.5 -2010.1515778548312 4380.83803444589 329 -3271.7787329271537 4855.073652661264 678.5 -1365.6760362888945 2301.50580357866 -202.5 -1556.798150152128 2339.543121996881 -320.5 -1818.0560475586358 2404.06103456952 -322 -2082.2606014085295 2517.6841120009053 -207 -2285.0840929939236 2690.9927420835115 -22 -2591.56568297361 3079.850087396061 250 -3486.416899723592 4769.838933477915 159.5 -2619.372113540914 3644.0282972013547 432.5 -2796.581438174224 3942.974956762899 157 -3260.7702918936025 4862.006489455162 -695 -1306.7857655376285 2335.504862548617 186 -1244.5931118310789 2519.7881331537837 304.5 -1169.8300525980105 2778.300676319706 306 -1134.6861300986247 3062.436919540027 187 -1185.8065237784665 3331.9883160305994 -8.5 -1712.0755213333773 4572.555703242011 -84 -2229.3245203530487 5457.490007590729 -10 -1496.8800953891412 2225.757900138242 59 -1639.937355918621 2291.544450509883 223.5 -1705.4717064165097 2469.059235541496 415 -1696.4427246483976 2740.427946870255 564 -1649.8173990253467 3064.67874333889 620.5 -1675.6862847652912 3611.500515720508 639 -2186.1252775822622 4177.63061085059 565 -1306.7857655376285 2335.504862548617 -202.5 -1454.6062097308138 2398.541489032982 -363.5 -1705.4717064165097 2469.059235541496 -431.5 -1994.7912286750316 2568.1827142945176 -381.5 -2252.75966444846 2716.005365280794 -235.5 -2628.506041122396 3060.832728487963 -33 -2868.1265748855253 3783.8915088088115 -127 -5239.16463457734 8668.822984223065 69.5 -5250.4230686915525 8662.323164125866 -4 -5239.16463457734 8668.822984223065 -78.5 -5206.688382324804 8687.572465272673 -144 -4171.42590848554 6759.375351318758 -200.5 -4101.094180004022 6800.557240163274 -268.5 -3553.461291677205 5748.991398371697 -360 -3437.8458336581753 5815.7395509083035 -408.5 -2940.711941433903 4907.645313947213 -546.5 -2776.5986133844194 5002.392691517902 -546.5 -2336.351659046231 4209.83362798008 -494 -1917.0860009573507 4050.6331005082834 -516.5 -5094.970074576079 8752.070680083327 209 -5156.458445507547 8716.571662629402 183.5 -5206.688382324804 8687.572465272673 135 -4217.325678335791 6732.876084768644 100 -4233.3472961137095 6723.626340784171 -4 -3730.565120627703 5646.744228381166 -5.5 -3709.347302489379 5658.993889333577 -145.5 -3304.0129499656096 4697.90111927226 -193 -3221.556753976479 4746.082814375296 -359.5 -2765.926282788697 3924.8776793906204 -258.5 -2489.803920898547 4004.617514255041 -534 -4968.962215836238 8824.818666555808 183.5 -5030.017570071006 8789.569642182543 209 -4014.6738642799646 6849.872846518201 296.5 -4100.844186923361 6800.124223466573 260 -3553.211298596543 5748.558381674997 348 -3647.6089384772486 5694.059890090802 257 -3221.0567678151556 4745.216780981895 343 -3303.579933268909 4698.151112352921 178.5 -2796.581438174224 3942.974956762899 157 -2766.2317431870006 3560.3966693311863 -76.5 -5156.458445507547 8716.571662629402 -192.5 -5094.970074576079 8752.070680083327 -218 -5030.017570071006 8789.569642182543 -218 -3923.5573343568235 6903.054403234468 -305 -3836.953995016727 6953.053019366757 -268.5 -3199.686650472909 5953.2357452721 -360 -3105.2890105922033 6007.734236856295 -268.5 -2497.552837093269 5164.071245241235 -361 -1096.217214158928 2820.7995000321516 -175 -1223.5884918514687 3013.4203909525545 -381.5 -1449.61186144265 3173.9124044568043 -551.5 -1866.6957326969991 3498.338504423323 -749 -2627.9520811912466 4906.924327821104 -644 -2365.825237668297 3793.8723218911496 -618.5 -2336.351659046231 4209.83362798008 -494 -1250.9266116632662 2367.7539699539434 162.5 -1161.4539060645857 2567.7868046407816 223.5 -1096.217214158928 2820.7995000321516 159 -1105.8079503489369 3081.418508892468 -8 -1216.8007023248622 3314.6718240003365 -218.5 -1205.4598585097153 2394.0032434233954 118.5 -1106.8938022803247 2599.285932804124 115 -1070.6692290535996 2835.549091791177 -8 -1136.119119117971 3063.918993246167 -207 -1707.755912834978 4172.062768245124 178.5 -2413.480628468752 5211.453876415493 178.5 -3043.8006396607348 6043.23325431022 134 -3720.6555272203354 7019.6181482873235 100 -3105.2890105922033 6007.734236856295 257 -2621.761659581685 5091.207204617337 465 -2186.1252775822622 4177.63061085059 565 -3766.8052901512483 6993.551898433911 -200.5 -4968.962215836238 8824.818666555808 -192.5 -1176.0147231340823 2411.002772908374 59 -1088.2740843222039 2610.035635272566 -8 -1649.0222731859003 3626.317076944156 -651.5 -1309.649299034805 3260.4902949614257 -410 -2013.4102333878773 4360.481680054277 -258.5 -2009.954451489788 4280.493821153861 -462.5 -2572.028320705861 5274.070801334296 -141 -2374.907554333552 5393.647778486227 -242.5 -2496.003793922506 5164.388207786519 343 -1999.359173330443 4003.134415182609 559.5 -3437.5958405775136 5815.306534211603 396.5 -3096.5979522460775 4817.647804909093 464 -2391.250785991361 4142.920730414196 493 -4171.42590848554 6759.375351318758 192 -3709.347302489379 5658.993889333577 134 -3331.9090421704796 4681.218552332564 -8 -1165.6223224132707 2417.0026068442485 -8 -2868.1265748855253 3783.8915088088115 -127 -4217.325678335791 6732.876084768644 -108.5 -3647.85893155791 5694.492906787502 -268.5 -2765.926282788697 3924.8776793906204 -258.5 -2365.825237668297 3793.8723218911496 -618.5 -3093.8168284498356 4819.830773170423 -482.5 -4014.923857360626 6850.305863214902 -305 -3315.3021084919383 5886.487592735493 -408.5 -1911.4466192405725 4512.878108457372 -472 -2619.372113540914 3644.0282972013547 432.5 -2622.0116526623465 5091.640221314038 -481.5 -4918.732279018982 8853.817863912534 -144 -2009.954451489788 4280.493821153861 -462.5 -3923.3073412761623 6902.621386537767 296.5 -2010.1515778548312 4380.83803444589 329 -2371.5682203958127 5367.863115431375 234.5 -3003.3395808818195 5003.123210746325 -672.5 -3373.7518801767724 4788.6961170034265 412 -1999.359173330443 4003.134415182609 559.5 -2766.2317431870006 3560.3966693311863 -76.5 -1917.0860009573507 4050.6331005082834 -516.5</float_array>
                    <technique_common>
                        <accessor count="242" source="#pointarray0" stride="3">
                            <param name="X" type="float"/>
                            <param name="Y" type="float"/>
                            <param name="Z" type="float"/>
                        </accessor>
                    </technique_common>
                </source>
                <source id="uvs0">
                    <float_array id="uvarray0" count="510">0.4166259765625 0 0.38885498046875 0.0833740234375 0.44439697265625 0.0833740234375 0.44439697265625 0.16668701171875 0.5 0.16668701171875 0.5 0.25 0.5555419921875 0.25 0.5555419921875 0.3333740234375 0.611083984375 0.3333740234375 0.611083984375 0.41668701171875 0.6666259765625 0.41668701171875 0.6666259765625 0.4583740234375 0.72216796875 0.5 0.69439697265625 0.5 0.69439697265625 0.54168701171875 0.6666259765625 0.5 0.6666259765625 0.54168701171875 0.63885498046875 0.54168701171875 0.611083984375 0.5833740234375 0.611083984375 0.5 0.5555419921875 0.5 0.5555419921875 0.41668701171875 0.5 0.41668701171875 0.5 0.3333740234375 0.44439697265625 0.3333740234375 0.44439697265625 0.25 0.38885498046875 0.25 0.38885498046875 0.16668701171875 0.33331298828125 0.16668701171875 0.33331298828125 0.0833740234375 0.27777099609375 0.0833740234375 0.30548095703125 0 0.08514404296875 0 0.0555419921875 0.0833740234375 0.111083984375 0.0833740234375 0.111083984375 0.16668701171875 0.1666259765625 0.16668701171875 0.1666259765625 0.25 0.22216796875 0.25 0.22216796875 0.3333740234375 0.27777099609375 0.3333740234375 0.27777099609375 0.41668701171875 0.33331298828125 0.41668701171875 0.33331298828125 0.4583740234375 0.38885498046875 0.5 0.361083984375 0.5 0.361083984375 0.54168701171875 0.33331298828125 0.5 0.33331298828125 0.54168701171875 0.3055419921875 0.54168701171875 0.27777099609375 0.5833740234375 0.27777099609375 0.5 0.22216796875 0.5 0.22216796875 0.41668701171875 0.1666259765625 0.41668701171875 0.1666259765625 0.3333740234375 0.111083984375 0.3333740234375 0.111083984375 0.25 0.0555419921875 0.25 0.0555419921875 0.16668701171875 0 0.16668701171875 0 0.0833740234375 1 0.5833740234375 0.94439697265625 0.5833740234375 1 0.66668701171875 0.94439697265625 0.66668701171875 1 0.75 0.94439697265625 0.75 1 0.8333740234375 0.94439697265625 0.8333740234375 1 0.91668701171875 0.94439697265625 0.91668701171875 0.5 1 0.88885498046875 0.91668701171875 0.83331298828125 0.91668701171875 0.83331298828125 0.8333740234375 0.77777099609375 0.8333740234375 0.77777099609375 0.75 0.72216796875 0.75 0.72216796875 0.66668701171875 0.6666259765625 0.66668701171875 0.6666259765625 0.5833740234375 0.63885498046875 0 0.611083984375 0.0833740234375 0.6666259765625 0.0833740234375 0.6666259765625 0.16668701171875 0.72216796875 0.16668701171875 0.72216796875 0.25 0.77777099609375 0.25 0.77777099609375 0.3333740234375 0.83331298828125 0.3333740234375 0.83331298828125 0.41668701171875 0.88885498046875 0.41668701171875 0.88885498046875 0.5 0.94439697265625 0.5 0.97216796875 0.54168701171875 1 0.54168701171875 1 0.5 0.58331298828125 0 0.5555419921875 0.0833740234375 0.611083984375 0.16668701171875 0.6666259765625 0.25 0.72216796875 0.3333740234375 0.77777099609375 0.41668701171875 0.83331298828125 0.4583740234375 0.83331298828125 0.5 0.88885498046875 0.5833740234375 0.83331298828125 0.5833740234375 0.3629150390625 0 0.6666259765625 0.47918701171875 0.25177001953125 0 0.22216796875 0.0833740234375 0.27777099609375 0.16668701171875 0.33331298828125 0.25 0.38885498046875 0.3333740234375 0.44439697265625 0.41668701171875 0.5 0.4583740234375 0.5 0.5 0.5555419921875 0.5833740234375 0.5 0.5833740234375 0.0277099609375 0 0.33331298828125 0.47918701171875 0.6944580078125 0 0.72216796875 0.0833740234375 0.77777099609375 0.16668701171875 0.83331298828125 0.25 0.88885498046875 0.3333740234375 0.94439697265625 0.41668701171875 1 0.4583740234375 1 0.47918701171875 0.52777099609375 0 0.5 0.0833740234375 0.5555419921875 0.16668701171875 0.611083984375 0.25 0.6666259765625 0.3333740234375 0.72216796875 0.41668701171875 0.77777099609375 0.5 0.47216796875 0 0.72216796875 0.5833740234375 0.19439697265625 0 0.1666259765625 0.0833740234375 0.22216796875 0.16668701171875 0.27777099609375 0.25 0.33331298828125 0.3333740234375 0.38885498046875 0.41668701171875 0.44439697265625 0.5 0.13885498046875 0 0.38885498046875 0.5833740234375 0.5 0.91668701171875 0.44439697265625 0.91668701171875 0.38885498046875 0.91668701171875 0.33331298828125 0.91668701171875 0.33331298828125 0.8333740234375 0.27777099609375 0.8333740234375 0.27777099609375 0.75 0.22216796875 0.75 0.22216796875 0.66668701171875 0.1666259765625 0.66668701171875 0.1666259765625 0.5833740234375 0.111083984375 0.5833740234375 0.6666259765625 0.91668701171875 0.611083984375 0.91668701171875 0.5555419921875 0.91668701171875 0.5 0.8333740234375 0.44439697265625 0.8333740234375 0.44439697265625 0.75 0.38885498046875 0.75 0.38885498046875 0.66668701171875 0.33331298828125 0.66668701171875 0.33331298828125 0.5833740234375 0.77777099609375 0.91668701171875 0.72216796875 0.91668701171875 0.6666259765625 0.8333740234375 0.611083984375 0.8333740234375 0.611083984375 0.75 0.5555419921875 0.75 0.5555419921875 0.66668701171875 0.5 0.66668701171875 0.44439697265625 0.5833740234375 0.27777099609375 0.91668701171875 0.22216796875 0.91668701171875 0.1666259765625 0.91668701171875 0.1666259765625 0.8333740234375 0.111083984375 0.8333740234375 0.111083984375 0.75 0.0555419921875 0.75 0.0555419921875 0.66668701171875 0 0.66668701171875 0 0.5833740234375 0 0.25 0.0555419921875 0.3333740234375 0.111083984375 0.41668701171875 0.1666259765625 0.4583740234375 0.1666259765625 0.5 0.22216796875 0.5833740234375 0.75 0 0.77777099609375 0.0833740234375 0.83331298828125 0.16668701171875 0.88885498046875 0.25 0.94439697265625 0.3333740234375 1 0.41668701171875 0.8055419921875 0 0.83331298828125 0.0833740234375 0.88885498046875 0.16668701171875 0.94439697265625 0.25 1 0.3333740234375 0.88885498046875 0.66668701171875 0.88885498046875 0.75 0.88885498046875 0.8333740234375 0.83331298828125 0.75 0.77777099609375 0.66668701171875 0 0.75 0.0555419921875 0.8333740234375 0.111083984375 0.91668701171875 0.86297607421875 0 0.88885498046875 0.0833740234375 0.94439697265625 0.16668701171875 1 0.25 0.111083984375 0.5 0.0555419921875 0.41668701171875 0 0.3333740234375 0.0555419921875 0.5833740234375 0 0.54168701171875 0.02777099609375 0.54168701171875 0 0.5 0.02777099609375 0.5 0 0.47918701171875 0 0.4583740234375 0.83331298828125 0.66668701171875 0.77777099609375 0.5833740234375 0.6666259765625 0.75 0.611083984375 0.66668701171875 0.5555419921875 0.8333740234375 0.5 0.75 0.44439697265625 0.66668701171875 0.914794921875 0 0.94439697265625 0.0833740234375 1 0.16668701171875 0.38885498046875 0.8333740234375 0.33331298828125 0.75 0.27777099609375 0.66668701171875 0.22216796875 0.8333740234375 0.1666259765625 0.75 0 0.41668701171875 0.0555419921875 0.5 0.111083984375 0.66668701171875 0 0.8333740234375 0.0555419921875 0.91668701171875 0.72216796875 0.8333740234375 0.97216796875 0.5 0.3055419921875 0.5 0.63885498046875 0.5 0.97406005859375 0 1 0.0833740234375 0 0.91668701171875</float_array>
                    <technique_common>
                        <accessor count="255" source="#uvarray0" stride="2">
                            <param name="S" type="float"/>
                            <param name="T" type="float"/>
                        </accessor>
                    </technique_common>
                </source>
                <vertices id="vertices0">
                    <input semantic="POSITION" source="#points0"/>
                </vertices>
                <polylist count="444" material="Material1">
                    <input offset="0" semantic="VERTEX" source="#vertices0"/>
                    <input offset="1" semantic="TEXCOORD" source="#uvs0" set="0"/>
                    <vcount>3 3 3 3 3 3 3 3 3 3 3 3 3 3 3 3 3 3 3 3 3 3 3 3 3 3 3 3 3 3 3 3 3 3 3 3 3 3 3 3 3 3 3 3 3 3 3 3 3 3 3 3 3 3 3 3 3 3 3 3 3 3 3 3 3 3 3 3 3 3 3 3 3 3 3 3 3 3 3 3 3 3 3 3 3 3 3 3 3 3 3 3 3 3 3 3 3 3 3 3 3 3 3 3 3 3 3 3 3 3 3 3 3 3 3 3 3 3 3 3 3 3 3 3 3 3 3 3 3 3 3 3 3 3 3 3 3 3 3 3 3 3 3 3 3 3 3 3 3 3 3 3 3 3 3 3 3 3 3 3 3 3 3 3 3 3 3 3 3 3 3 3 3 3 3 3 3 3 3 3 3 3 3 3 3 3 3 3 3 3 3 3 3 3 3 3 3 3 3 3 3 3 3 3 3 3 3 3 3 3 3 3 3 3 3 3 3 3 3 3 3 3 3 3 3 3 3 3 3 3 3 3 3 3 3 3 3 3 3 3 3 3 3 3 3 3 3 3 3 3 3 3 3 3 3 3 3 3 3 3 3 3 3 3 3 3 3 3 3 3 3 3 3 3 3 3 3 3 3 3 3 3 3 3 3 3 3 3 3 3 3 3 3 3 3 3 3 3 3 3 3 3 3 3 3 3 3 3 3 3 3 3 3 3 3 3 3 3 3 3 3 3 3 3 3 3 3 3 3 3 3 3 3 3 3 3 3 3 3 3 3 3 3 3 3 3 3 3 3 3 3 3 3 3 3 3 3 3 3 3 3 3 3 3 3 3 3 3 3 3 3 3 3 3 3 3 3 3 3 3 3 3 3 3 3 3 3 3 3 3 3 3 3 3 3 3 3 3 3 3 3 3 3 3 3 3 3 3 3 3 3 3 3 3 3 3 3 3 3 3 3 3 3 3 3 3 3 3 3 3 3 3 3 3 3 3 3 3 3 3 3 3 3 3</vcount>
                    <p>2 2 1 1 0 0 3 3 1 1 2 2 4 4 3 3 2 2 5 5 3 3 4 4 6 6 5 5 4 4 7 7 5 5 6 6 8 8 7 7 6 6 9 9 7 7 8 8 10 10 9 9 8 8 11 11 9 9 10 10 12 12 11 11 10 10 13 13 11 11 12 12 14 14 13 13 12 12 15 15 13 13 14 14 16 16 15 15 14 14 17 17 15 15 16 16 18 18 17 17 16 16 19 19 17 17 18 18 20 20 19 19 18 18 21 21 19 19 20 20 22 22 21 21 20 20 23 23 21 21 22 22 24 24 23 23 22 22 25 25 23 23 24 24 26 26 25 25 24 24 27 27 25 25 26 26 28 28 27 27 26 26 29 29 27 27 28 28 30 30 29 29 28 28 0 31 29 29 30 30 32 34 31 33 0 32 33 35 31 33 32 34 34 36 33 35 32 34 35 37 33 35 34 36 36 38 35 37 34 36 37 39 35 37 36 38 38 40 37 39 36 38 39 41 37 39 38 40 40 42 39 41 38 40 41 43 39 41 40 42 42 44 41 43 40 42 43 45 41 43 42 44 44 46 43 45 42 44 45 47 43 45 44 46 46 48 45 47 44 46 47 49 45 47 46 48 48 50 47 49 46 48 49 51 47 49 48 50 50 52 49 51 48 50 51 53 49 51 50 52 52 54 51 53 50 52 53 55 51 53 52 54 54 56 53 55 52 54 55 57 53 55 54 56 56 58 55 57 54 56 57 59 55 57 56 58 58 60 57 59 56 58 59 61 57 59 58 60 62 64 61 63 60 62 63 65 61 63 62 64 64 66 63 65 62 64 65 67 63 65 64 66 66 68 65 67 64 66 67 69 65 67 66 68 68 70 67 69 66 68 69 71 67 69 68 70 70 72 69 71 68 70 71 73 69 71 70 72 72 74 71 73 70 72 73 75 71 73 72 74 74 76 73 75 72 74 75 77 73 75 74 76 76 78 75 77 74 76 77 79 75 77 76 78 78 80 77 79 76 78 79 81 77 79 78 80 80 18 79 81 78 80 82 84 81 83 0 82 83 85 81 83 82 84 84 86 83 85 82 84 85 87 83 85 84 86 86 88 85 87 84 86 87 89 85 87 86 88 88 90 87 89 86 88 89 91 87 89 88 90 90 92 89 91 88 90 91 93 89 91 90 92 92 94 91 93 90 92 93 63 91 93 92 94 94 95 93 63 92 94 95 96 93 63 94 95 96 97 95 96 94 95 81 83 97 99 0 98 98 100 97 99 81 83 83 85 98 100 81 83 99 101 98 100 83 85 85 87 99 101 83 85 100 102 99 101 85 87 87 89 100 102 85 87 101 103 100 102 87 89 89 91 101 103 87 89 102 104 101 103 89 91 91 93 102 104 89 91 103 105 102 104 91 93 104 106 103 105 91 93 105 107 103 105 104 106 1 1 29 29 0 108 27 27 29 29 1 1 3 3 27 27 1 1 25 25 27 27 3 3 5 5 25 25 3 3 23 23 25 25 5 5 7 7 23 23 5 5 21 21 23 23 7 7 9 9 21 21 7 7 19 19 21 21 9 9 11 11 19 19 9 9 106 109 19 19 11 11 13 13 106 109 11 11 15 15 106 109 13 13 30 30 107 111 0 110 108 112 107 111 30 30 28 28 108 112 30 30 109 113 108 112 28 28 26 26 109 113 28 28 110 114 109 113 26 26 24 24 110 114 26 26 111 115 110 114 24 24 22 22 111 115 24 24 112 116 111 115 22 22 20 20 112 116 22 22 113 117 112 116 20 20 114 118 113 117 20 20 115 119 113 117 114 118 31 33 59 61 0 120 57 59 59 61 31 33 33 35 57 59 31 33 55 57 57 59 33 35 35 37 55 57 33 35 53 55 55 57 35 37 37 39 53 55 35 37 51 53 53 55 37 39 39 41 51 53 37 39 49 51 51 53 39 41 41 43 49 51 39 41 116 121 49 51 41 43 43 45 116 121 41 43 45 47 116 121 43 45 117 123 82 84 0 122 84 86 82 84 117 123 118 124 84 86 117 123 86 88 84 86 118 124 119 125 86 88 118 124 88 90 86 88 119 125 120 126 88 90 119 125 90 92 88 90 120 126 121 127 90 92 120 126 92 94 90 92 121 127 122 128 92 94 121 127 123 129 92 94 122 128 97 99 124 131 0 130 125 132 124 131 97 99 98 100 125 132 97 99 126 133 125 132 98 100 99 101 126 133 98 100 127 134 126 133 99 101 100 102 127 134 99 101 128 135 127 134 100 102 101 103 128 135 100 102 129 136 128 135 101 103 102 104 129 136 101 103 103 105 129 136 102 104 124 131 2 2 0 137 4 4 2 2 124 131 125 132 4 4 124 131 6 6 4 4 125 132 126 133 6 6 125 132 8 8 6 6 126 133 127 134 8 8 126 133 10 10 8 8 127 134 128 135 10 10 127 134 12 12 10 10 128 135 129 136 12 12 128 135 130 138 12 12 129 136 107 111 131 140 0 139 132 141 131 140 107 111 108 112 132 141 107 111 133 142 132 141 108 112 109 113 133 142 108 112 134 143 133 142 109 113 110 114 134 143 109 113 135 144 134 143 110 114 111 115 135 144 110 114 136 145 135 144 111 115 112 116 136 145 111 115 113 117 136 145 112 116 131 140 32 34 0 146 34 36 32 34 131 140 132 141 34 36 131 140 36 38 34 36 132 141 133 142 36 38 132 141 38 40 36 38 133 142 134 143 38 40 133 142 40 42 38 40 134 143 135 144 40 42 134 143 42 44 40 42 135 144 136 145 42 44 135 144 137 147 42 44 136 145 70 72 139 149 138 148 140 150 139 149 70 72 141 151 140 150 70 72 142 152 140 150 141 151 143 153 142 152 141 151 144 154 142 152 143 153 145 155 144 154 143 153 146 156 144 154 145 155 147 157 146 156 145 155 148 158 146 156 147 157 149 159 148 158 147 157 70 72 151 161 150 160 152 162 151 161 70 72 138 148 152 162 70 72 153 163 152 162 138 148 154 164 153 163 138 148 155 165 153 163 154 164 156 166 155 165 154 164 157 167 155 165 156 166 158 168 157 167 156 166 159 169 157 167 158 168 160 50 159 169 158 168 70 72 161 170 72 74 162 171 161 170 70 72 150 160 162 171 70 72 163 172 162 171 150 160 164 173 163 172 150 160 165 174 163 172 164 173 166 175 165 174 164 173 167 176 165 174 166 175 168 177 167 176 166 175 169 119 167 176 168 177 170 178 169 119 168 177 70 72 171 179 141 151 172 180 171 179 70 72 173 181 172 180 70 72 174 182 172 180 173 181 175 183 174 182 173 181 176 184 174 182 175 183 177 185 176 184 175 183 178 186 176 184 177 185 62 187 178 186 177 185 60 188 178 186 62 187 56 58 179 189 58 60 180 190 179 189 56 58 54 56 180 190 56 58 181 191 180 190 54 56 52 54 181 191 54 56 182 192 181 191 52 54 50 52 182 192 52 54 183 193 182 192 50 52 184 194 183 193 50 52 185 158 183 193 184 194 186 196 117 123 0 195 118 124 117 123 186 196 187 197 118 124 186 196 119 125 118 124 187 197 188 198 119 125 187 197 120 126 119 125 188 198 189 199 120 126 188 198 121 127 120 126 189 199 190 200 121 127 189 199 122 128 121 127 190 200 191 202 186 196 0 201 187 197 186 196 191 202 192 203 187 197 191 202 188 198 187 197 192 203 193 204 188 198 192 203 189 199 188 198 193 204 194 205 189 199 193 204 190 200 189 199 194 205 63 65 195 106 61 63 196 206 195 106 63 65 65 67 196 206 63 65 197 207 196 206 65 67 67 69 197 207 65 67 198 208 197 207 67 69 69 71 198 208 67 69 71 73 198 208 69 71 73 75 198 208 71 73 199 209 198 208 73 75 75 77 199 209 73 75 200 210 199 209 75 77 77 79 200 210 75 77 201 138 200 210 77 79 79 81 201 138 77 79 177 185 64 211 62 187 202 212 64 211 177 185 175 183 202 212 177 185 203 213 202 212 175 183 173 181 203 213 175 183 70 72 203 213 173 181 204 215 191 202 0 214 192 203 191 202 204 215 205 216 192 203 204 215 193 204 192 203 205 216 179 217 193 204 205 216 194 205 193 204 179 217 206 218 182 192 183 193 181 191 182 192 206 218 207 219 181 191 206 218 180 190 181 191 207 219 194 220 180 190 207 219 179 189 180 190 194 220 95 222 209 221 208 188 210 223 209 221 95 222 96 224 210 223 95 222 211 225 210 223 96 224 123 226 211 225 96 224 122 227 211 225 123 226 199 209 197 207 198 208 212 228 197 207 199 209 200 210 212 228 199 209 213 229 212 228 200 210 201 138 213 229 200 210 214 230 78 80 76 78 215 231 78 80 214 230 165 174 215 231 214 230 167 176 215 231 165 174 130 138 14 14 12 12 16 16 14 14 130 138 216 81 16 16 130 138 18 18 16 16 216 81 151 161 164 173 150 160 217 232 164 173 151 161 152 162 217 232 151 161 153 163 217 232 152 162 217 232 166 175 164 173 218 233 166 175 217 232 153 163 218 233 217 232 155 165 218 233 153 163 218 233 168 177 166 175 219 234 168 177 218 233 155 165 219 234 218 233 157 167 219 234 155 165 220 236 204 215 0 235 205 216 204 215 220 236 58 237 205 216 220 236 179 217 205 216 58 237 219 234 170 178 168 177 221 147 170 178 219 234 157 167 221 147 219 234 159 169 221 147 157 167 139 149 154 164 138 148 222 238 154 164 139 149 140 150 222 238 139 149 142 152 222 238 140 150 222 238 156 166 154 164 223 239 156 166 222 238 142 152 223 239 222 238 144 154 223 239 142 152 46 48 224 169 48 50 137 147 224 169 46 48 44 46 137 147 46 48 42 44 137 147 44 46 225 194 146 156 148 158 226 240 146 156 225 194 160 50 226 240 225 194 158 168 226 240 160 50 226 240 144 154 146 156 223 239 144 154 226 240 158 168 223 239 226 240 156 166 223 239 158 168 227 241 145 155 143 153 228 242 145 155 227 241 174 182 228 242 227 241 176 184 228 242 174 182 207 219 190 243 194 220 229 244 190 243 207 219 206 218 229 244 207 219 209 221 229 244 206 218 215 231 80 18 78 80 230 118 80 18 215 231 167 176 230 118 215 231 169 119 230 118 167 176 228 242 147 157 145 155 231 245 147 157 228 242 176 184 231 245 228 242 178 186 231 245 176 184 202 212 66 246 64 211 232 247 66 246 202 212 203 213 232 247 202 212 70 72 232 247 203 213 231 245 149 159 147 157 233 221 149 159 231 245 178 186 233 221 231 245 60 188 233 221 178 186 171 179 143 153 141 151 227 241 143 153 171 179 172 180 227 241 171 179 174 182 227 241 172 180 161 170 74 76 72 74 234 248 74 76 161 170 162 171 234 248 161 170 163 172 234 248 162 171 234 248 76 78 74 76 214 230 76 78 234 248 163 172 214 230 234 248 165 174 214 230 163 172 212 228 196 206 197 207 235 107 196 206 212 228 213 229 235 107 212 228 236 249 123 129 96 97 92 94 123 129 236 249 94 95 92 94 236 249 237 250 116 121 45 47 49 51 116 121 237 250 47 49 49 51 237 250 238 251 106 109 15 15 19 19 106 109 238 251 17 17 19 19 238 251 239 229 103 105 105 107 129 136 103 105 239 229 240 178 113 117 115 119 136 145 113 117 240 178 59 253 220 236 0 252 58 237 220 236 59 253 241 159 183 193 185 158 206 218 183 193 241 159 122 227 229 244 211 225 190 243 229 244 122 227 210 223 229 244 209 221 211 225 229 244 210 223 68 254 232 247 70 72 66 246 232 247 68 254 18 18 114 118 20 20 48 50 184 194 50 52 239 229 130 138 129 136 240 178 137 147 136 145 241 159 209 221 206 218 93 63 104 106 91 93 94 95 236 249 96 97 235 107 195 106 196 206 93 63 95 96 208 62 47 49 237 250 45 47 17 17 238 251 15 15</p>
                </polylist>
            </mesh>
        </geometry>
        <geometry id="mesh0_VC">
            <mesh>
                <source id="points0_VC">
                    <float_array id="pointarray0_VC" count="726">-1312.16459570514 2275.8197037063296 -8 -1496.8800953891412 2225.757900138242 -75.5 -1507.272496109953 2219.758066202367 -8 -1713.1171776610029 2249.2956198780985 -8 -1694.0644430061816 2260.2953154272022 115 -1891.2358693010176 2361.8122039377354 159 -1818.0560475586358 2404.06103456952 306 -1991.193156172183 2567.950605991685 367.5 -1860.5560526978813 2645.6805692995663 495 -2013.3014311730922 2854.2515388865745 543.5 -1840.3447455735597 2954.6817878478532 618 -2703.866780393526 3999.388538749936 721.5 -2343.597282547656 4263.385013957248 740 -3033.34292639895 5014.09131257753 661.5 -3007.027077273809 5023.5107650469035 410.5 -3969.710329447119 6066.971332574502 440.5 -3112.977659389492 4945.022077012591 337.5 -3207.241360340953 4888.291532480271 274 -2681.7642564661064 3896.1026324701443 388 -2903.7956946332856 3911.676343184491 441.5 -2467.6738230304773 3154.2631711907216 477.5 -2148.750802997893 2770.85658896593 411.5 -2276.155881201424 2691.528497800491 220.5 -2078.4616205118136 2514.103924275885 190 -2110.7057644615165 2498.9525157291255 -11.5 -1916.783854406346 2347.06261217871 -8 -1891.2358693010176 2361.8122039377354 -175 -1694.0644430061816 2260.2953154272022 -131.5 -1639.937355918621 2291.544450509883 -240 -1467.001943316808 2243.0074227038817 -135 -1421.535190163257 2269.2566961733337 -179 -1205.4598585097153 2394.0032434233954 -135 -1250.9266116632662 2367.7539699539434 -179 -1244.5931118310789 2519.7881331537837 -320.5 -1346.3520355556927 2461.0397591983437 -363.5 -1420.546719987591 2633.554682616728 -489.5 -1567.3393801690552 2548.8070282724975 -489.5 -1698.040852505955 2737.1959215994843 -579.5 -1860.5560526978813 2645.6805692995663 -511.5 -2015.0334979598942 2853.2515665639285 -559 -2156.013917468213 2772.436832045659 -423.5 -2807.1747472889024 3940.3232022492125 -664.5 -3036.1740041877692 3862.9630682022316 -299 -3378.2072405885747 4814.413810593655 -443.5 -3199.469514224863 4911.830827455859 -293 -3781.348066382408 6175.718322662232 -573.5 -3080.251414056295 4963.338541365499 -370.5 -2983.8047448435036 5017.287962101577 -434 -2489.803920898547 4004.617514255041 -534 -2515.379717692951 4135.9201365378085 -723.5 -2111.917121958718 3359.074473717069 -744.5 -1843.6570554400907 2946.418701054888 -631.5 -1632.0100601271424 3062.835192047362 -666 -1519.437065071488 2836.8449914098132 -579 -1354.2255953257704 2935.690427644673 -509.5 -1282.4143937401363 2713.3024753477293 -431.5 -1169.8300525980105 2778.300676319706 -322 -1161.4539060645857 2567.7868046407816 -240 -1106.8938022803247 2599.285932804124 -131.5 -1176.0147231340823 2411.002772908374 -75.5 -2013.4102333878773 4360.481680054277 -258.5 -1893.3569059259412 4349.540996103215 119.5 -2413.9806146300753 5212.319909808894 -195 -2385.151519567182 5228.38643643585 -6 -3043.8006396607348 6043.23325431022 -145.5 -3022.582821522411 6055.482915262632 -5.5 -3720.9055203009966 7020.051164984025 -108.5 -3704.633909442418 7028.867892271797 -4 -4885.823010069745 8872.817338042805 -78.5 -4874.564575955532 8879.317158140002 -4 -6646.083934162392 11515.779970981928 -9 -4886.256026766446 8872.567344962143 69.5 -4918.732279018982 8853.817863912534 135 -3766.555297070587 6993.11888173721 192 -3836.7040019360657 6952.620002670056 260 -3199.686650472909 5953.2357452721 348 -3315.0521154112766 5886.054576038793 396.5 -2774.866546597618 5003.392663840547 530 -2940.9619345145647 4908.078330643913 530 -2391.250785991361 4142.920730414196 493 -2681.7642564661064 3896.1026324701443 388 -1421.535190163257 2269.2566961733337 162.5 -1365.6760362888945 2301.50580357866 186 -1454.6062097308138 2398.541489032982 347 -1346.3520355556927 2461.0397591983437 347 -1420.546719987591 2633.554682616728 473 -1282.4143937401363 2713.3024753477293 415 -1359.4217956861762 2932.690510676736 496 -1221.9545944382553 3008.590237824227 364.5 -1289.993839198382 3261.4457522439675 421.5 -1213.8677548215474 3310.5916501139936 195 -1372.8245901556138 3786.9286888802208 221 -1834.6774704797895 4528.9092593376035 249.5 -1893.3569059259412 4349.540996103215 119.5 -2561.613465560531 5261.031215746488 136 -2562.6134378831766 5262.763282533289 9 -3107.574086316454 6564.707556171444 110 -1467.001943316808 2243.0074227038817 118.5 -1556.798150152128 2339.543121996881 304.5 -1567.3393801690552 2548.8070282724975 473 -1521.9369958781024 2841.1751583768178 564 -1470.6466559649346 3162.3457532817556 549.5 -1480.8778559368675 3721.0823392926723 475 -2122.6979426482094 4628.7827173326095 481 -1707.755912834978 4172.062768245124 178.5 -2010.1515778548312 4380.83803444589 329 -3271.7787329271537 4855.073652661264 678.5 -1365.6760362888945 2301.50580357866 -202.5 -1556.798150152128 2339.543121996881 -320.5 -1818.0560475586358 2404.06103456952 -322 -2082.2606014085295 2517.6841120009053 -207 -2285.0840929939236 2690.9927420835115 -22 -2591.56568297361 3079.850087396061 250 -3486.416899723592 4769.838933477915 159.5 -2619.372113540914 3644.0282972013547 432.5 -2796.581438174224 3942.974956762899 157 -3260.7702918936025 4862.006489455162 -695 -1306.7857655376285 2335.504862548617 186 -1244.5931118310789 2519.7881331537837 304.5 -1169.8300525980105 2778.300676319706 306 -1134.6861300986247 3062.436919540027 187 -1185.8065237784665 3331.9883160305994 -8.5 -1712.0755213333773 4572.555703242011 -84 -2229.3245203530487 5457.490007590729 -10 -1496.8800953891412 2225.757900138242 59 -1639.937355918621 2291.544450509883 223.5 -1705.4717064165097 2469.059235541496 415 -1696.4427246483976 2740.427946870255 564 -1649.8173990253467 3064.67874333889 620.5 -1675.6862847652912 3611.500515720508 639 -2186.1252775822622 4177.63061085059 565 -1306.7857655376285 2335.504862548617 -202.5 -1454.6062097308138 2398.541489032982 -363.5 -1705.4717064165097 2469.059235541496 -431.5 -1994.7912286750316 2568.1827142945176 -381.5 -2252.75966444846 2716.005365280794 -235.5 -2628.506041122396 3060.832728487963 -33 -2868.1265748855253 3783.8915088088115 -127 -5239.16463457734 8668.822984223065 69.5 -5250.4230686915525 8662.323164125866 -4 -5239.16463457734 8668.822984223065 -78.5 -5206.688382324804 8687.572465272673 -144 -4171.42590848554 6759.375351318758 -200.5 -4101.094180004022 6800.557240163274 -268.5 -3553.461291677205 5748.991398371697 -360 -3437.8458336581753 5815.7395509083035 -408.5 -2940.711941433903 4907.645313947213 -546.5 -2776.5986133844194 5002.392691517902 -546.5 -2336.351659046231 4209.83362798008 -494 -1917.0860009573507 4050.6331005082834 -516.5 -5094.970074576079 8752.070680083327 209 -5156.458445507547 8716.571662629402 183.5 -5206.688382324804 8687.572465272673 135 -4217.325678335791 6732.876084768644 100 -4233.3472961137095 6723.626340784171 -4 -3730.565120627703 5646.744228381166 -5.5 -3709.347302489379 5658.993889333577 -145.5 -3304.0129499656096 4697.90111927226 -193 -3221.556753976479 4746.082814375296 -359.5 -2765.926282788697 3924.8776793906204 -258.5 -2489.803920898547 4004.617514255041 -534 -4968.962215836238 8824.818666555808 183.5 -5030.017570071006 8789.569642182543 209 -4014.6738642799646 6849.872846518201 296.5 -4100.844186923361 6800.124223466573 260 -3553.211298596543 5748.558381674997 348 -3647.6089384772486 5694.059890090802 257 -3221.0567678151556 4745.216780981895 343 -3303.579933268909 4698.151112352921 178.5 -2796.581438174224 3942.974956762899 157 -2766.2317431870006 3560.3966693311863 -76.5 -5156.458445507547 8716.571662629402 -192.5 -5094.970074576079 8752.070680083327 -218 -5030.017570071006 8789.569642182543 -218 -3923.5573343568235 6903.054403234468 -305 -3836.953995016727 6953.053019366757 -268.5 -3199.686650472909 5953.2357452721 -360 -3105.2890105922033 6007.734236856295 -268.5 -2497.552837093269 5164.071245241235 -361 -1096.217214158928 2820.7995000321516 -175 -1223.5884918514687 3013.4203909525545 -381.5 -1449.61186144265 3173.9124044568043 -551.5 -1866.6957326969991 3498.338504423323 -749 -2627.9520811912466 4906.924327821104 -644 -2365.825237668297 3793.8723218911496 -618.5 -2336.351659046231 4209.83362798008 -494 -1250.9266116632662 2367.7539699539434 162.5 -1161.4539060645857 2567.7868046407816 223.5 -1096.217214158928 2820.7995000321516 159 -1105.8079503489369 3081.418508892468 -8 -1216.8007023248622 3314.6718240003365 -218.5 -1205.4598585097153 2394.0032434233954 118.5 -1106.8938022803247 2599.285932804124 115 -1070.6692290535996 2835.549091791177 -8 -1136.119119117971 3063.918993246167 -207 -1707.755912834978 4172.062768245124 178.5 -2413.480628468752 5211.453876415493 178.5 -3043.8006396607348 6043.23325431022 134 -3720.6555272203354 7019.6181482873235 100 -3105.2890105922033 6007.734236856295 257 -2621.761659581685 5091.207204617337 465 -2186.1252775822622 4177.63061085059 565 -3766.8052901512483 6993.551898433911 -200.5 -4968.962215836238 8824.818666555808 -192.5 -1176.0147231340823 2411.002772908374 59 -1088.2740843222039 2610.035635272566 -8 -1649.0222731859003 3626.317076944156 -651.5 -1309.649299034805 3260.4902949614257 -410 -2013.4102333878773 4360.481680054277 -258.5 -2009.954451489788 4280.493821153861 -462.5 -2572.028320705861 5274.070801334296 -141 -2374.907554333552 5393.647778486227 -242.5 -2496.003793922506 5164.388207786519 343 -1999.359173330443 4003.134415182609 559.5 -3437.5958405775136 5815.306534211603 396.5 -3096.5979522460775 4817.647804909093 464 -2391.250785991361 4142.920730414196 493 -4171.42590848554 6759.375351318758 192 -3709.347302489379 5658.993889333577 134 -3331.9090421704796 4681.218552332564 -8 -1165.6223224132707 2417.0026068442485 -8 -2868.1265748855253 3783.8915088088115 -127 -4217.325678335791 6732.876084768644 -108.5 -3647.85893155791 5694.492906787502 -268.5 -2765.926282788697 3924.8776793906204 -258.5 -2365.825237668297 3793.8723218911496 -618.5 -3093.8168284498356 4819.830773170423 -482.5 -4014.923857360626 6850.305863214902 -305 -3315.3021084919383 5886.487592735493 -408.5 -1911.4466192405725 4512.878108457372 -472 -2619.372113540914 3644.0282972013547 432.5 -2622.0116526623465 5091.640221314038 -481.5 -4918.732279018982 8853.817863912534 -144 -2009.954451489788 4280.493821153861 -462.5 -3923.3073412761623 6902.621386537767 296.5 -2010.1515778548312 4380.83803444589 329 -2371.5682203958127 5367.863115431375 234.5 -3003.3395808818195 5003.123210746325 -672.5 -3373.7518801767724 4788.6961170034265 412 -1999.359173330443 4003.134415182609 559.5 -2766.2317431870006 3560.3966693311863 -76.5 -1917.0860009573507 4050.6331005082834 -516.5</float_array>
                    <technique_common>
                        <accessor count="242" source="#pointarray0_VC" stride="3">
                            <param name="X" type="float"/>
                            <param name="Y" type="float"/>
                            <param name="Z" type="float"/>
                        </accessor>
                    </technique_common>
                </source>
                <source id="uvs0_VC">
                    <float_array id="uvarray0_VC" count="20">0.15625 0.50390625 0.15625 0.99609375 0.40625 0.99609375 0.40625 0.75390625 0.28125 0.99609375 0.28125 0.50390625 0.53125 0.99609375 0.53125 0.75390625 0.03125 0.99609375 0.03125 0.00390625</float_array>
                    <technique_common>
                        <accessor count="10" source="#uvarray0_VC" stride="2">
                            <param name="S" type="float"/>
                            <param name="T" type="float"/>
                        </accessor>
                    </technique_common>
                </source>
                <vertices id="vertices0_VC">
                    <input semantic="POSITION" source="#points0_VC"/>
                </vertices>
                <polylist count="444" material="Material1">
                    <input offset="0" semantic="VERTEX" source="#vertices0_VC"/>
                    <input offset="1" semantic="TEXCOORD" source="#uvs0_VC" set="0"/>
                    <vcount>3 3 3 3 3 3 3 3 3 3 3 3 3 3 3 3 3 3 3 3 3 3 3 3 3 3 3 3 3 3 3 3 3 3 3 3 3 3 3 3 3 3 3 3 3 3 3 3 3 3 3 3 3 3 3 3 3 3 3 3 3 3 3 3 3 3 3 3 3 3 3 3 3 3 3 3 3 3 3 3 3 3 3 3 3 3 3 3 3 3 3 3 3 3 3 3 3 3 3 3 3 3 3 3 3 3 3 3 3 3 3 3 3 3 3 3 3 3 3 3 3 3 3 3 3 3 3 3 3 3 3 3 3 3 3 3 3 3 3 3 3 3 3 3 3 3 3 3 3 3 3 3 3 3 3 3 3 3 3 3 3 3 3 3 3 3 3 3 3 3 3 3 3 3 3 3 3 3 3 3 3 3 3 3 3 3 3 3 3 3 3 3 3 3 3 3 3 3 3 3 3 3 3 3 3 3 3 3 3 3 3 3 3 3 3 3 3 3 3 3 3 3 3 3 3 3 3 3 3 3 3 3 3 3 3 3 3 3 3 3 3 3 3 3 3 3 3 3 3 3 3 3 3 3 3 3 3 3 3 3 3 3 3 3 3 3 3 3 3 3 3 3 3 3 3 3 3 3 3 3 3 3 3 3 3 3 3 3 3 3 3 3 3 3 3 3 3 3 3 3 3 3 3 3 3 3 3 3 3 3 3 3 3 3 3 3 3 3 3 3 3 3 3 3 3 3 3 3 3 3 3 3 3 3 3 3 3 3 3 3 3 3 3 3 3 3 3 3 3 3 3 3 3 3 3 3 3 3 3 3 3 3 3 3 3 3 3 3 3 3 3 3 3 3 3 3 3 3 3 3 3 3 3 3 3 3 3 3 3 3 3 3 3 3 3 3 3 3 3 3 3 3 3 3 3 3 3 3 3 3 3 3 3 3 3 3 3 3 3 3 3 3 3 3 3 3 3 3 3 3 3 3 3 3 3 3 3 3 3 3 3 3 3 3</vcount>
                    <p>2 0 1 0 0 0 3 0 1 0 2 0 4 0 3 0 2 0 5 0 3 0 4 0 6 0 5 0 4 0 7 0 5 0 6 0 8 0 7 0 6 0 9 0 7 0 8 0 10 0 9 0 8 0 11 0 9 0 10 0 12 0 11 0 10 0 13 1 11 0 12 0 14 1 13 1 12 0 15 2 13 3 14 3 16 3 15 2 14 3 17 3 15 2 16 3 18 0 17 1 16 1 19 0 17 1 18 0 20 0 19 0 18 0 21 0 19 0 20 0 22 0 21 0 20 0 23 0 21 0 22 0 24 0 23 0 22 0 25 0 23 0 24 0 26 0 25 0 24 0 27 0 25 0 26 0 28 0 27 0 26 0 29 0 27 0 28 0 30 0 29 0 28 0 0 0 29 0 30 0 32 0 31 0 0 0 33 0 31 0 32 0 34 0 33 0 32 0 35 0 33 0 34 0 36 0 35 0 34 0 37 0 35 0 36 0 38 0 37 0 36 0 39 0 37 0 38 0 40 0 39 0 38 0 41 0 39 0 40 0 42 0 41 0 40 0 43 1 41 0 42 0 44 1 43 1 42 0 45 4 43 5 44 5 46 5 45 4 44 5 47 5 45 4 46 5 48 0 47 1 46 1 49 0 47 1 48 0 50 0 49 0 48 0 51 0 49 0 50 0 52 0 51 0 50 0 53 0 51 0 52 0 54 0 53 0 52 0 55 0 53 0 54 0 56 0 55 0 54 0 57 0 55 0 56 0 58 0 57 0 56 0 59 0 57 0 58 0 62 6 61 7 60 7 63 6 61 7 62 6 64 8 63 9 62 9 65 8 63 9 64 8 66 8 65 8 64 8 67 8 65 8 66 8 68 8 67 8 66 8 69 8 67 8 68 8 70 8 69 8 68 8 71 8 69 8 70 8 72 8 71 8 70 8 73 8 71 8 72 8 74 8 73 8 72 8 75 8 73 8 74 8 76 8 75 8 74 8 77 9 75 8 76 8 78 9 77 9 76 8 79 7 77 6 78 6 80 7 79 7 78 6 82 0 81 0 0 0 83 0 81 0 82 0 84 0 83 0 82 0 85 0 83 0 84 0 86 0 85 0 84 0 87 0 85 0 86 0 88 0 87 0 86 0 89 0 87 0 88 0 90 0 89 0 88 0 91 0 89 0 90 0 92 0 91 0 90 0 93 0 91 0 92 0 94 1 93 0 92 0 95 1 93 0 94 1 96 2 95 3 94 3 81 0 97 0 0 0 98 0 97 0 81 0 83 0 98 0 81 0 99 0 98 0 83 0 85 0 99 0 83 0 100 0 99 0 85 0 87 0 100 0 85 0 101 0 100 0 87 0 89 0 101 0 87 0 102 0 101 0 89 0 91 0 102 0 89 0 103 0 102 0 91 0 104 0 103 0 91 0 105 0 103 0 104 0 1 0 29 0 0 0 27 0 29 0 1 0 3 0 27 0 1 0 25 0 27 0 3 0 5 0 25 0 3 0 23 0 25 0 5 0 7 0 23 0 5 0 21 0 23 0 7 0 9 0 21 0 7 0 19 0 21 0 9 0 11 0 19 0 9 0 106 1 19 0 11 0 13 1 106 1 11 0 15 2 106 3 13 3 30 0 107 0 0 0 108 0 107 0 30 0 28 0 108 0 30 0 109 0 108 0 28 0 26 0 109 0 28 0 110 0 109 0 26 0 24 0 110 0 26 0 111 0 110 0 24 0 22 0 111 0 24 0 112 0 111 0 22 0 20 0 112 0 22 0 113 0 112 0 20 0 114 0 113 0 20 0 115 0 113 0 114 0 31 0 59 0 0 0 57 0 59 0 31 0 33 0 57 0 31 0 55 0 57 0 33 0 35 0 55 0 33 0 53 0 55 0 35 0 37 0 53 0 35 0 51 0 53 0 37 0 39 0 51 0 37 0 49 0 51 0 39 0 41 0 49 0 39 0 116 1 49 0 41 0 43 1 116 1 41 0 45 4 116 5 43 5 117 0 82 0 0 0 84 0 82 0 117 0 118 0 84 0 117 0 86 0 84 0 118 0 119 0 86 0 118 0 88 0 86 0 119 0 120 0 88 0 119 0 90 0 88 0 120 0 121 0 90 0 120 0 92 0 90 0 121 0 122 0 92 0 121 0 123 1 92 0 122 0 97 0 124 0 0 0 125 0 124 0 97 0 98 0 125 0 97 0 126 0 125 0 98 0 99 0 126 0 98 0 127 0 126 0 99 0 100 0 127 0 99 0 128 0 127 0 100 0 101 0 128 0 100 0 129 0 128 0 101 0 102 0 129 0 101 0 103 0 129 0 102 0 124 0 2 0 0 0 4 0 2 0 124 0 125 0 4 0 124 0 6 0 4 0 125 0 126 0 6 0 125 0 8 0 6 0 126 0 127 0 8 0 126 0 10 0 8 0 127 0 128 0 10 0 127 0 12 0 10 0 128 0 129 0 12 0 128 0 130 0 12 0 129 0 107 0 131 0 0 0 132 0 131 0 107 0 108 0 132 0 107 0 133 0 132 0 108 0 109 0 133 0 108 0 134 0 133 0 109 0 110 0 134 0 109 0 135 0 134 0 110 0 111 0 135 0 110 0 136 0 135 0 111 0 112 0 136 0 111 0 113 0 136 0 112 0 131 0 32 0 0 0 34 0 32 0 131 0 132 0 34 0 131 0 36 0 34 0 132 0 133 0 36 0 132 0 38 0 36 0 133 0 134 0 38 0 133 0 40 0 38 0 134 0 135 0 40 0 134 0 42 0 40 0 135 0 136 0 42 0 135 0 137 0 42 0 136 0 70 8 139 8 138 8 140 8 139 8 70 8 141 8 140 8 70 8 142 8 140 8 141 8 143 8 142 8 141 8 144 8 142 8 143 8 145 8 144 8 143 8 146 9 144 8 145 8 147 9 146 9 145 8 148 7 146 6 147 6 149 7 148 7 147 6 70 8 151 8 150 8 152 8 151 8 70 8 138 8 152 8 70 8 153 8 152 8 138 8 154 8 153 8 138 8 155 8 153 8 154 8 156 8 155 8 154 8 157 9 155 8 156 8 158 9 157 9 156 8 159 7 157 6 158 6 160 7 159 7 158 6 70 8 161 8 72 8 162 8 161 8 70 8 150 8 162 8 70 8 163 8 162 8 150 8 164 8 163 8 150 8 165 8 163 8 164 8 166 8 165 8 164 8 167 9 165 8 166 8 168 9 167 9 166 8 169 7 167 6 168 6 170 7 169 7 168 6 70 8 171 8 141 8 172 8 171 8 70 8 173 8 172 8 70 8 174 8 172 8 173 8 175 8 174 8 173 8 176 8 174 8 175 8 177 8 176 8 175 8 178 9 176 8 177 8 62 9 178 9 177 8 60 7 178 6 62 6 56 0 179 0 58 0 180 0 179 0 56 0 54 0 180 0 56 0 181 0 180 0 54 0 52 0 181 0 54 0 182 0 181 0 52 0 50 0 182 0 52 0 183 0 182 0 50 0 184 0 183 0 50 0 185 0 183 0 184 0 186 0 117 0 0 0 118 0 117 0 186 0 187 0 118 0 186 0 119 0 118 0 187 0 188 0 119 0 187 0 120 0 119 0 188 0 189 0 120 0 188 0 121 0 120 0 189 0 190 0 121 0 189 0 122 0 121 0 190 0 191 0 186 0 0 0 187 0 186 0 191 0 192 0 187 0 191 0 188 0 187 0 192 0 193 0 188 0 192 0 189 0 188 0 193 0 194 0 189 0 193 0 190 0 189 0 194 0 63 6 195 7 61 7 196 6 195 7 63 6 65 8 196 9 63 9 197 8 196 9 65 8 67 8 197 8 65 8 198 8 197 8 67 8 69 8 198 8 67 8 71 8 198 8 69 8 73 8 198 8 71 8 199 8 198 8 73 8 75 8 199 8 73 8 200 9 199 8 75 8 77 9 200 9 75 8 201 7 200 6 77 6 79 7 201 7 77 6 177 8 64 8 62 9 202 8 64 8 177 8 175 8 202 8 177 8 203 8 202 8 175 8 173 8 203 8 175 8 70 8 203 8 173 8 204 0 191 0 0 0 192 0 191 0 204 0 205 0 192 0 204 0 193 0 192 0 205 0 179 0 193 0 205 0 194 0 193 0 179 0 206 0 182 0 183 0 181 0 182 0 206 0 207 0 181 0 206 0 180 0 181 0 207 0 194 0 180 0 207 0 179 0 180 0 194 0 95 1 209 0 208 0 210 1 209 0 95 1 96 2 210 3 95 3 211 3 210 3 96 2 123 3 211 3 96 2 122 0 211 1 123 1 199 8 197 8 198 8 212 9 197 8 199 8 200 9 212 9 199 8 213 7 212 6 200 6 201 7 213 7 200 6 214 8 78 9 76 8 215 9 78 9 214 8 165 8 215 9 214 8 167 9 215 9 165 8 130 0 14 1 12 0 16 1 14 1 130 0 216 0 16 1 130 0 18 0 16 1 216 0 151 8 164 8 150 8 217 8 164 8 151 8 152 8 217 8 151 8 153 8 217 8 152 8 217 8 166 8 164 8 218 8 166 8 217 8 153 8 218 8 217 8 155 8 218 8 153 8 218 8 168 9 166 8 219 9 168 9 218 8 155 8 219 9 218 8 157 9 219 9 155 8 220 0 204 0 0 0 205 0 204 0 220 0 58 0 205 0 220 0 179 0 205 0 58 0 219 6 170 7 168 6 221 7 170 7 219 6 157 6 221 7 219 6 159 7 221 7 157 6 139 8 154 8 138 8 222 8 154 8 139 8 140 8 222 8 139 8 142 8 222 8 140 8 222 8 156 8 154 8 223 8 156 8 222 8 142 8 223 8 222 8 144 8 223 8 142 8 46 1 224 0 48 0 137 0 224 0 46 1 44 1 137 0 46 1 42 0 137 0 44 1 225 7 146 6 148 7 226 6 146 6 225 7 160 7 226 6 225 7 158 6 226 6 160 7 226 9 144 8 146 9 223 8 144 8 226 9 158 9 223 8 226 9 156 8 223 8 158 9 227 8 145 8 143 8 228 8 145 8 227 8 174 8 228 8 227 8 176 8 228 8 174 8 207 0 190 0 194 0 229 0 190 0 207 0 206 0 229 0 207 0 209 0 229 0 206 0 215 6 80 7 78 6 230 7 80 7 215 6 167 6 230 7 215 6 169 7 230 7 167 6 228 8 147 9 145 8 231 9 147 9 228 8 176 8 231 9 228 8 178 9 231 9 176 8 202 8 66 8 64 8 232 8 66 8 202 8 203 8 232 8 202 8 70 8 232 8 203 8 231 6 149 7 147 6 233 7 149 7 231 6 178 6 233 7 231 6 60 7 233 7 178 6 171 8 143 8 141 8 227 8 143 8 171 8 172 8 227 8 171 8 174 8 227 8 172 8 161 8 74 8 72 8 234 8 74 8 161 8 162 8 234 8 161 8 163 8 234 8 162 8 234 8 76 8 74 8 214 8 76 8 234 8 163 8 214 8 234 8 165 8 214 8 163 8 212 9 196 9 197 8 235 7 196 6 212 6 213 7 235 7 212 6 236 3 123 3 96 2 92 0 123 1 236 1 94 1 92 0 236 1 237 5 116 5 45 4 49 0 116 1 237 1 47 1 49 0 237 1 238 3 106 3 15 2 19 0 106 1 238 1 17 1 19 0 238 1 239 0 103 0 105 0 129 0 103 0 239 0 240 0 113 0 115 0 136 0 113 0 240 0 59 0 220 0 0 0 58 0 220 0 59 0 241 0 183 0 185 0 206 0 183 0 241 0 122 0 229 0 211 1 190 0 229 0 122 0 210 1 229 0 209 0 211 1 229 0 210 1 68 8 232 8 70 8 66 8 232 8 68 8 18 0 114 0 20 0 48 0 184 0 50 0 239 0 130 0 129 0 240 0 137 0 136 0 241 0 209 0 206 0 93 0 104 0 91 0 94 3 236 3 96 2 235 7 195 7 196 6 93 0 95 1 208 0 47 5 237 5 45 4 17 3 238 3 15 2</p>
                </polylist>
            </mesh>
        </geometry>
    </library_geometries>
    <library_controllers>
        <controller id="controller0">
            <skin source="#mesh0">
                <bind_shape_matrix>1 0 0 0 0 1 0 0 0 0 1 0 0 0 0 1</bind_shape_matrix>
                <source id="joints0">
                    <Name_array id="JointArr0" count="2">jointnode-1 jointnode0</Name_array>
                    <technique_common>
                        <accessor source="#JointArr0" count="2">
                            <param name="JOINT" type="Name" />
                        </accessor>
                    </technique_common>
                </source>
                <source id="matrices0">
                    <float_array id="MatArr0" count="32">1 0 0 0 0 1 0 0 0 0 1 0 0 0 0 1 0.866033393400969 0.49998616132289364 0 0 -0.49998616132289364 0.866033393400969 0 0 0 0 1 0 0 0 0 1</float_array>
                    <technique_common>
                        <accessor source="#MatArr0" count="2" stride="16">
                            <param type="float4x4" />
                        </accessor>
                    </technique_common>
                </source>
                <source id="weights0">
                    <float_array id="WeightArr0" count="1">1</float_array>
                    <technique_common>
                        <accessor source="#WeightArr0" count="1">
                            <param type="float" />
                        </accessor>
                    </technique_common>
                </source>
                <joints>
                    <input semantic="JOINT" source="#joints0" />
                    <input semantic="INV_BIND_MATRIX" source="#matrices0" />
                </joints>
                <vertex_weights count="242">
                    <input semantic="JOINT" offset="0" source="#joints0" />
                    <input semantic="WEIGHT" offset="1" source="#weights0" />
                    <vcount>1 1 1 1 1 1 1 1 1 1 1 1 1 1 1 1 1 1 1 1 1 1 1 1 1 1 1 1 1 1 1 1 1 1 1 1 1 1 1 1 1 1 1 1 1 1 1 1 1 1 1 1 1 1 1 1 1 1 1 1 1 1 1 1 1 1 1 1 1 1 1 1 1 1 1 1 1 1 1 1 1 1 1 1 1 1 1 1 1 1 1 1 1 1 1 1 1 1 1 1 1 1 1 1 1 1 1 1 1 1 1 1 1 1 1 1 1 1 1 1 1 1 1 1 1 1 1 1 1 1 1 1 1 1 1 1 1 1 1 1 1 1 1 1 1 1 1 1 1 1 1 1 1 1 1 1 1 1 1 1 1 1 1 1 1 1 1 1 1 1 1 1 1 1 1 1 1 1 1 1 1 1 1 1 1 1 1 1 1 1 1 1 1 1 1 1 1 1 1 1 1 1 1 1 1 1 1 1 1 1 1 1 1 1 1 1 1 1 1 1 1 1 1 1 1 1 1 1 1 1 1 1 1 1 1 1 1 1 1 1 1 1</vcount>
                    <v>1 0 1 0 1 0 1 0 1 0 1 0 1 0 1 0 1 0 1 0 1 0 1 0 1 0 1 0 1 0 1 0 1 0 1 0 1 0 1 0 1 0 1 0 1 0 1 0 1 0 1 0 1 0 1 0 1 0 1 0 1 0 1 0 1 0 1 0 1 0 1 0 1 0 1 0 1 0 1 0 1 0 1 0 1 0 1 0 1 0 1 0 1 0 1 0 1 0 1 0 1 0 1 0 1 0 1 0 1 0 1 0 1 0 1 0 1 0 1 0 1 0 1 0 1 0 1 0 1 0 1 0 1 0 1 0 1 0 1 0 1 0 1 0 1 0 1 0 1 0 1 0 1 0 1 0 1 0 1 0 1 0 1 0 1 0 1 0 1 0 1 0 1 0 1 0 1 0 1 0 1 0 1 0 1 0 1 0 1 0 1 0 1 0 1 0 1 0 1 0 1 0 1 0 1 0 1 0 1 0 1 0 1 0 1 0 1 0 1 0 1 0 1 0 1 0 1 0 1 0 1 0 1 0 1 0 1 0 1 0 1 0 1 0 1 0 1 0 1 0 1 0 1 0 1 0 1 0 1 0 1 0 1 0 1 0 1 0 1 0 1 0 1 0 1 0 1 0 1 0 1 0 1 0 1 0 1 0 1 0 1 0 1 0 1 0 1 0 1 0 1 0 1 0 1 0 1 0 1 0 1 0 1 0 1 0 1 0 1 0 1 0 1 0 1 0 1 0 1 0 1 0 1 0 1 0 1 0 1 0 1 0 1 0 1 0 1 0 1 0 1 0 1 0 1 0 1 0 1 0 1 0 1 0 1 0 1 0 1 0 1 0 1 0 1 0 1 0 1 0 1 0 1 0 1 0 1 0 1 0 1 0 1 0 1 0 1 0 1 0 1 0 1 0 1 0 1 0 1 0 1 0 1 0 1 0 1 0 1 0 1 0 1 0 1 0 1 0 1 0 1 0 1 0 1 0 1 0 1 0 1 0 1 0 1 0 1 0 1 0 1 0 1 0 1 0 1 0 1 0 1 0 1 0 1 0 1 0 1 0 1 0 1 0 1 0 1 0 1 0 1 0 1 0</v>
                </vertex_weights>
            </skin>
        </controller>
        <controller id="controller0_VC">
            <skin source="#mesh0_VC">
                <bind_shape_matrix>1 0 0 0 0 1 0 0 0 0 1 0 0 0 0 1</bind_shape_matrix>
                <source id="joints0_VC">
                    <Name_array id="JointArr0_VC" count="2">jointnode-1 jointnode0</Name_array>
                    <technique_common>
                        <accessor source="#JointArr0_VC" count="2">
                            <param name="JOINT" type="Name" />
                        </accessor>
                    </technique_common>
                </source>
                <source id="matrices0_VC">
                    <float_array id="MatArr0_VC" count="32">1 0 0 0 0 1 0 0 0 0 1 0 0 0 0 1 0.866033393400969 0.49998616132289364 0 0 -0.49998616132289364 0.866033393400969 0 0 0 0 1 0 0 0 0 1</float_array>
                    <technique_common>
                        <accessor source="#MatArr0_VC" count="2" stride="16">
                            <param type="float4x4" />
                        </accessor>
                    </technique_common>
                </source>
                <source id="weights0_VC">
                    <float_array id="WeightArr0_VC" count="1">1</float_array>
                    <technique_common>
                        <accessor source="#WeightArr0_VC" count="1">
                            <param type="float" />
                        </accessor>
                    </technique_common>
                </source>
                <joints>
                    <input semantic="JOINT" source="#joints0_VC" />
                    <input semantic="INV_BIND_MATRIX" source="#matrices0_VC" />
                </joints>
                <vertex_weights count="242">
                    <input semantic="JOINT" offset="0" source="#joints0_VC" />
                    <input semantic="WEIGHT" offset="1" source="#weights0_VC" />
                    <vcount>1 1 1 1 1 1 1 1 1 1 1 1 1 1 1 1 1 1 1 1 1 1 1 1 1 1 1 1 1 1 1 1 1 1 1 1 1 1 1 1 1 1 1 1 1 1 1 1 1 1 1 1 1 1 1 1 1 1 1 1 1 1 1 1 1 1 1 1 1 1 1 1 1 1 1 1 1 1 1 1 1 1 1 1 1 1 1 1 1 1 1 1 1 1 1 1 1 1 1 1 1 1 1 1 1 1 1 1 1 1 1 1 1 1 1 1 1 1 1 1 1 1 1 1 1 1 1 1 1 1 1 1 1 1 1 1 1 1 1 1 1 1 1 1 1 1 1 1 1 1 1 1 1 1 1 1 1 1 1 1 1 1 1 1 1 1 1 1 1 1 1 1 1 1 1 1 1 1 1 1 1 1 1 1 1 1 1 1 1 1 1 1 1 1 1 1 1 1 1 1 1 1 1 1 1 1 1 1 1 1 1 1 1 1 1 1 1 1 1 1 1 1 1 1 1 1 1 1 1 1 1 1 1 1 1 1 1 1 1 1 1 1</vcount>
                    <v>1 0 1 0 1 0 1 0 1 0 1 0 1 0 1 0 1 0 1 0 1 0 1 0 1 0 1 0 1 0 1 0 1 0 1 0 1 0 1 0 1 0 1 0 1 0 1 0 1 0 1 0 1 0 1 0 1 0 1 0 1 0 1 0 1 0 1 0 1 0 1 0 1 0 1 0 1 0 1 0 1 0 1 0 1 0 1 0 1 0 1 0 1 0 1 0 1 0 1 0 1 0 1 0 1 0 1 0 1 0 1 0 1 0 1 0 1 0 1 0 1 0 1 0 1 0 1 0 1 0 1 0 1 0 1 0 1 0 1 0 1 0 1 0 1 0 1 0 1 0 1 0 1 0 1 0 1 0 1 0 1 0 1 0 1 0 1 0 1 0 1 0 1 0 1 0 1 0 1 0 1 0 1 0 1 0 1 0 1 0 1 0 1 0 1 0 1 0 1 0 1 0 1 0 1 0 1 0 1 0 1 0 1 0 1 0 1 0 1 0 1 0 1 0 1 0 1 0 1 0 1 0 1 0 1 0 1 0 1 0 1 0 1 0 1 0 1 0 1 0 1 0 1 0 1 0 1 0 1 0 1 0 1 0 1 0 1 0 1 0 1 0 1 0 1 0 1 0 1 0 1 0 1 0 1 0 1 0 1 0 1 0 1 0 1 0 1 0 1 0 1 0 1 0 1 0 1 0 1 0 1 0 1 0 1 0 1 0 1 0 1 0 1 0 1 0 1 0 1 0 1 0 1 0 1 0 1 0 1 0 1 0 1 0 1 0 1 0 1 0 1 0 1 0 1 0 1 0 1 0 1 0 1 0 1 0 1 0 1 0 1 0 1 0 1 0 1 0 1 0 1 0 1 0 1 0 1 0 1 0 1 0 1 0 1 0 1 0 1 0 1 0 1 0 1 0 1 0 1 0 1 0 1 0 1 0 1 0 1 0 1 0 1 0 1 0 1 0 1 0 1 0 1 0 1 0 1 0 1 0 1 0 1 0 1 0 1 0 1 0 1 0 1 0 1 0 1 0 1 0 1 0 1 0 1 0 1 0 1 0 1 0 1 0 1 0 1 0 1 0 1 0 1 0</v>
                </vertex_weights>
            </skin>
        </controller>
    </library_controllers>
    <library_visual_scenes>
        <visual_scene id="VisualSceneNode">
            <node id="node0" name="m0" type="NODE">
                <instance_controller url="#controller0">
                    <skeleton>#jointnode-1</skeleton>
                    <bind_material>
                        <technique_common>
                            <instance_material symbol="Material1" target="#mat0">
                                <bind_vertex_input semantic="UVSET0" input_semantic="TEXCOORD" input_set="0"></bind_vertex_input>
                            </instance_material>
                        </technique_common>
                    </bind_material>
                </instance_controller>
            </node>
            <node id="node0_VC" name="m0_VC" type="NODE">
                <instance_controller url="#controller0_VC">
                    <skeleton>#jointnode-1</skeleton>
                    <bind_material>
                        <technique_common>
                            <instance_material symbol="Material1" target="#mat_vc">
                                <bind_vertex_input semantic="UVSET0" input_semantic="TEXCOORD" input_set="0"></bind_vertex_input>
                            </instance_material>
                        </technique_common>
                    </bind_material>
                </instance_controller>
            </node>
            <node id="jointnode-1" name="root" sid="jointnode-1" type="JOINT">
                <node id="jointnode0" name="AstroDomeCometBloom" sid="jointnode0" type="JOINT">
                    <rotate>0 0 1 29.99908444471572</rotate>
                </node>
            </node>
        </visual_scene>
    </library_visual_scenes>
    <scene>
        <instance_visual_scene url="#VisualSceneNode"></instance_visual_scene>
    </scene>
</COLLADA>
