<?xml version="1.0"?>
<COLLADA xmlns="http://www.collada.org/2005/11/COLLADASchema" version="1.4.1">
    <asset>
        <contributor>
            <authoring_tool>J3D Ripoff Exporter</authoring_tool>
        </contributor>
        <created>2024-07-13T00:02:43.629Z</created>
        <modified>2024-07-13T00:02:43.629Z</modified>
		<unit meter="0.01" name="centimeter" ></unit>
        <up_axis>Y_UP</up_axis>
    </asset>
    <library_images>
    </library_images>
    <library_effects>
        <effect id="effect0">
            <profile_COMMON>
                <technique sid="COMMON">
                    <blinn>
                        <diffuse>
                            <color>1 1 1 1</color>
                        </diffuse>
                    </blinn>
                </technique>
            </profile_COMMON>
        </effect>
    </library_effects>
    <library_materials>
        <material id="mat0" name="CometMat_v">
            <instance_effect url="#effect0"></instance_effect>
        </material>
    </library_materials>
    <library_geometries>
        <geometry id="mesh0">
            <mesh>
                <source id="points0">
                    <float_array id="pointarray0" count="726">-1312.16459570514 2275.8197037063296 -8 -1496.8800953891412 2225.757900138242 -75.5 -1507.272496109953 2219.758066202367 -8 -1713.1171776610029 2249.2956198780985 -8 -1694.0644430061816 2260.2953154272022 115 -1891.2358693010176 2361.8122039377354 159 -1818.0560475586358 2404.06103456952 306 -1991.193156172183 2567.950605991685 367.5 -1860.5560526978813 2645.6805692995663 495 -2013.3014311730922 2854.2515388865745 543.5 -1840.3447455735597 2954.6817878478532 618 -2703.866780393526 3999.388538749936 721.5 -2343.597282547656 4263.385013957248 740 -3033.34292639895 5014.09131257753 661.5 -3007.027077273809 5023.5107650469035 410.5 -3969.710329447119 6066.971332574502 440.5 -3112.977659389492 4945.022077012591 337.5 -3207.241360340953 4888.291532480271 274 -2681.7642564661064 3896.1026324701443 388 -2903.7956946332856 3911.676343184491 441.5 -2467.6738230304773 3154.2631711907216 477.5 -2148.750802997893 2770.85658896593 411.5 -2276.155881201424 2691.528497800491 220.5 -2078.4616205118136 2514.103924275885 190 -2110.7057644615165 2498.9525157291255 -11.5 -1916.783854406346 2347.06261217871 -8 -1891.2358693010176 2361.8122039377354 -175 -1694.0644430061816 2260.2953154272022 -131.5 -1639.937355918621 2291.544450509883 -240 -1467.001943316808 2243.0074227038817 -135 -1421.535190163257 2269.2566961733337 -179 -1205.4598585097153 2394.0032434233954 -135 -1250.9266116632662 2367.7539699539434 -179 -1244.5931118310789 2519.7881331537837 -320.5 -1346.3520355556927 2461.0397591983437 -363.5 -1420.546719987591 2633.554682616728 -489.5 -1567.3393801690552 2548.8070282724975 -489.5 -1698.040852505955 2737.1959215994843 -579.5 -1860.5560526978813 2645.6805692995663 -511.5 -2015.0334979598942 2853.2515665639285 -559 -2156.013917468213 2772.436832045659 -423.5 -2807.1747472889024 3940.3232022492125 -664.5 -3036.1740041877692 3862.9630682022316 -299 -3378.2072405885747 4814.413810593655 -443.5 -3199.469514224863 4911.830827455859 -293 -3781.348066382408 6175.718322662232 -573.5 -3080.251414056295 4963.338541365499 -370.5 -2983.8047448435036 5017.287962101577 -434 -2489.803920898547 4004.617514255041 -534 -2515.379717692951 4135.9201365378085 -723.5 -2111.917121958718 3359.074473717069 -744.5 -1843.6570554400907 2946.418701054888 -631.5 -1632.0100601271424 3062.835192047362 -666 -1519.437065071488 2836.8449914098132 -579 -1354.2255953257704 2935.690427644673 -509.5 -1282.4143937401363 2713.3024753477293 -431.5 -1169.8300525980105 2778.300676319706 -322 -1161.4539060645857 2567.7868046407816 -240 -1106.8938022803247 2599.285932804124 -131.5 -1176.0147231340823 2411.002772908374 -75.5 -2013.4102333878773 4360.481680054277 -258.5 -1893.3569059259412 4349.540996103215 119.5 -2413.9806146300753 5212.319909808894 -195 -2385.151519567182 5228.38643643585 -6 -3043.8006396607348 6043.23325431022 -145.5 -3022.582821522411 6055.482915262632 -5.5 -3720.9055203009966 7020.051164984025 -108.5 -3704.633909442418 7028.867892271797 -4 -4885.823010069745 8872.817338042805 -78.5 -4874.564575955532 8879.317158140002 -4 -6646.083934162392 11515.779970981928 -9 -4886.256026766446 8872.567344962143 69.5 -4918.732279018982 8853.817863912534 135 -3766.555297070587 6993.11888173721 192 -3836.7040019360657 6952.620002670056 260 -3199.686650472909 5953.2357452721 348 -3315.0521154112766 5886.054576038793 396.5 -2774.866546597618 5003.392663840547 530 -2940.9619345145647 4908.078330643913 530 -2391.250785991361 4142.920730414196 493 -2681.7642564661064 3896.1026324701443 388 -1421.535190163257 2269.2566961733337 162.5 -1365.6760362888945 2301.50580357866 186 -1454.6062097308138 2398.541489032982 347 -1346.3520355556927 2461.0397591983437 347 -1420.546719987591 2633.554682616728 473 -1282.4143937401363 2713.3024753477293 415 -1359.4217956861762 2932.690510676736 496 -1221.9545944382553 3008.590237824227 364.5 -1289.993839198382 3261.4457522439675 421.5 -1213.8677548215474 3310.5916501139936 195 -1372.8245901556138 3786.9286888802208 221 -1834.6774704797895 4528.9092593376035 249.5 -1893.3569059259412 4349.540996103215 119.5 -2561.613465560531 5261.031215746488 136 -2562.6134378831766 5262.763282533289 9 -3107.574086316454 6564.707556171444 110 -1467.001943316808 2243.0074227038817 118.5 -1556.798150152128 2339.543121996881 304.5 -1567.3393801690552 2548.8070282724975 473 -1521.9369958781024 2841.1751583768178 564 -1470.6466559649346 3162.3457532817556 549.5 -1480.8778559368675 3721.0823392926723 475 -2122.6979426482094 4628.7827173326095 481 -1707.755912834978 4172.062768245124 178.5 -2010.1515778548312 4380.83803444589 329 -3271.7787329271537 4855.073652661264 678.5 -1365.6760362888945 2301.50580357866 -202.5 -1556.798150152128 2339.543121996881 -320.5 -1818.0560475586358 2404.06103456952 -322 -2082.2606014085295 2517.6841120009053 -207 -2285.0840929939236 2690.9927420835115 -22 -2591.56568297361 3079.850087396061 250 -3486.416899723592 4769.838933477915 159.5 -2619.372113540914 3644.0282972013547 432.5 -2796.581438174224 3942.974956762899 157 -3260.7702918936025 4862.006489455162 -695 -1306.7857655376285 2335.504862548617 186 -1244.5931118310789 2519.7881331537837 304.5 -1169.8300525980105 2778.300676319706 306 -1134.6861300986247 3062.436919540027 187 -1185.8065237784665 3331.9883160305994 -8.5 -1712.0755213333773 4572.555703242011 -84 -2229.3245203530487 5457.490007590729 -10 -1496.8800953891412 2225.757900138242 59 -1639.937355918621 2291.544450509883 223.5 -1705.4717064165097 2469.059235541496 415 -1696.4427246483976 2740.427946870255 564 -1649.8173990253467 3064.67874333889 620.5 -1675.6862847652912 3611.500515720508 639 -2186.1252775822622 4177.63061085059 565 -1306.7857655376285 2335.504862548617 -202.5 -1454.6062097308138 2398.541489032982 -363.5 -1705.4717064165097 2469.059235541496 -431.5 -1994.7912286750316 2568.1827142945176 -381.5 -2252.75966444846 2716.005365280794 -235.5 -2628.506041122396 3060.832728487963 -33 -2868.1265748855253 3783.8915088088115 -127 -5239.16463457734 8668.822984223065 69.5 -5250.4230686915525 8662.323164125866 -4 -5239.16463457734 8668.822984223065 -78.5 -5206.688382324804 8687.572465272673 -144 -4171.42590848554 6759.375351318758 -200.5 -4101.094180004022 6800.557240163274 -268.5 -3553.461291677205 5748.991398371697 -360 -3437.8458336581753 5815.7395509083035 -408.5 -2940.711941433903 4907.645313947213 -546.5 -2776.5986133844194 5002.392691517902 -546.5 -2336.351659046231 4209.83362798008 -494 -1917.0860009573507 4050.6331005082834 -516.5 -5094.970074576079 8752.070680083327 209 -5156.458445507547 8716.571662629402 183.5 -5206.688382324804 8687.572465272673 135 -4217.325678335791 6732.876084768644 100 -4233.3472961137095 6723.626340784171 -4 -3730.565120627703 5646.744228381166 -5.5 -3709.347302489379 5658.993889333577 -145.5 -3304.0129499656096 4697.90111927226 -193 -3221.556753976479 4746.082814375296 -359.5 -2765.926282788697 3924.8776793906204 -258.5 -2489.803920898547 4004.617514255041 -534 -4968.962215836238 8824.818666555808 183.5 -5030.017570071006 8789.569642182543 209 -4014.6738642799646 6849.872846518201 296.5 -4100.844186923361 6800.124223466573 260 -3553.211298596543 5748.558381674997 348 -3647.6089384772486 5694.059890090802 257 -3221.0567678151556 4745.216780981895 343 -3303.579933268909 4698.151112352921 178.5 -2796.581438174224 3942.974956762899 157 -2766.2317431870006 3560.3966693311863 -76.5 -5156.458445507547 8716.571662629402 -192.5 -5094.970074576079 8752.070680083327 -218 -5030.017570071006 8789.569642182543 -218 -3923.5573343568235 6903.054403234468 -305 -3836.953995016727 6953.053019366757 -268.5 -3199.686650472909 5953.2357452721 -360 -3105.2890105922033 6007.734236856295 -268.5 -2497.552837093269 5164.071245241235 -361 -1096.217214158928 2820.7995000321516 -175 -1223.5884918514687 3013.4203909525545 -381.5 -1449.61186144265 3173.9124044568043 -551.5 -1866.6957326969991 3498.338504423323 -749 -2627.9520811912466 4906.924327821104 -644 -2365.825237668297 3793.8723218911496 -618.5 -2336.351659046231 4209.83362798008 -494 -1250.9266116632662 2367.7539699539434 162.5 -1161.4539060645857 2567.7868046407816 223.5 -1096.217214158928 2820.7995000321516 159 -1105.8079503489369 3081.418508892468 -8 -1216.8007023248622 3314.6718240003365 -218.5 -1205.4598585097153 2394.0032434233954 118.5 -1106.8938022803247 2599.285932804124 115 -1070.6692290535996 2835.549091791177 -8 -1136.119119117971 3063.918993246167 -207 -1707.755912834978 4172.062768245124 178.5 -2413.480628468752 5211.453876415493 178.5 -3043.8006396607348 6043.23325431022 134 -3720.6555272203354 7019.6181482873235 100 -3105.2890105922033 6007.734236856295 257 -2621.761659581685 5091.207204617337 465 -2186.1252775822622 4177.63061085059 565 -3766.8052901512483 6993.551898433911 -200.5 -4968.962215836238 8824.818666555808 -192.5 -1176.0147231340823 2411.002772908374 59 -1088.2740843222039 2610.035635272566 -8 -1649.0222731859003 3626.317076944156 -651.5 -1309.649299034805 3260.4902949614257 -410 -2013.4102333878773 4360.481680054277 -258.5 -2009.954451489788 4280.493821153861 -462.5 -2572.028320705861 5274.070801334296 -141 -2374.907554333552 5393.647778486227 -242.5 -2496.003793922506 5164.388207786519 343 -1999.359173330443 4003.134415182609 559.5 -3437.5958405775136 5815.306534211603 396.5 -3096.5979522460775 4817.647804909093 464 -2391.250785991361 4142.920730414196 493 -4171.42590848554 6759.375351318758 192 -3709.347302489379 5658.993889333577 134 -3331.9090421704796 4681.218552332564 -8 -1165.6223224132707 2417.0026068442485 -8 -2868.1265748855253 3783.8915088088115 -127 -4217.325678335791 6732.876084768644 -108.5 -3647.85893155791 5694.492906787502 -268.5 -2765.926282788697 3924.8776793906204 -258.5 -2365.825237668297 3793.8723218911496 -618.5 -3093.8168284498356 4819.830773170423 -482.5 -4014.923857360626 6850.305863214902 -305 -3315.3021084919383 5886.487592735493 -408.5 -1911.4466192405725 4512.878108457372 -472 -2619.372113540914 3644.0282972013547 432.5 -2622.0116526623465 5091.640221314038 -481.5 -4918.732279018982 8853.817863912534 -144 -2009.954451489788 4280.493821153861 -462.5 -3923.3073412761623 6902.621386537767 296.5 -2010.1515778548312 4380.83803444589 329 -2371.5682203958127 5367.863115431375 234.5 -3003.3395808818195 5003.123210746325 -672.5 -3373.7518801767724 4788.6961170034265 412 -1999.359173330443 4003.134415182609 559.5 -2766.2317431870006 3560.3966693311863 -76.5 -1917.0860009573507 4050.6331005082834 -516.5</float_array>
                    <technique_common>
                        <accessor count="242" source="#pointarray0" stride="3">
                            <param name="X" type="float"/>
                            <param name="Y" type="float"/>
                            <param name="Z" type="float"/>
                        </accessor>
                    </technique_common>
                </source>
                <source id="uvs0">
                    <float_array id="uvarray0" count="510">0.4166259765625 0 0.38885498046875 0.0833740234375 0.44439697265625 0.0833740234375 0.44439697265625 0.16668701171875 0.5 0.16668701171875 0.5 0.25 0.5555419921875 0.25 0.5555419921875 0.3333740234375 0.611083984375 0.3333740234375 0.611083984375 0.41668701171875 0.6666259765625 0.41668701171875 0.6666259765625 0.4583740234375 0.72216796875 0.5 0.69439697265625 0.5 0.69439697265625 0.54168701171875 0.6666259765625 0.5 0.6666259765625 0.54168701171875 0.63885498046875 0.54168701171875 0.611083984375 0.5833740234375 0.611083984375 0.5 0.5555419921875 0.5 0.5555419921875 0.41668701171875 0.5 0.41668701171875 0.5 0.3333740234375 0.44439697265625 0.3333740234375 0.44439697265625 0.25 0.38885498046875 0.25 0.38885498046875 0.16668701171875 0.33331298828125 0.16668701171875 0.33331298828125 0.0833740234375 0.27777099609375 0.0833740234375 0.30548095703125 0 0.08514404296875 0 0.0555419921875 0.0833740234375 0.111083984375 0.0833740234375 0.111083984375 0.16668701171875 0.1666259765625 0.16668701171875 0.1666259765625 0.25 0.22216796875 0.25 0.22216796875 0.3333740234375 0.27777099609375 0.3333740234375 0.27777099609375 0.41668701171875 0.33331298828125 0.41668701171875 0.33331298828125 0.4583740234375 0.38885498046875 0.5 0.361083984375 0.5 0.361083984375 0.54168701171875 0.33331298828125 0.5 0.33331298828125 0.54168701171875 0.3055419921875 0.54168701171875 0.27777099609375 0.5833740234375 0.27777099609375 0.5 0.22216796875 0.5 0.22216796875 0.41668701171875 0.1666259765625 0.41668701171875 0.1666259765625 0.3333740234375 0.111083984375 0.3333740234375 0.111083984375 0.25 0.0555419921875 0.25 0.0555419921875 0.16668701171875 0 0.16668701171875 0 0.0833740234375 1 0.5833740234375 0.94439697265625 0.5833740234375 1 0.66668701171875 0.94439697265625 0.66668701171875 1 0.75 0.94439697265625 0.75 1 0.8333740234375 0.94439697265625 0.8333740234375 1 0.91668701171875 0.94439697265625 0.91668701171875 0.5 1 0.88885498046875 0.91668701171875 0.83331298828125 0.91668701171875 0.83331298828125 0.8333740234375 0.77777099609375 0.8333740234375 0.77777099609375 0.75 0.72216796875 0.75 0.72216796875 0.66668701171875 0.6666259765625 0.66668701171875 0.6666259765625 0.5833740234375 0.63885498046875 0 0.611083984375 0.0833740234375 0.6666259765625 0.0833740234375 0.6666259765625 0.16668701171875 0.72216796875 0.16668701171875 0.72216796875 0.25 0.77777099609375 0.25 0.77777099609375 0.3333740234375 0.83331298828125 0.3333740234375 0.83331298828125 0.41668701171875 0.88885498046875 0.41668701171875 0.88885498046875 0.5 0.94439697265625 0.5 0.97216796875 0.54168701171875 1 0.54168701171875 1 0.5 0.58331298828125 0 0.5555419921875 0.0833740234375 0.611083984375 0.16668701171875 0.6666259765625 0.25 0.72216796875 0.3333740234375 0.77777099609375 0.41668701171875 0.83331298828125 0.4583740234375 0.83331298828125 0.5 0.88885498046875 0.5833740234375 0.83331298828125 0.5833740234375 0.3629150390625 0 0.6666259765625 0.47918701171875 0.25177001953125 0 0.22216796875 0.0833740234375 0.27777099609375 0.16668701171875 0.33331298828125 0.25 0.38885498046875 0.3333740234375 0.44439697265625 0.41668701171875 0.5 0.4583740234375 0.5 0.5 0.5555419921875 0.5833740234375 0.5 0.5833740234375 0.0277099609375 0 0.33331298828125 0.47918701171875 0.6944580078125 0 0.72216796875 0.0833740234375 0.77777099609375 0.16668701171875 0.83331298828125 0.25 0.88885498046875 0.3333740234375 0.94439697265625 0.41668701171875 1 0.4583740234375 1 0.47918701171875 0.52777099609375 0 0.5 0.0833740234375 0.5555419921875 0.16668701171875 0.611083984375 0.25 0.6666259765625 0.3333740234375 0.72216796875 0.41668701171875 0.77777099609375 0.5 0.47216796875 0 0.72216796875 0.5833740234375 0.19439697265625 0 0.1666259765625 0.0833740234375 0.22216796875 0.16668701171875 0.27777099609375 0.25 0.33331298828125 0.3333740234375 0.38885498046875 0.41668701171875 0.44439697265625 0.5 0.13885498046875 0 0.38885498046875 0.5833740234375 0.5 0.91668701171875 0.44439697265625 0.91668701171875 0.38885498046875 0.91668701171875 0.33331298828125 0.91668701171875 0.33331298828125 0.8333740234375 0.27777099609375 0.8333740234375 0.27777099609375 0.75 0.22216796875 0.75 0.22216796875 0.66668701171875 0.1666259765625 0.66668701171875 0.1666259765625 0.5833740234375 0.111083984375 0.5833740234375 0.6666259765625 0.91668701171875 0.611083984375 0.91668701171875 0.5555419921875 0.91668701171875 0.5 0.8333740234375 0.44439697265625 0.8333740234375 0.44439697265625 0.75 0.38885498046875 0.75 0.38885498046875 0.66668701171875 0.33331298828125 0.66668701171875 0.33331298828125 0.5833740234375 0.77777099609375 0.91668701171875 0.72216796875 0.91668701171875 0.6666259765625 0.8333740234375 0.611083984375 0.8333740234375 0.611083984375 0.75 0.5555419921875 0.75 0.5555419921875 0.66668701171875 0.5 0.66668701171875 0.44439697265625 0.5833740234375 0.27777099609375 0.91668701171875 0.22216796875 0.91668701171875 0.1666259765625 0.91668701171875 0.1666259765625 0.8333740234375 0.111083984375 0.8333740234375 0.111083984375 0.75 0.0555419921875 0.75 0.0555419921875 0.66668701171875 0 0.66668701171875 0 0.5833740234375 0 0.25 0.0555419921875 0.3333740234375 0.111083984375 0.41668701171875 0.1666259765625 0.4583740234375 0.1666259765625 0.5 0.22216796875 0.5833740234375 0.75 0 0.77777099609375 0.0833740234375 0.83331298828125 0.16668701171875 0.88885498046875 0.25 0.94439697265625 0.3333740234375 1 0.41668701171875 0.8055419921875 0 0.83331298828125 0.0833740234375 0.88885498046875 0.16668701171875 0.94439697265625 0.25 1 0.3333740234375 0.88885498046875 0.66668701171875 0.88885498046875 0.75 0.88885498046875 0.8333740234375 0.83331298828125 0.75 0.77777099609375 0.66668701171875 0 0.75 0.0555419921875 0.8333740234375 0.111083984375 0.91668701171875 0.86297607421875 0 0.88885498046875 0.0833740234375 0.94439697265625 0.16668701171875 1 0.25 0.111083984375 0.5 0.0555419921875 0.41668701171875 0 0.3333740234375 0.0555419921875 0.5833740234375 0 0.54168701171875 0.02777099609375 0.54168701171875 0 0.5 0.02777099609375 0.5 0 0.47918701171875 0 0.4583740234375 0.83331298828125 0.66668701171875 0.77777099609375 0.5833740234375 0.6666259765625 0.75 0.611083984375 0.66668701171875 0.5555419921875 0.8333740234375 0.5 0.75 0.44439697265625 0.66668701171875 0.914794921875 0 0.94439697265625 0.0833740234375 1 0.16668701171875 0.38885498046875 0.8333740234375 0.33331298828125 0.75 0.27777099609375 0.66668701171875 0.22216796875 0.8333740234375 0.1666259765625 0.75 0 0.41668701171875 0.0555419921875 0.5 0.111083984375 0.66668701171875 0 0.8333740234375 0.0555419921875 0.91668701171875 0.72216796875 0.8333740234375 0.97216796875 0.5 0.3055419921875 0.5 0.63885498046875 0.5 0.97406005859375 0 1 0.0833740234375 0 0.91668701171875</float_array>
                    <technique_common>
                        <accessor count="255" source="#uvarray0" stride="2">
                            <param name="S" type="float"/>
                            <param name="T" type="float"/>
                        </accessor>
                    </technique_common>
                </source>
                <source id="colors0">
                    <float_array id="colorarray0" count="24">1 1 1 1 0.5176470588235295 0.5176470588235295 0.5176470588235295 1 0.6862745098039216 0.6862745098039216 0.6862745098039216 1 0.22745098039215686 0.22745098039215686 0.22745098039215686 1 0.5843137254901961 0.5843137254901961 0.5843137254901961 1 0.7647058823529411 0.7647058823529411 0.7647058823529411 1</float_array>
                    <technique_common>
                        <accessor count="6" source="#colorarray0" stride="4">
                            <param name="R" type="float"/>
                            <param name="G" type="float"/>
                            <param name="B" type="float"/>
                            <param name="A" type="float"/>
                        </accessor>
                    </technique_common>
                </source>
                <vertices id="vertices0">
                    <input semantic="POSITION" source="#points0"/>
                </vertices>
                <polylist count="444" material="Material1">
                    <input offset="0" semantic="VERTEX" source="#vertices0"/>
                    <input offset="1" semantic="TEXCOORD" source="#uvs0" set="0"/>
                    <input offset="2" semantic="COLOR" source="#colors0" set="0"/>
                    <vcount>3 3 3 3 3 3 3 3 3 3 3 3 3 3 3 3 3 3 3 3 3 3 3 3 3 3 3 3 3 3 3 3 3 3 3 3 3 3 3 3 3 3 3 3 3 3 3 3 3 3 3 3 3 3 3 3 3 3 3 3 3 3 3 3 3 3 3 3 3 3 3 3 3 3 3 3 3 3 3 3 3 3 3 3 3 3 3 3 3 3 3 3 3 3 3 3 3 3 3 3 3 3 3 3 3 3 3 3 3 3 3 3 3 3 3 3 3 3 3 3 3 3 3 3 3 3 3 3 3 3 3 3 3 3 3 3 3 3 3 3 3 3 3 3 3 3 3 3 3 3 3 3 3 3 3 3 3 3 3 3 3 3 3 3 3 3 3 3 3 3 3 3 3 3 3 3 3 3 3 3 3 3 3 3 3 3 3 3 3 3 3 3 3 3 3 3 3 3 3 3 3 3 3 3 3 3 3 3 3 3 3 3 3 3 3 3 3 3 3 3 3 3 3 3 3 3 3 3 3 3 3 3 3 3 3 3 3 3 3 3 3 3 3 3 3 3 3 3 3 3 3 3 3 3 3 3 3 3 3 3 3 3 3 3 3 3 3 3 3 3 3 3 3 3 3 3 3 3 3 3 3 3 3 3 3 3 3 3 3 3 3 3 3 3 3 3 3 3 3 3 3 3 3 3 3 3 3 3 3 3 3 3 3 3 3 3 3 3 3 3 3 3 3 3 3 3 3 3 3 3 3 3 3 3 3 3 3 3 3 3 3 3 3 3 3 3 3 3 3 3 3 3 3 3 3 3 3 3 3 3 3 3 3 3 3 3 3 3 3 3 3 3 3 3 3 3 3 3 3 3 3 3 3 3 3 3 3 3 3 3 3 3 3 3 3 3 3 3 3 3 3 3 3 3 3 3 3 3 3 3 3 3 3 3 3 3 3 3 3 3 3 3 3 3 3 3 3 3 3 3 3 3 3 3 3 3 3 3 3 3 3 3 3 3</vcount>
                    <p>2 2 0 1 1 0 0 0 0 3 3 0 1 1 0 2 2 0 4 4 0 3 3 0 2 2 0 5 5 0 3 3 0 4 4 0 6 6 0 5 5 0 4 4 0 7 7 0 5 5 0 6 6 0 8 8 0 7 7 0 6 6 0 9 9 0 7 7 0 8 8 0 10 10 0 9 9 0 8 8 0 11 11 0 9 9 0 10 10 0 12 12 0 11 11 0 10 10 0 13 13 1 11 11 0 12 12 0 14 14 1 13 13 1 12 12 0 15 15 2 13 13 1 14 14 1 16 16 1 15 15 2 14 14 1 17 17 1 15 15 2 16 16 1 18 18 0 17 17 1 16 16 1 19 19 0 17 17 1 18 18 0 20 20 0 19 19 0 18 18 0 21 21 0 19 19 0 20 20 0 22 22 0 21 21 0 20 20 0 23 23 0 21 21 0 22 22 0 24 24 0 23 23 0 22 22 0 25 25 0 23 23 0 24 24 0 26 26 0 25 25 0 24 24 0 27 27 0 25 25 0 26 26 0 28 28 0 27 27 0 26 26 0 29 29 0 27 27 0 28 28 0 30 30 0 29 29 0 28 28 0 0 31 0 29 29 0 30 30 0 32 34 0 31 33 0 0 32 0 33 35 0 31 33 0 32 34 0 34 36 0 33 35 0 32 34 0 35 37 0 33 35 0 34 36 0 36 38 0 35 37 0 34 36 0 37 39 0 35 37 0 36 38 0 38 40 0 37 39 0 36 38 0 39 41 0 37 39 0 38 40 0 40 42 0 39 41 0 38 40 0 41 43 0 39 41 0 40 42 0 42 44 0 41 43 0 40 42 0 43 45 1 41 43 0 42 44 0 44 46 1 43 45 1 42 44 0 45 47 3 43 45 1 44 46 1 46 48 1 45 47 3 44 46 1 47 49 1 45 47 3 46 48 1 48 50 0 47 49 1 46 48 1 49 51 0 47 49 1 48 50 0 50 52 0 49 51 0 48 50 0 51 53 0 49 51 0 50 52 0 52 54 0 51 53 0 50 52 0 53 55 0 51 53 0 52 54 0 54 56 0 53 55 0 52 54 0 55 57 0 53 55 0 54 56 0 56 58 0 55 57 0 54 56 0 57 59 0 55 57 0 56 58 0 58 60 0 57 59 0 56 58 0 59 61 0 57 59 0 58 60 0 62 64 5 61 63 4 60 62 4 63 65 5 61 63 4 62 64 5 64 66 3 63 65 5 62 64 5 65 67 3 63 65 5 64 66 3 66 68 3 65 67 3 64 66 3 67 69 3 65 67 3 66 68 3 68 70 3 67 69 3 66 68 3 69 71 3 67 69 3 68 70 3 70 72 3 69 71 3 68 70 3 71 73 3 69 71 3 70 72 3 72 74 3 71 73 3 70 72 3 73 75 3 71 73 3 72 74 3 74 76 3 73 75 3 72 74 3 75 77 3 73 75 3 74 76 3 76 78 3 75 77 3 74 76 3 77 79 5 75 77 3 76 78 3 78 80 5 77 79 5 76 78 3 79 81 4 77 79 5 78 80 5 80 18 4 79 81 4 78 80 5 82 84 0 81 83 0 0 82 0 83 85 0 81 83 0 82 84 0 84 86 0 83 85 0 82 84 0 85 87 0 83 85 0 84 86 0 86 88 0 85 87 0 84 86 0 87 89 0 85 87 0 86 88 0 88 90 0 87 89 0 86 88 0 89 91 0 87 89 0 88 90 0 90 92 0 89 91 0 88 90 0 91 93 0 89 91 0 90 92 0 92 94 0 91 93 0 90 92 0 93 63 0 91 93 0 92 94 0 94 95 1 93 63 0 92 94 0 95 96 1 93 63 0 94 95 1 96 97 2 95 96 1 94 95 1 81 83 0 97 99 0 0 98 0 98 100 0 97 99 0 81 83 0 83 85 0 98 100 0 81 83 0 99 101 0 98 100 0 83 85 0 85 87 0 99 101 0 83 85 0 100 102 0 99 101 0 85 87 0 87 89 0 100 102 0 85 87 0 101 103 0 100 102 0 87 89 0 89 91 0 101 103 0 87 89 0 102 104 0 101 103 0 89 91 0 91 93 0 102 104 0 89 91 0 103 105 0 102 104 0 91 93 0 104 106 0 103 105 0 91 93 0 105 107 0 103 105 0 104 106 0 1 1 0 29 29 0 0 108 0 27 27 0 29 29 0 1 1 0 3 3 0 27 27 0 1 1 0 25 25 0 27 27 0 3 3 0 5 5 0 25 25 0 3 3 0 23 23 0 25 25 0 5 5 0 7 7 0 23 23 0 5 5 0 21 21 0 23 23 0 7 7 0 9 9 0 21 21 0 7 7 0 19 19 0 21 21 0 9 9 0 11 11 0 19 19 0 9 9 0 106 109 1 19 19 0 11 11 0 13 13 1 106 109 1 11 11 0 15 15 2 106 109 1 13 13 1 30 30 0 107 111 0 0 110 0 108 112 0 107 111 0 30 30 0 28 28 0 108 112 0 30 30 0 109 113 0 108 112 0 28 28 0 26 26 0 109 113 0 28 28 0 110 114 0 109 113 0 26 26 0 24 24 0 110 114 0 26 26 0 111 115 0 110 114 0 24 24 0 22 22 0 111 115 0 24 24 0 112 116 0 111 115 0 22 22 0 20 20 0 112 116 0 22 22 0 113 117 0 112 116 0 20 20 0 114 118 0 113 117 0 20 20 0 115 119 0 113 117 0 114 118 0 31 33 0 59 61 0 0 120 0 57 59 0 59 61 0 31 33 0 33 35 0 57 59 0 31 33 0 55 57 0 57 59 0 33 35 0 35 37 0 55 57 0 33 35 0 53 55 0 55 57 0 35 37 0 37 39 0 53 55 0 35 37 0 51 53 0 53 55 0 37 39 0 39 41 0 51 53 0 37 39 0 49 51 0 51 53 0 39 41 0 41 43 0 49 51 0 39 41 0 116 121 1 49 51 0 41 43 0 43 45 1 116 121 1 41 43 0 45 47 3 116 121 1 43 45 1 117 123 0 82 84 0 0 122 0 84 86 0 82 84 0 117 123 0 118 124 0 84 86 0 117 123 0 86 88 0 84 86 0 118 124 0 119 125 0 86 88 0 118 124 0 88 90 0 86 88 0 119 125 0 120 126 0 88 90 0 119 125 0 90 92 0 88 90 0 120 126 0 121 127 0 90 92 0 120 126 0 92 94 0 90 92 0 121 127 0 122 128 0 92 94 0 121 127 0 123 129 1 92 94 0 122 128 0 97 99 0 124 131 0 0 130 0 125 132 0 124 131 0 97 99 0 98 100 0 125 132 0 97 99 0 126 133 0 125 132 0 98 100 0 99 101 0 126 133 0 98 100 0 127 134 0 126 133 0 99 101 0 100 102 0 127 134 0 99 101 0 128 135 0 127 134 0 100 102 0 101 103 0 128 135 0 100 102 0 129 136 0 128 135 0 101 103 0 102 104 0 129 136 0 101 103 0 103 105 0 129 136 0 102 104 0 124 131 0 2 2 0 0 137 0 4 4 0 2 2 0 124 131 0 125 132 0 4 4 0 124 131 0 6 6 0 4 4 0 125 132 0 126 133 0 6 6 0 125 132 0 8 8 0 6 6 0 126 133 0 127 134 0 8 8 0 126 133 0 10 10 0 8 8 0 127 134 0 128 135 0 10 10 0 127 134 0 12 12 0 10 10 0 128 135 0 129 136 0 12 12 0 128 135 0 130 138 0 12 12 0 129 136 0 107 111 0 131 140 0 0 139 0 132 141 0 131 140 0 107 111 0 108 112 0 132 141 0 107 111 0 133 142 0 132 141 0 108 112 0 109 113 0 133 142 0 108 112 0 134 143 0 133 142 0 109 113 0 110 114 0 134 143 0 109 113 0 135 144 0 134 143 0 110 114 0 111 115 0 135 144 0 110 114 0 136 145 0 135 144 0 111 115 0 112 116 0 136 145 0 111 115 0 113 117 0 136 145 0 112 116 0 131 140 0 32 34 0 0 146 0 34 36 0 32 34 0 131 140 0 132 141 0 34 36 0 131 140 0 36 38 0 34 36 0 132 141 0 133 142 0 36 38 0 132 141 0 38 40 0 36 38 0 133 142 0 134 143 0 38 40 0 133 142 0 40 42 0 38 40 0 134 143 0 135 144 0 40 42 0 134 143 0 42 44 0 40 42 0 135 144 0 136 145 0 42 44 0 135 144 0 137 147 0 42 44 0 136 145 0 70 72 3 139 149 3 138 148 3 140 150 3 139 149 3 70 72 3 141 151 3 140 150 3 70 72 3 142 152 3 140 150 3 141 151 3 143 153 3 142 152 3 141 151 3 144 154 3 142 152 3 143 153 3 145 155 3 144 154 3 143 153 3 146 156 5 144 154 3 145 155 3 147 157 5 146 156 5 145 155 3 148 158 4 146 156 5 147 157 5 149 159 4 148 158 4 147 157 5 70 72 3 151 161 3 150 160 3 152 162 3 151 161 3 70 72 3 138 148 3 152 162 3 70 72 3 153 163 3 152 162 3 138 148 3 154 164 3 153 163 3 138 148 3 155 165 3 153 163 3 154 164 3 156 166 3 155 165 3 154 164 3 157 167 5 155 165 3 156 166 3 158 168 5 157 167 5 156 166 3 159 169 4 157 167 5 158 168 5 160 50 4 159 169 4 158 168 5 70 72 3 161 170 3 72 74 3 162 171 3 161 170 3 70 72 3 150 160 3 162 171 3 70 72 3 163 172 3 162 171 3 150 160 3 164 173 3 163 172 3 150 160 3 165 174 3 163 172 3 164 173 3 166 175 3 165 174 3 164 173 3 167 176 5 165 174 3 166 175 3 168 177 5 167 176 5 166 175 3 169 119 4 167 176 5 168 177 5 170 178 4 169 119 4 168 177 5 70 72 3 171 179 3 141 151 3 172 180 3 171 179 3 70 72 3 173 181 3 172 180 3 70 72 3 174 182 3 172 180 3 173 181 3 175 183 3 174 182 3 173 181 3 176 184 3 174 182 3 175 183 3 177 185 3 176 184 3 175 183 3 178 186 5 176 184 3 177 185 3 62 187 5 178 186 5 177 185 3 60 188 4 178 186 5 62 187 5 56 58 0 179 189 0 58 60 0 180 190 0 179 189 0 56 58 0 54 56 0 180 190 0 56 58 0 181 191 0 180 190 0 54 56 0 52 54 0 181 191 0 54 56 0 182 192 0 181 191 0 52 54 0 50 52 0 182 192 0 52 54 0 183 193 0 182 192 0 50 52 0 184 194 0 183 193 0 50 52 0 185 158 0 183 193 0 184 194 0 186 196 0 117 123 0 0 195 0 118 124 0 117 123 0 186 196 0 187 197 0 118 124 0 186 196 0 119 125 0 118 124 0 187 197 0 188 198 0 119 125 0 187 197 0 120 126 0 119 125 0 188 198 0 189 199 0 120 126 0 188 198 0 121 127 0 120 126 0 189 199 0 190 200 0 121 127 0 189 199 0 122 128 0 121 127 0 190 200 0 191 202 0 186 196 0 0 201 0 187 197 0 186 196 0 191 202 0 192 203 0 187 197 0 191 202 0 188 198 0 187 197 0 192 203 0 193 204 0 188 198 0 192 203 0 189 199 0 188 198 0 193 204 0 194 205 0 189 199 0 193 204 0 190 200 0 189 199 0 194 205 0 63 65 5 195 106 4 61 63 4 196 206 5 195 106 4 63 65 5 65 67 3 196 206 5 63 65 5 197 207 3 196 206 5 65 67 3 67 69 3 197 207 3 65 67 3 198 208 3 197 207 3 67 69 3 69 71 3 198 208 3 67 69 3 71 73 3 198 208 3 69 71 3 73 75 3 198 208 3 71 73 3 199 209 3 198 208 3 73 75 3 75 77 3 199 209 3 73 75 3 200 210 5 199 209 3 75 77 3 77 79 5 200 210 5 75 77 3 201 138 4 200 210 5 77 79 5 79 81 4 201 138 4 77 79 5 177 185 3 64 211 3 62 187 5 202 212 3 64 211 3 177 185 3 175 183 3 202 212 3 177 185 3 203 213 3 202 212 3 175 183 3 173 181 3 203 213 3 175 183 3 70 72 3 203 213 3 173 181 3 204 215 0 191 202 0 0 214 0 192 203 0 191 202 0 204 215 0 205 216 0 192 203 0 204 215 0 193 204 0 192 203 0 205 216 0 179 217 0 193 204 0 205 216 0 194 205 0 193 204 0 179 217 0 206 218 0 182 192 0 183 193 0 181 191 0 182 192 0 206 218 0 207 219 0 181 191 0 206 218 0 180 190 0 181 191 0 207 219 0 194 220 0 180 190 0 207 219 0 179 189 0 180 190 0 194 220 0 95 222 1 209 221 0 208 188 0 210 223 1 209 221 0 95 222 1 96 224 2 210 223 1 95 222 1 211 225 1 210 223 1 96 224 2 123 226 1 211 225 1 96 224 2 122 227 0 211 225 1 123 226 1 199 209 3 197 207 3 198 208 3 212 228 5 197 207 3 199 209 3 200 210 5 212 228 5 199 209 3 213 229 4 212 228 5 200 210 5 201 138 4 213 229 4 200 210 5 214 230 3 78 80 5 76 78 3 215 231 5 78 80 5 214 230 3 165 174 3 215 231 5 214 230 3 167 176 5 215 231 5 165 174 3 130 138 0 14 14 1 12 12 0 16 16 1 14 14 1 130 138 0 216 81 0 16 16 1 130 138 0 18 18 0 16 16 1 216 81 0 151 161 3 164 173 3 150 160 3 217 232 3 164 173 3 151 161 3 152 162 3 217 232 3 151 161 3 153 163 3 217 232 3 152 162 3 217 232 3 166 175 3 164 173 3 218 233 3 166 175 3 217 232 3 153 163 3 218 233 3 217 232 3 155 165 3 218 233 3 153 163 3 218 233 3 168 177 5 166 175 3 219 234 5 168 177 5 218 233 3 155 165 3 219 234 5 218 233 3 157 167 5 219 234 5 155 165 3 220 236 0 204 215 0 0 235 0 205 216 0 204 215 0 220 236 0 58 237 0 205 216 0 220 236 0 179 217 0 205 216 0 58 237 0 219 234 5 170 178 4 168 177 5 221 147 4 170 178 4 219 234 5 157 167 5 221 147 4 219 234 5 159 169 4 221 147 4 157 167 5 139 149 3 154 164 3 138 148 3 222 238 3 154 164 3 139 149 3 140 150 3 222 238 3 139 149 3 142 152 3 222 238 3 140 150 3 222 238 3 156 166 3 154 164 3 223 239 3 156 166 3 222 238 3 142 152 3 223 239 3 222 238 3 144 154 3 223 239 3 142 152 3 46 48 1 224 169 0 48 50 0 137 147 0 224 169 0 46 48 1 44 46 1 137 147 0 46 48 1 42 44 0 137 147 0 44 46 1 225 194 4 146 156 5 148 158 4 226 240 5 146 156 5 225 194 4 160 50 4 226 240 5 225 194 4 158 168 5 226 240 5 160 50 4 226 240 5 144 154 3 146 156 5 223 239 3 144 154 3 226 240 5 158 168 5 223 239 3 226 240 5 156 166 3 223 239 3 158 168 5 227 241 3 145 155 3 143 153 3 228 242 3 145 155 3 227 241 3 174 182 3 228 242 3 227 241 3 176 184 3 228 242 3 174 182 3 207 219 0 190 243 0 194 220 0 229 244 0 190 243 0 207 219 0 206 218 0 229 244 0 207 219 0 209 221 0 229 244 0 206 218 0 215 231 5 80 18 4 78 80 5 230 118 4 80 18 4 215 231 5 167 176 5 230 118 4 215 231 5 169 119 4 230 118 4 167 176 5 228 242 3 147 157 5 145 155 3 231 245 5 147 157 5 228 242 3 176 184 3 231 245 5 228 242 3 178 186 5 231 245 5 176 184 3 202 212 3 66 246 3 64 211 3 232 247 3 66 246 3 202 212 3 203 213 3 232 247 3 202 212 3 70 72 3 232 247 3 203 213 3 231 245 5 149 159 4 147 157 5 233 221 4 149 159 4 231 245 5 178 186 5 233 221 4 231 245 5 60 188 4 233 221 4 178 186 5 171 179 3 143 153 3 141 151 3 227 241 3 143 153 3 171 179 3 172 180 3 227 241 3 171 179 3 174 182 3 227 241 3 172 180 3 161 170 3 74 76 3 72 74 3 234 248 3 74 76 3 161 170 3 162 171 3 234 248 3 161 170 3 163 172 3 234 248 3 162 171 3 234 248 3 76 78 3 74 76 3 214 230 3 76 78 3 234 248 3 163 172 3 214 230 3 234 248 3 165 174 3 214 230 3 163 172 3 212 228 5 196 206 5 197 207 3 235 107 4 196 206 5 212 228 5 213 229 4 235 107 4 212 228 5 236 249 1 123 129 1 96 97 2 92 94 0 123 129 1 236 249 1 94 95 1 92 94 0 236 249 1 237 250 1 116 121 1 45 47 3 49 51 0 116 121 1 237 250 1 47 49 1 49 51 0 237 250 1 238 251 1 106 109 1 15 15 2 19 19 0 106 109 1 238 251 1 17 17 1 19 19 0 238 251 1 239 229 0 103 105 0 105 107 0 129 136 0 103 105 0 239 229 0 240 178 0 113 117 0 115 119 0 136 145 0 113 117 0 240 178 0 59 253 0 220 236 0 0 252 0 58 237 0 220 236 0 59 253 0 241 159 0 183 193 0 185 158 0 206 218 0 183 193 0 241 159 0 122 227 0 229 244 0 211 225 1 190 243 0 229 244 0 122 227 0 210 223 1 229 244 0 209 221 0 211 225 1 229 244 0 210 223 1 68 254 3 232 247 3 70 72 3 66 246 3 232 247 3 68 254 3 18 18 0 114 118 0 20 20 0 48 50 0 184 194 0 50 52 0 239 229 0 130 138 0 129 136 0 240 178 0 137 147 0 136 145 0 241 159 0 209 221 0 206 218 0 93 63 0 104 106 0 91 93 0 94 95 1 236 249 1 96 97 2 235 107 4 195 106 4 196 206 5 93 63 0 95 96 1 208 62 0 47 49 1 237 250 1 45 47 3 17 17 1 238 251 1 15 15 2</p>
                </polylist>
            </mesh>
        </geometry>
    </library_geometries>
    <library_controllers>
        <controller id="controller0">
            <skin source="#mesh0">
                <bind_shape_matrix>1 0 0 0 0 1 0 0 0 0 1 0 0 0 0 1</bind_shape_matrix>
                <source id="joints0">
                    <Name_array id="JointArr0" count="2">jointnode-1 jointnode0</Name_array>
                    <technique_common>
                        <accessor source="#JointArr0" count="2">
                            <param name="JOINT" type="Name" />
                        </accessor>
                    </technique_common>
                </source>
                <source id="matrices0">
                    <float_array id="MatArr0" count="32">1 0 0 0 0 1 0 0 0 0 1 0 0 0 0 1 0.866033393400969 0.49998616132289364 0 0 -0.49998616132289364 0.866033393400969 0 0 0 0 1 0 0 0 0 1</float_array>
                    <technique_common>
                        <accessor source="#MatArr0" count="2" stride="16">
                            <param type="float4x4" />
                        </accessor>
                    </technique_common>
                </source>
                <source id="weights0">
                    <float_array id="WeightArr0" count="1">1</float_array>
                    <technique_common>
                        <accessor source="#WeightArr0" count="1">
                            <param type="float" />
                        </accessor>
                    </technique_common>
                </source>
                <joints>
                    <input semantic="JOINT" source="#joints0" />
                    <input semantic="INV_BIND_MATRIX" source="#matrices0" />
                </joints>
                <vertex_weights count="242">
                    <input semantic="JOINT" offset="0" source="#joints0" />
                    <input semantic="WEIGHT" offset="1" source="#weights0" />
                    <vcount>1 1 1 1 1 1 1 1 1 1 1 1 1 1 1 1 1 1 1 1 1 1 1 1 1 1 1 1 1 1 1 1 1 1 1 1 1 1 1 1 1 1 1 1 1 1 1 1 1 1 1 1 1 1 1 1 1 1 1 1 1 1 1 1 1 1 1 1 1 1 1 1 1 1 1 1 1 1 1 1 1 1 1 1 1 1 1 1 1 1 1 1 1 1 1 1 1 1 1 1 1 1 1 1 1 1 1 1 1 1 1 1 1 1 1 1 1 1 1 1 1 1 1 1 1 1 1 1 1 1 1 1 1 1 1 1 1 1 1 1 1 1 1 1 1 1 1 1 1 1 1 1 1 1 1 1 1 1 1 1 1 1 1 1 1 1 1 1 1 1 1 1 1 1 1 1 1 1 1 1 1 1 1 1 1 1 1 1 1 1 1 1 1 1 1 1 1 1 1 1 1 1 1 1 1 1 1 1 1 1 1 1 1 1 1 1 1 1 1 1 1 1 1 1 1 1 1 1 1 1 1 1 1 1 1 1 1 1 1 1 1 1</vcount>
                    <v>1 0 1 0 1 0 1 0 1 0 1 0 1 0 1 0 1 0 1 0 1 0 1 0 1 0 1 0 1 0 1 0 1 0 1 0 1 0 1 0 1 0 1 0 1 0 1 0 1 0 1 0 1 0 1 0 1 0 1 0 1 0 1 0 1 0 1 0 1 0 1 0 1 0 1 0 1 0 1 0 1 0 1 0 1 0 1 0 1 0 1 0 1 0 1 0 1 0 1 0 1 0 1 0 1 0 1 0 1 0 1 0 1 0 1 0 1 0 1 0 1 0 1 0 1 0 1 0 1 0 1 0 1 0 1 0 1 0 1 0 1 0 1 0 1 0 1 0 1 0 1 0 1 0 1 0 1 0 1 0 1 0 1 0 1 0 1 0 1 0 1 0 1 0 1 0 1 0 1 0 1 0 1 0 1 0 1 0 1 0 1 0 1 0 1 0 1 0 1 0 1 0 1 0 1 0 1 0 1 0 1 0 1 0 1 0 1 0 1 0 1 0 1 0 1 0 1 0 1 0 1 0 1 0 1 0 1 0 1 0 1 0 1 0 1 0 1 0 1 0 1 0 1 0 1 0 1 0 1 0 1 0 1 0 1 0 1 0 1 0 1 0 1 0 1 0 1 0 1 0 1 0 1 0 1 0 1 0 1 0 1 0 1 0 1 0 1 0 1 0 1 0 1 0 1 0 1 0 1 0 1 0 1 0 1 0 1 0 1 0 1 0 1 0 1 0 1 0 1 0 1 0 1 0 1 0 1 0 1 0 1 0 1 0 1 0 1 0 1 0 1 0 1 0 1 0 1 0 1 0 1 0 1 0 1 0 1 0 1 0 1 0 1 0 1 0 1 0 1 0 1 0 1 0 1 0 1 0 1 0 1 0 1 0 1 0 1 0 1 0 1 0 1 0 1 0 1 0 1 0 1 0 1 0 1 0 1 0 1 0 1 0 1 0 1 0 1 0 1 0 1 0 1 0 1 0 1 0 1 0 1 0 1 0 1 0 1 0 1 0 1 0 1 0 1 0 1 0 1 0 1 0 1 0 1 0 1 0 1 0 1 0 1 0 1 0 1 0 1 0 1 0 1 0</v>
                </vertex_weights>
            </skin>
        </controller>
    </library_controllers>
    <library_visual_scenes>
        <visual_scene id="VisualSceneNode">
            <node id="node0" name="m0" type="NODE">
                <instance_controller url="#controller0">
                    <skeleton>#jointnode-1</skeleton>
                    <bind_material>
                        <technique_common>
                            <instance_material symbol="Material1" target="#mat0">
                                <bind_vertex_input semantic="UVSET0" input_semantic="TEXCOORD" input_set="0"></bind_vertex_input>
                            </instance_material>
                        </technique_common>
                    </bind_material>
                </instance_controller>
            </node>
            <node id="jointnode-1" name="root" sid="jointnode-1" type="JOINT">
                <node id="jointnode0" name="AstroDomeCometBloom" sid="jointnode0" type="JOINT">
                    <rotate>0 0 1 29.99908444471572</rotate>
                </node>
            </node>
        </visual_scene>
    </library_visual_scenes>
    <scene>
        <instance_visual_scene url="#VisualSceneNode"></instance_visual_scene>
    </scene>
</COLLADA>
