<?xml version="1.0"?>
<COLLADA xmlns="http://www.collada.org/2005/11/COLLADASchema" version="1.4.1">
    <asset>
        <contributor>
            <authoring_tool>J3D Ripoff Exporter</authoring_tool>
        </contributor>
        <created>2024-07-13T00:19:53.575Z</created>
        <modified>2024-07-13T00:19:53.575Z</modified>
		<unit meter="0.01" name="centimeter" ></unit>
        <up_axis>Y_UP</up_axis>
    </asset>
    <library_images>
        <image id="tex0">
            <init_from>AstroPlanetWall.png</init_from>
        </image>
    </library_images>
    <library_effects>
        <effect id="effect0">
            <profile_COMMON>
                <newparam sid="surface0">
                    <surface type="2D">
                        <init_from>tex0</init_from>
                    </surface>
                </newparam>
                <newparam sid="sampler0">
                    <sampler2D>
                        <source>surface0</source>
                    </sampler2D>
                </newparam>
                <technique sid="COMMON">
                    <blinn>
                        <diffuse>
                            <texture texture="sampler0" texcoord="UVSET0"></texture>
                        </diffuse>
                    </blinn>
                </technique>
            </profile_COMMON>
        </effect>
        <effect id="effect1">
            <profile_COMMON>
                <newparam sid="surface1">
                    <surface type="2D">
                        <init_from>tex0</init_from>
                    </surface>
                </newparam>
                <newparam sid="sampler1">
                    <sampler2D>
                        <source>surface1</source>
                    </sampler2D>
                </newparam>
                <technique sid="COMMON">
                    <blinn>
                        <diffuse>
                            <texture texture="sampler1" texcoord="UVSET0"></texture>
                        </diffuse>
                    </blinn>
                </technique>
            </profile_COMMON>
        </effect>
    </library_effects>
    <library_materials>
        <material id="mat0" name="CometMat_v">
            <instance_effect url="#effect0"></instance_effect>
        </material>
        <material id="mat1" name="CometMat_v(2)">
            <instance_effect url="#effect1"></instance_effect>
        </material>
    </library_materials>
    <library_geometries>
        <geometry id="mesh0">
            <mesh>
                <source id="points0">
                    <float_array id="pointarray0" count="726">-1380.1627136450536 2393.6002452088615 -8 -1506.0324576178928 2359.614107561109 -54 -1513.393741461801 2355.3642251898646 -8 -1671.8295553852504 2378.786284587238 -8 -1658.4060377875353 2386.5360700877427 80.5 -1825.5562337874123 2473.0537675675228 117.5 -1770.1300966097504 2505.052881892188 228.5 -1927.9373427071891 2652.3896494661453 282 -1824.0133354990728 2712.3879888248925 382.5 -1966.5268824449925 2907.23636304673 427.5 -1824.4974059272336 2989.2340935036846 487.5 -2662.3329470659355 4031.450052892533 596.5 -2403.880203115921 4207.797519970199 631.5 -3095.389113662983 4950.557694342799 558.5 -3091.0589466959786 4953.057625149413 490 -3893.5518637345185 5955.056686078601 446 -3157.743517987853 4914.558690727551 462 -3212.303621772114 4883.059562564208 409.5 -2555.2605874026995 3926.9906837763706 427.5 -2791.8631633595555 3983.803719697543 468.5 -2394.8646181668637 3210.1543125919166 377.5 -2082.5753571607224 2840.238217429462 315 -2185.200314278737 2780.9898573126993 175 -1995.9209640891652 2613.140735802298 146 -2019.7368824076918 2599.3911163659186 -8 -1844.6089684422336 2462.054072018419 -8 -1825.5562337874123 2473.0537675675228 -134 -1658.4060377875353 2386.5360700877427 -97 -1619.0015183877913 2409.2854404279346 -175.5 -1485.68067287297 2371.363782352197 -94.5 -1454.9364874072355 2389.11329107916 -125 -1307.2777938323704 2474.3609315847134 -94.5 -1338.4549959948051 2456.361429777089 -125 -1333.643515262172 2574.030880583828 -233.5 -1407.2563537012545 2531.532056871382 -264.5 -1470.4825424930152 2678.048093709909 -371 -1580.9018001516388 2614.2998581412403 -371 -1696.7064266691305 2785.885954539358 -452.5 -1824.0133354990728 2712.3879888248925 -399 -1966.5268824449925 2907.23636304673 -444 -2082.5753571607224 2840.238217429462 -331.5 -2738.1108689885205 3987.7012637767803 -557.5 -2911.375771648889 3914.8056294349835 -313 -3252.141157868559 4860.060199143355 -465 -3202.7772544447034 4888.55941033876 -427 -3722.077251841127 6054.053946020535 -567.5 -3148.650167357143 4919.8085454214415 -479.5 -3081.965596065268 4958.307479843304 -507.5 -2555.2605874026995 3926.9906837763706 -444 -2594.840566360835 4097.550571398501 -620 -2081.793546452414 3390.8993099101426 -616 -1824.4974059272336 2989.2340935036846 -504 -1668.6113951150592 3079.2316025418054 -536 -1561.1722006018788 2864.1337887863906 -452.5 -1433.4322750752358 2937.8817475815176 -399 -1366.1255185881985 2738.2964261493175 -327 -1281.2542460349034 2787.2950699589614 -245 -1273.4541944208047 2608.779918795769 -175.5 -1234.482691717761 2631.2792960552993 -97 -1286.9260090874475 2486.110606375801 -54 -1927.8193938836978 4289.230657654807 -180 -1901.8383920816686 4304.230242494494 -8 -2516.4670631721547 5135.831166419873 -149 -2494.8162283371303 5148.330820452945 -8 -3146.2870882028137 5966.7445109211985 -99.5 -3131.997537211698 5974.994282583026 -5.5 -3826.8249025077143 6948.508628874747 -62 -3817.731551877004 6953.7584835686375 -4 -4994.425346699116 8804.92195912317 -32 -4990.095179732111 8807.421889929785 -4 -6578.518832919179 11397.749436398733 -8 -4994.425346699116 8804.92195912317 23 -5006.54981420673 8797.92215286465 47.5 -3852.372887613043 6933.759037115722 104.5 -3891.3443903160864 6911.259659856192 142.5 -3250.6441121076305 5906.49617848179 231 -3328.1541008170175 5861.747417043391 263.5 -2789.7005987901603 4978.085532522499 397 -2913.110357349798 4906.837504533987 397 -2413.231110884941 4008.9884142333253 487.5 -2555.2605874026995 3926.9906837763706 427.5 -1454.9364874072355 2389.11329107916 108.5 -1416.831018097593 2411.1126821773673 124.5 -1485.1993591073417 2486.5333023523217 248.5 -1407.2563537012545 2531.532056871382 248.5 -1470.4825424930152 2678.048093709909 354.5 -1366.1255185881985 2738.2964261493175 311 -1433.4322750752358 2937.8817475815176 382.5 -1329.5082678671197 2997.880086940265 282 -1393.212776013551 3238.2272018424856 336.5 -1339.0856889259906 3269.4763369251664 164 -1493.3238556364554 3730.639906529049 193.5 -1877.3318999281323 4511.789106054518 121.5 -1901.8383920816686 4304.230242494494 -8 -2456.2564693330683 5319.547481399095 74 -2444.1320018254546 5326.547287657615 -6 -3040.5089712345643 6447.543054981652 99 -1485.68067287297 2371.363782352197 78.5 -1558.812197546424 2444.0344786398755 217.5 -1580.9018001516388 2614.2998581412403 354.5 -1561.1722006018788 2864.1337887863906 436 -1530.912085564305 3158.7294021921457 427.5 -1577.7621114930498 3681.8912558000666 388.5 -2072.5383635154662 4505.89957519657 450 -1807.8227151662034 4081.3826432385745 164 -2003.5973158062825 4245.481868539054 315 -3211.8706050754136 4883.30955564487 560 -1416.831018097593 2411.1126821773673 -141 -1558.812197546424 2444.0344786398755 -233.5 -1770.1300966097504 2505.052881892188 -245 -1995.9209640891652 2613.140735802298 -162.5 -2184.7672975820365 2781.239850393361 -8 -2489.2622580475695 3155.655821007721 202.5 -3408.7093908402285 4658.241249527297 160 -2551.3123834009352 3652.14452374287 315 -2747.086984041014 3816.24374904335 164 -3196.282003994196 4892.309306548682 -579.5 -1376.560465304448 2434.3620386788816 124.5 -1333.643515262172 2574.030880583828 217.5 -1281.2542460349034 2787.2950699589614 228.5 -1261.5246464851434 3037.1290006041118 146 -1313.1046871239614 3284.4759217648534 -8 -1831.373906097706 4511.18677468185 -65.5 -2344.105144887643 5384.295689290409 -5.5 -1506.0324576178928 2359.614107561109 37.5 -1619.0015183877913 2409.2854404279346 159 -1684.825807359755 2554.301518782493 311 -1696.7064266691305 2785.885954539358 436 -1673.3745787787645 3076.4816786545293 487.5 -1725.8538217646155 3596.393622213852 513.5 -2262.1082837364715 4096.23599938417 487.5 -1376.560465304448 2434.3620386788816 -141 -1485.1993591073417 2486.5333023523217 -264.5 -1684.825807359755 2554.301518782493 -327 -1927.9373427071891 2652.3896494661453 -298 -2158.353279083307 2796.489428313709 -180 -2518.7073934232026 3138.656291522743 -14.5 -2747.086984041014 3816.24374904335 -180 -5126.495439192764 8728.674069521428 23 -5130.8256061597685 8726.174138714814 -4 -5126.495439192764 8728.674069521428 -32 -5114.37097168515 8735.67387577995 -56.5 -4077.108553200594 6804.012628252431 -113.5 -4038.1370504975507 6826.512005511961 -151 -3487.5042452027956 5769.749963359978 -243 -3409.994256493409 5814.498724798377 -275.5 -2913.110357349798 4906.837504533987 -413.5 -2789.7005987901603 4978.085532522499 -413.5 -2262.1082837364715 4096.23599938417 -504 -1999.6491118045178 3970.635708505554 -444 -5072.3683521052035 8759.92320460411 75.5 -5095.318237030329 8746.673571329053 66 -5114.37097168515 8735.67387577995 47.5 -4102.656538305923 6789.263036493406 53.5 -4111.749888936633 6784.013181799515 -4 -3606.150820098728 5701.251859258742 -5.5 -3591.8612691076123 5709.501630920569 -99.5 -3186.343892967804 4749.091870636615 -149 -3124.422505339635 4784.8408811712015 -272.5 -2671.3090621184297 3859.992538159103 -331.5 -2555.2605874026995 3926.9906837763706 -444 -5025.16953216485 8787.172450396207 66 -5048.119417089976 8773.92281712115 75.5 -3990.072197163797 6854.261237465382 163 -4038.1370504975507 6826.512005511961 142.5 -3487.5042452027956 5769.749963359978 231 -3550.7246829210662 5733.250973583407 170 -3124.422505339635 4784.8408811712015 256.5 -3186.343892967804 4749.091870636615 132.5 -2747.086984041014 3816.24374904335 164 -2653.5043238222493 3593.146156706769 -8 -5095.318237030329 8746.673571329053 -75 -5072.3683521052035 8759.92320460411 -84.5 -5048.119417089976 8773.92281712115 -84.5 -3939.4092436498404 6883.510427902771 -171.5 -3891.3443903160864 6911.259659856192 -151 -3250.6441121076305 5906.49617848179 -243 -3187.42367438936 5942.9951682583605 -181.5 -2578.388450800324 5100.082155885286 -272.5 -1225.8281088572414 2819.2941842836262 -134 -1329.5082678671197 2997.880086940265 -298 -1530.912085564305 3158.7294021921457 -444 -1894.297316781104 3499.1463138365493 -616 -2568.248249953265 4785.509944260067 -631 -2293.2344321674464 3801.1403998170927 -504 -2262.1082837364715 4096.23599938417 -504 -1338.4549959948051 2456.361429777089 108.5 -1273.4541944208047 2608.779918795769 159 -1225.8281088572414 2819.2941842836262 117.5 -1238.1417448633174 3050.62862695983 -8 -1339.0856889259906 3269.4763369251664 -180 -1307.2777938323704 2474.3609315847134 78.5 -1234.482691717761 2631.2792960552993 80.5 -1206.7753742024202 2830.29387983273 -8 -1261.5246464851434 3037.1290006041118 -162.5 -1807.8227151662034 4081.3826432385745 164 -2516.4670631721547 5135.831166419873 132.5 -3146.2870882028137 5966.7445109211985 87.5 -3826.8249025077143 6948.508628874747 53.5 -3187.42367438936 5942.9951682583605 170 -2673.21910737773 5045.333671220429 348 -2262.1082837364715 4096.23599938417 487.5 -3852.372887613043 6933.759037115722 -113.5 -5025.16953216485 8787.172450396207 -75 -1286.9260090874475 2486.110606375801 37.5 -1220.6261574233456 2639.2790746364653 -8 -1725.8538217646155 3596.393622213852 -543.5 -1414.8636108485753 3225.7275478094134 -331.5 -1927.8193938836978 4289.230657654807 -180 -2003.5973158062825 4245.481868539054 -331.5 -2456.2564693330683 5319.547481399095 -87 -2402.9954156389085 5350.296630320452 -116.5 -2578.388450800324 5100.082155885286 256.5 -1999.6491118045178 3970.635708505554 427.5 -3409.994256493409 5814.498724798377 263.5 -3029.5918487622284 4839.589365836058 348 -2413.231110884941 4008.9884142333253 487.5 -4077.108553200594 6804.012628252431 104.5 -3591.8612691076123 5709.501630920569 87.5 -3207.561711106128 4736.842209684203 -8 -1279.9977419402398 2490.1104956663844 -8 -2747.086984041014 3816.24374904335 -180 -4102.656538305923 6789.263036493406 -62 -3550.7246829210662 5733.250973583407 -181.5 -2671.3090621184297 3859.992538159103 -331.5 -2293.2344321674464 3801.1403998170927 -504 -3029.5918487622284 4839.589365836058 -364.5 -3990.072197163797 6854.261237465382 -171.5 -3328.1541008170175 5861.747417043391 -275.5 -1949.2126715804127 4470.290254664718 -348.5 -2551.3123834009352 3652.14452374287 315 -2673.21910737773 5045.333671220429 -364.5 -5006.54981420673 8797.92215286465 -56.5 -2003.5973158062825 4245.481868539054 -331.5 -3939.4092436498404 6883.510427902771 163 -2003.5973158062825 4245.481868539054 315 -2402.9954156389085 5350.296630320452 103.5 -3086.295763032273 4955.807549036689 -575.5 -3260.8014918025683 4855.060337530126 448 -1999.6491118045178 3970.635708505554 427.5 -2653.5043238222493 3593.146156706769 -8 -1999.6491118045178 3970.635708505554 -444</float_array>
                    <technique_common>
                        <accessor count="242" source="#pointarray0" stride="3">
                            <param name="X" type="float"/>
                            <param name="Y" type="float"/>
                            <param name="Z" type="float"/>
                        </accessor>
                    </technique_common>
                </source>
                <source id="uvs0">
                    <float_array id="uvarray0" count="510">0.4166259765625 0 0.38885498046875 0.0833740234375 0.44439697265625 0.0833740234375 0.44439697265625 0.16668701171875 0.5 0.16668701171875 0.5 0.25 0.5555419921875 0.25 0.5555419921875 0.3333740234375 0.611083984375 0.3333740234375 0.611083984375 0.41668701171875 0.6666259765625 0.41668701171875 0.6666259765625 0.4583740234375 0.72216796875 0.5 0.69439697265625 0.5 0.69439697265625 0.54168701171875 0.6666259765625 0.5 0.6666259765625 0.54168701171875 0.63885498046875 0.54168701171875 0.611083984375 0.5833740234375 0.611083984375 0.5 0.5555419921875 0.5 0.5555419921875 0.41668701171875 0.5 0.41668701171875 0.5 0.3333740234375 0.44439697265625 0.3333740234375 0.44439697265625 0.25 0.38885498046875 0.25 0.38885498046875 0.16668701171875 0.33331298828125 0.16668701171875 0.33331298828125 0.0833740234375 0.27777099609375 0.0833740234375 0.30548095703125 0 0.08514404296875 0 0.0555419921875 0.0833740234375 0.111083984375 0.0833740234375 0.111083984375 0.16668701171875 0.1666259765625 0.16668701171875 0.1666259765625 0.25 0.22216796875 0.25 0.22216796875 0.3333740234375 0.27777099609375 0.3333740234375 0.27777099609375 0.41668701171875 0.33331298828125 0.41668701171875 0.33331298828125 0.4583740234375 0.38885498046875 0.5 0.361083984375 0.5 0.361083984375 0.54168701171875 0.33331298828125 0.5 0.33331298828125 0.54168701171875 0.3055419921875 0.54168701171875 0.27777099609375 0.5833740234375 0.27777099609375 0.5 0.22216796875 0.5 0.22216796875 0.41668701171875 0.1666259765625 0.41668701171875 0.1666259765625 0.3333740234375 0.111083984375 0.3333740234375 0.111083984375 0.25 0.0555419921875 0.25 0.0555419921875 0.16668701171875 0 0.16668701171875 0 0.0833740234375 1 0.5833740234375 0.94439697265625 0.5833740234375 1 0.66668701171875 0.94439697265625 0.66668701171875 1 0.75 0.94439697265625 0.75 1 0.8333740234375 0.94439697265625 0.8333740234375 1 0.91668701171875 0.94439697265625 0.91668701171875 0.5 1 0.88885498046875 0.91668701171875 0.83331298828125 0.91668701171875 0.83331298828125 0.8333740234375 0.77777099609375 0.8333740234375 0.77777099609375 0.75 0.72216796875 0.75 0.72216796875 0.66668701171875 0.6666259765625 0.66668701171875 0.6666259765625 0.5833740234375 0.63885498046875 0 0.611083984375 0.0833740234375 0.6666259765625 0.0833740234375 0.6666259765625 0.16668701171875 0.72216796875 0.16668701171875 0.72216796875 0.25 0.77777099609375 0.25 0.77777099609375 0.3333740234375 0.83331298828125 0.3333740234375 0.83331298828125 0.41668701171875 0.88885498046875 0.41668701171875 0.88885498046875 0.5 0.94439697265625 0.5 0.97216796875 0.54168701171875 1 0.54168701171875 1 0.5 0.58331298828125 0 0.5555419921875 0.0833740234375 0.611083984375 0.16668701171875 0.6666259765625 0.25 0.72216796875 0.3333740234375 0.77777099609375 0.41668701171875 0.83331298828125 0.4583740234375 0.83331298828125 0.5 0.88885498046875 0.5833740234375 0.83331298828125 0.5833740234375 0.3629150390625 0 0.6666259765625 0.47918701171875 0.25177001953125 0 0.22216796875 0.0833740234375 0.27777099609375 0.16668701171875 0.33331298828125 0.25 0.38885498046875 0.3333740234375 0.44439697265625 0.41668701171875 0.5 0.4583740234375 0.5 0.5 0.5555419921875 0.5833740234375 0.5 0.5833740234375 0.0277099609375 0 0.33331298828125 0.47918701171875 0.6944580078125 0 0.72216796875 0.0833740234375 0.77777099609375 0.16668701171875 0.83331298828125 0.25 0.88885498046875 0.3333740234375 0.94439697265625 0.41668701171875 1 0.4583740234375 1 0.47918701171875 0.52777099609375 0 0.5 0.0833740234375 0.5555419921875 0.16668701171875 0.611083984375 0.25 0.6666259765625 0.3333740234375 0.72216796875 0.41668701171875 0.77777099609375 0.5 0.47216796875 0 0.72216796875 0.5833740234375 0.19439697265625 0 0.1666259765625 0.0833740234375 0.22216796875 0.16668701171875 0.27777099609375 0.25 0.33331298828125 0.3333740234375 0.38885498046875 0.41668701171875 0.44439697265625 0.5 0.13885498046875 0 0.38885498046875 0.5833740234375 0.5 0.91668701171875 0.44439697265625 0.91668701171875 0.38885498046875 0.91668701171875 0.33331298828125 0.91668701171875 0.33331298828125 0.8333740234375 0.27777099609375 0.8333740234375 0.27777099609375 0.75 0.22216796875 0.75 0.22216796875 0.66668701171875 0.1666259765625 0.66668701171875 0.1666259765625 0.5833740234375 0.111083984375 0.5833740234375 0.6666259765625 0.91668701171875 0.611083984375 0.91668701171875 0.5555419921875 0.91668701171875 0.5 0.8333740234375 0.44439697265625 0.8333740234375 0.44439697265625 0.75 0.38885498046875 0.75 0.38885498046875 0.66668701171875 0.33331298828125 0.66668701171875 0.33331298828125 0.5833740234375 0.77777099609375 0.91668701171875 0.72216796875 0.91668701171875 0.6666259765625 0.8333740234375 0.611083984375 0.8333740234375 0.611083984375 0.75 0.5555419921875 0.75 0.5555419921875 0.66668701171875 0.5 0.66668701171875 0.44439697265625 0.5833740234375 0.27777099609375 0.91668701171875 0.22216796875 0.91668701171875 0.1666259765625 0.91668701171875 0.1666259765625 0.8333740234375 0.111083984375 0.8333740234375 0.111083984375 0.75 0.0555419921875 0.75 0.0555419921875 0.66668701171875 0 0.66668701171875 0 0.5833740234375 0 0.25 0.0555419921875 0.3333740234375 0.111083984375 0.41668701171875 0.1666259765625 0.4583740234375 0.1666259765625 0.5 0.22216796875 0.5833740234375 0.75 0 0.77777099609375 0.0833740234375 0.83331298828125 0.16668701171875 0.88885498046875 0.25 0.94439697265625 0.3333740234375 1 0.41668701171875 0.8055419921875 0 0.83331298828125 0.0833740234375 0.88885498046875 0.16668701171875 0.94439697265625 0.25 1 0.3333740234375 0.88885498046875 0.66668701171875 0.88885498046875 0.75 0.88885498046875 0.8333740234375 0.83331298828125 0.75 0.77777099609375 0.66668701171875 0 0.75 0.0555419921875 0.8333740234375 0.111083984375 0.91668701171875 0.86297607421875 0 0.88885498046875 0.0833740234375 0.94439697265625 0.16668701171875 1 0.25 0.111083984375 0.5 0.0555419921875 0.41668701171875 0 0.3333740234375 0.0555419921875 0.5833740234375 0 0.54168701171875 0.02777099609375 0.54168701171875 0 0.5 0.02777099609375 0.5 0 0.47918701171875 0 0.4583740234375 0.83331298828125 0.66668701171875 0.77777099609375 0.5833740234375 0.6666259765625 0.75 0.611083984375 0.66668701171875 0.5555419921875 0.8333740234375 0.5 0.75 0.44439697265625 0.66668701171875 0.914794921875 0 0.94439697265625 0.0833740234375 1 0.16668701171875 0.38885498046875 0.8333740234375 0.33331298828125 0.75 0.27777099609375 0.66668701171875 0.22216796875 0.8333740234375 0.1666259765625 0.75 0 0.41668701171875 0.0555419921875 0.5 0.111083984375 0.66668701171875 0 0.8333740234375 0.0555419921875 0.91668701171875 0.72216796875 0.8333740234375 0.97216796875 0.5 0.3055419921875 0.5 0.63885498046875 0.5 0.97406005859375 0 1 0.0833740234375 0 0.91668701171875</float_array>
                    <technique_common>
                        <accessor count="255" source="#uvarray0" stride="2">
                            <param name="S" type="float"/>
                            <param name="T" type="float"/>
                        </accessor>
                    </technique_common>
                </source>
                <source id="colors0">
                    <float_array id="colorarray0" count="24">1 1 1 1 0.5176470588235295 0.5176470588235295 0.5176470588235295 1 0.6862745098039216 0.6862745098039216 0.6862745098039216 1 0.22745098039215686 0.22745098039215686 0.22745098039215686 1 0.5843137254901961 0.5843137254901961 0.5843137254901961 1 0.7647058823529411 0.7647058823529411 0.7647058823529411 1</float_array>
                    <technique_common>
                        <accessor count="6" source="#colorarray0" stride="4">
                            <param name="R" type="float"/>
                            <param name="G" type="float"/>
                            <param name="B" type="float"/>
                            <param name="A" type="float"/>
                        </accessor>
                    </technique_common>
                </source>
                <vertices id="vertices0">
                    <input semantic="POSITION" source="#points0"/>
                </vertices>
                <polylist count="444" material="Material1">
                    <input offset="0" semantic="VERTEX" source="#vertices0"/>
                    <input offset="1" semantic="TEXCOORD" source="#uvs0" set="0"/>
                    <input offset="2" semantic="COLOR" source="#colors0" set="0"/>
                    <vcount>3 3 3 3 3 3 3 3 3 3 3 3 3 3 3 3 3 3 3 3 3 3 3 3 3 3 3 3 3 3 3 3 3 3 3 3 3 3 3 3 3 3 3 3 3 3 3 3 3 3 3 3 3 3 3 3 3 3 3 3 3 3 3 3 3 3 3 3 3 3 3 3 3 3 3 3 3 3 3 3 3 3 3 3 3 3 3 3 3 3 3 3 3 3 3 3 3 3 3 3 3 3 3 3 3 3 3 3 3 3 3 3 3 3 3 3 3 3 3 3 3 3 3 3 3 3 3 3 3 3 3 3 3 3 3 3 3 3 3 3 3 3 3 3 3 3 3 3 3 3 3 3 3 3 3 3 3 3 3 3 3 3 3 3 3 3 3 3 3 3 3 3 3 3 3 3 3 3 3 3 3 3 3 3 3 3 3 3 3 3 3 3 3 3 3 3 3 3 3 3 3 3 3 3 3 3 3 3 3 3 3 3 3 3 3 3 3 3 3 3 3 3 3 3 3 3 3 3 3 3 3 3 3 3 3 3 3 3 3 3 3 3 3 3 3 3 3 3 3 3 3 3 3 3 3 3 3 3 3 3 3 3 3 3 3 3 3 3 3 3 3 3 3 3 3 3 3 3 3 3 3 3 3 3 3 3 3 3 3 3 3 3 3 3 3 3 3 3 3 3 3 3 3 3 3 3 3 3 3 3 3 3 3 3 3 3 3 3 3 3 3 3 3 3 3 3 3 3 3 3 3 3 3 3 3 3 3 3 3 3 3 3 3 3 3 3 3 3 3 3 3 3 3 3 3 3 3 3 3 3 3 3 3 3 3 3 3 3 3 3 3 3 3 3 3 3 3 3 3 3 3 3 3 3 3 3 3 3 3 3 3 3 3 3 3 3 3 3 3 3 3 3 3 3 3 3 3 3 3 3 3 3 3 3 3 3 3 3 3 3 3 3 3 3 3 3 3 3 3 3 3 3 3 3 3 3 3 3 3 3 3 3 3 3</vcount>
                    <p>2 2 0 1 1 0 0 0 0 3 3 0 1 1 0 2 2 0 4 4 0 3 3 0 2 2 0 5 5 0 3 3 0 4 4 0 6 6 0 5 5 0 4 4 0 7 7 0 5 5 0 6 6 0 8 8 0 7 7 0 6 6 0 9 9 0 7 7 0 8 8 0 10 10 0 9 9 0 8 8 0 11 11 0 9 9 0 10 10 0 12 12 0 11 11 0 10 10 0 13 13 1 11 11 0 12 12 0 14 14 1 13 13 1 12 12 0 15 15 2 13 13 1 14 14 1 16 16 1 15 15 2 14 14 1 17 17 1 15 15 2 16 16 1 18 18 0 17 17 1 16 16 1 19 19 0 17 17 1 18 18 0 20 20 0 19 19 0 18 18 0 21 21 0 19 19 0 20 20 0 22 22 0 21 21 0 20 20 0 23 23 0 21 21 0 22 22 0 24 24 0 23 23 0 22 22 0 25 25 0 23 23 0 24 24 0 26 26 0 25 25 0 24 24 0 27 27 0 25 25 0 26 26 0 28 28 0 27 27 0 26 26 0 29 29 0 27 27 0 28 28 0 30 30 0 29 29 0 28 28 0 0 31 0 29 29 0 30 30 0 32 34 0 31 33 0 0 32 0 33 35 0 31 33 0 32 34 0 34 36 0 33 35 0 32 34 0 35 37 0 33 35 0 34 36 0 36 38 0 35 37 0 34 36 0 37 39 0 35 37 0 36 38 0 38 40 0 37 39 0 36 38 0 39 41 0 37 39 0 38 40 0 40 42 0 39 41 0 38 40 0 41 43 0 39 41 0 40 42 0 42 44 0 41 43 0 40 42 0 43 45 1 41 43 0 42 44 0 44 46 1 43 45 1 42 44 0 45 47 3 43 45 1 44 46 1 46 48 1 45 47 3 44 46 1 47 49 1 45 47 3 46 48 1 48 50 0 47 49 1 46 48 1 49 51 0 47 49 1 48 50 0 50 52 0 49 51 0 48 50 0 51 53 0 49 51 0 50 52 0 52 54 0 51 53 0 50 52 0 53 55 0 51 53 0 52 54 0 54 56 0 53 55 0 52 54 0 55 57 0 53 55 0 54 56 0 56 58 0 55 57 0 54 56 0 57 59 0 55 57 0 56 58 0 58 60 0 57 59 0 56 58 0 59 61 0 57 59 0 58 60 0 62 64 5 61 63 4 60 62 4 63 65 5 61 63 4 62 64 5 64 66 3 63 65 5 62 64 5 65 67 3 63 65 5 64 66 3 66 68 3 65 67 3 64 66 3 67 69 3 65 67 3 66 68 3 68 70 3 67 69 3 66 68 3 69 71 3 67 69 3 68 70 3 70 72 3 69 71 3 68 70 3 71 73 3 69 71 3 70 72 3 72 74 3 71 73 3 70 72 3 73 75 3 71 73 3 72 74 3 74 76 3 73 75 3 72 74 3 75 77 3 73 75 3 74 76 3 76 78 3 75 77 3 74 76 3 77 79 5 75 77 3 76 78 3 78 80 5 77 79 5 76 78 3 79 81 4 77 79 5 78 80 5 80 18 4 79 81 4 78 80 5 82 84 0 81 83 0 0 82 0 83 85 0 81 83 0 82 84 0 84 86 0 83 85 0 82 84 0 85 87 0 83 85 0 84 86 0 86 88 0 85 87 0 84 86 0 87 89 0 85 87 0 86 88 0 88 90 0 87 89 0 86 88 0 89 91 0 87 89 0 88 90 0 90 92 0 89 91 0 88 90 0 91 93 0 89 91 0 90 92 0 92 94 0 91 93 0 90 92 0 93 63 0 91 93 0 92 94 0 94 95 1 93 63 0 92 94 0 95 96 1 93 63 0 94 95 1 96 97 2 95 96 1 94 95 1 81 83 0 97 99 0 0 98 0 98 100 0 97 99 0 81 83 0 83 85 0 98 100 0 81 83 0 99 101 0 98 100 0 83 85 0 85 87 0 99 101 0 83 85 0 100 102 0 99 101 0 85 87 0 87 89 0 100 102 0 85 87 0 101 103 0 100 102 0 87 89 0 89 91 0 101 103 0 87 89 0 102 104 0 101 103 0 89 91 0 91 93 0 102 104 0 89 91 0 103 105 0 102 104 0 91 93 0 104 106 0 103 105 0 91 93 0 105 107 0 103 105 0 104 106 0 1 1 0 29 29 0 0 108 0 27 27 0 29 29 0 1 1 0 3 3 0 27 27 0 1 1 0 25 25 0 27 27 0 3 3 0 5 5 0 25 25 0 3 3 0 23 23 0 25 25 0 5 5 0 7 7 0 23 23 0 5 5 0 21 21 0 23 23 0 7 7 0 9 9 0 21 21 0 7 7 0 19 19 0 21 21 0 9 9 0 11 11 0 19 19 0 9 9 0 106 109 1 19 19 0 11 11 0 13 13 1 106 109 1 11 11 0 15 15 2 106 109 1 13 13 1 30 30 0 107 111 0 0 110 0 108 112 0 107 111 0 30 30 0 28 28 0 108 112 0 30 30 0 109 113 0 108 112 0 28 28 0 26 26 0 109 113 0 28 28 0 110 114 0 109 113 0 26 26 0 24 24 0 110 114 0 26 26 0 111 115 0 110 114 0 24 24 0 22 22 0 111 115 0 24 24 0 112 116 0 111 115 0 22 22 0 20 20 0 112 116 0 22 22 0 113 117 0 112 116 0 20 20 0 114 118 0 113 117 0 20 20 0 115 119 0 113 117 0 114 118 0 31 33 0 59 61 0 0 120 0 57 59 0 59 61 0 31 33 0 33 35 0 57 59 0 31 33 0 55 57 0 57 59 0 33 35 0 35 37 0 55 57 0 33 35 0 53 55 0 55 57 0 35 37 0 37 39 0 53 55 0 35 37 0 51 53 0 53 55 0 37 39 0 39 41 0 51 53 0 37 39 0 49 51 0 51 53 0 39 41 0 41 43 0 49 51 0 39 41 0 116 121 1 49 51 0 41 43 0 43 45 1 116 121 1 41 43 0 45 47 3 116 121 1 43 45 1 117 123 0 82 84 0 0 122 0 84 86 0 82 84 0 117 123 0 118 124 0 84 86 0 117 123 0 86 88 0 84 86 0 118 124 0 119 125 0 86 88 0 118 124 0 88 90 0 86 88 0 119 125 0 120 126 0 88 90 0 119 125 0 90 92 0 88 90 0 120 126 0 121 127 0 90 92 0 120 126 0 92 94 0 90 92 0 121 127 0 122 128 0 92 94 0 121 127 0 123 129 1 92 94 0 122 128 0 97 99 0 124 131 0 0 130 0 125 132 0 124 131 0 97 99 0 98 100 0 125 132 0 97 99 0 126 133 0 125 132 0 98 100 0 99 101 0 126 133 0 98 100 0 127 134 0 126 133 0 99 101 0 100 102 0 127 134 0 99 101 0 128 135 0 127 134 0 100 102 0 101 103 0 128 135 0 100 102 0 129 136 0 128 135 0 101 103 0 102 104 0 129 136 0 101 103 0 103 105 0 129 136 0 102 104 0 124 131 0 2 2 0 0 137 0 4 4 0 2 2 0 124 131 0 125 132 0 4 4 0 124 131 0 6 6 0 4 4 0 125 132 0 126 133 0 6 6 0 125 132 0 8 8 0 6 6 0 126 133 0 127 134 0 8 8 0 126 133 0 10 10 0 8 8 0 127 134 0 128 135 0 10 10 0 127 134 0 12 12 0 10 10 0 128 135 0 129 136 0 12 12 0 128 135 0 130 138 0 12 12 0 129 136 0 107 111 0 131 140 0 0 139 0 132 141 0 131 140 0 107 111 0 108 112 0 132 141 0 107 111 0 133 142 0 132 141 0 108 112 0 109 113 0 133 142 0 108 112 0 134 143 0 133 142 0 109 113 0 110 114 0 134 143 0 109 113 0 135 144 0 134 143 0 110 114 0 111 115 0 135 144 0 110 114 0 136 145 0 135 144 0 111 115 0 112 116 0 136 145 0 111 115 0 113 117 0 136 145 0 112 116 0 131 140 0 32 34 0 0 146 0 34 36 0 32 34 0 131 140 0 132 141 0 34 36 0 131 140 0 36 38 0 34 36 0 132 141 0 133 142 0 36 38 0 132 141 0 38 40 0 36 38 0 133 142 0 134 143 0 38 40 0 133 142 0 40 42 0 38 40 0 134 143 0 135 144 0 40 42 0 134 143 0 42 44 0 40 42 0 135 144 0 136 145 0 42 44 0 135 144 0 137 147 0 42 44 0 136 145 0 70 72 3 139 149 3 138 148 3 140 150 3 139 149 3 70 72 3 141 151 3 140 150 3 70 72 3 142 152 3 140 150 3 141 151 3 143 153 3 142 152 3 141 151 3 144 154 3 142 152 3 143 153 3 145 155 3 144 154 3 143 153 3 146 156 5 144 154 3 145 155 3 147 157 5 146 156 5 145 155 3 148 158 4 146 156 5 147 157 5 149 159 4 148 158 4 147 157 5 70 72 3 151 161 3 150 160 3 152 162 3 151 161 3 70 72 3 138 148 3 152 162 3 70 72 3 153 163 3 152 162 3 138 148 3 154 164 3 153 163 3 138 148 3 155 165 3 153 163 3 154 164 3 156 166 3 155 165 3 154 164 3 157 167 5 155 165 3 156 166 3 158 168 5 157 167 5 156 166 3 159 169 4 157 167 5 158 168 5 160 50 4 159 169 4 158 168 5 70 72 3 161 170 3 72 74 3 162 171 3 161 170 3 70 72 3 150 160 3 162 171 3 70 72 3 163 172 3 162 171 3 150 160 3 164 173 3 163 172 3 150 160 3 165 174 3 163 172 3 164 173 3 166 175 3 165 174 3 164 173 3 167 176 5 165 174 3 166 175 3 168 177 5 167 176 5 166 175 3 169 119 4 167 176 5 168 177 5 170 178 4 169 119 4 168 177 5 70 72 3 171 179 3 141 151 3 172 180 3 171 179 3 70 72 3 173 181 3 172 180 3 70 72 3 174 182 3 172 180 3 173 181 3 175 183 3 174 182 3 173 181 3 176 184 3 174 182 3 175 183 3 177 185 3 176 184 3 175 183 3 178 186 5 176 184 3 177 185 3 62 187 5 178 186 5 177 185 3 60 188 4 178 186 5 62 187 5 56 58 0 179 189 0 58 60 0 180 190 0 179 189 0 56 58 0 54 56 0 180 190 0 56 58 0 181 191 0 180 190 0 54 56 0 52 54 0 181 191 0 54 56 0 182 192 0 181 191 0 52 54 0 50 52 0 182 192 0 52 54 0 183 193 0 182 192 0 50 52 0 184 194 0 183 193 0 50 52 0 185 158 0 183 193 0 184 194 0 186 196 0 117 123 0 0 195 0 118 124 0 117 123 0 186 196 0 187 197 0 118 124 0 186 196 0 119 125 0 118 124 0 187 197 0 188 198 0 119 125 0 187 197 0 120 126 0 119 125 0 188 198 0 189 199 0 120 126 0 188 198 0 121 127 0 120 126 0 189 199 0 190 200 0 121 127 0 189 199 0 122 128 0 121 127 0 190 200 0 191 202 0 186 196 0 0 201 0 187 197 0 186 196 0 191 202 0 192 203 0 187 197 0 191 202 0 188 198 0 187 197 0 192 203 0 193 204 0 188 198 0 192 203 0 189 199 0 188 198 0 193 204 0 194 205 0 189 199 0 193 204 0 190 200 0 189 199 0 194 205 0 63 65 5 195 106 4 61 63 4 196 206 5 195 106 4 63 65 5 65 67 3 196 206 5 63 65 5 197 207 3 196 206 5 65 67 3 67 69 3 197 207 3 65 67 3 198 208 3 197 207 3 67 69 3 69 71 3 198 208 3 67 69 3 71 73 3 198 208 3 69 71 3 73 75 3 198 208 3 71 73 3 199 209 3 198 208 3 73 75 3 75 77 3 199 209 3 73 75 3 200 210 5 199 209 3 75 77 3 77 79 5 200 210 5 75 77 3 201 138 4 200 210 5 77 79 5 79 81 4 201 138 4 77 79 5 177 185 3 64 211 3 62 187 5 202 212 3 64 211 3 177 185 3 175 183 3 202 212 3 177 185 3 203 213 3 202 212 3 175 183 3 173 181 3 203 213 3 175 183 3 70 72 3 203 213 3 173 181 3 204 215 0 191 202 0 0 214 0 192 203 0 191 202 0 204 215 0 205 216 0 192 203 0 204 215 0 193 204 0 192 203 0 205 216 0 179 217 0 193 204 0 205 216 0 194 205 0 193 204 0 179 217 0 206 218 0 182 192 0 183 193 0 181 191 0 182 192 0 206 218 0 207 219 0 181 191 0 206 218 0 180 190 0 181 191 0 207 219 0 194 220 0 180 190 0 207 219 0 179 189 0 180 190 0 194 220 0 95 222 1 209 221 0 208 188 0 210 223 1 209 221 0 95 222 1 96 224 2 210 223 1 95 222 1 211 225 1 210 223 1 96 224 2 123 226 1 211 225 1 96 224 2 122 227 0 211 225 1 123 226 1 199 209 3 197 207 3 198 208 3 212 228 5 197 207 3 199 209 3 200 210 5 212 228 5 199 209 3 213 229 4 212 228 5 200 210 5 201 138 4 213 229 4 200 210 5 214 230 3 78 80 5 76 78 3 215 231 5 78 80 5 214 230 3 165 174 3 215 231 5 214 230 3 167 176 5 215 231 5 165 174 3 130 138 0 14 14 1 12 12 0 16 16 1 14 14 1 130 138 0 216 81 0 16 16 1 130 138 0 18 18 0 16 16 1 216 81 0 151 161 3 164 173 3 150 160 3 217 232 3 164 173 3 151 161 3 152 162 3 217 232 3 151 161 3 153 163 3 217 232 3 152 162 3 217 232 3 166 175 3 164 173 3 218 233 3 166 175 3 217 232 3 153 163 3 218 233 3 217 232 3 155 165 3 218 233 3 153 163 3 218 233 3 168 177 5 166 175 3 219 234 5 168 177 5 218 233 3 155 165 3 219 234 5 218 233 3 157 167 5 219 234 5 155 165 3 220 236 0 204 215 0 0 235 0 205 216 0 204 215 0 220 236 0 58 237 0 205 216 0 220 236 0 179 217 0 205 216 0 58 237 0 219 234 5 170 178 4 168 177 5 221 147 4 170 178 4 219 234 5 157 167 5 221 147 4 219 234 5 159 169 4 221 147 4 157 167 5 139 149 3 154 164 3 138 148 3 222 238 3 154 164 3 139 149 3 140 150 3 222 238 3 139 149 3 142 152 3 222 238 3 140 150 3 222 238 3 156 166 3 154 164 3 223 239 3 156 166 3 222 238 3 142 152 3 223 239 3 222 238 3 144 154 3 223 239 3 142 152 3 46 48 1 224 169 0 48 50 0 137 147 0 224 169 0 46 48 1 44 46 1 137 147 0 46 48 1 42 44 0 137 147 0 44 46 1 225 194 4 146 156 5 148 158 4 226 240 5 146 156 5 225 194 4 160 50 4 226 240 5 225 194 4 158 168 5 226 240 5 160 50 4 226 240 5 144 154 3 146 156 5 223 239 3 144 154 3 226 240 5 158 168 5 223 239 3 226 240 5 156 166 3 223 239 3 158 168 5 227 241 3 145 155 3 143 153 3 228 242 3 145 155 3 227 241 3 174 182 3 228 242 3 227 241 3 176 184 3 228 242 3 174 182 3 207 219 0 190 243 0 194 220 0 229 244 0 190 243 0 207 219 0 206 218 0 229 244 0 207 219 0 209 221 0 229 244 0 206 218 0 215 231 5 80 18 4 78 80 5 230 118 4 80 18 4 215 231 5 167 176 5 230 118 4 215 231 5 169 119 4 230 118 4 167 176 5 228 242 3 147 157 5 145 155 3 231 245 5 147 157 5 228 242 3 176 184 3 231 245 5 228 242 3 178 186 5 231 245 5 176 184 3 202 212 3 66 246 3 64 211 3 232 247 3 66 246 3 202 212 3 203 213 3 232 247 3 202 212 3 70 72 3 232 247 3 203 213 3 231 245 5 149 159 4 147 157 5 233 221 4 149 159 4 231 245 5 178 186 5 233 221 4 231 245 5 60 188 4 233 221 4 178 186 5 171 179 3 143 153 3 141 151 3 227 241 3 143 153 3 171 179 3 172 180 3 227 241 3 171 179 3 174 182 3 227 241 3 172 180 3 161 170 3 74 76 3 72 74 3 234 248 3 74 76 3 161 170 3 162 171 3 234 248 3 161 170 3 163 172 3 234 248 3 162 171 3 234 248 3 76 78 3 74 76 3 214 230 3 76 78 3 234 248 3 163 172 3 214 230 3 234 248 3 165 174 3 214 230 3 163 172 3 212 228 5 196 206 5 197 207 3 235 107 4 196 206 5 212 228 5 213 229 4 235 107 4 212 228 5 236 249 1 123 129 1 96 97 2 92 94 0 123 129 1 236 249 1 94 95 1 92 94 0 236 249 1 237 250 1 116 121 1 45 47 3 49 51 0 116 121 1 237 250 1 47 49 1 49 51 0 237 250 1 238 251 1 106 109 1 15 15 2 19 19 0 106 109 1 238 251 1 17 17 1 19 19 0 238 251 1 239 229 0 103 105 0 105 107 0 129 136 0 103 105 0 239 229 0 240 178 0 113 117 0 115 119 0 136 145 0 113 117 0 240 178 0 59 253 0 220 236 0 0 252 0 58 237 0 220 236 0 59 253 0 241 159 0 183 193 0 185 158 0 206 218 0 183 193 0 241 159 0 122 227 0 229 244 0 211 225 1 190 243 0 229 244 0 122 227 0 210 223 1 229 244 0 209 221 0 211 225 1 229 244 0 210 223 1 68 254 3 232 247 3 70 72 3 66 246 3 232 247 3 68 254 3 18 18 0 114 118 0 20 20 0 48 50 0 184 194 0 50 52 0 239 229 0 130 138 0 129 136 0 240 178 0 137 147 0 136 145 0 241 159 0 209 221 0 206 218 0 93 63 0 104 106 0 91 93 0 94 95 1 236 249 1 96 97 2 235 107 4 195 106 4 196 206 5 93 63 0 95 96 1 208 62 0 47 49 1 237 250 1 45 47 3 17 17 1 238 251 1 15 15 2</p>
                </polylist>
            </mesh>
        </geometry>
        <geometry id="mesh1">
            <mesh>
                <source id="points1">
                    <float_array id="pointarray1" count="663">-1343.2128223939537 2326.598711371703 0 -1222.798804964496 2444.0368414934746 -128 -1264.3684078477424 2420.037505749976 -172 -1232.2681297385313 2579.4420920871053 -333 -1330.5629198895413 2522.693662776957 -385.5 -1391.4368257440035 2712.1365765690066 -535 -1540.39456940897 2626.1389568214686 -555.5 -1670.7882184939665 2842.995467625961 -662.5 -1847.0260140510636 2741.248283796752 -622 -2015.739749779641 2984.478473897627 -688.5 -2189.379445156535 2884.2312485523867 -576.5 -2375.954174116802 3141.3982575434375 -618.5 -2520.5817508147634 3057.9005686025143 -437.5 -3192.1643292559556 4006.152692425224 -509.5 -3296.5213531607724 3945.9043599858155 -249 -4064.37372208114 5079.907331561896 -277 -4096.849974333676 5061.157850512287 39 -4827.029890641102 6216.910220105913 41 -4770.737720070039 6249.409320591901 370.5 -5471.905517698532 7421.911226589844 378 -5326.84492430387 7505.658908611428 677.5 -5991.2063027128215 8699.410226465594 660.5 -5779.028121329584 8821.906835989703 887.5 -1195.5187530723654 2459.786405575146 -71.5 -1152.593057545642 2625.4408189288115 -247.5 -1254.6035495866504 2791.1343900580237 -462 -1492.8183561500673 2945.7426237778154 -638 -1820.4492195677224 3097.2253532759396 -733 -2189.7569945355935 3248.8952822278598 -738.5 -3023.720834239467 4103.400000802527 -720 -3948.32524736541 5146.905477179163 -566 -4792.821571601764 6236.659673478167 -292 -5529.496738359697 7388.6621468618705 42 -6132.36974583718 8617.912482169962 368.5 -1184.6933356548532 2466.036232591682 -8 -1099.3320038514826 2656.1899678501695 -138 -1143.7512752313264 2855.132618707354 -344 -1329.5710614939846 3039.9900151871807 -551 -1623.4266225690021 3210.972204976898 -706 -1980.176913332559 3369.891933268 -786.5 -2806.7794691925246 4228.646534213912 -860 -3760.8290176941 5255.15248110557 -800 -4670.710863132227 6307.157722224695 -596.5 -5494.422385926957 7408.9115863954485 -298 -6188.661916408242 8585.413381683975 41 -1191.1885861053606 2462.2863363817605 56 -1078.1141857131588 2668.43962880258 -15 -1070.138436792244 2897.6314424198 -192 -1197.500969000337 3116.237904788922 -410 -1442.8586600449 3315.2193196127214 -610 -1768.8647653427224 3491.888556630786 -757.5 -2562.9910689501517 4369.3926386263065 -916 -3520.071734328631 5394.148633953335 -955.5 -4473.2552494368065 6421.154567006315 -843 -5370.146593973918 7480.659600545283 -609 -6154.453597368904 8605.16283505623 -290.5 -1215.0045044238873 2448.5367169453807 115 -1091.1046866141733 2660.9398363827368 109 -1041.1263181133115 2914.380978824117 -21 -1110.0315962668392 3166.7365070825344 -229 -1296.9320332568368 3399.466987795629 -454 -1575.306301917606 3603.6354636864526 -654 -2317.0375852242764 4511.3887084420085 -882 -3249.436298890828 5550.3943093667385 -1017.5 -4219.507465170323 6567.650512273923 -1007 -5168.360813311492 7597.156376133517 -860.5 -6033.208922292769 8675.160897641434 -594 -1253.1099737335298 2426.5373258471736 163 -1136.5714397677243 2634.690562913285 222.5 -1058.8800026780314 2904.1312625169976 151 -1074.9572438340997 3186.9859466161115 -25.5 -1199.936293195928 3455.465437863793 -253.5 -1418.5542577120307 3694.1329588858966 -487 -2091.435886243324 4641.635103466622 -761.5 -2975.769746576122 5708.389936344774 -980 -3934.149462044703 6732.395952429816 -1072 -4908.983811987902 7746.902231449724 -1028 -5836.619341990749 8788.657756261731 -839 -1302.0408604606846 2398.28810773243 194.5 -1210.6172949035072 2591.9417461201774 314.5 -1122.1004403963022 2867.6322727404263 309 -1096.1750619724235 3174.736285663701 180 -1161.3978071895851 3477.7148220426616 -28 -1314.6302505039143 3754.131298244644 -272 -1909.1358569324202 4746.882190425091 -567 -2725.486095883242 5852.885936967089 -846 -3645.76034204218 6898.89134415034 -1032.5 -4617.996591805177 7914.897581654216 -1094.5 -5583.737591117666 8934.653715368016 -1002 -1357.033980941646 2366.5389864884264 207 -1305.4479514809132 2537.1932614553207 376 -1224.2923808176165 2808.633905704325 437 -1171.5199671983078 3131.237489628609 368.5 -1184.7807088114114 3464.2151956869434 199.5 -1273.0606476206679 3778.1306339881426 -30 -1787.8911818562847 4816.880253010296 -316.5 -2522.834281827415 5969.882698716647 -629.5 -3382.0531737515853 7051.13713027316 -891.5 -4323.545238048848 8084.892876504 -1054 -5300.111654778849 9098.399183201263 -1067 -1412.4601181193082 2334.539872163761 199.5 -1411.9700588692324 2475.6949636126046 400.5 -1355.9294566145638 2732.6360091832453 522 -1293.6306756678446 3060.739440882081 521 -1267.9199145779044 3416.2165241999455 408 -1298.175616029296 3763.631035309779 214 -1739.3933118258303 4844.879478044378 -35 -2388.1660891535644 6047.630546802357 -351.5 -3168.5759422782467 7174.383719039254 -663.5 -4054.208852701146 8240.38857267542 -910.5 -5013.0215848664275 9264.144595679803 -1027.5 -1463.5560883299652 2305.0406886457104 172 -1519.3581996509524 2413.696679608566 385.5 -1504.0211668861295 2647.1383755970305 555.5 -1450.3827198734198 2970.2419456826374 622 -1403.0211239484554 3338.2186830335745 576.5 -1387.8100722462964 3711.8824676128593 437.5 -1768.8384472014632 4827.8799485594 249 -2334.4720187627045 6078.629688804376 -39 -3026.5464657604875 7256.381449496209 -370.5 -3836.4014542608024 8366.135092248129 -677.5 -4750.180449969233 9415.890395641301 -887.5 -1315.4643780583995 2390.538322231925 -199.5 -1437.9510606712613 2460.695378772918 -400.5 -1688.4862796805357 2540.641323235254 -522 -2003.7780582566388 2650.750788597308 -521 -2324.4806545270862 2806.2334073860156 -408 -2610.2162070317636 3006.152000905595 -214 -3325.9664885364054 3928.904830500837 35 -4043.155903942816 5092.156992514307 351.5 -4628.70824355228 6331.4070510488555 663.5 -5109.037525863526 7631.405428184135 910.5 -1617.6529898019623 2356.9482502984174 333 -1652.978910551096 2561.1407558494925 535 -1626.620515430517 2868.4947618534284 662.5 -1576.6608193253496 3237.9714576883343 688.5 -1532.437648944258 3628.384778671936 618.5 -1873.19547110628 4767.631616119991 509.5 -2366.9482710152406 6059.880207754767 277 -2970.2542951894247 7288.8805499821965 -41 -3691.3408608661402 8449.882774269712 -378 -4538.002268585996 9538.38700516541 -660.5 -1370.8905152360617 2358.53920790726 -207 -1544.4731680595805 2399.197080930202 -376 -1820.123355477483 2464.643426714174 -437 -2125.8887667261756 2580.25273985078 -368.5 -2407.619860293579 2758.234735899018 -199.5 -2635.331175440392 2991.652402227231 30 -3277.468618505951 3956.904055534919 316.5 -3908.4877112689655 5169.9048406000165 629.5 -4415.231012078941 6454.653639814949 891.5 -1789.8121867084492 2482.1429423604754 462 -1804.590377774416 2765.747605701574 638 -1771.9513495372682 3125.2245783100216 733 -1718.6348285254664 3520.887753987514 738.5 -2041.6389661227684 4670.384307742688 720 -2482.9967457309704 5992.8820621375 566 -3004.462614228763 7269.131096609943 292 -3633.7496402049755 8483.131853997686 -42 -4396.8388254616375 9619.884749461042 -368.5 -1425.883635717023 2326.7900866632563 -194.5 -1639.3038246369865 2344.4485962653453 -314.5 -1922.3152958987973 2405.645059678073 -309 -2201.23367195206 2536.753943815688 -180 -2431.0027619154052 2744.7351095432996 28 -2593.7615725571454 3015.6517379707298 272 -3156.2239434298153 4026.902118120124 567 -3705.8358972131387 5286.901602349574 846 -1967.8376724304987 2671.5002142922085 551 -1968.9739465359885 3011.477726609063 706 -1928.2149097285007 3399.891102947374 786.5 -2258.580331169711 4545.137774331303 860 -2670.4929754022805 5884.635058211094 800 -3126.5733226982993 7198.6330478634145 596.5 -3668.823992637715 8462.882414464108 298 -4340.546654890575 9652.38384994703 -41 -1474.8145224441778 2298.5408685485127 -163 -1713.3496797727694 2301.699779472238 -222.5 -1985.5357336170682 2369.1460699015015 -151 -2222.4514900903837 2524.5042828632777 25.5 -2392.4642759090625 2766.9844937221683 253.5 -2489.8375653490293 3075.650077329477 487 -2973.9239141189114 4132.149205078593 761.5 -2149.541909060091 2907.23061197324 610 -2139.5270577183373 3277.8944795845878 757.5 -2502.368731412084 4404.3916699189085 916 -2911.2502587677495 5745.638905363328 955.5 -3324.0289363937204 7084.6362030817945 843 -3793.099784590754 8391.134400314273 609 -4374.754973929913 9632.634396574775 290.5 -1512.9199917538203 2276.5414774503056 -115 -1758.8164329263204 2275.450506002786 -109 -2003.289418181788 2358.896353594382 21 -2187.377137657644 2544.7537223968548 229 -2295.468535848154 2822.9829437903322 454 -2333.0855211434537 3166.147572528921 654 -2748.322215137959 4262.395600103207 882 -3181.8856942055527 5589.393229949925 1017.5 -3577.7767206602043 6938.140257814187 1007 -3994.8855652531797 8274.637624726038 860.5 -4495.9996490060485 9562.63633398957 594 -1536.735910072347 2262.791858013926 -56 -1771.806933827335 2267.9507135829426 15 -1974.2772995028556 2375.645889998699 192 -2099.9077649241462 2595.252324690467 410 -4692.589229308069 9449.139475369273 839 -4254.26256657677 8124.891769409832 1028 -4945.470980181151 9303.143516262988 1002 -4545.249786759496 7956.89641920534 1094.5 -5229.0969165199685 9139.39804842974 1067 -4839.701140515825 7786.901124355556 1054 -5516.18698643239 8973.6526359512 1027.5 -1543.2311605228545 2259.041961804004 8 -1750.5891156890111 2280.200374535353 138 -1900.6644610637732 2418.144713711145 344 -3863.1347237858236 6773.3948176582935 1072 -4151.523843788346 6606.89942593777 1032.5 -1532.4057431053423 2265.29178882054 71.5 -1697.3280619948516 2310.949523456711 247.5 -3455.5522465202584 5431.39760297189 980 -1505.1256912132117 2281.0413529022117 128</float_array>
                    <technique_common>
                        <accessor count="221" source="#pointarray1" stride="3">
                            <param name="X" type="float"/>
                            <param name="Y" type="float"/>
                            <param name="Z" type="float"/>
                        </accessor>
                    </technique_common>
                </source>
                <source id="uvs1">
                    <float_array id="uvarray1" count="502">0.4749755859375 0 0.449951171875 0.0833740234375 0.5 0.0833740234375 0.5 0.16668701171875 0.54998779296875 0.16668701171875 0.54998779296875 0.25 0.5999755859375 0.25 0.5999755859375 0.3333740234375 0.64996337890625 0.3333740234375 0.64996337890625 0.41668701171875 0.699951171875 0.41668701171875 0.699951171875 0.5 0.75 0.5 0.75 0.85296630859375 0.79998779296875 0.85296630859375 0.79998779296875 1.20550537109375 0.8499755859375 1.20550537109375 0.8499755859375 1.55810546875 0.89996337890625 1.55810546875 0.89996337890625 1.91070556640625 0.949951171875 1.91070556640625 0.949951171875 2.2633056640625 1 2.2633056640625 0.42498779296875 0 0.39996337890625 0.0833740234375 0.449951171875 0.16668701171875 0.5 0.25 0.54998779296875 0.3333740234375 0.5999755859375 0.41668701171875 0.64996337890625 0.5 0.699951171875 0.85296630859375 0.75 1.20550537109375 0.79998779296875 1.55810546875 0.8499755859375 1.91070556640625 0.89996337890625 2.2633056640625 0.375 0 0.3499755859375 0.0833740234375 0.39996337890625 0.16668701171875 0.449951171875 0.25 0.5 0.3333740234375 0.54998779296875 0.41668701171875 0.5999755859375 0.5 0.64996337890625 0.85296630859375 0.699951171875 1.20550537109375 0.75 1.55810546875 0.79998779296875 1.91070556640625 0.8499755859375 2.2633056640625 0.324951171875 0 0.29998779296875 0.0833740234375 0.3499755859375 0.16668701171875 0.39996337890625 0.25 0.449951171875 0.3333740234375 0.5 0.41668701171875 0.54998779296875 0.5 0.5999755859375 0.85296630859375 0.64996337890625 1.20550537109375 0.699951171875 1.55810546875 0.75 1.91070556640625 0.79998779296875 2.2633056640625 0.27496337890625 0 0.25 0.0833740234375 0.29998779296875 0.16668701171875 0.3499755859375 0.25 0.39996337890625 0.3333740234375 0.449951171875 0.41668701171875 0.5 0.5 0.54998779296875 0.85296630859375 0.5999755859375 1.20550537109375 0.64996337890625 1.55810546875 0.699951171875 1.91070556640625 0.75 2.2633056640625 0.2249755859375 0 0.199951171875 0.0833740234375 0.25 0.16668701171875 0.29998779296875 0.25 0.3499755859375 0.3333740234375 0.39996337890625 0.41668701171875 0.449951171875 0.5 0.5 0.85296630859375 0.54998779296875 1.20550537109375 0.5999755859375 1.55810546875 0.64996337890625 1.91070556640625 0.699951171875 2.2633056640625 0.17498779296875 0 0.14996337890625 0.0833740234375 0.199951171875 0.16668701171875 0.25 0.25 0.29998779296875 0.3333740234375 0.3499755859375 0.41668701171875 0.39996337890625 0.5 0.449951171875 0.85296630859375 0.5 1.20550537109375 0.54998779296875 1.55810546875 0.5999755859375 1.91070556640625 0.64996337890625 2.2633056640625 0.125 0 0.0999755859375 0.0833740234375 0.14996337890625 0.16668701171875 0.199951171875 0.25 0.25 0.3333740234375 0.29998779296875 0.41668701171875 0.3499755859375 0.5 0.39996337890625 0.85296630859375 0.449951171875 1.20550537109375 0.5 1.55810546875 0.54998779296875 1.91070556640625 0.5999755859375 2.2633056640625 0.074951171875 0 0.04998779296875 0.0833740234375 0.0999755859375 0.16668701171875 0.14996337890625 0.25 0.199951171875 0.3333740234375 0.25 0.41668701171875 0.29998779296875 0.5 0.3499755859375 0.85296630859375 0.39996337890625 1.20550537109375 0.449951171875 1.55810546875 0.5 1.91070556640625 0.54998779296875 2.2633056640625 0.02496337890625 0 0 0.0833740234375 0.04998779296875 0.16668701171875 0.0999755859375 0.25 0.14996337890625 0.3333740234375 0.199951171875 0.41668701171875 0.25 0.5 0.29998779296875 0.85296630859375 0.3499755859375 1.20550537109375 0.39996337890625 1.55810546875 0.449951171875 1.91070556640625 0.5 2.2633056640625 0.52496337890625 0 0.54998779296875 0.0833740234375 0.5999755859375 0.16668701171875 0.64996337890625 0.25 0.699951171875 0.3333740234375 0.75 0.41668701171875 0.79998779296875 0.5 0.8499755859375 0.85296630859375 0.89996337890625 1.20550537109375 0.949951171875 1.55810546875 1 1.91070556640625 0 0.16668701171875 0.04998779296875 0.25 0.0999755859375 0.3333740234375 0.14996337890625 0.41668701171875 0.199951171875 0.5 0.25 0.85296630859375 0.29998779296875 1.20550537109375 0.3499755859375 1.55810546875 0.39996337890625 1.91070556640625 0.449951171875 2.2633056640625 0.574951171875 0 0.5999755859375 0.0833740234375 0.64996337890625 0.16668701171875 0.699951171875 0.25 0.75 0.3333740234375 0.79998779296875 0.41668701171875 0.8499755859375 0.5 0.89996337890625 0.85296630859375 0.949951171875 1.20550537109375 1 1.55810546875 0 0.25 0.04998779296875 0.3333740234375 0.0999755859375 0.41668701171875 0.14996337890625 0.5 0.199951171875 0.85296630859375 0.25 1.20550537109375 0.29998779296875 1.55810546875 0.3499755859375 1.91070556640625 0.39996337890625 2.2633056640625 0.625 0 0.64996337890625 0.0833740234375 0.699951171875 0.16668701171875 0.75 0.25 0.79998779296875 0.3333740234375 0.8499755859375 0.41668701171875 0.89996337890625 0.5 0.949951171875 0.85296630859375 1 1.20550537109375 0 0.3333740234375 0.04998779296875 0.41668701171875 0.0999755859375 0.5 0.14996337890625 0.85296630859375 0.199951171875 1.20550537109375 0.25 1.55810546875 0.29998779296875 1.91070556640625 0.3499755859375 2.2633056640625 0.67498779296875 0 0.699951171875 0.0833740234375 0.75 0.16668701171875 0.79998779296875 0.25 0.8499755859375 0.3333740234375 0.89996337890625 0.41668701171875 0.949951171875 0.5 1 0.85296630859375 0 0.41668701171875 0.04998779296875 0.5 0.0999755859375 0.85296630859375 0.14996337890625 1.20550537109375 0.199951171875 1.55810546875 0.25 1.91070556640625 0.29998779296875 2.2633056640625 0.7249755859375 0 0.75 0.0833740234375 0.79998779296875 0.16668701171875 0.8499755859375 0.25 0.89996337890625 0.3333740234375 0.949951171875 0.41668701171875 1 0.5 0 0.5 0.04998779296875 0.85296630859375 0.0999755859375 1.20550537109375 0.14996337890625 1.55810546875 0.199951171875 1.91070556640625 0.25 2.2633056640625 0.77496337890625 0 0.79998779296875 0.0833740234375 0.8499755859375 0.16668701171875 0.89996337890625 0.25 0.949951171875 0.3333740234375 1 0.41668701171875 0.199951171875 2.2633056640625 0.14996337890625 1.91070556640625 0.14996337890625 2.2633056640625 0.0999755859375 1.91070556640625 0.0999755859375 2.2633056640625 0.04998779296875 1.91070556640625 0.04998779296875 2.2633056640625 0 1.91070556640625 0 2.2633056640625 0.824951171875 0 0.8499755859375 0.0833740234375 0.89996337890625 0.16668701171875 0.949951171875 0.25 1 0.3333740234375 0.0999755859375 1.55810546875 0.04998779296875 1.55810546875 0 1.55810546875 0.875 0 0.89996337890625 0.0833740234375 0.949951171875 0.16668701171875 1 0.25 0.04998779296875 1.20550537109375 0 1.20550537109375 0.92498779296875 0 0.949951171875 0.0833740234375 1 0.16668701171875 0 0.85296630859375 0.9749755859375 0 1 0.0833740234375</float_array>
                    <technique_common>
                        <accessor count="251" source="#uvarray1" stride="2">
                            <param name="S" type="float"/>
                            <param name="T" type="float"/>
                        </accessor>
                    </technique_common>
                </source>
                <source id="colors1">
                    <float_array id="colorarray1" count="12">1 1 1 1 0.5019607843137255 0.5019607843137255 0.5019607843137255 1 0 0 0 1</float_array>
                    <technique_common>
                        <accessor count="3" source="#colorarray1" stride="4">
                            <param name="R" type="float"/>
                            <param name="G" type="float"/>
                            <param name="B" type="float"/>
                            <param name="A" type="float"/>
                        </accessor>
                    </technique_common>
                </source>
                <vertices id="vertices1">
                    <input semantic="POSITION" source="#points1"/>
                </vertices>
                <polylist count="420" material="Material1">
                    <input offset="0" semantic="VERTEX" source="#vertices1"/>
                    <input offset="1" semantic="TEXCOORD" source="#uvs1" set="0"/>
                    <input offset="2" semantic="COLOR" source="#colors1" set="0"/>
                    <vcount>3 3 3 3 3 3 3 3 3 3 3 3 3 3 3 3 3 3 3 3 3 3 3 3 3 3 3 3 3 3 3 3 3 3 3 3 3 3 3 3 3 3 3 3 3 3 3 3 3 3 3 3 3 3 3 3 3 3 3 3 3 3 3 3 3 3 3 3 3 3 3 3 3 3 3 3 3 3 3 3 3 3 3 3 3 3 3 3 3 3 3 3 3 3 3 3 3 3 3 3 3 3 3 3 3 3 3 3 3 3 3 3 3 3 3 3 3 3 3 3 3 3 3 3 3 3 3 3 3 3 3 3 3 3 3 3 3 3 3 3 3 3 3 3 3 3 3 3 3 3 3 3 3 3 3 3 3 3 3 3 3 3 3 3 3 3 3 3 3 3 3 3 3 3 3 3 3 3 3 3 3 3 3 3 3 3 3 3 3 3 3 3 3 3 3 3 3 3 3 3 3 3 3 3 3 3 3 3 3 3 3 3 3 3 3 3 3 3 3 3 3 3 3 3 3 3 3 3 3 3 3 3 3 3 3 3 3 3 3 3 3 3 3 3 3 3 3 3 3 3 3 3 3 3 3 3 3 3 3 3 3 3 3 3 3 3 3 3 3 3 3 3 3 3 3 3 3 3 3 3 3 3 3 3 3 3 3 3 3 3 3 3 3 3 3 3 3 3 3 3 3 3 3 3 3 3 3 3 3 3 3 3 3 3 3 3 3 3 3 3 3 3 3 3 3 3 3 3 3 3 3 3 3 3 3 3 3 3 3 3 3 3 3 3 3 3 3 3 3 3 3 3 3 3 3 3 3 3 3 3 3 3 3 3 3 3 3 3 3 3 3 3 3 3 3 3 3 3 3 3 3 3 3 3 3 3 3 3 3 3 3 3 3 3 3 3 3 3 3 3 3 3 3 3 3 3 3 3 3 3 3 3 3 3 3 3 3 3 3 3</vcount>
                    <p>2 2 0 1 1 0 0 0 0 3 3 0 1 1 0 2 2 0 4 4 0 3 3 0 2 2 0 5 5 0 3 3 0 4 4 0 6 6 0 5 5 0 4 4 0 7 7 0 5 5 0 6 6 0 8 8 0 7 7 0 6 6 0 9 9 0 7 7 0 8 8 0 10 10 0 9 9 0 8 8 0 11 11 0 9 9 0 10 10 0 12 12 0 11 11 0 10 10 0 13 13 0 11 11 0 12 12 0 14 14 0 13 13 0 12 12 0 15 15 0 13 13 0 14 14 0 16 16 0 15 15 0 14 14 0 17 17 0 15 15 0 16 16 0 18 18 0 17 17 0 16 16 0 19 19 1 17 17 0 18 18 0 20 20 1 19 19 1 18 18 0 21 21 2 19 19 1 20 20 1 22 22 2 21 21 2 20 20 1 1 1 0 23 24 0 0 23 0 24 25 0 23 24 0 1 1 0 3 3 0 24 25 0 1 1 0 25 26 0 24 25 0 3 3 0 5 5 0 25 26 0 3 3 0 26 27 0 25 26 0 5 5 0 7 7 0 26 27 0 5 5 0 27 28 0 26 27 0 7 7 0 9 9 0 27 28 0 7 7 0 28 29 0 27 28 0 9 9 0 11 11 0 28 29 0 9 9 0 29 30 0 28 29 0 11 11 0 13 13 0 29 30 0 11 11 0 30 31 0 29 30 0 13 13 0 15 15 0 30 31 0 13 13 0 31 32 0 30 31 0 15 15 0 17 17 0 31 32 0 15 15 0 32 33 1 31 32 0 17 17 0 19 19 1 32 33 1 17 17 0 33 34 2 32 33 1 19 19 1 21 21 2 33 34 2 19 19 1 23 24 0 34 36 0 0 35 0 35 37 0 34 36 0 23 24 0 24 25 0 35 37 0 23 24 0 36 38 0 35 37 0 24 25 0 25 26 0 36 38 0 24 25 0 37 39 0 36 38 0 25 26 0 26 27 0 37 39 0 25 26 0 38 40 0 37 39 0 26 27 0 27 28 0 38 40 0 26 27 0 39 41 0 38 40 0 27 28 0 28 29 0 39 41 0 27 28 0 40 42 0 39 41 0 28 29 0 29 30 0 40 42 0 28 29 0 41 43 0 40 42 0 29 30 0 30 31 0 41 43 0 29 30 0 42 44 0 41 43 0 30 31 0 31 32 0 42 44 0 30 31 0 43 45 1 42 44 0 31 32 0 32 33 1 43 45 1 31 32 0 44 46 2 43 45 1 32 33 1 33 34 2 44 46 2 32 33 1 34 36 0 45 48 0 0 47 0 46 49 0 45 48 0 34 36 0 35 37 0 46 49 0 34 36 0 47 50 0 46 49 0 35 37 0 36 38 0 47 50 0 35 37 0 48 51 0 47 50 0 36 38 0 37 39 0 48 51 0 36 38 0 49 52 0 48 51 0 37 39 0 38 40 0 49 52 0 37 39 0 50 53 0 49 52 0 38 40 0 39 41 0 50 53 0 38 40 0 51 54 0 50 53 0 39 41 0 40 42 0 51 54 0 39 41 0 52 55 0 51 54 0 40 42 0 41 43 0 52 55 0 40 42 0 53 56 0 52 55 0 41 43 0 42 44 0 53 56 0 41 43 0 54 57 1 53 56 0 42 44 0 43 45 1 54 57 1 42 44 0 55 58 2 54 57 1 43 45 1 44 46 2 55 58 2 43 45 1 45 48 0 56 60 0 0 59 0 57 61 0 56 60 0 45 48 0 46 49 0 57 61 0 45 48 0 58 62 0 57 61 0 46 49 0 47 50 0 58 62 0 46 49 0 59 63 0 58 62 0 47 50 0 48 51 0 59 63 0 47 50 0 60 64 0 59 63 0 48 51 0 49 52 0 60 64 0 48 51 0 61 65 0 60 64 0 49 52 0 50 53 0 61 65 0 49 52 0 62 66 0 61 65 0 50 53 0 51 54 0 62 66 0 50 53 0 63 67 0 62 66 0 51 54 0 52 55 0 63 67 0 51 54 0 64 68 0 63 67 0 52 55 0 53 56 0 64 68 0 52 55 0 65 69 1 64 68 0 53 56 0 54 57 1 65 69 1 53 56 0 66 70 2 65 69 1 54 57 1 55 58 2 66 70 2 54 57 1 56 60 0 67 72 0 0 71 0 68 73 0 67 72 0 56 60 0 57 61 0 68 73 0 56 60 0 69 74 0 68 73 0 57 61 0 58 62 0 69 74 0 57 61 0 70 75 0 69 74 0 58 62 0 59 63 0 70 75 0 58 62 0 71 76 0 70 75 0 59 63 0 60 64 0 71 76 0 59 63 0 72 77 0 71 76 0 60 64 0 61 65 0 72 77 0 60 64 0 73 78 0 72 77 0 61 65 0 62 66 0 73 78 0 61 65 0 74 79 0 73 78 0 62 66 0 63 67 0 74 79 0 62 66 0 75 80 0 74 79 0 63 67 0 64 68 0 75 80 0 63 67 0 76 81 1 75 80 0 64 68 0 65 69 1 76 81 1 64 68 0 77 82 2 76 81 1 65 69 1 66 70 2 77 82 2 65 69 1 67 72 0 78 84 0 0 83 0 79 85 0 78 84 0 67 72 0 68 73 0 79 85 0 67 72 0 80 86 0 79 85 0 68 73 0 69 74 0 80 86 0 68 73 0 81 87 0 80 86 0 69 74 0 70 75 0 81 87 0 69 74 0 82 88 0 81 87 0 70 75 0 71 76 0 82 88 0 70 75 0 83 89 0 82 88 0 71 76 0 72 77 0 83 89 0 71 76 0 84 90 0 83 89 0 72 77 0 73 78 0 84 90 0 72 77 0 85 91 0 84 90 0 73 78 0 74 79 0 85 91 0 73 78 0 86 92 0 85 91 0 74 79 0 75 80 0 86 92 0 74 79 0 87 93 1 86 92 0 75 80 0 76 81 1 87 93 1 75 80 0 88 94 2 87 93 1 76 81 1 77 82 2 88 94 2 76 81 1 78 84 0 89 96 0 0 95 0 90 97 0 89 96 0 78 84 0 79 85 0 90 97 0 78 84 0 91 98 0 90 97 0 79 85 0 80 86 0 91 98 0 79 85 0 92 99 0 91 98 0 80 86 0 81 87 0 92 99 0 80 86 0 93 100 0 92 99 0 81 87 0 82 88 0 93 100 0 81 87 0 94 101 0 93 100 0 82 88 0 83 89 0 94 101 0 82 88 0 95 102 0 94 101 0 83 89 0 84 90 0 95 102 0 83 89 0 96 103 0 95 102 0 84 90 0 85 91 0 96 103 0 84 90 0 97 104 0 96 103 0 85 91 0 86 92 0 97 104 0 85 91 0 98 105 1 97 104 0 86 92 0 87 93 1 98 105 1 86 92 0 99 106 2 98 105 1 87 93 1 88 94 2 99 106 2 87 93 1 89 96 0 100 108 0 0 107 0 101 109 0 100 108 0 89 96 0 90 97 0 101 109 0 89 96 0 102 110 0 101 109 0 90 97 0 91 98 0 102 110 0 90 97 0 103 111 0 102 110 0 91 98 0 92 99 0 103 111 0 91 98 0 104 112 0 103 111 0 92 99 0 93 100 0 104 112 0 92 99 0 105 113 0 104 112 0 93 100 0 94 101 0 105 113 0 93 100 0 106 114 0 105 113 0 94 101 0 95 102 0 106 114 0 94 101 0 107 115 0 106 114 0 95 102 0 96 103 0 107 115 0 95 102 0 108 116 0 107 115 0 96 103 0 97 104 0 108 116 0 96 103 0 109 117 1 108 116 0 97 104 0 98 105 1 109 117 1 97 104 0 110 118 2 109 117 1 98 105 1 99 106 2 110 118 2 98 105 1 100 108 0 111 120 0 0 119 0 112 121 0 111 120 0 100 108 0 101 109 0 112 121 0 100 108 0 113 122 0 112 121 0 101 109 0 102 110 0 113 122 0 101 109 0 114 123 0 113 122 0 102 110 0 103 111 0 114 123 0 102 110 0 115 124 0 114 123 0 103 111 0 104 112 0 115 124 0 103 111 0 116 125 0 115 124 0 104 112 0 105 113 0 116 125 0 104 112 0 117 126 0 116 125 0 105 113 0 106 114 0 117 126 0 105 113 0 118 127 0 117 126 0 106 114 0 107 115 0 118 127 0 106 114 0 119 128 0 118 127 0 107 115 0 108 116 0 119 128 0 107 115 0 120 129 1 119 128 0 108 116 0 109 117 1 120 129 1 108 116 0 121 130 2 120 129 1 109 117 1 110 118 2 121 130 2 109 117 1 122 132 0 2 2 0 0 131 0 4 4 0 2 2 0 122 132 0 123 133 0 4 4 0 122 132 0 6 6 0 4 4 0 123 133 0 124 134 0 6 6 0 123 133 0 8 8 0 6 6 0 124 134 0 125 135 0 8 8 0 124 134 0 10 10 0 8 8 0 125 135 0 126 136 0 10 10 0 125 135 0 12 12 0 10 10 0 126 136 0 127 137 0 12 12 0 126 136 0 14 14 0 12 12 0 127 137 0 128 138 0 14 14 0 127 137 0 16 16 0 14 14 0 128 138 0 129 139 0 16 16 0 128 138 0 18 18 0 16 16 0 129 139 0 130 140 0 18 18 0 129 139 0 20 20 1 18 18 0 130 140 0 131 141 1 20 20 1 130 140 0 22 22 2 20 20 1 131 141 1 112 121 0 132 142 0 111 120 0 133 143 0 132 142 0 112 121 0 113 122 0 133 143 0 112 121 0 134 144 0 133 143 0 113 122 0 114 123 0 134 144 0 113 122 0 135 145 0 134 144 0 114 123 0 115 124 0 135 145 0 114 123 0 136 146 0 135 145 0 115 124 0 116 125 0 136 146 0 115 124 0 137 147 0 136 146 0 116 125 0 117 126 0 137 147 0 116 125 0 138 148 0 137 147 0 117 126 0 118 127 0 138 148 0 117 126 0 139 149 0 138 148 0 118 127 0 119 128 0 139 149 0 118 127 0 140 150 1 139 149 0 119 128 0 120 129 1 140 150 1 119 128 0 141 151 2 140 150 1 120 129 1 121 130 2 141 151 2 120 129 1 142 153 0 122 132 0 0 152 0 123 133 0 122 132 0 142 153 0 143 154 0 123 133 0 142 153 0 124 134 0 123 133 0 143 154 0 144 155 0 124 134 0 143 154 0 125 135 0 124 134 0 144 155 0 145 156 0 125 135 0 144 155 0 126 136 0 125 135 0 145 156 0 146 157 0 126 136 0 145 156 0 127 137 0 126 136 0 146 157 0 147 158 0 127 137 0 146 157 0 128 138 0 127 137 0 147 158 0 148 159 0 128 138 0 147 158 0 129 139 0 128 138 0 148 159 0 149 160 0 129 139 0 148 159 0 130 140 0 129 139 0 149 160 0 150 161 0 130 140 0 149 160 0 131 141 1 130 140 0 150 161 0 133 143 0 151 162 0 132 142 0 152 163 0 151 162 0 133 143 0 134 144 0 152 163 0 133 143 0 153 164 0 152 163 0 134 144 0 135 145 0 153 164 0 134 144 0 154 165 0 153 164 0 135 145 0 136 146 0 154 165 0 135 145 0 155 166 0 154 165 0 136 146 0 137 147 0 155 166 0 136 146 0 156 167 0 155 166 0 137 147 0 138 148 0 156 167 0 137 147 0 157 168 0 156 167 0 138 148 0 139 149 0 157 168 0 138 148 0 158 169 1 157 168 0 139 149 0 140 150 1 158 169 1 139 149 0 159 170 2 158 169 1 140 150 1 141 151 2 159 170 2 140 150 1 160 172 0 142 153 0 0 171 0 143 154 0 142 153 0 160 172 0 161 173 0 143 154 0 160 172 0 144 155 0 143 154 0 161 173 0 162 174 0 144 155 0 161 173 0 145 156 0 144 155 0 162 174 0 163 175 0 145 156 0 162 174 0 146 157 0 145 156 0 163 175 0 164 176 0 146 157 0 163 175 0 147 158 0 146 157 0 164 176 0 165 177 0 147 158 0 164 176 0 148 159 0 147 158 0 165 177 0 166 178 0 148 159 0 165 177 0 149 160 0 148 159 0 166 178 0 167 179 0 149 160 0 166 178 0 150 161 0 149 160 0 167 179 0 152 163 0 168 180 0 151 162 0 169 181 0 168 180 0 152 163 0 153 164 0 169 181 0 152 163 0 170 182 0 169 181 0 153 164 0 154 165 0 170 182 0 153 164 0 171 183 0 170 182 0 154 165 0 155 166 0 171 183 0 154 165 0 172 184 0 171 183 0 155 166 0 156 167 0 172 184 0 155 166 0 173 185 0 172 184 0 156 167 0 157 168 0 173 185 0 156 167 0 174 186 1 173 185 0 157 168 0 158 169 1 174 186 1 157 168 0 175 187 2 174 186 1 158 169 1 159 170 2 175 187 2 158 169 1 176 189 0 160 172 0 0 188 0 161 173 0 160 172 0 176 189 0 177 190 0 161 173 0 176 189 0 162 174 0 161 173 0 177 190 0 178 191 0 162 174 0 177 190 0 163 175 0 162 174 0 178 191 0 179 192 0 163 175 0 178 191 0 164 176 0 163 175 0 179 192 0 180 193 0 164 176 0 179 192 0 165 177 0 164 176 0 180 193 0 181 194 0 165 177 0 180 193 0 166 178 0 165 177 0 181 194 0 182 195 0 166 178 0 181 194 0 167 179 0 166 178 0 182 195 0 169 181 0 183 196 0 168 180 0 184 197 0 183 196 0 169 181 0 170 182 0 184 197 0 169 181 0 185 198 0 184 197 0 170 182 0 171 183 0 185 198 0 170 182 0 186 199 0 185 198 0 171 183 0 172 184 0 186 199 0 171 183 0 187 200 0 186 199 0 172 184 0 173 185 0 187 200 0 172 184 0 188 201 1 187 200 0 173 185 0 174 186 1 188 201 1 173 185 0 189 202 2 188 201 1 174 186 1 175 187 2 189 202 2 174 186 1 190 204 0 176 189 0 0 203 0 177 190 0 176 189 0 190 204 0 191 205 0 177 190 0 190 204 0 178 191 0 177 190 0 191 205 0 192 206 0 178 191 0 191 205 0 179 192 0 178 191 0 192 206 0 193 207 0 179 192 0 192 206 0 180 193 0 179 192 0 193 207 0 194 208 0 180 193 0 193 207 0 181 194 0 180 193 0 194 208 0 195 209 0 181 194 0 194 208 0 182 195 0 181 194 0 195 209 0 184 197 0 195 210 0 183 196 0 196 211 0 195 210 0 184 197 0 185 198 0 196 211 0 184 197 0 197 212 0 196 211 0 185 198 0 186 199 0 197 212 0 185 198 0 198 213 0 197 212 0 186 199 0 187 200 0 198 213 0 186 199 0 199 214 1 198 213 0 187 200 0 188 201 1 199 214 1 187 200 0 200 215 2 199 214 1 188 201 1 189 202 2 200 215 2 188 201 1 201 217 0 190 204 0 0 216 0 191 205 0 190 204 0 201 217 0 202 218 0 191 205 0 201 217 0 192 206 0 191 205 0 202 218 0 203 219 0 192 206 0 202 218 0 193 207 0 192 206 0 203 219 0 204 220 0 193 207 0 203 219 0 194 208 0 193 207 0 204 220 0 183 221 0 194 208 0 204 220 0 195 209 0 194 208 0 183 221 0 205 222 2 199 214 1 200 215 2 206 223 1 199 214 1 205 222 2 207 224 2 206 223 1 205 222 2 208 225 1 206 223 1 207 224 2 209 226 2 208 225 1 207 224 2 210 227 1 208 225 1 209 226 2 211 228 2 210 227 1 209 226 2 131 229 1 210 227 1 211 228 2 22 230 2 131 229 1 211 228 2 212 232 0 201 217 0 0 231 0 202 218 0 201 217 0 212 232 0 213 233 0 202 218 0 212 232 0 203 219 0 202 218 0 213 233 0 214 234 0 203 219 0 213 233 0 204 220 0 203 219 0 214 234 0 168 235 0 204 220 0 214 234 0 183 221 0 204 220 0 168 235 0 206 223 1 198 213 0 199 214 1 215 236 0 198 213 0 206 223 1 208 225 1 215 236 0 206 223 1 216 237 0 215 236 0 208 225 1 210 227 1 216 237 0 208 225 1 150 238 0 216 237 0 210 227 1 131 229 1 150 238 0 210 227 1 217 240 0 212 232 0 0 239 0 213 233 0 212 232 0 217 240 0 218 241 0 213 233 0 217 240 0 214 234 0 213 233 0 218 241 0 151 242 0 214 234 0 218 241 0 168 235 0 214 234 0 151 242 0 215 236 0 197 212 0 198 213 0 219 243 0 197 212 0 215 236 0 216 237 0 219 243 0 215 236 0 167 244 0 219 243 0 216 237 0 150 238 0 167 244 0 216 237 0 220 246 0 217 240 0 0 245 0 218 241 0 217 240 0 220 246 0 132 247 0 218 241 0 220 246 0 151 242 0 218 241 0 132 247 0 219 243 0 196 211 0 197 212 0 182 248 0 196 211 0 219 243 0 167 244 0 182 248 0 219 243 0 111 250 0 220 246 0 0 249 0 132 247 0 220 246 0 111 250 0 195 210 0 196 211 0 182 248 0</p>
                </polylist>
            </mesh>
        </geometry>
    </library_geometries>
    <library_controllers>
        <controller id="controller0">
            <skin source="#mesh0">
                <bind_shape_matrix>1 0 0 0 0 1 0 0 0 0 1 0 0 0 0 1</bind_shape_matrix>
                <source id="joints0">
                    <Name_array id="JointArr0" count="3">jointnode-1 jointnode0 jointnode1</Name_array>
                    <technique_common>
                        <accessor source="#JointArr0" count="3">
                            <param name="JOINT" type="Name" />
                        </accessor>
                    </technique_common>
                </source>
                <source id="matrices0">
                    <float_array id="MatArr0" count="48">1 0 0 0 0 1 0 0 0 0 1 0 0 0 0 1 0.866033393400969 0.49998616132289364 0 0 -0.49998616132289364 0.866033393400969 0 0 0 0 1 0 0 0 0 1 0.866033393400969 0.49998616132289364 0 0 -0.49998616132289364 0.866033393400969 0 0 0 0 1 0 0 0 0 1</float_array>
                    <technique_common>
                        <accessor source="#MatArr0" count="3" stride="16">
                            <param type="float4x4" />
                        </accessor>
                    </technique_common>
                </source>
                <source id="weights0">
                    <float_array id="WeightArr0" count="1">1</float_array>
                    <technique_common>
                        <accessor source="#WeightArr0" count="1">
                            <param type="float" />
                        </accessor>
                    </technique_common>
                </source>
                <joints>
                    <input semantic="JOINT" source="#joints0" />
                    <input semantic="INV_BIND_MATRIX" source="#matrices0" />
                </joints>
                <vertex_weights count="242">
                    <input semantic="JOINT" offset="0" source="#joints0" />
                    <input semantic="WEIGHT" offset="1" source="#weights0" />
                    <vcount>1 1 1 1 1 1 1 1 1 1 1 1 1 1 1 1 1 1 1 1 1 1 1 1 1 1 1 1 1 1 1 1 1 1 1 1 1 1 1 1 1 1 1 1 1 1 1 1 1 1 1 1 1 1 1 1 1 1 1 1 1 1 1 1 1 1 1 1 1 1 1 1 1 1 1 1 1 1 1 1 1 1 1 1 1 1 1 1 1 1 1 1 1 1 1 1 1 1 1 1 1 1 1 1 1 1 1 1 1 1 1 1 1 1 1 1 1 1 1 1 1 1 1 1 1 1 1 1 1 1 1 1 1 1 1 1 1 1 1 1 1 1 1 1 1 1 1 1 1 1 1 1 1 1 1 1 1 1 1 1 1 1 1 1 1 1 1 1 1 1 1 1 1 1 1 1 1 1 1 1 1 1 1 1 1 1 1 1 1 1 1 1 1 1 1 1 1 1 1 1 1 1 1 1 1 1 1 1 1 1 1 1 1 1 1 1 1 1 1 1 1 1 1 1 1 1 1 1 1 1 1 1 1 1 1 1 1 1 1 1 1 1</vcount>
                    <v>1 0 1 0 1 0 1 0 1 0 1 0 1 0 1 0 1 0 1 0 1 0 1 0 1 0 1 0 1 0 1 0 1 0 1 0 1 0 1 0 1 0 1 0 1 0 1 0 1 0 1 0 1 0 1 0 1 0 1 0 1 0 1 0 1 0 1 0 1 0 1 0 1 0 1 0 1 0 1 0 1 0 1 0 1 0 1 0 1 0 1 0 1 0 1 0 1 0 1 0 1 0 1 0 1 0 1 0 1 0 1 0 1 0 1 0 1 0 1 0 1 0 1 0 1 0 1 0 1 0 1 0 1 0 1 0 1 0 1 0 1 0 1 0 1 0 1 0 1 0 1 0 1 0 1 0 1 0 1 0 1 0 1 0 1 0 1 0 1 0 1 0 1 0 1 0 1 0 1 0 1 0 1 0 1 0 1 0 1 0 1 0 1 0 1 0 1 0 1 0 1 0 1 0 1 0 1 0 1 0 1 0 1 0 1 0 1 0 1 0 1 0 1 0 1 0 1 0 1 0 1 0 1 0 1 0 1 0 1 0 1 0 1 0 1 0 1 0 1 0 1 0 1 0 1 0 1 0 1 0 1 0 1 0 1 0 1 0 1 0 1 0 1 0 1 0 1 0 1 0 1 0 1 0 1 0 1 0 1 0 1 0 1 0 1 0 1 0 1 0 1 0 1 0 1 0 1 0 1 0 1 0 1 0 1 0 1 0 1 0 1 0 1 0 1 0 1 0 1 0 1 0 1 0 1 0 1 0 1 0 1 0 1 0 1 0 1 0 1 0 1 0 1 0 1 0 1 0 1 0 1 0 1 0 1 0 1 0 1 0 1 0 1 0 1 0 1 0 1 0 1 0 1 0 1 0 1 0 1 0 1 0 1 0 1 0 1 0 1 0 1 0 1 0 1 0 1 0 1 0 1 0 1 0 1 0 1 0 1 0 1 0 1 0 1 0 1 0 1 0 1 0 1 0 1 0 1 0 1 0 1 0 1 0 1 0 1 0 1 0 1 0 1 0 1 0 1 0 1 0 1 0 1 0 1 0 1 0 1 0 1 0 1 0 1 0 1 0 1 0 1 0 1 0</v>
                </vertex_weights>
            </skin>
        </controller>
        <controller id="controller1">
            <skin source="#mesh1">
                <bind_shape_matrix>1 0 0 0 0 1 0 0 0 0 1 0 0 0 0 1</bind_shape_matrix>
                <source id="joints1">
                    <Name_array id="JointArr1" count="3">jointnode-1 jointnode0 jointnode1</Name_array>
                    <technique_common>
                        <accessor source="#JointArr1" count="3">
                            <param name="JOINT" type="Name" />
                        </accessor>
                    </technique_common>
                </source>
                <source id="matrices1">
                    <float_array id="MatArr1" count="48">1 0 0 0 0 1 0 0 0 0 1 0 0 0 0 1 0.866033393400969 0.49998616132289364 0 0 -0.49998616132289364 0.866033393400969 0 0 0 0 1 0 0 0 0 1 0.866033393400969 0.49998616132289364 0 0 -0.49998616132289364 0.866033393400969 0 0 0 0 1 0 0 0 0 1</float_array>
                    <technique_common>
                        <accessor source="#MatArr1" count="3" stride="16">
                            <param type="float4x4" />
                        </accessor>
                    </technique_common>
                </source>
                <source id="weights1">
                    <float_array id="WeightArr1" count="1">1</float_array>
                    <technique_common>
                        <accessor source="#WeightArr1" count="1">
                            <param type="float" />
                        </accessor>
                    </technique_common>
                </source>
                <joints>
                    <input semantic="JOINT" source="#joints1" />
                    <input semantic="INV_BIND_MATRIX" source="#matrices1" />
                </joints>
                <vertex_weights count="221">
                    <input semantic="JOINT" offset="0" source="#joints1" />
                    <input semantic="WEIGHT" offset="1" source="#weights1" />
                    <vcount>1 1 1 1 1 1 1 1 1 1 1 1 1 1 1 1 1 1 1 1 1 1 1 1 1 1 1 1 1 1 1 1 1 1 1 1 1 1 1 1 1 1 1 1 1 1 1 1 1 1 1 1 1 1 1 1 1 1 1 1 1 1 1 1 1 1 1 1 1 1 1 1 1 1 1 1 1 1 1 1 1 1 1 1 1 1 1 1 1 1 1 1 1 1 1 1 1 1 1 1 1 1 1 1 1 1 1 1 1 1 1 1 1 1 1 1 1 1 1 1 1 1 1 1 1 1 1 1 1 1 1 1 1 1 1 1 1 1 1 1 1 1 1 1 1 1 1 1 1 1 1 1 1 1 1 1 1 1 1 1 1 1 1 1 1 1 1 1 1 1 1 1 1 1 1 1 1 1 1 1 1 1 1 1 1 1 1 1 1 1 1 1 1 1 1 1 1 1 1 1 1 1 1 1 1 1 1 1 1 1 1 1 1 1 1 1 1 1 1 1 1</vcount>
                    <v>2 0 2 0 2 0 2 0 2 0 2 0 2 0 2 0 2 0 2 0 2 0 2 0 2 0 2 0 2 0 2 0 2 0 2 0 2 0 2 0 2 0 2 0 2 0 2 0 2 0 2 0 2 0 2 0 2 0 2 0 2 0 2 0 2 0 2 0 2 0 2 0 2 0 2 0 2 0 2 0 2 0 2 0 2 0 2 0 2 0 2 0 2 0 2 0 2 0 2 0 2 0 2 0 2 0 2 0 2 0 2 0 2 0 2 0 2 0 2 0 2 0 2 0 2 0 2 0 2 0 2 0 2 0 2 0 2 0 2 0 2 0 2 0 2 0 2 0 2 0 2 0 2 0 2 0 2 0 2 0 2 0 2 0 2 0 2 0 2 0 2 0 2 0 2 0 2 0 2 0 2 0 2 0 2 0 2 0 2 0 2 0 2 0 2 0 2 0 2 0 2 0 2 0 2 0 2 0 2 0 2 0 2 0 2 0 2 0 2 0 2 0 2 0 2 0 2 0 2 0 2 0 2 0 2 0 2 0 2 0 2 0 2 0 2 0 2 0 2 0 2 0 2 0 2 0 2 0 2 0 2 0 2 0 2 0 2 0 2 0 2 0 2 0 2 0 2 0 2 0 2 0 2 0 2 0 2 0 2 0 2 0 2 0 2 0 2 0 2 0 2 0 2 0 2 0 2 0 2 0 2 0 2 0 2 0 2 0 2 0 2 0 2 0 2 0 2 0 2 0 2 0 2 0 2 0 2 0 2 0 2 0 2 0 2 0 2 0 2 0 2 0 2 0 2 0 2 0 2 0 2 0 2 0 2 0 2 0 2 0 2 0 2 0 2 0 2 0 2 0 2 0 2 0 2 0 2 0 2 0 2 0 2 0 2 0 2 0 2 0 2 0 2 0 2 0 2 0 2 0 2 0 2 0 2 0 2 0 2 0 2 0 2 0 2 0 2 0 2 0 2 0 2 0 2 0 2 0 2 0 2 0</v>
                </vertex_weights>
            </skin>
        </controller>
    </library_controllers>
    <library_visual_scenes>
        <visual_scene id="VisualSceneNode">
            <node id="node0" name="m0" type="NODE">
                <instance_controller url="#controller0">
                    <skeleton>#jointnode-1</skeleton>
                    <bind_material>
                        <technique_common>
                            <instance_material symbol="Material1" target="#mat0">
                                <bind_vertex_input semantic="UVSET0" input_semantic="TEXCOORD" input_set="0"></bind_vertex_input>
                            </instance_material>
                        </technique_common>
                    </bind_material>
                </instance_controller>
            </node>
            <node id="node1" name="m1" type="NODE">
                <instance_controller url="#controller1">
                    <skeleton>#jointnode-1</skeleton>
                    <bind_material>
                        <technique_common>
                            <instance_material symbol="Material1" target="#mat1">
                                <bind_vertex_input semantic="UVSET0" input_semantic="TEXCOORD" input_set="0"></bind_vertex_input>
                            </instance_material>
                        </technique_common>
                    </bind_material>
                </instance_controller>
            </node>
            <node id="jointnode-1" name="root" sid="jointnode-1" type="JOINT">
                <node id="jointnode0" name="CometIcon" sid="jointnode0" type="JOINT">
                    <rotate>0 0 1 29.99908444471572</rotate>
                    <node id="jointnode1" name="HaloF" sid="jointnode1" type="JOINT">
                    </node>
                </node>
            </node>
        </visual_scene>
    </library_visual_scenes>
    <scene>
        <instance_visual_scene url="#VisualSceneNode"></instance_visual_scene>
    </scene>
</COLLADA>
